<svg xmlns="http://www.w3.org/2000/svg" viewBox="0 0 66.61 49.14"><defs><style>.cls-1{isolation:isolate;}.cls-2{fill:#aab3b8;opacity:0.3;mix-blend-mode:multiply;}.cls-3{fill:#ffe084;}.cls-4{fill:#e8b017;}.cls-5{fill:#fff2bf;}.cls-6{fill:#4a7006;}.cls-7{fill:#7eb023;}</style></defs><g class="cls-1"><g id="Capa_2" data-name="Capa 2"><g id="Layer_1" data-name="Layer 1"><path class="cls-2" d="M64.28,41.42C63,36,58.29,25.66,45.75,28.12c-1.73.35-4.81.75-5.73,5.26s1.28,11,3.24,13C47.48,50.57,65.33,45.9,64.28,41.42Z"/><path class="cls-2" d="M40.5,46.26c.49-5.5-.78-16.84-13.46-18.4-1.76-.22-4.8-.79-7.09,3.21S17.73,42,19,44.42C21.68,49.73,40.1,50.85,40.5,46.26Z"/><path class="cls-2" d="M53.4,19.32C52.46,13.25,48,1.3,33.66,2.73c-2,.2-5.5.32-6.95,5.21s.46,12.34,2.5,14.69C33.6,27.7,54.18,24.39,53.4,19.32Z"/><path class="cls-2" d="M65.64,28.37c.33-5.52,5.29-19.56-11-18.43-1.77.12-4.82-.67-7,3.39s-2.94,10.32-1.63,12.74C48.9,31.3,65.35,33,65.64,28.37Z"/><path class="cls-3" d="M31,19.3l0,0a1,1,0,0,0-.12-.23,1.36,1.36,0,0,0-1.9-.32l-.17.14a1.34,1.34,0,0,0-.25-.73,1.35,1.35,0,0,0-1.89-.33l-.14.12a1.42,1.42,0,0,0-.23-.64A1.37,1.37,0,0,0,24.36,17a1.35,1.35,0,0,0-2.11-1,1.35,1.35,0,0,0-2.14-1.2.69.69,0,0,0-.13.11,1.34,1.34,0,0,0-.23-.63,1.37,1.37,0,0,0-1.83-.37,1.31,1.31,0,0,0-.25-.72A1.35,1.35,0,0,0,16,12.76a1.3,1.3,0,0,0-.24-.95,1.36,1.36,0,0,0-2.47.82,1.37,1.37,0,0,0-1.49,0,1.38,1.38,0,0,0-.57,1.22,1.32,1.32,0,0,0-1.08.21,1.36,1.36,0,0,0-.51,1.5,1.36,1.36,0,0,0-1.71,1.48,1.35,1.35,0,0,0-1.1.2,1.37,1.37,0,0,0-.49,1.58,1.35,1.35,0,0,0-1.68,1.72,1.33,1.33,0,0,0-1.14.19A1.35,1.35,0,0,0,3,22.44a1.35,1.35,0,0,0-1.08.21,1.37,1.37,0,0,0-.48,1.61,1.31,1.31,0,0,0-.87.24,1.36,1.36,0,0,0-.33,1.9,1.34,1.34,0,0,0,1.57.48,1.43,1.43,0,0,0,.24.68,1.37,1.37,0,0,0,1.84.36,1.35,1.35,0,0,0,1.94,1.32,1.4,1.4,0,0,0,.24.69,1.38,1.38,0,0,0,1.73.42A1.37,1.37,0,0,0,8,31.3a1.35,1.35,0,0,0,1.76.4,1.31,1.31,0,0,0,.25.73,1.35,1.35,0,0,0,1.89.33l.12-.1a1.31,1.31,0,0,0,.23.58,1.34,1.34,0,0,0,1.78.39,1.41,1.41,0,0,0,.24.79,1.35,1.35,0,0,0,1.73.41,1.45,1.45,0,0,0,.24.59,1.36,1.36,0,0,0,2.44-1,1.34,1.34,0,0,0,1-.22,1.36,1.36,0,0,0,.49-1.57,1.33,1.33,0,0,0,1.12-.2,1.36,1.36,0,0,0,.49-1.57,1.34,1.34,0,0,0,1.19-.19,1.37,1.37,0,0,0,.55-1.33,1.32,1.32,0,0,0,1-.23,1.36,1.36,0,0,0,.57-1.21,1.33,1.33,0,0,0,1.08-.22,1.35,1.35,0,0,0,.54-1.41,1.34,1.34,0,0,0,1.4-1.5,1.35,1.35,0,0,0,1.67-1.59,1.33,1.33,0,0,0,1.07-.22,1.31,1.31,0,0,0,.57-1.17,1.37,1.37,0,0,0,1.05-.23A1.36,1.36,0,0,0,31,19.3Z"/><path class="cls-4" d="M1.24,26.73A1.3,1.3,0,0,1,1,26.06a1.32,1.32,0,0,1-.92,0,1.26,1.26,0,0,0,.17.35A1.38,1.38,0,0,0,1.44,27,1.5,1.5,0,0,1,1.24,26.73Z"/><path class="cls-4" d="M21.43,15.16a1.27,1.27,0,0,1,.45-.19,1.29,1.29,0,0,0-.54-.36A1.51,1.51,0,0,1,21.43,15.16Z"/><path class="cls-4" d="M17.42,12.94a1.29,1.29,0,0,0-.39-.23,1.15,1.15,0,0,1,.06.37A1.17,1.17,0,0,1,17.42,12.94Z"/><path class="cls-4" d="M15.12,11.93a1.53,1.53,0,0,1,.59-.13,1.39,1.39,0,0,0-.66-.49A1.32,1.32,0,0,1,15.12,11.93Z"/><path class="cls-4" d="M19.29,14l.09-.05a1.23,1.23,0,0,0-.29-.13c0,.1.05.2.07.3Z"/><path class="cls-4" d="M28.09,17.94l.12-.06a1.9,1.9,0,0,0-.37-.2,1.15,1.15,0,0,1,.08.41Z"/><path class="cls-4" d="M23.82,16a1,1,0,0,0-.36-.19,1.21,1.21,0,0,1,.07.33A1.11,1.11,0,0,1,23.82,16Z"/><path class="cls-4" d="M25.78,17l.09-.05a1.11,1.11,0,0,0-.29-.14,1.63,1.63,0,0,1,.07.3A.69.69,0,0,1,25.78,17Z"/><path class="cls-4" d="M5.26,29.1A1.28,1.28,0,0,1,5,28.41a1.39,1.39,0,0,1-1,.05,1.31,1.31,0,0,0,.16.34,1.33,1.33,0,0,0,1.36.53A1.05,1.05,0,0,1,5.26,29.1Z"/><path class="cls-4" d="M3.32,28a1.33,1.33,0,0,1-.25-.88,1.34,1.34,0,0,1-1.18.13,1.54,1.54,0,0,0,.17.34,1.35,1.35,0,0,0,1.38.54A.74.74,0,0,1,3.32,28Z"/><path class="cls-4" d="M13.49,33.59a1.34,1.34,0,0,1-.25-.78,1.34,1.34,0,0,1-1.12.08,1.26,1.26,0,0,0,.17.35,1.33,1.33,0,0,0,1.38.53A1.53,1.53,0,0,1,13.49,33.59Z"/><path class="cls-4" d="M15.45,34.6a1.35,1.35,0,0,1-.23-.59,1.31,1.31,0,0,1-1.08.05,1.49,1.49,0,0,0,.17.36,1.36,1.36,0,0,0,1.47.5A1.43,1.43,0,0,1,15.45,34.6Z"/><path class="cls-4" d="M11.46,32.42a1.31,1.31,0,0,1-.23-.58l-.11.09a1.32,1.32,0,0,1-1.24.17,1,1,0,0,0,.17.33,1.34,1.34,0,0,0,1.83.36A1.34,1.34,0,0,1,11.46,32.42Z"/><path class="cls-4" d="M9.22,31.61A1.34,1.34,0,0,1,9,30.88a1.36,1.36,0,0,1-1.1.07A1.62,1.62,0,0,0,8,31.3a1.36,1.36,0,0,0,1.38.53A2.09,2.09,0,0,1,9.22,31.61Z"/><path class="cls-4" d="M32.86,19.63a1.35,1.35,0,0,0-.66-.5,1.36,1.36,0,0,1-.49,1.57,1.34,1.34,0,0,1-1,.22,1.37,1.37,0,0,1-.57,1.18,1.34,1.34,0,0,1-1.07.21,1.37,1.37,0,0,1-.55,1.4,1.33,1.33,0,0,1-1.12.2,1.36,1.36,0,0,1-.56,1.25,1.38,1.38,0,0,1-.84.25A1.35,1.35,0,0,1,24.33,27a1.36,1.36,0,0,1-.56,1.22,1.39,1.39,0,0,1-1,.23A1.34,1.34,0,0,1,21,30a1.34,1.34,0,0,1-.48,1.57,1.39,1.39,0,0,1-1.13.21,1.35,1.35,0,0,1-.49,1.56,1.33,1.33,0,0,1-1,.23,1.36,1.36,0,0,1-1.79,1.53,1,1,0,0,0,.17.33,1.36,1.36,0,0,0,2.44-1,1.34,1.34,0,0,0,1-.22,1.36,1.36,0,0,0,.49-1.57,1.33,1.33,0,0,0,1.12-.2,1.36,1.36,0,0,0,.49-1.57,1.34,1.34,0,0,0,1.19-.19,1.37,1.37,0,0,0,.55-1.33,1.32,1.32,0,0,0,1-.23,1.36,1.36,0,0,0,.57-1.21,1.33,1.33,0,0,0,1.08-.22,1.35,1.35,0,0,0,.54-1.41,1.34,1.34,0,0,0,1.4-1.5,1.35,1.35,0,0,0,1.67-1.59,1.33,1.33,0,0,0,1.07-.22,1.31,1.31,0,0,0,.57-1.17,1.37,1.37,0,0,0,1.05-.23A1.36,1.36,0,0,0,32.86,19.63Z"/><path class="cls-4" d="M7.22,30.47A1.3,1.3,0,0,1,7,29.52a1.29,1.29,0,0,1-1.07.05,1.31,1.31,0,0,0,.17.36,1.35,1.35,0,0,0,1.14.55Z"/><path class="cls-5" d="M22.83,15.94a1.32,1.32,0,0,1,.25.87,1.34,1.34,0,0,1,1.21-.15,1.48,1.48,0,0,0-.17-.33,1.34,1.34,0,0,0-1.41-.54A.88.88,0,0,1,22.83,15.94Z"/><path class="cls-5" d="M25,17.15a1.32,1.32,0,0,1,.23.67,1.37,1.37,0,0,1,1.22-.16,1.66,1.66,0,0,0-.16-.33,1.36,1.36,0,0,0-1.6-.48A1.46,1.46,0,0,1,25,17.15Z"/><path class="cls-5" d="M20.57,15.09a1.44,1.44,0,0,1,.24.64l.13-.12a1.34,1.34,0,0,1,1.22-.17,1.61,1.61,0,0,0-.15-.33,1.36,1.36,0,0,0-1.81-.37A1.37,1.37,0,0,1,20.57,15.09Z"/><path class="cls-5" d="M18.5,14a1.38,1.38,0,0,1,.24.72,1.35,1.35,0,0,1,1.17-.13,1.44,1.44,0,0,0-.16-.33,1.36,1.36,0,0,0-1.5-.51A1.18,1.18,0,0,1,18.5,14Z"/><path class="cls-5" d="M8.05,31.3a1.3,1.3,0,0,0,.65.47,1.36,1.36,0,0,1-.07-.6A1.17,1.17,0,0,1,8.05,31.3Z"/><path class="cls-5" d="M16.54,12.63a1.37,1.37,0,0,1,.23.95,1.4,1.4,0,0,1,1.08-.05,1.29,1.29,0,0,0-.18-.35,1.31,1.31,0,0,0-1.14-.55Z"/><path class="cls-5" d="M29.33,19a1.37,1.37,0,0,1,.25.74,1.29,1.29,0,0,1,.17-.15,1.35,1.35,0,0,1,1.89.33,1.27,1.27,0,0,1,.13.22h0A1.32,1.32,0,0,1,33,20a1.29,1.29,0,0,0-.17-.33A1.35,1.35,0,0,0,31,19.3l0,0a1,1,0,0,0-.12-.23A1.37,1.37,0,0,0,29,18.7,1.7,1.7,0,0,1,29.33,19Z"/><path class="cls-5" d="M27.06,18.16a1.36,1.36,0,0,1,.24.63.69.69,0,0,1,.13-.11,1.35,1.35,0,0,1,1.24-.17,1,1,0,0,0-.17-.33,1.36,1.36,0,0,0-1.81-.38A1.27,1.27,0,0,1,27.06,18.16Z"/><path class="cls-5" d="M10.71,32.93a1.44,1.44,0,0,1-.09-.4,1.29,1.29,0,0,1-.38.12A1.34,1.34,0,0,0,10.71,32.93Z"/><path class="cls-5" d="M6.73,30.4a1.35,1.35,0,0,1-.06-.34,1.4,1.4,0,0,1-.35.1A1.69,1.69,0,0,0,6.73,30.4Z"/><path class="cls-5" d="M4.8,29.28a1.61,1.61,0,0,1-.08-.54,1.27,1.27,0,0,1-.45.19A1.33,1.33,0,0,0,4.8,29.28Z"/><path class="cls-5" d="M2.72,28.05a1.37,1.37,0,0,1-.07-.34,1.78,1.78,0,0,1-.39.07A1.43,1.43,0,0,0,2.72,28.05Z"/><path class="cls-5" d="M15,34.89a1.55,1.55,0,0,1-.07-.43,1.4,1.4,0,0,1-.39.14A1.32,1.32,0,0,0,15,34.89Z"/><path class="cls-5" d="M1.4,25.32a1.33,1.33,0,0,1,.87-.24,1.35,1.35,0,0,1,1.56-1.81,1.38,1.38,0,0,1,.46-1.66,1.34,1.34,0,0,1,1.14-.2,1.36,1.36,0,0,1,1.69-1.72,1.36,1.36,0,0,1,.49-1.57,1.32,1.32,0,0,1,1.1-.21,1.36,1.36,0,0,1,.55-1.28,1.38,1.38,0,0,1,1.16-.19A1.35,1.35,0,0,1,12,14.72a1.34,1.34,0,0,1,.57-1.21,1.37,1.37,0,0,1,1.49-.06,1.32,1.32,0,0,1,.57-1.14,1.35,1.35,0,0,1,1.24-.17,1,1,0,0,0-.17-.33,1.36,1.36,0,0,0-2.47.82,1.37,1.37,0,0,0-1.49,0,1.38,1.38,0,0,0-.57,1.22,1.32,1.32,0,0,0-1.08.21,1.36,1.36,0,0,0-.51,1.5,1.36,1.36,0,0,0-1.71,1.48,1.35,1.35,0,0,0-1.1.2,1.37,1.37,0,0,0-.49,1.58,1.35,1.35,0,0,0-1.68,1.72,1.33,1.33,0,0,0-1.14.19A1.35,1.35,0,0,0,3,22.44a1.35,1.35,0,0,0-1.08.21,1.37,1.37,0,0,0-.48,1.61,1.31,1.31,0,0,0-.87.24,1.36,1.36,0,0,0-.33,1.9,1.37,1.37,0,0,0,.66.48A1.35,1.35,0,0,1,1.4,25.32Z"/><path class="cls-5" d="M12.71,33.62l.23.1c0-.08,0-.16-.06-.23a.87.87,0,0,1-.11.09Z"/><path class="cls-5" d="M16.94,35.92a1.25,1.25,0,0,1-.07-.26,1.2,1.2,0,0,1-.27.08A1.24,1.24,0,0,0,16.94,35.92Z"/><path class="cls-4" d="M23.07,20.89a4.28,4.28,0,0,0-1.74-1.81l.09.16c.62,1.55-.43,3-1.43,4.13-1.39,1.59-3.7,4.45-6.06,4.39a10.67,10.67,0,0,1-5.28-2c-.23-.13-.47-.29-.71-.45a6.26,6.26,0,0,0,2.36,2.1,10.67,10.67,0,0,0,5.28,1.95c2.36.06,4.67-2.8,6.06-4.39C22.64,23.9,23.69,22.44,23.07,20.89Z"/><path class="cls-5" d="M9.34,25.66A7.68,7.68,0,0,1,12,21.5a5.51,5.51,0,0,1,6.72-2.7A26.68,26.68,0,0,1,23,20.73c-.91-1.83-4.22-2.89-5.89-3.58a5.51,5.51,0,0,0-6.72,2.7A7.68,7.68,0,0,0,7.69,24c-.2,1.35.86,2.3,1.9,3A2.19,2.19,0,0,1,9.34,25.66Z"/><path class="cls-3" d="M32.75,31.87h0a1.13,1.13,0,0,0,0,.26,1.35,1.35,0,0,0,1.46,1.25.85.85,0,0,0,.22,0,1.42,1.42,0,0,0-.17.76,1.38,1.38,0,0,0,1.46,1.26l.18,0a1.39,1.39,0,0,0-.13.67,1.36,1.36,0,0,0,1.44,1.25,1.49,1.49,0,0,0-.14.7,1.36,1.36,0,0,0,1.43,1.25,1.39,1.39,0,0,0-.24.88,1.36,1.36,0,0,0,1.46,1.25l.18,0a1.24,1.24,0,0,0-.13.66,1.37,1.37,0,0,0,1.38,1.26A1.32,1.32,0,0,0,41,44a1.36,1.36,0,0,0,1.26,1.25,1.36,1.36,0,0,0,1.18,2.19,1.36,1.36,0,0,0,1.08-.69,1.38,1.38,0,0,0,1.31.72,1.35,1.35,0,0,0,1.1-.75A1.35,1.35,0,0,0,49.19,46a1.35,1.35,0,0,0,2.23-.38,1.34,1.34,0,0,0,2.27-.71,1.4,1.4,0,0,0,1.12.45A1.34,1.34,0,0,0,56,44.31a1.36,1.36,0,0,0,2.33-.78,1.35,1.35,0,0,0,2.27-.75,1.32,1.32,0,0,0,.87.24,1.36,1.36,0,0,0,.16-2.69,1.38,1.38,0,0,0,.14-.7,1.35,1.35,0,0,0-1.39-1.25,1.34,1.34,0,0,0,.24-.88,1.36,1.36,0,0,0-1.23-1.25,1.32,1.32,0,0,0,.14-.71,1.35,1.35,0,0,0-1.26-1.25,1.41,1.41,0,0,0,.29-.94,1.37,1.37,0,0,0-1.3-1.25,1.36,1.36,0,0,0,.16-.75A1.37,1.37,0,0,0,56,30.09l-.15,0a1.43,1.43,0,0,0,.11-.62,1.37,1.37,0,0,0-1.33-1.25,1.33,1.33,0,0,0,.19-.79,1.35,1.35,0,0,0-1.27-1.25,1.36,1.36,0,1,0-2.53-1,1.35,1.35,0,0,0-2.23.75,1.36,1.36,0,0,0-2.3.7,1.33,1.33,0,0,0-1.11-.45,1.35,1.35,0,0,0-1.15.85,1.41,1.41,0,0,0-1-.31,1.38,1.38,0,0,0-1.11.75,1.35,1.35,0,0,0-2.22.57,1.4,1.4,0,0,0-.85-.23,1.35,1.35,0,0,0-1.12.79,1.4,1.4,0,0,0-1.07-.41,1.38,1.38,0,0,0-1.19.92,1.36,1.36,0,0,0-2.12.35,1.4,1.4,0,0,0-1-.34,1.36,1.36,0,1,0,.21,2.71Z"/><path class="cls-4" d="M56.62,30.52a1.33,1.33,0,0,1-.17.76,1.34,1.34,0,0,1,1,.46,1.29,1.29,0,0,0,0-.39,1.35,1.35,0,0,0-.9-1.18A1.37,1.37,0,0,1,56.62,30.52Z"/><path class="cls-4" d="M52.81,24.76a1.43,1.43,0,0,1-.11.62,1.36,1.36,0,0,1,.92.44.92.92,0,0,0,0-.24,1.34,1.34,0,0,0-.91-1.17A1,1,0,0,1,52.81,24.76Z"/><path class="cls-4" d="M54,26.63a1.31,1.31,0,0,1-.19.8,1.35,1.35,0,0,1,1,.45,1.5,1.5,0,0,0,0-.42,1.35,1.35,0,0,0-.9-1.17A1.86,1.86,0,0,1,54,26.63Z"/><path class="cls-4" d="M55.11,28.68a1.31,1.31,0,0,1-.1.62.8.8,0,0,1,.15,0,1.31,1.31,0,0,1,.76.17A1.35,1.35,0,0,0,55,28.33,1.37,1.37,0,0,1,55.11,28.68Z"/><path class="cls-4" d="M61,38.8a1.3,1.3,0,0,1-.14.71,1.34,1.34,0,0,1,.89.63,1.24,1.24,0,0,0,.08-.51,1.35,1.35,0,0,0-.91-1.17A1.3,1.3,0,0,1,61,38.8Z"/><path class="cls-4" d="M59.82,36.67a1.34,1.34,0,0,1-.25.88,1.37,1.37,0,0,1,1,.43,1.27,1.27,0,0,0,0-.48,1.33,1.33,0,0,0-.91-1.16A1.24,1.24,0,0,1,59.82,36.67Z"/><path class="cls-4" d="M58.73,34.71a1.36,1.36,0,0,1-.15.72,1.3,1.3,0,0,1,.93.52.94.94,0,0,0,0-.41,1.33,1.33,0,0,0-.91-1.16A1.15,1.15,0,0,1,58.73,34.71Z"/><path class="cls-4" d="M57.75,32.52a1.29,1.29,0,0,1-.29.94,1.36,1.36,0,0,1,1,.56,1.49,1.49,0,0,0,.13-.67,1.36,1.36,0,0,0-.9-1.17A1.86,1.86,0,0,1,57.75,32.52Z"/><path class="cls-4" d="M33.62,32.52l-.22,0a1.44,1.44,0,0,1-.55-.08,1.3,1.3,0,0,0,.61.73A1.43,1.43,0,0,1,33.62,32.52Z"/><path class="cls-4" d="M36.41,36.42a1.6,1.6,0,0,1-.54-.07,1.43,1.43,0,0,0,.41.58A1.28,1.28,0,0,1,36.41,36.42Z"/><path class="cls-4" d="M39,41.13a1.51,1.51,0,0,1,.13-.67,1,1,0,0,1-.17,0,1.31,1.31,0,0,1-.56-.07,1.37,1.37,0,0,0,.61.73Z"/><path class="cls-4" d="M35,35.17a1.36,1.36,0,0,1,.12-.67.86.86,0,0,1-.17,0,1.31,1.31,0,0,1-.56-.07,1.36,1.36,0,0,0,.61.72Z"/><path class="cls-4" d="M61.84,40.4a2,2,0,0,1,.08.33,1.37,1.37,0,0,1-1.25,1.47,1.4,1.4,0,0,1-.88-.25,1.35,1.35,0,0,1-1.23,1.13,1.38,1.38,0,0,1-1-.37,1.35,1.35,0,0,1-2.32.77A1.35,1.35,0,0,1,54,44.54a1.33,1.33,0,0,1-1.11-.45,1.35,1.35,0,0,1-2.28.71,1.34,1.34,0,0,1-1.13.81,1.31,1.31,0,0,1-1.09-.42,1.37,1.37,0,0,1-1.21,1,1.35,1.35,0,0,1-1-.38A1.37,1.37,0,0,1,45,46.6a1.35,1.35,0,0,1-1.3-.72,1.4,1.4,0,0,1-1.09.69,1.44,1.44,0,0,1-.55-.08,1.35,1.35,0,0,0,2.46.21,1.38,1.38,0,0,0,1.31.72,1.35,1.35,0,0,0,1.1-.75A1.35,1.35,0,0,0,49.19,46a1.35,1.35,0,0,0,2.23-.38,1.34,1.34,0,0,0,2.27-.71,1.4,1.4,0,0,0,1.12.45A1.34,1.34,0,0,0,56,44.31a1.36,1.36,0,0,0,2.33-.78,1.35,1.35,0,0,0,2.27-.75,1.32,1.32,0,0,0,.87.24,1.35,1.35,0,0,0,.35-2.62Z"/><path class="cls-4" d="M31.94,31.3a1,1,0,0,1,0-.25h0a1.44,1.44,0,0,1-.55-.07,1.37,1.37,0,0,0,.68.76A1.58,1.58,0,0,1,31.94,31.3Z"/><path class="cls-4" d="M40.35,42.38a1.51,1.51,0,0,1-.48-.08,1.42,1.42,0,0,0,.34.53A1.18,1.18,0,0,1,40.35,42.38Z"/><path class="cls-4" d="M37.7,38.37a1.34,1.34,0,0,1-.53-.08,1.36,1.36,0,0,0,.33.51A1.3,1.3,0,0,1,37.7,38.37Z"/><path class="cls-4" d="M41.45,44.37a1.05,1.05,0,0,1-.35-.08,1.19,1.19,0,0,0,.19.35A1.28,1.28,0,0,1,41.45,44.37Z"/><path class="cls-5" d="M59.12,35.11a1.5,1.5,0,0,1,.35.09,1.55,1.55,0,0,0-.19-.36A1.75,1.75,0,0,1,59.12,35.11Z"/><path class="cls-5" d="M56.76,30.33a1.31,1.31,0,0,1-.1.62l.15,0a1.27,1.27,0,0,1,.55.07,1.37,1.37,0,0,0-.61-.73S56.76,30.31,56.76,30.33Z"/><path class="cls-5" d="M60.23,37.08a1.77,1.77,0,0,1,.33.08,1.87,1.87,0,0,0-.22-.39A1.63,1.63,0,0,1,60.23,37.08Z"/><path class="cls-5" d="M58.1,32.93a1.1,1.1,0,0,1,.4.08,1.43,1.43,0,0,0-.26-.45A1.28,1.28,0,0,1,58.1,32.93Z"/><path class="cls-5" d="M55.43,29.08a1.26,1.26,0,0,1,.43.08,1.43,1.43,0,0,0-.27-.46A1.61,1.61,0,0,1,55.43,29.08Z"/><path class="cls-5" d="M54.35,27a1.53,1.53,0,0,1,.37.08,1.21,1.21,0,0,0-.28-.46A1.24,1.24,0,0,1,54.35,27Z"/><path class="cls-5" d="M61.22,39.2a1.57,1.57,0,0,1,.49.08,1.66,1.66,0,0,0-.29-.48A1.36,1.36,0,0,1,61.22,39.2Z"/><path class="cls-5" d="M62.47,41.16a1.07,1.07,0,0,1,.19.07,1.23,1.23,0,0,0-.12-.26A1.46,1.46,0,0,1,62.47,41.16Z"/><path class="cls-5" d="M35.11,34.93a1.3,1.3,0,0,1,.17-.76l-.23,0a1.31,1.31,0,0,1-.76-.17s0,0,0,.06a1.37,1.37,0,0,0,.91,1.18A1.37,1.37,0,0,1,35.11,34.93Z"/><path class="cls-5" d="M41.84,44.78A1.28,1.28,0,0,1,42,44a1.34,1.34,0,0,1-1-.38,1.51,1.51,0,0,0,0,.3,1.33,1.33,0,0,0,.91,1.16A1.23,1.23,0,0,1,41.84,44.78Z"/><path class="cls-5" d="M40.62,42.78a1.38,1.38,0,0,1,.12-.67,1,1,0,0,1-.17,0,1.3,1.3,0,0,1-.78-.17,1.37,1.37,0,0,0,.9,1.16A1.36,1.36,0,0,1,40.62,42.78Z"/><path class="cls-5" d="M39.11,40.89a1.31,1.31,0,0,1,.24-.87,1.37,1.37,0,0,1-1-.39,1.27,1.27,0,0,0,0,.44,1.36,1.36,0,0,0,.91,1.18A1.45,1.45,0,0,1,39.11,40.89Z"/><path class="cls-5" d="M42.81,47A1.41,1.41,0,0,1,43.1,46a1.3,1.3,0,0,1-1-.55,1.26,1.26,0,0,0-.13.67,1.37,1.37,0,0,0,.9,1.18A1.45,1.45,0,0,1,42.81,47Z"/><path class="cls-5" d="M32.11,31.45A1.36,1.36,0,0,1,33.36,30a1.33,1.33,0,0,1,1,.34A1.35,1.35,0,0,1,36.5,30a1.35,1.35,0,0,1,2.25-.51,1.35,1.35,0,0,1,1.13-.79,1.28,1.28,0,0,1,.84.22A1.36,1.36,0,0,1,41.91,28a1.34,1.34,0,0,1,1,.37,1.36,1.36,0,0,1,1.11-.75,1.34,1.34,0,0,1,1,.31,1.35,1.35,0,0,1,2.27-.41,1.36,1.36,0,0,1,1.23-1.1,1.33,1.33,0,0,1,1.06.41,1.34,1.34,0,0,1,2.23-.75A1.36,1.36,0,0,1,53,25.16a1.27,1.27,0,0,1,.55.07,1.35,1.35,0,0,0-2.55,0,1.35,1.35,0,0,0-2.23.75,1.36,1.36,0,0,0-2.3.7,1.33,1.33,0,0,0-1.11-.45,1.35,1.35,0,0,0-1.15.85,1.41,1.41,0,0,0-1-.31,1.38,1.38,0,0,0-1.11.75,1.35,1.35,0,0,0-2.22.57,1.4,1.4,0,0,0-.85-.23,1.35,1.35,0,0,0-1.12.79,1.4,1.4,0,0,0-1.07-.41,1.38,1.38,0,0,0-1.19.92,1.36,1.36,0,0,0-2.12.35,1.4,1.4,0,0,0-1-.34,1.36,1.36,0,0,0-.35,2.64A1.37,1.37,0,0,1,32.11,31.45Z"/><path class="cls-5" d="M33.59,33a1,1,0,0,1,0-.25h0a1.25,1.25,0,0,1-.69-.14,1.39,1.39,0,0,0,.79.75A1.35,1.35,0,0,1,33.59,33Z"/><path class="cls-5" d="M37.92,38.76a1.26,1.26,0,0,1,.14-.69,1.36,1.36,0,0,1-1-.31,1.1,1.1,0,0,0,0,.18A1.4,1.4,0,0,0,38,39.12,1.35,1.35,0,0,1,37.92,38.76Z"/><path class="cls-5" d="M36.62,36.82a1.36,1.36,0,0,1,.12-.67.86.86,0,0,1-.17,0A1.33,1.33,0,0,1,35.8,36a1.33,1.33,0,0,0,.9,1.16A1.37,1.37,0,0,1,36.62,36.82Z"/><path class="cls-4" d="M54.67,35.48a11.37,11.37,0,0,0-3.14-4.1A16.32,16.32,0,0,1,53,33.83c.65,1.24,1.53,3,.46,4.31a7.73,7.73,0,0,1-4.42,2.19,5.63,5.63,0,0,1-5.93,0l.42.54A5.51,5.51,0,0,0,50.71,42a7.73,7.73,0,0,0,4.42-2.19C56.2,38.49,55.32,36.72,54.67,35.48Z"/><path class="cls-5" d="M42,36.21c.25-1.65,1.9-2.35,3.33-2.81,2-.64,5.46-1.91,7.46-.65l.39.28a8,8,0,0,0-2-1.93c-2-1.26-5.45,0-7.46.65-1.43.46-3.08,1.16-3.34,2.81-.31,2.06,2.09,4.79,3.21,6.28A4.63,4.63,0,0,0,44.78,42C43.58,40.4,41.71,38,42,36.21Z"/><path class="cls-3" d="M52.67,18.49h0a1.36,1.36,0,0,0,0-.29,1.52,1.52,0,0,0-1.52-1.52l-.25,0a1.59,1.59,0,0,0,.25-.83,1.53,1.53,0,0,0-1.53-1.53l-.19,0a1.5,1.5,0,0,0,.19-.73,1.53,1.53,0,0,0-1.5-1.53,1.5,1.5,0,0,0,.22-.76,1.53,1.53,0,0,0-1.49-1.52,1.52,1.52,0,0,0-1.18-2.48l-.2,0a1.54,1.54,0,0,0,.2-.74,1.52,1.52,0,0,0-1.44-1.51,1.47,1.47,0,0,0,.25-.82,1.51,1.51,0,0,0-1.31-1.5A1.52,1.52,0,1,0,40.78.92a1.52,1.52,0,0,0-2.7-.18A1.55,1.55,0,0,0,37,.24a1.52,1.52,0,0,0-1.44,1.05A1.5,1.5,0,0,0,34.33.72a1.52,1.52,0,0,0-1.34.8A1.5,1.5,0,0,0,31.85,1a1.52,1.52,0,0,0-1.46,1.12,1.51,1.51,0,0,0-2.66.49,1.5,1.5,0,0,0-1.17-.56,1.52,1.52,0,0,0-1.49,1.22,1.51,1.51,0,0,0-2.6.65,1.52,1.52,0,1,0-1.36,2.64,1.57,1.57,0,0,0-.22.78,1.52,1.52,0,0,0,1.45,1.51,1.52,1.52,0,0,0-.35,1,1.53,1.53,0,0,0,1.27,1.5,1.48,1.48,0,0,0-.22.78,1.53,1.53,0,0,0,1.3,1.51,1.51,1.51,0,0,0,.95,2.52A1.5,1.5,0,0,0,25,17a1.53,1.53,0,0,0,1.52,1.53l.17,0a1.59,1.59,0,0,0-.17.68,1.52,1.52,0,0,0,1.38,1.51,1.49,1.49,0,0,0-.28.88A1.51,1.51,0,0,0,29,23a1.6,1.6,0,0,0-.17.69,1.52,1.52,0,0,0,2.91.63,1.53,1.53,0,0,0,2.56-.65,1.51,1.51,0,0,0,2.62-.58,1.51,1.51,0,0,0,2.57-.26,1.56,1.56,0,0,0,1.06.43,1.5,1.5,0,0,0,1.3-.74,1.55,1.55,0,0,0,1.13.5,1.53,1.53,0,0,0,1.41-.94,1.51,1.51,0,0,0,2.25-.46,1.52,1.52,0,0,0,2.56-.38,1.52,1.52,0,0,0,2.4-.21,1.53,1.53,0,1,0,1.1-2.58Z"/><path class="cls-4" d="M46.27,7.94a1.46,1.46,0,0,1-.35,1,1.52,1.52,0,0,1,1.14.56,1.45,1.45,0,0,0,.13-.59,1.51,1.51,0,0,0-1-1.43A1.45,1.45,0,0,1,46.27,7.94Z"/><path class="cls-4" d="M44.74,5.7a1.5,1.5,0,0,1-.19.73l.19,0a1.49,1.49,0,0,1,.91.31.3.3,0,0,0,0-.1,1.51,1.51,0,0,0-1-1.42A1.39,1.39,0,0,1,44.74,5.7Z"/><path class="cls-4" d="M43.55,3.36a1.49,1.49,0,0,1-.24.82,1.55,1.55,0,0,1,1.09.57,1.44,1.44,0,0,0,.08-.46,1.53,1.53,0,0,0-1-1.43A1.43,1.43,0,0,1,43.55,3.36Z"/><path class="cls-4" d="M42.65.84a1.55,1.55,0,0,1-.4,1,1.53,1.53,0,0,1,1.08.72,1.54,1.54,0,0,0,.24-.82,1.51,1.51,0,0,0-1-1.43A1.45,1.45,0,0,1,42.65.84Z"/><path class="cls-4" d="M47.41,10.42a1.52,1.52,0,0,1-.21.76,1.54,1.54,0,0,1,1.09.49,1.88,1.88,0,0,0,.05-.33,1.53,1.53,0,0,0-1-1.43A1.71,1.71,0,0,1,47.41,10.42Z"/><path class="cls-4" d="M48.7,12.7a1.54,1.54,0,0,1-.2.74l.2,0a1.47,1.47,0,0,1,.91.31s0-.07,0-.1a1.51,1.51,0,0,0-1-1.43A1.64,1.64,0,0,1,48.7,12.7Z"/><path class="cls-4" d="M51.75,17.28a1.43,1.43,0,0,1,0,.29h0a1.5,1.5,0,0,1,.88.29,1.53,1.53,0,0,0-1-1.08A1.71,1.71,0,0,1,51.75,17.28Z"/><path class="cls-4" d="M50.22,14.94a1.51,1.51,0,0,1-.25.84,1.07,1.07,0,0,1,.25,0,1.48,1.48,0,0,1,.9.3,1.13,1.13,0,0,0,0-.18,1.53,1.53,0,0,0-1-1.44A1.44,1.44,0,0,1,50.22,14.94Z"/><path class="cls-4" d="M25.81,17.55h-.17a1.44,1.44,0,0,1-.51-.09,1.46,1.46,0,0,0,.52.7A1.46,1.46,0,0,1,25.81,17.55Z"/><path class="cls-4" d="M28.05,22.12l-.3-.08a1.55,1.55,0,0,0,.19.36A1.36,1.36,0,0,1,28.05,22.12Z"/><path class="cls-4" d="M27,19.74a2.37,2.37,0,0,1-.36-.09,1.47,1.47,0,0,0,.21.39A2.8,2.8,0,0,1,27,19.74Z"/><path class="cls-4" d="M53.18,18.58a1.44,1.44,0,0,1,.09.51,1.52,1.52,0,0,1-2.62,1.05,1.5,1.5,0,0,1-1.28.71,1.47,1.47,0,0,1-1.12-.5,1.53,1.53,0,0,1-1.4.93,1.52,1.52,0,0,1-1.16-.55,1.54,1.54,0,0,1-1.33.79,1.48,1.48,0,0,1-.92-.33,1.52,1.52,0,0,1-2.54.44,1.52,1.52,0,0,1-1.3.75,1.49,1.49,0,0,1-1.06-.44,1.53,1.53,0,0,1-1.37.86,1.49,1.49,0,0,1-1.2-.6,1.51,1.51,0,0,1-2.63.58,1.51,1.51,0,0,1-2.55.65,1.53,1.53,0,0,1-1.39.9,1.44,1.44,0,0,1-.5-.1,1.51,1.51,0,0,0,2.81.13,1.53,1.53,0,0,0,2.56-.65,1.51,1.51,0,0,0,2.62-.58,1.51,1.51,0,0,0,2.57-.26,1.56,1.56,0,0,0,1.06.43,1.5,1.5,0,0,0,1.3-.74,1.55,1.55,0,0,0,1.13.5,1.53,1.53,0,0,0,1.41-.94,1.51,1.51,0,0,0,2.25-.46,1.52,1.52,0,0,0,2.56-.38,1.52,1.52,0,0,0,2.4-.21,1.53,1.53,0,1,0,1.61-2.49Z"/><path class="cls-4" d="M24.36,15.21a1.32,1.32,0,0,1-.33-.08,1.65,1.65,0,0,0,.2.37A1.51,1.51,0,0,1,24.36,15.21Z"/><path class="cls-4" d="M20.19,5.64l-.12,0a1,1,0,0,0,.08.14A.36.36,0,0,1,20.19,5.64Z"/><path class="cls-4" d="M23.42,12.68a1.37,1.37,0,0,1-.29-.07,1.43,1.43,0,0,0,.13.28Z"/><path class="cls-4" d="M21.41,7.93A1.43,1.43,0,0,1,21,7.84a1.49,1.49,0,0,0,.23.43A1.86,1.86,0,0,1,21.41,7.93Z"/><path class="cls-4" d="M22.34,10.39a2.67,2.67,0,0,1-.26-.09,1.82,1.82,0,0,0,.16.31A2.14,2.14,0,0,1,22.34,10.39Z"/><path class="cls-5" d="M51.82,17.63a1.07,1.07,0,0,1,.25,0,1.71,1.71,0,0,1,.51.09A1.49,1.49,0,0,0,52,17,1.48,1.48,0,0,1,51.82,17.63Z"/><path class="cls-5" d="M53.6,19.13a2.4,2.4,0,0,1,0,.28h0a1.64,1.64,0,0,1,.5.09,1.53,1.53,0,0,0-.55-.73A1.36,1.36,0,0,1,53.6,19.13Z"/><path class="cls-5" d="M46.4,8.28l.19,0a1.45,1.45,0,0,1,.51.1,1.48,1.48,0,0,0-.52-.71A1.64,1.64,0,0,1,46.4,8.28Z"/><path class="cls-5" d="M50.35,15.29l.2,0a1.39,1.39,0,0,1,.5.09,1.48,1.48,0,0,0-.52-.71A1.4,1.4,0,0,1,50.35,15.29Z"/><path class="cls-5" d="M44.09,3.71l.3.07a1.83,1.83,0,0,0-.14-.28A.83.83,0,0,1,44.09,3.71Z"/><path class="cls-5" d="M47.77,10.74a1.46,1.46,0,0,1,.47.1,1.31,1.31,0,0,0-.26-.46A1.31,1.31,0,0,1,47.77,10.74Z"/><path class="cls-5" d="M45.16,6a1.84,1.84,0,0,1,.42.09,1.7,1.7,0,0,0-.26-.45A1.46,1.46,0,0,1,45.16,6Z"/><path class="cls-5" d="M49.05,13a1.51,1.51,0,0,1,.48.09,1.6,1.6,0,0,0-.32-.53A1.54,1.54,0,0,1,49.05,13Z"/><path class="cls-5" d="M20.91,6A1.53,1.53,0,0,1,22.44,4.5a1.51,1.51,0,0,1,.95.34A1.53,1.53,0,0,1,26,4.19a1.51,1.51,0,0,1,2.66-.66,1.51,1.51,0,0,1,2.65-.48,1.51,1.51,0,0,1,2.61-.6,1.51,1.51,0,0,1,2.52-.24A1.5,1.5,0,0,1,39,1.67a1.51,1.51,0,0,1,2.7.17A1.53,1.53,0,0,1,43,1.16a1.45,1.45,0,0,1,.51.1,1.52,1.52,0,0,0-2.7-.34,1.52,1.52,0,0,0-2.7-.18A1.55,1.55,0,0,0,37,.24a1.52,1.52,0,0,0-1.44,1.05A1.5,1.5,0,0,0,34.33.72a1.52,1.52,0,0,0-1.34.8A1.5,1.5,0,0,0,31.85,1a1.52,1.52,0,0,0-1.46,1.12,1.51,1.51,0,0,0-2.66.49,1.5,1.5,0,0,0-1.17-.56,1.52,1.52,0,0,0-1.49,1.22,1.51,1.51,0,0,0-2.6.65A1.51,1.51,0,0,0,20,5.1a1.5,1.5,0,0,0,1,1.41A1.33,1.33,0,0,1,20.91,6Z"/><path class="cls-5" d="M28.58,22.46a1.53,1.53,0,0,1,.28-.87A1.54,1.54,0,0,1,27.79,21a1.33,1.33,0,0,0-.13.57,1.5,1.5,0,0,0,1,1.42A1.59,1.59,0,0,1,28.58,22.46Z"/><path class="cls-5" d="M27.49,20.08a1.4,1.4,0,0,1,.17-.68h-.17a1.54,1.54,0,0,1-.92-.31s0,0,0,0a1.53,1.53,0,0,0,1,1.43A1.43,1.43,0,0,1,27.49,20.08Z"/><path class="cls-5" d="M21.82,8.26A1.47,1.47,0,0,1,22,7.49a1.52,1.52,0,0,1-1-.83,1.47,1.47,0,0,0,.84,2.1A1.35,1.35,0,0,1,21.82,8.26Z"/><path class="cls-5" d="M26,17.89a1.56,1.56,0,0,1,.25-.83,1.51,1.51,0,0,1-1.06-.64A1.62,1.62,0,0,0,25,17a1.52,1.52,0,0,0,1,1.43A1.35,1.35,0,0,1,26,17.89Z"/><path class="cls-5" d="M29.73,24.65A1.47,1.47,0,0,1,29.9,24a1.52,1.52,0,0,1-1-.63,1.76,1.76,0,0,0-.06.4,1.53,1.53,0,0,0,1,1.43A1.44,1.44,0,0,1,29.73,24.65Z"/><path class="cls-5" d="M24.87,15.55a1.5,1.5,0,0,1,.4-1,1.57,1.57,0,0,1-1.09-.72,1.54,1.54,0,0,0-.24.82,1.51,1.51,0,0,0,1,1.42A1.35,1.35,0,0,1,24.87,15.55Z"/><path class="cls-5" d="M22.92,10.74a1.52,1.52,0,0,1,.34-1,1.49,1.49,0,0,1-1.11-.59,1.34,1.34,0,0,0-.16.63,1.5,1.5,0,0,0,1,1.4A1.51,1.51,0,0,1,22.92,10.74Z"/><path class="cls-5" d="M24,13a1.52,1.52,0,0,1,.23-.79,1.45,1.45,0,0,1-1-.71,1.4,1.4,0,0,0-.13.57,1.52,1.52,0,0,0,1,1.43A1.7,1.7,0,0,1,24,13Z"/><path class="cls-4" d="M41.37,7.54a5.31,5.31,0,0,0-1.72-1.65c1.17,1.8,3.43,4.9,2.92,7.09-.43,1.83-2.34,2.47-4,2.86-2.25.54-6.11,1.62-8.26.16a8.29,8.29,0,0,0,1.73,1.77c2.12,1.59,6.09.47,8.38-.08,1.64-.39,3.55-1,4-2.86C45,12.56,42.49,9.3,41.37,7.54Z"/><path class="cls-5" d="M30.33,14.43c-.61-1.44-1.44-3.49-.14-4.85a8.63,8.63,0,0,1,5.13-2.07,6.31,6.31,0,0,1,6.18.23l-.13-.2a6.17,6.17,0,0,0-7.9-1.88,8.63,8.63,0,0,0-5.13,2.07c-1.3,1.36-.47,3.41.15,4.85a12,12,0,0,0,3.57,5.19l.12.08A17.31,17.31,0,0,1,30.33,14.43Z"/><path class="cls-3" d="M40.22,35.84a1.34,1.34,0,0,0-.75-1.21,1.35,1.35,0,0,0-.23-2.51,1.35,1.35,0,0,0-.19-2.5,1.34,1.34,0,0,0-.18-2.44A1.36,1.36,0,1,0,37,25.24a1.36,1.36,0,0,0-2.5-.42,1.36,1.36,0,0,0-2.56-.46,1.36,1.36,0,0,0-1.3-1,1.35,1.35,0,0,0-1.13.61,1.35,1.35,0,0,0-2.5-.21,1.35,1.35,0,0,0-1.3-1,1.34,1.34,0,0,0-1.2.73A1.35,1.35,0,0,0,22,23.19a1.35,1.35,0,0,0-2.5-.19,1.36,1.36,0,0,0-2.57.61A1.34,1.34,0,0,0,18,24.94a1.37,1.37,0,0,0-.66,1.16,1.35,1.35,0,0,0,.79,1.23,1.36,1.36,0,0,0,.32,2.39,1.34,1.34,0,0,0-.72,1.19,1.36,1.36,0,0,0,.77,1.22,1.35,1.35,0,0,0-.19,2.5,1.35,1.35,0,0,0-.76,1.21,1.37,1.37,0,0,0,.8,1.24,1.35,1.35,0,0,0-.8,1.23,1.37,1.37,0,0,0,.66,1.16,1.36,1.36,0,0,0-.87,1.26,1.34,1.34,0,0,0,.16.63A1.38,1.38,0,0,0,17,42.48a1.35,1.35,0,0,0,.32.87,1.36,1.36,0,1,0,2.19,1.59,1.34,1.34,0,0,0,2.33.38A1.37,1.37,0,0,0,23,46,1.35,1.35,0,0,0,24,45.52a1.35,1.35,0,0,0,2.47-.18,1.35,1.35,0,0,0,2.47.18,1.36,1.36,0,0,0,1.2.72,1.34,1.34,0,0,0,1.21-.75,1.36,1.36,0,0,0,2.32.18,1.35,1.35,0,0,0,2.48,0,1.36,1.36,0,1,0,2.27-1.31,1.34,1.34,0,0,0,.95-1.28A1.38,1.38,0,0,0,38.84,42a1.35,1.35,0,0,0,.26-2.43,1.35,1.35,0,0,0,.19-2.45A1.36,1.36,0,0,0,40.22,35.84Z"/><path class="cls-4" d="M36.1,24.22a1.59,1.59,0,0,1,.07.2l.11-.11Z"/><path class="cls-4" d="M17.21,24.12,17,24a.8.8,0,0,0,.08.16Z"/><path class="cls-4" d="M31.14,23.49s0,0-.06,0a.21.21,0,0,1,0,.07S31.14,23.51,31.14,23.49Z"/><path class="cls-4" d="M38.58,25.28a1.35,1.35,0,0,1-.53,1.07,1.36,1.36,0,0,1,.18,2.45,1.37,1.37,0,0,1,.84.81,1.34,1.34,0,0,0-.2-2.43,1.34,1.34,0,0,0-.37-2.35A1.33,1.33,0,0,1,38.58,25.28Z"/><path class="cls-4" d="M40,30.91a1.35,1.35,0,0,0-.91-1.27,1.32,1.32,0,0,1,.08.44,1.35,1.35,0,0,1-.74,1.21,1.39,1.39,0,0,1,.87.79A1.34,1.34,0,0,0,40,30.91Z"/><path class="cls-4" d="M33.83,23.79l-.23-.1a1.55,1.55,0,0,1,.07.31A1.06,1.06,0,0,1,33.83,23.79Z"/><path class="cls-4" d="M28.7,23.14l0,0s0,0,0,.05Z"/><path class="cls-4" d="M35.37,44.88a1.37,1.37,0,0,1-2.49,0,1.37,1.37,0,0,1-1.1.57,1.36,1.36,0,0,1-1.21-.75,1.37,1.37,0,0,1-1.21.75,1.35,1.35,0,0,1-1.2-.73,1.36,1.36,0,0,1-2.48-.17,1.34,1.34,0,0,1-1.27.9,1.38,1.38,0,0,1-1.2-.72,1.37,1.37,0,0,1-1.05.51A1.34,1.34,0,0,1,21,44.49a1.34,1.34,0,0,1-1.06.52,1.36,1.36,0,0,1-1.28-.89,1.36,1.36,0,0,1-1.15.64,1.34,1.34,0,0,1-.45-.09,1.35,1.35,0,0,0,2.43.27,1.34,1.34,0,0,0,2.33.38A1.37,1.37,0,0,0,23,46,1.35,1.35,0,0,0,24,45.52a1.35,1.35,0,0,0,2.47-.18,1.35,1.35,0,0,0,2.47.18,1.36,1.36,0,0,0,1.2.72,1.34,1.34,0,0,0,1.21-.75,1.36,1.36,0,0,0,2.32.18A1.36,1.36,0,0,0,35,46.5a1.34,1.34,0,0,0,1.18-.72A1.32,1.32,0,0,1,35.37,44.88Z"/><path class="cls-4" d="M40.22,35.84a1.34,1.34,0,0,0-.75-1.21,1.34,1.34,0,0,0-.14-2.47,1.49,1.49,0,0,1,.07.43,1.37,1.37,0,0,1-.75,1.22,1.35,1.35,0,0,1-.18,2.49,1.37,1.37,0,0,1,.69,1.18,1.35,1.35,0,0,1-.88,1.27,1.39,1.39,0,0,1,.64,1.16A1.36,1.36,0,0,1,38,41.19a1.32,1.32,0,0,1,.57,1.1,1.36,1.36,0,0,1-.94,1.29,1.36,1.36,0,0,1-1,2.32,1.31,1.31,0,0,1-.44-.07,1.35,1.35,0,1,0,2.22-1.43,1.34,1.34,0,0,0,.95-1.28A1.38,1.38,0,0,0,38.84,42a1.35,1.35,0,0,0,.26-2.43,1.35,1.35,0,0,0,.19-2.45A1.36,1.36,0,0,0,40.22,35.84Z"/><path class="cls-4" d="M21.21,22.34l0,0,0,.05S21.21,22.35,21.21,22.34Z"/><path class="cls-4" d="M26.22,22.9l-.08,0a.93.93,0,0,1,.05.1Z"/><path class="cls-4" d="M23.73,22.62l-.1,0a.54.54,0,0,1,.05.11A.18.18,0,0,0,23.73,22.62Z"/><path class="cls-5" d="M32.76,25.18A1.37,1.37,0,0,1,34,24.43a1.33,1.33,0,0,1,.45.08A1.34,1.34,0,0,0,32,24.32,1.33,1.33,0,0,1,32.76,25.18Z"/><path class="cls-5" d="M35.32,25.65A1.37,1.37,0,0,1,36.49,25a1.22,1.22,0,0,1,.43.08,1.33,1.33,0,0,0-2.27-.43A1.35,1.35,0,0,1,35.32,25.65Z"/><path class="cls-5" d="M40.07,32.94l.08,0a.43.43,0,0,1,0-.07Z"/><path class="cls-5" d="M37.07,46.66a1,1,0,0,1,0-.12.18.18,0,0,0-.05.07Z"/><path class="cls-5" d="M39.88,30.45h0l0,0Z"/><path class="cls-5" d="M37.82,26.07a1.37,1.37,0,0,1,1-.5,1.33,1.33,0,0,1,.45.08,1.33,1.33,0,0,0-2.21-.51A1.35,1.35,0,0,1,37.82,26.07Z"/><path class="cls-5" d="M17.85,24.87a1.27,1.27,0,0,1-.08-.44,1.36,1.36,0,0,1,1.36-1.36,1.34,1.34,0,0,1,1.21.76,1.36,1.36,0,0,1,1.22-.76,1.32,1.32,0,0,1,.44.08A1.35,1.35,0,0,0,19.52,23a1.36,1.36,0,0,0-2.57.61A1.34,1.34,0,0,0,17.85,24.87Z"/><path class="cls-5" d="M22.85,24A1.35,1.35,0,0,1,24,23.33a1.56,1.56,0,0,1,.44.07A1.34,1.34,0,0,0,22,23.17,1.39,1.39,0,0,1,22.85,24Z"/><path class="cls-5" d="M30.33,24.82a1.36,1.36,0,0,1,1.14-.61,1.21,1.21,0,0,1,.43.07,1.34,1.34,0,0,0-1.26-.9,1.37,1.37,0,0,0-1.11.59A1.3,1.3,0,0,1,30.33,24.82Z"/><path class="cls-5" d="M17.77,45.05a1.37,1.37,0,0,1,.33-.88,1.33,1.33,0,0,1,.26-2,1.34,1.34,0,0,1-.16-.63,1.36,1.36,0,0,1,.87-1.27,1.34,1.34,0,0,1-.66-1.16,1.38,1.38,0,0,1,.79-1.23,1.35,1.35,0,0,1,0-2.44,1.36,1.36,0,0,1,.2-2.51,1.35,1.35,0,0,1-.05-2.41,1.34,1.34,0,0,1-.9-1.27A1.38,1.38,0,0,1,19,28.16a1.36,1.36,0,0,1-.78-1.23,1.34,1.34,0,0,1,.66-1.16,1.38,1.38,0,0,1-.94-.74,1.33,1.33,0,0,0-.55,1.07,1.35,1.35,0,0,0,.79,1.23,1.36,1.36,0,0,0,.32,2.39,1.34,1.34,0,0,0-.72,1.19,1.36,1.36,0,0,0,.77,1.22,1.35,1.35,0,0,0-.19,2.5,1.35,1.35,0,0,0-.76,1.21,1.37,1.37,0,0,0,.8,1.24,1.35,1.35,0,0,0-.8,1.23,1.37,1.37,0,0,0,.66,1.16,1.36,1.36,0,0,0-.87,1.26,1.34,1.34,0,0,0,.16.63A1.38,1.38,0,0,0,17,42.48a1.35,1.35,0,0,0,.32.87,1.35,1.35,0,0,0-.32.87,1.37,1.37,0,0,0,.9,1.28A1.33,1.33,0,0,1,17.77,45.05Z"/><path class="cls-5" d="M25.33,24.34a1.37,1.37,0,0,1,1.2-.73,1.32,1.32,0,0,1,.44.08,1.34,1.34,0,0,0-2.42-.24A1.34,1.34,0,0,1,25.33,24.34Z"/><path class="cls-5" d="M27.84,24.61a1.33,1.33,0,0,1,1.2-.74,1.27,1.27,0,0,1,.44.07,1.33,1.33,0,0,0-2.43-.21A1.36,1.36,0,0,1,27.84,24.61Z"/><path class="cls-4" d="M34.83,32.51c-.33-1.69-1-3.34-2.51-4.14a8.25,8.25,0,0,1,.86,2.49c.42,2.13,1.18,5.53-.45,7.35-1.44,1.62-3.4,1.15-5.32,1.11a15.94,15.94,0,0,1-5-.48,2.6,2.6,0,0,0,.42.81C24,41.19,27.32,40.93,29.06,41c1.92,0,3.88.51,5.32-1.11C36,38,35.25,34.64,34.83,32.51Z"/><path class="cls-5" d="M23.73,38.4c-.14-1.68-.23-3.36-.33-5s.09-3.49,1.84-4.23a5.18,5.18,0,0,1,3.6,0,12.1,12.1,0,0,1,4.39.6A4.09,4.09,0,0,1,34,30a4,4,0,0,0-2.39-1.95,12.1,12.1,0,0,0-4.39-.6,5.18,5.18,0,0,0-3.6,0c-1.75.74-1.93,2.53-1.84,4.22s.19,3.36.33,5a5.38,5.38,0,0,0,.72,2.91A2.87,2.87,0,0,0,24,40.5,8.54,8.54,0,0,1,23.73,38.4Z"/><path class="cls-3" d="M66.31,11.35a1.35,1.35,0,0,0-.71-1.18,1.36,1.36,0,1,0-1.75-1.64,1.35,1.35,0,0,0-2.29.38,1.36,1.36,0,0,0-1.16-.65,1.38,1.38,0,0,0-1.24.79,1.35,1.35,0,0,0-2.44,0,1.37,1.37,0,0,0-1.22-.75A1.35,1.35,0,0,0,54.32,9,1.36,1.36,0,0,0,53,8.05a1.34,1.34,0,0,0-1.18.7,1.36,1.36,0,0,0-2.53-.3A1.35,1.35,0,0,0,48,7.52a1.38,1.38,0,0,0-.94.38A1.34,1.34,0,0,0,46,7.27a1.35,1.35,0,0,0-.85,2.42,1.36,1.36,0,0,0-.32,2.43,1.36,1.36,0,0,0-1,1.32,1.39,1.39,0,0,0,.38.94,1.35,1.35,0,0,0-.42,2.29,1.36,1.36,0,0,0-.89,1.27,1.32,1.32,0,0,0,.35.91,1.36,1.36,0,0,0-.41,2.42,1.35,1.35,0,0,0-.48,2.23,1.37,1.37,0,0,0-.82,1.25,1.31,1.31,0,0,0,.3.84,1.36,1.36,0,0,0,.65,2.55,1.37,1.37,0,0,0,1.25-.82,1.35,1.35,0,0,0,2.42.13,1.34,1.34,0,0,0,1.25.83,1.36,1.36,0,0,0,1.11-.58,1.35,1.35,0,0,0,2.38.49,1.35,1.35,0,0,0,1.27.88,1.37,1.37,0,0,0,1-.48,1.34,1.34,0,0,0,1.27.91,1.36,1.36,0,0,0,1.21-.74,1.36,1.36,0,0,0,1.27.88,1.32,1.32,0,0,0,.92-.37,1.37,1.37,0,0,0,1.25.81,1.35,1.35,0,0,0,1-.46,1.34,1.34,0,0,0,1.24.81,1.36,1.36,0,0,0,1.36-1.36v0a1.35,1.35,0,0,0,.67-2.37,1.36,1.36,0,0,0,.39-2.29,1.34,1.34,0,0,0,.47-2.25A1.36,1.36,0,0,0,65,20.92a1.35,1.35,0,0,0-.61-1.13,1.37,1.37,0,0,0,.82-1.25,1.33,1.33,0,0,0-.56-1.09,1.36,1.36,0,0,0,.94-1.29A1.37,1.37,0,0,0,64.91,15a1.34,1.34,0,0,0,.52-2.39A1.36,1.36,0,0,0,66.31,11.35Z"/><path class="cls-4" d="M51.08,7.84,51,7.78a.94.94,0,0,1,.06.15A.47.47,0,0,0,51.08,7.84Z"/><path class="cls-4" d="M48.5,7.61h0Z"/><path class="cls-4" d="M53.5,8.13h0Z"/><path class="cls-4" d="M47.6,26.87a1.35,1.35,0,0,1-1.11.58,1.37,1.37,0,0,1-1.25-.82,1.36,1.36,0,0,1-2.42-.14,1.35,1.35,0,0,1-1.25.82,1.33,1.33,0,0,1-.45-.08,1.36,1.36,0,0,0,2.53.09,1.35,1.35,0,0,0,2.42.13,1.34,1.34,0,0,0,2.3.31A1.35,1.35,0,0,1,47.6,26.87Z"/><path class="cls-4" d="M52.29,27.76a1.35,1.35,0,0,1-1,.49A1.37,1.37,0,0,1,50,27.37a1.32,1.32,0,0,1-1.06.52,1.27,1.27,0,0,1-.44-.07,1.34,1.34,0,0,0,2.33.37,1.35,1.35,0,0,0,2.3.4A1.35,1.35,0,0,1,52.29,27.76Z"/><path class="cls-4" d="M66.31,11.35a1.35,1.35,0,0,0-.71-1.18,1.37,1.37,0,0,0,.92-1.28,1.35,1.35,0,0,0-.91-1.28,1.34,1.34,0,0,1,.09.45,1.35,1.35,0,0,1-.92,1.28,1.35,1.35,0,0,1,.7,1.19,1.34,1.34,0,0,1-.87,1.26,1.36,1.36,0,0,1-.52,2.4,1.34,1.34,0,0,1,.63,1.14,1.36,1.36,0,0,1-.94,1.29,1.38,1.38,0,0,1,.55,1.09A1.35,1.35,0,0,1,63.51,19a1.36,1.36,0,0,1,.61,1.14,1.35,1.35,0,0,1-.76,1.21,1.36,1.36,0,0,1-.48,2.26,1.34,1.34,0,0,1,.48,1,1.36,1.36,0,0,1-.87,1.27,1.33,1.33,0,0,1,.48,1,1.36,1.36,0,0,1-1.15,1.34v0a1.36,1.36,0,0,1-2.61.55,1.35,1.35,0,0,1-1,.45,1.36,1.36,0,0,1-1.24-.8,1.39,1.39,0,0,1-.93.37,1.37,1.37,0,0,1-1.27-.88,1.35,1.35,0,0,1-1.2.73,1.33,1.33,0,0,1-.45-.08,1.35,1.35,0,0,0,2.48.17,1.36,1.36,0,0,0,1.27.88,1.32,1.32,0,0,0,.92-.37,1.37,1.37,0,0,0,1.25.81,1.35,1.35,0,0,0,1-.46,1.34,1.34,0,0,0,1.24.81,1.36,1.36,0,0,0,1.36-1.36v0a1.35,1.35,0,0,0,.67-2.37,1.36,1.36,0,0,0,.39-2.29,1.34,1.34,0,0,0,.47-2.25A1.36,1.36,0,0,0,65,20.92a1.35,1.35,0,0,0-.61-1.13,1.37,1.37,0,0,0,.82-1.25,1.33,1.33,0,0,0-.56-1.09,1.36,1.36,0,0,0,.94-1.29A1.37,1.37,0,0,0,64.91,15a1.34,1.34,0,0,0,.52-2.39A1.36,1.36,0,0,0,66.31,11.35Z"/><path class="cls-5" d="M52.67,9.58a1.36,1.36,0,0,1,1.19-.71,1.33,1.33,0,0,1,.45.08A1.37,1.37,0,0,0,53,8.05a1.34,1.34,0,0,0-1.12.62A1.32,1.32,0,0,1,52.67,9.58Z"/><polygon class="cls-5" points="53.94 29.42 53.94 29.41 53.94 29.41 53.94 29.42"/><path class="cls-5" d="M55.14,9.79a1.36,1.36,0,0,1,1.19-.71,1.35,1.35,0,0,1,1.21.76,1.35,1.35,0,0,1,2.45,0,1.35,1.35,0,0,1,1.23-.8,1.37,1.37,0,0,1,1.16.66,1.36,1.36,0,0,1,2.3-.39,1.35,1.35,0,0,1,1.3-1,1.44,1.44,0,0,1,.46.08,1.38,1.38,0,0,0-1.28-.91,1.36,1.36,0,0,0-1.31,1,1.35,1.35,0,0,0-2.29.38,1.36,1.36,0,0,0-1.16-.65,1.38,1.38,0,0,0-1.24.79,1.35,1.35,0,0,0-2.44,0,1.37,1.37,0,0,0-1.22-.75,1.35,1.35,0,0,0-1.18.7A1.35,1.35,0,0,1,55.14,9.79Z"/><path class="cls-5" d="M50.15,9.27a1.33,1.33,0,0,1,1.2-.74,1.22,1.22,0,0,1,.43.08,1.34,1.34,0,0,0-1.25-.9,1.32,1.32,0,0,0-1.2.73A1.37,1.37,0,0,1,50.15,9.27Z"/><path class="cls-5" d="M49.31,28.64a.45.45,0,0,1-.06-.12s0,.05,0,.07Z"/><path class="cls-5" d="M41.86,27.6a1.35,1.35,0,0,1,.71-1.18,1.42,1.42,0,0,1-.3-.85,1.36,1.36,0,0,1,.83-1.25,1.32,1.32,0,0,1-.4-1,1.36,1.36,0,0,1,.88-1.27A1.35,1.35,0,0,1,44,19.68a1.34,1.34,0,0,1,.54-2.18A1.36,1.36,0,0,1,45,15.2a1.31,1.31,0,0,1-.38-.94,1.36,1.36,0,0,1,1-1.32A1.36,1.36,0,0,1,45,11.8a1.34,1.34,0,0,1,.95-1.28,1.34,1.34,0,0,1-.52-1.06,1.36,1.36,0,0,1,2.51-.73,1.35,1.35,0,0,1,.93-.38,1.33,1.33,0,0,1,.45.08A1.35,1.35,0,0,0,48,7.52a1.38,1.38,0,0,0-.94.38A1.34,1.34,0,0,0,46,7.27a1.35,1.35,0,0,0-.85,2.42,1.36,1.36,0,0,0-.32,2.43,1.36,1.36,0,0,0-1,1.32,1.39,1.39,0,0,0,.38.94,1.35,1.35,0,0,0-.42,2.29,1.36,1.36,0,0,0-.89,1.27,1.32,1.32,0,0,0,.35.91,1.36,1.36,0,0,0-.41,2.42,1.35,1.35,0,0,0-.48,2.23,1.37,1.37,0,0,0-.82,1.25,1.31,1.31,0,0,0,.3.84,1.35,1.35,0,0,0,.2,2.46A1.34,1.34,0,0,1,41.86,27.6Z"/><path class="cls-4" d="M60.37,14.24a2.86,2.86,0,0,0-1.54-1.37,9.34,9.34,0,0,1,.34,4.36c-.36,3.56-1.1,6.86-5.37,6.47A15.63,15.63,0,0,1,47.48,22c1.36,2.48,5.46,3.08,8,3.32,4.26.39,5-2.91,5.36-6.47A8.82,8.82,0,0,0,60.37,14.24Z"/><path class="cls-5" d="M48.67,22c-.06-2,.37-6,2.19-7.23,1.09-1.79,6.81-1,7.9-.77a9.56,9.56,0,0,1,1.73.52,2.36,2.36,0,0,0-.12-.28c-.61-1.26-2-1.6-3.26-1.9-1.09-.25-6.81-1-7.9.78C47.39,14.36,47,18.33,47,20.34a4,4,0,0,0,2.11,3.34A3.78,3.78,0,0,1,48.67,22Z"/><path class="cls-6" d="M33.53,11.35c-.89-.34-1.7-.74-2.55-1.14-.14-.07-.05-.25.08-.24.95.1,1.94.1,2.89.18.75,0,1.57-.06,2,.68a.53.53,0,0,1,0,.5c4.38,1.29,9,2.56,13.46,4.12.12.33.24.66.38,1-.54-.21-1.07-.43-1.61-.63-4.08-1.51-8.19-2.94-12.3-4.35a.71.71,0,0,1-.12.13C35.06,12.11,34.25,11.62,33.53,11.35Zm3.29-2.71c0,.17.1.34.16.5a1.26,1.26,0,0,0,0,1.37,1.92,1.92,0,0,0,1.13.81,1,1,0,0,0,1.11-1.22,2.09,2.09,0,0,0-.78-.93c.09.14,0,.1-.11-.11a.84.84,0,0,0-.47-.27.6.6,0,0,1-.56-.38C37.16,8.12,36.75,8.36,36.82,8.64Zm1.28,6A.91.91,0,0,0,38,15c0-.19-.09.1-.11.15a5.53,5.53,0,0,0-.2.66c0,.11.11.19.19.14s.3-.14.45-.23a1.71,1.71,0,0,1,.23-.13l-.07,0a.82.82,0,0,0,.27,0,1.71,1.71,0,0,0,1.52-.74.84.84,0,0,0-.37-1.14A1.39,1.39,0,0,0,38.1,14.61ZM43,10.67l0-.06a3.31,3.31,0,0,0-.26-.27.15.15,0,0,0-.23,0,1.22,1.22,0,0,0-.16.5,1.38,1.38,0,0,0-.27.51,1.46,1.46,0,0,0,.07.9,1,1,0,1,0,1.81-.86,1.94,1.94,0,0,0-.72-.7C43,10.6,43,10.63,43,10.67Zm0,5.39a1.94,1.94,0,0,0-.26,1.58c0,.24,0,.48.08.72a1,1,0,0,0,.38.52.26.26,0,0,0,.42-.13c.07-.31.1-.6.15-.91a.85.85,0,0,1,.18-.32s0-.06.09-.05a1,1,0,0,0,.36-.44C44.77,16.18,43.58,15.3,43,16.06Z"/><path class="cls-6" d="M54.65,14.66a4.16,4.16,0,0,0,.16.5,1.24,1.24,0,0,0,0,1.37,2,2,0,0,0,1.14.81,1,1,0,0,0,1.1-1.22,2,2,0,0,0-.78-.93c.1.14.06.1-.11-.11a.78.78,0,0,0-.47-.27.59.59,0,0,1-.55-.38C55,14.14,54.58,14.38,54.65,14.66Z"/><path class="cls-6" d="M24.79,31.13a1.08,1.08,0,0,0-.1.43c0-.19-.09.11-.11.15-.1.23-.12.44-.2.67a.13.13,0,0,0,.19.13c.15-.1.3-.14.45-.23l.23-.12-.07,0a.82.82,0,0,0,.27,0A1.67,1.67,0,0,0,27,31.4a.84.84,0,0,0-.36-1.14A1.4,1.4,0,0,0,24.79,31.13Z"/><path class="cls-6" d="M22,18.67l0-.05a1.29,1.29,0,0,0-.25-.27.15.15,0,0,0-.23,0,1.37,1.37,0,0,0-.17.49,1.64,1.64,0,0,0-.26.51,1.39,1.39,0,0,0,.07.9,1,1,0,0,0,1.27.65A1,1,0,0,0,23,19.43a1.84,1.84,0,0,0-.72-.69C22.05,18.61,22,18.64,22,18.67Z"/><path class="cls-6" d="M35.82,27.77a2,2,0,0,0-.26,1.59c0,.24,0,.48.08.72a1,1,0,0,0,.38.52.26.26,0,0,0,.42-.14c.07-.3.1-.59.15-.91a.75.75,0,0,1,.18-.31s0-.06.09-.06a.86.86,0,0,0,.35-.44C37.64,27.89,36.45,27,35.82,27.77Z"/><path class="cls-6" d="M48.28,35.23a3.57,3.57,0,0,1,.46.26c.24.16.09.61-.21.5a.59.59,0,0,0-.67.08.83.83,0,0,1-.53.12c-.27,0-.32,0-.16,0A2.14,2.14,0,0,1,46,36a1,1,0,0,1,0-1.65,2,2,0,0,1,1.39-.15A1.24,1.24,0,0,1,48.28,35.23ZM43,33.76a1.39,1.39,0,0,0,.77-1.86.94.94,0,0,0-.22-.39c.14.13,0-.13,0-.19-.07-.23-.2-.4-.29-.62s-.21-.07-.23,0-.13.3-.18.47l-.09.24.07,0a.91.91,0,0,0-.21.18A1.68,1.68,0,0,0,42,33.16.84.84,0,0,0,43,33.76Zm-.81,1.71L47.6,32.9a.55.55,0,0,0,.35.35c.79.29,1.32-.35,1.91-.8.77-.58,1.5-1.24,2.27-1.8a.13.13,0,0,0-.1-.23c-.9.27-1.77.51-2.65.85-.72.28-1.66.46-1.81,1.31a.54.54,0,0,0,0,.18c-1.91.81-3.81,1.61-5.72,2.4Z"/><path class="cls-7" d="M30.46,19c.81.13,1,1.06,1.71,1.35.5.19,1.27-.14,1.14-.77-.23-1.06-2.26-1.67-3-.82a.12.12,0,0,0,0,.1A.18.18,0,0,0,30.46,19Z"/><path class="cls-6" d="M31.23,19.11a2.4,2.4,0,0,0-.55-.34,2.41,2.41,0,0,1,1.42.35c.11.07,1.15.83.83,1s-.59-.22-.78-.38S31.52,19.33,31.23,19.11Z"/><path class="cls-7" d="M8.93,22.87c1.05.06,1.4,1.21,2.38,1.47.66.17,1.59-.38,1.32-1.15-.45-1.31-3.11-1.78-3.88-.59a.11.11,0,0,0,0,.12A.18.18,0,0,0,8.93,22.87Z"/><path class="cls-6" d="M9.92,22.85a3.42,3.42,0,0,0-.75-.35,3.16,3.16,0,0,1,1.86.24c.15.06,1.58.88,1.2,1.12s-.78-.19-1.05-.38S10.32,23.09,9.92,22.85Z"/><path class="cls-7" d="M35,36.82c.74,0,1,.83,1.71,1,.47.11,1.12-.29.92-.84-.34-.92-2.24-1.21-2.77-.35a.08.08,0,0,0,0,.09A.17.17,0,0,0,35,36.82Z"/><path class="cls-6" d="M35.72,36.78a2.74,2.74,0,0,0-.53-.23,2.19,2.19,0,0,1,1.31.13c.11,0,1.14.6.88.78s-.56-.13-.76-.25S36,37,35.72,36.78Z"/><path class="cls-7" d="M54.91,21.65c1.25.46,1.24,2,2.33,2.67.73.45,2.07.15,2-.9-.06-1.75-3.11-3.32-4.49-2.17a.13.13,0,0,0,0,.15A.24.24,0,0,0,54.91,21.65Z"/><path class="cls-6" d="M56.11,22a3.88,3.88,0,0,0-.76-.7,3.93,3.93,0,0,1,2.15,1c.16.13,1.59,1.66,1,1.81s-.88-.53-1.13-.85S56.51,22.44,56.11,22Z"/><path class="cls-7" d="M52,17.25a.08.08,0,0,0,0-.1c-.93-.93-3.25,0-3.4,1.29-.1.75.86,1.06,1.42.78.83-.42.93-1.54,1.87-1.79A.17.17,0,0,0,52,17.25Z"/><path class="cls-6" d="M49.94,18.42c-.21.22-.54.68-.88.55s.75-1.17.87-1.25a2.91,2.91,0,0,1,1.63-.58,3,3,0,0,0-.6.46C50.64,17.9,50.24,18.1,49.94,18.42Z"/><path class="cls-7" d="M53.7,38.74a.06.06,0,0,0,0-.08c-.77-.67-2.51.18-2.56,1.17,0,.59.72.78,1.13.53.63-.37.64-1.23,1.36-1.48A.13.13,0,0,0,53.7,38.74Z"/><path class="cls-6" d="M52.18,39.75c-.15.18-.38.55-.65.47s.51-.94.6-1a2.34,2.34,0,0,1,1.23-.53,2.73,2.73,0,0,0-.44.39C52.69,39.31,52.39,39.49,52.18,39.75Z"/><path class="cls-7" d="M29,35.19a.09.09,0,0,0,0-.12c-1.17-1-3.81.26-3.9,1.77-.05.89,1.09,1.18,1.73.81,1-.56,1-1.87,2.06-2.24A.21.21,0,0,0,29,35.19Z"/><path class="cls-6" d="M26.71,36.72c-.22.27-.58.83-1,.7s.79-1.42.93-1.53a3.44,3.44,0,0,1,1.87-.8,3.47,3.47,0,0,0-.68.59C27.49,36.05,27,36.32,26.71,36.72Z"/><path class="cls-7" d="M28.77,13.42c.92.19,1.08,1.27,1.91,1.63.56.24,1.46-.11,1.33-.84-.22-1.22-2.52-2-3.37-1.06a.09.09,0,0,0,0,.1A.19.19,0,0,0,28.77,13.42Z"/><path class="cls-6" d="M29.65,13.53a3.62,3.62,0,0,0-.61-.41,2.93,2.93,0,0,1,1.61.47c.12.08,1.28,1,.91,1.16s-.67-.28-.88-.48S30,13.81,29.65,13.53Z"/></g></g></g></svg>