<svg xmlns="http://www.w3.org/2000/svg" viewBox="0 0 102.64 112.87"><defs><style>.cls-1{isolation:isolate;}.cls-2,.cls-21,.cls-6{opacity:0.3;}.cls-2,.cls-20,.cls-21,.cls-22,.cls-5,.cls-6,.cls-8{mix-blend-mode:multiply;}.cls-17,.cls-20,.cls-21,.cls-3{fill:#aab3b8;}.cls-4,.cls-5,.cls-6{fill:#4a7006;}.cls-11,.cls-12,.cls-17,.cls-20,.cls-24,.cls-5{opacity:0.5;}.cls-7,.cls-8{fill:#a31300;}.cls-9{fill:#f63;}.cls-10{fill:#f2ddc6;}.cls-11,.cls-13,.cls-16,.cls-23{fill:#fff;}.cls-12{fill:#d9ba98;}.cls-14{fill:#829aa8;}.cls-15{fill:#dfeaf2;}.cls-16{opacity:0.4;}.cls-17{mix-blend-mode:screen;}.cls-18,.cls-24{fill:#d1dce3;}.cls-19{fill:#b72916;}.cls-23{opacity:0.7;}</style></defs><g class="cls-1"><g id="Capa_2" data-name="Capa 2"><g id="Layer_1" data-name="Layer 1"><g class="cls-2"><path class="cls-3" d="M97.24,102.73l.36-.17L54,87.61h0a29.3,29.3,0,0,0-8.15-1.55c-7.82-.44-14.31,1.83-14.49,5.08-.11,1.9,2,3.71,5.32,5l-.18.09L78.92,111l.16-.08a28.06,28.06,0,0,0,9.07,1.9c7.82.44,14.31-1.83,14.49-5.08C102.75,105.81,100.61,104,97.24,102.73Z"/><path class="cls-3" d="M49.06,97c-5.47-.3-10.39.51-13.54,2l-9.76-1.74a2.19,2.19,0,0,0,.5-1.24c.14-2.53-4.69-4.86-10.8-5.2s-11.16,1.44-11.3,4S8.85,99.7,15,100a20.11,20.11,0,0,0,8.45-1.12L32,102.35a2.78,2.78,0,0,0-.12.69c-.22,3.84,7.11,7.37,16.37,7.89s16.93-2.18,17.15-6S58.32,97.54,49.06,97Z"/></g><path class="cls-4" d="M46.28,23.17V2c0-1.11-2-2-4.4-2s-4.4.89-4.4,2V23.17a10.88,10.88,0,0,0-6.5,10V90.27c0,2.23,4.88,5.28,10.9,5.28s10.9-3,10.9-5.28V33.14A10.88,10.88,0,0,0,46.28,23.17Z"/><path class="cls-5" d="M41.88,34.5c-5.06,0-9.3-2.16-10.53-4.17A10.82,10.82,0,0,0,31,33.14v55c0,2.23,4.88,5.28,10.9,5.28s10.9-3.05,10.9-5.28V33.14a10.82,10.82,0,0,0-.37-2.81C51.18,32.34,46.94,34.5,41.88,34.5Z"/><path class="cls-6" d="M45.38,23.62V2c0-1.11-1.57-2-3.5-2,.82,0,1.48.89,1.48,2V24.16c1.29,1.7,2.19,4.52,2.19,9V90.27c0,2.23-1.64,5.28-3.67,5.28,4.78,0,8.66-3,8.66-5.28V33.14A10.5,10.5,0,0,0,45.38,23.62Z"/><path class="cls-7" d="M41.88,0c-2.43,0-4.4.89-4.4,2V18.08c0,1.1,2,2,4.4,2s4.4-.89,4.4-2V2C46.28.89,44.31,0,41.88,0Z"/><path class="cls-8" d="M43.36,2V20a5.91,5.91,0,0,0,2-.67V2c0-1.11-1.57-2-3.5-2C42.7,0,43.36.89,43.36,2Z"/><path class="cls-9" d="M45.55,2c0-.92-1.64-1.67-3.67-1.67S38.21,1.08,38.21,2s1.64,1.66,3.67,1.66S45.55,2.92,45.55,2Z"/><path class="cls-10" d="M41.88,46.25c-6,0-10.9-2.73-10.9-4.73V74.61c0,2,4.88,4.74,10.9,4.74s10.9-2.74,10.9-4.74V41.52C52.78,43.52,47.9,46.25,41.88,46.25Z"/><path class="cls-11" d="M36,91.36V34.23c.11-8.59,3.08-8.78,4.37-10.48V3.94a5.7,5.7,0,0,1-2-.69V23.39c-3,1.69-5.16,5.29-5.16,9.75V90.27c0,2.23,3.87,4.19,8.66,4.19h0C40.64,94.07,36,93.59,36,91.36Z"/><path class="cls-12" d="M50.54,77.22V44.12a15.68,15.68,0,0,1-5,1.78V79A15.68,15.68,0,0,0,50.54,77.22Z"/><path class="cls-13" d="M33.6,85.88c0,2.15-.2,3.9-.44,3.9s-.44-1.75-.44-3.9.19-3.9.44-3.9S33.6,83.73,33.6,85.88Z"/><path class="cls-13" d="M33.6,39c0,2.16-.2,3.9-.44,3.9s-.44-1.74-.44-3.9.19-3.89.44-3.89S33.6,36.87,33.6,39Z"/><path class="cls-13" d="M34.61,29.47c-.32.93-1,1.63-1.44,1.56s-.6-.89-.28-1.82,1-1.62,1.44-1.55S34.93,28.54,34.61,29.47Z"/><path class="cls-13" d="M36.17,26.22c-.38.51-.93.81-1.21.67s-.19-.67.2-1.18.93-.81,1.21-.67S36.56,25.71,36.17,26.22Z"/><path class="cls-14" d="M12.16,98.17c-5,0-9.25-1.92-9.25-4.2s4.24-4.19,9.25-4.19S21.41,91.7,21.41,94,17.18,98.17,12.16,98.17Z"/><path class="cls-15" d="M12.16,97.92c-4.72,0-8.7-1.81-8.7-4s4-3.94,8.7-3.94,8.71,1.8,8.71,3.94S16.88,97.92,12.16,97.92Z"/><path class="cls-16" d="M7.25,92.81C5.61,94,4.61,95.2,4.46,95.91A14.63,14.63,0,0,0,7.75,97,8.59,8.59,0,0,1,9.6,93.53,9.84,9.84,0,0,1,7.25,92.81Z"/><path class="cls-14" d="M17.94,92.3a6.08,6.08,0,0,1-1.42.74,6.84,6.84,0,0,1,1.57,3.14v0c1.33-.42,2.14-.94,2.14-1.38S19.36,93.29,17.94,92.3Z"/><path class="cls-14" d="M21.4,93.82a2.46,2.46,0,0,0-.77-1.5,2.69,2.69,0,0,1,.12.7c0,1.9-4.14,4.48-9.25,4.48a13,13,0,0,1-8-2.5c1.29,1.59,4.67,3.16,8.65,3.17h0C17.15,98.17,21.21,95.7,21.4,93.82Z"/><path class="cls-14" d="M12.16,93.4c-2,0-3.72-.77-3.72-1.69S10.14,90,12.16,90s3.73.77,3.73,1.68S14.18,93.4,12.16,93.4Z"/><path class="cls-15" d="M12.16,92.79c-1.65,0-3-.63-3-1.38s1.39-1.38,3-1.38,3.05.63,3.05,1.38S13.81,92.79,12.16,92.79Z"/><path class="cls-16" d="M10.44,91a2.54,2.54,0,0,0-1,1.09,5.5,5.5,0,0,0,1.15.38,3,3,0,0,1,.65-1.22A3.69,3.69,0,0,1,10.44,91Z"/><path class="cls-14" d="M14.18,90.82a1.88,1.88,0,0,1-.49.26,2.43,2.43,0,0,1,.55,1.1h0c.46-.15.75-.33.75-.48S14.68,91.17,14.18,90.82Z"/><path class="cls-15" d="M12.16,74.41c-.8,0-2.12.3-2.12.66l.67,15.27c0,.36.65.66,1.45.66s1.46-.3,1.46-.66l.66-15.27C14.28,74.71,13,74.41,12.16,74.41Z"/><path class="cls-17" d="M11.34,90.88a2.67,2.67,0,0,0,.6.11l-.48-16.52a5.08,5.08,0,0,0-.72.15Z"/><path class="cls-14" d="M13.26,74.47,12.64,91c.38-.12.63-.33.63-.56L14,74.93C14,74.75,13.65,74.59,13.26,74.47Z"/><path class="cls-18" d="M24.32,52c0-1.8-5.48-4.44-12.16-4.44S0,50.17,0,52c0,4.2,0,23.25,12.16,23.25S24.32,56.17,24.32,52Z"/><path class="cls-7" d="M23.81,60.38c0-2.09-5.33-3.85-11.65-3.85S.51,58.29.51,60.38s5.34,3.85,11.65,3.85S23.81,62.46,23.81,60.38Z"/><path class="cls-19" d="M12.16,64.23c-5.89,0-10.93-1.54-11.58-3.44,1,6.7,3.83,14.43,11.58,14.43s10.56-7.73,11.58-14.43C23.1,62.69,18.06,64.23,12.16,64.23Z"/><path class="cls-20" d="M21.46,55.05C21,61.33,19.07,71.14,10.87,71.14,2,71.14.46,59.58.2,53.53c.28,6.86,1.91,20,11.51,20s11.23-13.11,11.5-20A4.55,4.55,0,0,1,21.46,55.05Z"/><path class="cls-21" d="M16.77,63.9C16.32,68,15.54,72.11,14.17,75c3.59-1,5.25-6.48,6-11.91A21.73,21.73,0,0,1,16.77,63.9Z"/><g class="cls-22"><path class="cls-7" d="M12,73.7A9.91,9.91,0,0,1,3.9,69.86c1.72,2.92,4.27,5,8.07,5s6.36-2.06,8.08-5A9.91,9.91,0,0,1,12,73.7Z"/></g><path class="cls-23" d="M7.42,50.9a4.49,4.49,0,0,1,2.22-3.13c-3.29.63-5.72,2.52-5.72,3.89,0,3.66-1.14,17.83,5.54,19.62C6.28,65,7.42,54.33,7.42,50.9Z"/><path class="cls-14" d="M24.32,52c0-2.48-5.44-4.5-12.16-4.5S0,49.49,0,52s5.45,4.51,12.16,4.51S24.32,54.46,24.32,52Z"/><path class="cls-24" d="M23.43,52.41c.09-2.31-4.89-4.37-11.11-4.61S1,49.24.9,51.54,5.78,55.91,12,56.15,23.34,54.71,23.43,52.41Z"/><path class="cls-15" d="M12.16,55.44c-5.91,0-10.91-1.66-10.91-3.61s5-3.6,10.91-3.6,10.91,1.65,10.91,3.6S18.07,55.44,12.16,55.44Z"/><path class="cls-13" d="M2.24,53.8c-.09.29,1,.91,2.56,1.37s2.79.62,2.88.33S6.46,55.12,5,54.65,2.33,53.52,2.24,53.8Z"/><path class="cls-13" d="M2.82,57.9c0-1.25-.37-2.26-.73-2.25s-.63,1-.59,2.29.36,2.26.72,2.25S2.85,59.15,2.82,57.9Z"/><path class="cls-13" d="M11.61,83.83c-.1-3.42-.35-6.19-.56-6.18s-.31,2.78-.21,6.2S11.19,90,11.4,90,11.71,87.25,11.61,83.83Z"/><path class="cls-13" d="M6.75,94.45c.58-.63.75-1.41.38-1.76s-1.13-.11-1.72.52S4.66,94.62,5,95,6.16,95.07,6.75,94.45Z"/><path class="cls-13" d="M10.45,91.68A.54.54,0,0,0,9.67,91a.54.54,0,0,0,.78.72Z"/><path class="cls-13" d="M3.1,63.45c-.2-1.29-.55-2.3-.79-2.26s-.26,1.1-.07,2.39.55,2.29.79,2.26S3.3,64.73,3.1,63.45Z"/><path class="cls-17" d="M12.16,56.48c-4.18,0-7.86-.78-10-2,0,.7,0,1.41,0,2.13.27,9.43,2.87,17,5.81,16.91S13,65.83,12.77,56.47Z"/><path class="cls-13" d="M20.82,49.38c.05-.41-2.12-1-4.86-1.37s-5-.28-5.05.13,2.22.28,5,.62S20.77,49.8,20.82,49.38Z"/></g></g></g></svg>