<svg width="36px" height="36px" viewBox="0 0 24 24" fill="none" xmlns="http://www.w3.org/2000/svg">
<path d="M12 0.48C5.63758 0.48 0.47998 5.6376 0.47998 12C0.47998 18.3624 5.63758 23.52 12 23.52C18.3624 23.52 23.52 18.3624 23.52 12C23.52 5.6376 18.3624 0.48 12 0.48ZM9.17998 16.7748H6.84718V9.2676H9.17998V16.7748ZM7.99918 8.346C7.26238 8.346 6.78598 7.824 6.78598 7.1784C6.78598 6.5196 7.27678 6.0132 8.02918 6.0132C8.78158 6.0132 9.24238 6.5196 9.25678 7.1784C9.25678 7.824 8.78158 8.346 7.99918 8.346ZM17.7 16.7748H15.3672V12.6144C15.3672 11.646 15.0288 10.9884 14.1852 10.9884C13.5408 10.9884 13.158 11.4336 12.9888 11.862C12.9264 12.0144 12.9108 12.2304 12.9108 12.4452V16.7736H10.5768V11.6616C10.5768 10.7244 10.5468 9.9408 10.5156 9.2664H12.5424L12.6492 10.3092H12.696C13.0032 9.8196 13.7556 9.0972 15.0144 9.0972C16.5492 9.0972 17.7 10.1256 17.7 12.336V16.7748Z" fill="#0077B5"/>
</svg>
