<?xml version="1.0" encoding="utf-8"?><!-- Uploaded to: SVG Repo, www.svgrepo.com, Generator: SVG Repo Mixer Tools -->
<svg width="64px" height="64px" viewBox="0 -4 32 32" fill="none" xmlns="http://www.w3.org/2000/svg">
<path d="M29.0909 0H2.90909C1.30244 0 0 1.30244 0 2.90909V20.3636C0 21.9703 1.30244 23.2727 2.90909 23.2727H29.0909C30.6976 23.2727 32 21.9703 32 20.3636V2.90909C32 1.30244 30.6976 0 29.0909 0Z" fill="url(#paint0_linear_103_1797)"/>
<path fill-rule="evenodd" clip-rule="evenodd" d="M29.0909 0H2.90909C2.52332 0 2.15223 0.0738135 1.79583 0.221441C1.43942 0.369069 1.12483 0.579272 0.852049 0.852054L13.943 13.943C14.2157 14.2157 14.5303 14.4259 14.8867 14.5735C15.2431 14.7212 15.6142 14.7951 16 14.7951C16.3857 14.7951 16.7568 14.7212 17.1133 14.5735C17.4696 14.4259 17.7842 14.2157 18.057 13.943L31.1479 0.852049C30.8752 0.57927 30.5606 0.369067 30.2042 0.22144C29.8478 0.0738131 29.4767 0 29.0909 0Z" fill="url(#paint1_linear_103_1797)"/>
<defs>
<linearGradient id="paint0_linear_103_1797" x1="16" y1="0" x2="16" y2="23.2727" gradientUnits="userSpaceOnUse">
<stop stop-color="#FAC227"/>
<stop offset="1" stop-color="#FAA627"/>
</linearGradient>
<linearGradient id="paint1_linear_103_1797" x1="16.0002" y1="0" x2="16.0002" y2="14.7951" gradientUnits="userSpaceOnUse">
<stop stop-color="#FCE4B1"/>
<stop offset="1" stop-color="#FFD272"/>
</linearGradient>
</defs>
</svg>
