<svg width="36px" height="36px" viewBox="0 0 25 24" fill="none" xmlns="http://www.w3.org/2000/svg">
<path fill-rule="evenodd" clip-rule="evenodd" d="M8.03641 1.066C9.20941 1.012 9.58341 1 12.5714 1C15.5594 1 15.9334 1.013 17.1054 1.066C18.2774 1.119 19.0774 1.306 19.7774 1.577C20.5104 1.854 21.1754 2.287 21.7254 2.847C22.2854 3.396 22.7174 4.06 22.9934 4.794C23.2654 5.494 23.4514 6.294 23.5054 7.464C23.5594 8.639 23.5714 9.013 23.5714 12C23.5714 14.988 23.5584 15.362 23.5054 16.535C23.4524 17.705 23.2654 18.505 22.9934 19.205C22.7174 19.9391 22.2847 20.6042 21.7254 21.154C21.1754 21.714 20.5104 22.146 19.7774 22.422C19.0774 22.694 18.2774 22.88 17.1074 22.934C15.9334 22.988 15.5594 23 12.5714 23C9.58341 23 9.20941 22.987 8.03641 22.934C6.86641 22.881 6.06641 22.694 5.36641 22.422C4.63233 22.146 3.96723 21.7133 3.41741 21.154C2.85779 20.6047 2.42473 19.9399 2.14841 19.206C1.87741 18.506 1.69141 17.706 1.63741 16.536C1.58341 15.361 1.57141 14.987 1.57141 12C1.57141 9.012 1.58441 8.638 1.63741 7.466C1.69041 6.294 1.87741 5.494 2.14841 4.794C2.42513 4.06008 2.85853 3.39531 3.41841 2.846C3.96745 2.2865 4.63188 1.85344 5.36541 1.577C6.06541 1.306 6.86541 1.12 8.03541 1.066H8.03641ZM17.0164 3.046C15.8564 2.993 15.5084 2.982 12.5714 2.982C9.63441 2.982 9.28641 2.993 8.12641 3.046C7.05341 3.095 6.47141 3.274 6.08341 3.425C5.57041 3.625 5.20341 3.862 4.81841 4.247C4.45346 4.60205 4.17259 5.03428 3.99641 5.512C3.84541 5.9 3.66641 6.482 3.61741 7.555C3.56441 8.715 3.55341 9.063 3.55341 12C3.55341 14.937 3.56441 15.285 3.61741 16.445C3.66641 17.518 3.84541 18.1 3.99641 18.488C4.17241 18.965 4.45341 19.398 4.81841 19.753C5.17341 20.118 5.60641 20.399 6.08341 20.575C6.47141 20.726 7.05341 20.905 8.12641 20.954C9.28641 21.007 9.63341 21.018 12.5714 21.018C15.5094 21.018 15.8564 21.007 17.0164 20.954C18.0894 20.905 18.6714 20.726 19.0594 20.575C19.5724 20.375 19.9394 20.138 20.3244 19.753C20.6894 19.398 20.9704 18.965 21.1464 18.488C21.2974 18.1 21.4764 17.518 21.5254 16.445C21.5784 15.285 21.5894 14.937 21.5894 12C21.5894 9.063 21.5784 8.715 21.5254 7.555C21.4764 6.482 21.2974 5.9 21.1464 5.512C20.9464 4.999 20.7094 4.632 20.3244 4.247C19.9693 3.88207 19.5371 3.60121 19.0594 3.425C18.6714 3.274 18.0894 3.095 17.0164 3.046ZM11.1664 15.391C11.9511 15.7176 12.8248 15.7617 13.6383 15.5157C14.4519 15.2697 15.1548 14.7489 15.627 14.0422C16.0992 13.3356 16.3115 12.4869 16.2275 11.6411C16.1434 10.7953 15.7684 10.005 15.1664 9.405C14.7826 9.02148 14.3186 8.72781 13.8077 8.54515C13.2969 8.36248 12.7518 8.29536 12.2119 8.34862C11.672 8.40187 11.1506 8.57418 10.6852 8.85313C10.2199 9.13208 9.82215 9.51074 9.52071 9.96185C9.21927 10.413 9.0216 10.9253 8.94193 11.462C8.86225 11.9986 8.90256 12.5463 9.05995 13.0655C9.21734 13.5847 9.48789 14.0626 9.85213 14.4647C10.2164 14.8668 10.6652 15.1832 11.1664 15.391ZM8.57341 8.002C9.09844 7.47697 9.72173 7.0605 10.4077 6.77636C11.0937 6.49222 11.8289 6.34597 12.5714 6.34597C13.3139 6.34597 14.0491 6.49222 14.7351 6.77636C15.4211 7.0605 16.0444 7.47697 16.5694 8.002C17.0944 8.52702 17.5109 9.15032 17.795 9.8363C18.0792 10.5223 18.2254 11.2575 18.2254 12C18.2254 12.7425 18.0792 13.4777 17.795 14.1637C17.5109 14.8497 17.0944 15.473 16.5694 15.998C15.5091 17.0583 14.071 17.654 12.5714 17.654C11.0719 17.654 9.63375 17.0583 8.57341 15.998C7.51308 14.9377 6.91739 13.4995 6.91739 12C6.91739 10.5005 7.51308 9.06234 8.57341 8.002ZM19.4794 7.188C19.6095 7.06527 19.7137 6.91768 19.7857 6.75397C19.8578 6.59027 19.8962 6.41377 19.8988 6.23493C19.9014 6.05609 19.8681 5.87855 19.8009 5.71281C19.7337 5.54707 19.6338 5.39651 19.5074 5.27004C19.3809 5.14357 19.2303 5.04376 19.0646 4.97652C18.8989 4.90928 18.7213 4.87598 18.5425 4.87858C18.3636 4.88119 18.1871 4.91965 18.0234 4.9917C17.8597 5.06374 17.7121 5.1679 17.5894 5.298C17.3507 5.55103 17.22 5.88712 17.2251 6.23493C17.2302 6.58274 17.3706 6.91488 17.6166 7.16084C17.8625 7.40681 18.1947 7.54723 18.5425 7.5523C18.8903 7.55737 19.2264 7.42669 19.4794 7.188Z" fill="#414141"/>
</svg>
