<svg xmlns="http://www.w3.org/2000/svg" viewBox="0 0 1594.78 1733.16"><defs><style>.a{isolation:isolate;}.b{mix-blend-mode:multiply;}.c,.dg{fill:transparent;}.c{opacity:0;}.bc,.d{fill:#fcfcfc;}.d{opacity:0.02;}.bd,.e{fill:;}.e{opacity:0.04;}.be,.f{fill:transparent}.f{opacity:0.06;}.bf,.g{fill:#f4f4f4;}.g{opacity:0.08;}.bg,.h{fill:#f2f1f1;}.h{opacity:0.1;}.bh,.i{fill:#efefee;}.i{opacity:0.12;}.bi,.j{fill:#ececeb;}.j{opacity:0.14;}.bj,.k{fill:#eae9e8;}.k{opacity:0.16;}.bk,.l{fill:#e7e6e5;}.l{opacity:0.18;}.bl,.m{fill:#e4e4e2;}.m{opacity:0.2;}.bm,.n{fill:#e2e1e0;}.n{opacity:0.22;}.bn,.o{fill:#dfdedd;}.o{opacity:0.24;}.bo,.p{fill:#dcdbda;}.p{opacity:0.25;}.bp,.q{fill:#dad9d7;}.q{opacity:0.27;}.bq,.r{fill:#d7d6d4;}.r{opacity:0.29;}.br,.s{fill:#d4d3d1;}.s{opacity:0.31;}.bs,.t{fill:#d2d0ce;}.t{opacity:0.33;}.bt,.u{fill:#cfcecb;}.u{opacity:0.35;}.bu,.v{fill:#cccbc9;}.v{opacity:0.37;}.bv,.w{fill:#cac8c6;}.w{opacity:0.39;}.bw,.x{fill:#c7c5c3;}.x{opacity:0.41;}.bx,.y{fill:#c4c3c0;}.y{opacity:0.43;}.by,.z{fill:#c2c0bd;}.z{opacity:0.45;}.aa,.bz{fill:#bfbdba;}.aa{opacity:0.47;}.ab,.ca{fill:#bcbab7;}.ab{opacity:0.49;}.ac,.cb{fill:#bab8b5;}.ac{opacity:0.51;}.ad,.cc{fill:#b7b5b2;}.ad{opacity:0.53;}.ae,.cd{fill:#b4b2af;}.ae{opacity:0.55;}.af,.ce{fill:#b2afac;}.af{opacity:0.57;}.ag,.cf{fill:#afada9;}.ag{opacity:0.59;}.ah,.cg{fill:#acaaa6;}.ah{opacity:0.61;}.ai,.ch{fill:#aaa7a3;}.ai{opacity:0.63;}.aj,.ci{fill:#a7a4a1;}.aj{opacity:0.65;}.ak,.cj{fill:#a4a29e;}.ak{opacity:0.67;}.al,.ck{fill:#a29f9b;}.al{opacity:0.69;}.am,.cl{fill:#9f9c98;}.am{opacity:0.71;}.an,.cm{fill:#9c9995;}.an{opacity:0.73;}.ao,.cn{fill:#9a9792;}.ao{opacity:0.75;}.ap,.co{fill:#97948f;}.ap{opacity:0.76;}.aq,.cp{fill:#94918c;}.aq{opacity:0.78;}.ar,.cq{fill:#928e8a;}.ar{opacity:0.8;}.as,.cr{fill:#8f8c87;}.as{opacity:0.82;}.at,.cs{fill:#8c8984;}.at{opacity:0.84;}.au,.ct{fill:#8a8681;}.au{opacity:0.86;}.av,.cu{fill:#87837e;}.av{opacity:0.88;}.aw,.cv{fill:#84817b;}.aw{opacity:0.9;}.ax,.cw{fill:#827e78;}.ax{opacity:0.92;}.ay,.cx{fill:#7f7b76;}.ay{opacity:0.94;}.az,.cy{fill:#7c7873;}.az{opacity:0.96;}.ba,.cz{fill:#7a7670;}.ba{opacity:0.98;}.bb{fill:#77736d;}.bc{opacity:0.02;}.bd{opacity:0.04;}.be{opacity:0.06;}.bf{opacity:0.08;}.bg{opacity:0.1;}.bh{opacity:0.12;}.bi{opacity:0.14;}.bj{opacity:0.16;}.bk{opacity:0.18;}.bl{opacity:0.2;}.bm{opacity:0.22;}.bn{opacity:0.24;}.bo{opacity:0.25;}.bp{opacity:0.27;}.bq{opacity:0.29;}.br{opacity:0.31;}.bs{opacity:0.33;}.bt{opacity:0.35;}.bu{opacity:0.37;}.bv{opacity:0.39;}.bw{opacity:0.41;}.bx{opacity:0.43;}.by{opacity:0.45;}.bz{opacity:0.47;}.ca{opacity:0.49;}.cb{opacity:0.51;}.cc{opacity:0.53;}.cd{opacity:0.55;}.ce{opacity:0.57;}.cf{opacity:0.59;}.cg{opacity:0.61;}.ch{opacity:0.63;}.ci{opacity:0.65;}.cj{opacity:0.67;}.ck{opacity:0.69;}.cl{opacity:0.71;}.cm{opacity:0.73;}.cn{opacity:0.75;}.co{opacity:0.76;}.cp{opacity:0.78;}.cq{opacity:0.8;}.cr{opacity:0.82;}.cs{opacity:0.84;}.ct{opacity:0.86;}.cu{opacity:0.88;}.cv{opacity:0.9;}.cw{opacity:0.92;}.cx{opacity:0.94;}.cy{opacity:0.96;}.cz{opacity:0.98;}.da{fill:#e9a950;}.da,.dc{stroke:#2b2b2b;stroke-width:35.11px;}.da,.dc,.dd,.df{stroke-miterlimit:10;}.db{fill:#c9883a;}.dc,.df{fill:none;}.dd{fill:#ff69ad;}.dd,.df{stroke:#282826;stroke-width:24.58px;}.de{fill:#d64386;}.dh{fill:#c43b80;}.di{fill:#8aba15;}.dj{fill:#282826;}.dk{fill:#e8d20c;}.dl{fill:#0cbee8;}.dm{fill:#e8450c;}.dn{fill:#c2fffc;}</style></defs><title>simpsons-donut</title><g class="a"><g class="b"><ellipse class="c" cx="797.39" cy="1560.76" rx="797.39" ry="172.4"/><ellipse class="d" cx="797.39" cy="1560.76" rx="786.86" ry="169.99"/><ellipse class="e" cx="797.39" cy="1560.76" rx="776.33" ry="167.58"/><ellipse class="f" cx="797.39" cy="1560.76" rx="765.8" ry="165.18"/><ellipse class="g" cx="797.39" cy="1560.76" rx="755.27" ry="162.77"/><ellipse class="h" cx="797.39" cy="1560.76" rx="744.74" ry="160.36"/><ellipse class="i" cx="797.39" cy="1560.76" rx="734.21" ry="157.95"/><ellipse class="j" cx="797.39" cy="1560.76" rx="723.68" ry="155.55"/><ellipse class="k" cx="797.39" cy="1560.76" rx="713.15" ry="153.14"/><ellipse class="l" cx="797.39" cy="1560.76" rx="702.62" ry="150.73"/><ellipse class="m" cx="797.39" cy="1560.76" rx="692.09" ry="148.33"/><ellipse class="n" cx="797.39" cy="1560.76" rx="681.56" ry="145.92"/><ellipse class="o" cx="797.39" cy="1560.76" rx="671.03" ry="143.51"/><ellipse class="p" cx="797.39" cy="1560.76" rx="660.5" ry="141.1"/><ellipse class="q" cx="797.39" cy="1560.76" rx="649.97" ry="138.7"/><ellipse class="r" cx="797.39" cy="1560.76" rx="639.44" ry="136.29"/><ellipse class="s" cx="797.39" cy="1560.76" rx="628.91" ry="133.88"/><ellipse class="t" cx="797.39" cy="1560.76" rx="618.38" ry="131.47"/><ellipse class="u" cx="797.39" cy="1560.76" rx="607.85" ry="129.07"/><ellipse class="v" cx="797.39" cy="1560.76" rx="597.32" ry="126.66"/><ellipse class="w" cx="797.39" cy="1560.76" rx="586.79" ry="124.25"/><ellipse class="x" cx="797.39" cy="1560.76" rx="576.26" ry="121.84"/><ellipse class="y" cx="797.39" cy="1560.76" rx="565.73" ry="119.44"/><ellipse class="z" cx="797.39" cy="1560.76" rx="555.2" ry="117.03"/><ellipse class="aa" cx="797.39" cy="1560.76" rx="544.67" ry="114.62"/><ellipse class="ab" cx="797.39" cy="1560.76" rx="534.15" ry="112.22"/><ellipse class="ac" cx="797.39" cy="1560.76" rx="523.62" ry="109.81"/><ellipse class="ad" cx="797.39" cy="1560.76" rx="513.09" ry="107.4"/><ellipse class="ae" cx="797.39" cy="1560.76" rx="502.56" ry="104.99"/><ellipse class="af" cx="797.39" cy="1560.76" rx="492.03" ry="102.59"/><ellipse class="ag" cx="797.39" cy="1560.76" rx="481.5" ry="100.18"/><ellipse class="ah" cx="797.39" cy="1560.76" rx="470.97" ry="97.77"/><ellipse class="ai" cx="797.39" cy="1560.76" rx="460.44" ry="95.36"/><ellipse class="aj" cx="797.39" cy="1560.76" rx="449.91" ry="92.96"/><ellipse class="ak" cx="797.39" cy="1560.76" rx="439.38" ry="90.55"/><ellipse class="al" cx="797.39" cy="1560.76" rx="428.85" ry="88.14"/><ellipse class="am" cx="797.39" cy="1560.76" rx="418.32" ry="85.73"/><ellipse class="an" cx="797.39" cy="1560.76" rx="407.79" ry="83.33"/><ellipse class="ao" cx="797.39" cy="1560.76" rx="397.26" ry="80.92"/><ellipse class="ap" cx="797.39" cy="1560.76" rx="386.73" ry="78.51"/><ellipse class="aq" cx="797.39" cy="1560.76" rx="376.2" ry="76.11"/><ellipse class="ar" cx="797.39" cy="1560.76" rx="365.67" ry="73.7"/><ellipse class="as" cx="797.39" cy="1560.76" rx="355.14" ry="71.29"/><ellipse class="at" cx="797.39" cy="1560.76" rx="344.61" ry="68.88"/><ellipse class="au" cx="797.39" cy="1560.76" rx="334.08" ry="66.48"/><ellipse class="av" cx="797.39" cy="1560.76" rx="323.55" ry="64.07"/><ellipse class="aw" cx="797.39" cy="1560.76" rx="313.02" ry="61.66"/><ellipse class="ax" cx="797.39" cy="1560.76" rx="302.49" ry="59.25"/><ellipse class="ay" cx="797.39" cy="1560.76" rx="291.96" ry="56.85"/><ellipse class="az" cx="797.39" cy="1560.76" rx="281.43" ry="54.44"/><ellipse class="ba" cx="797.39" cy="1560.76" rx="270.9" ry="52.03"/><ellipse class="bb" cx="797.39" cy="1560.76" rx="260.37" ry="49.62"/><ellipse class="c" cx="797.39" cy="1560.76" rx="761.12" ry="100.04"/><ellipse class="bc" cx="797.39" cy="1560.76" rx="749.7" ry="98.64"/><ellipse class="bd" cx="797.39" cy="1560.76" rx="738.27" ry="97.24"/><ellipse class="be" cx="797.39" cy="1560.76" rx="726.84" ry="95.85"/><ellipse class="bf" cx="797.39" cy="1560.76" rx="715.42" ry="94.45"/><ellipse class="bg" cx="797.39" cy="1560.76" rx="703.99" ry="93.05"/><ellipse class="bh" cx="797.39" cy="1560.76" rx="692.57" ry="91.66"/><ellipse class="bi" cx="797.39" cy="1560.76" rx="681.14" ry="90.26"/><ellipse class="bj" cx="797.39" cy="1560.76" rx="669.72" ry="88.86"/><ellipse class="bk" cx="797.39" cy="1560.76" rx="658.29" ry="87.47"/><ellipse class="bl" cx="797.39" cy="1560.76" rx="646.86" ry="86.07"/><ellipse class="bm" cx="797.39" cy="1560.76" rx="635.44" ry="84.67"/><ellipse class="bn" cx="797.39" cy="1560.76" rx="624.01" ry="83.28"/><ellipse class="bo" cx="797.39" cy="1560.76" rx="612.59" ry="81.88"/><ellipse class="bp" cx="797.39" cy="1560.76" rx="601.16" ry="80.48"/><ellipse class="bq" cx="797.39" cy="1560.76" rx="589.74" ry="79.08"/><ellipse class="br" cx="797.39" cy="1560.76" rx="578.31" ry="77.69"/><ellipse class="bs" cx="797.39" cy="1560.76" rx="566.88" ry="76.29"/><ellipse class="bt" cx="797.39" cy="1560.76" rx="555.46" ry="74.89"/><ellipse class="bu" cx="797.39" cy="1560.76" rx="544.03" ry="73.5"/><ellipse class="bv" cx="797.39" cy="1560.76" rx="532.61" ry="72.1"/><ellipse class="bw" cx="797.39" cy="1560.76" rx="521.18" ry="70.7"/><ellipse class="bx" cx="797.39" cy="1560.76" rx="509.76" ry="69.31"/><ellipse class="by" cx="797.39" cy="1560.76" rx="498.33" ry="67.91"/><ellipse class="bz" cx="797.39" cy="1560.76" rx="486.9" ry="66.51"/><ellipse class="ca" cx="797.39" cy="1560.76" rx="475.48" ry="65.12"/><ellipse class="cb" cx="797.39" cy="1560.76" rx="464.05" ry="63.72"/><ellipse class="cc" cx="797.39" cy="1560.76" rx="452.63" ry="62.32"/><ellipse class="cd" cx="797.39" cy="1560.76" rx="441.2" ry="60.92"/><ellipse class="ce" cx="797.39" cy="1560.76" rx="429.78" ry="59.53"/><ellipse class="cf" cx="797.39" cy="1560.76" rx="418.35" ry="58.13"/><ellipse class="cg" cx="797.39" cy="1560.76" rx="406.92" ry="56.73"/><ellipse class="ch" cx="797.39" cy="1560.76" rx="395.5" ry="55.34"/><ellipse class="ci" cx="797.39" cy="1560.76" rx="384.07" ry="53.94"/><ellipse class="cj" cx="797.39" cy="1560.76" rx="372.65" ry="52.54"/><ellipse class="ck" cx="797.39" cy="1560.76" rx="361.22" ry="51.15"/><ellipse class="cl" cx="797.39" cy="1560.76" rx="349.8" ry="49.75"/><ellipse class="cm" cx="797.39" cy="1560.76" rx="338.37" ry="48.35"/><ellipse class="cn" cx="797.39" cy="1560.76" rx="326.94" ry="46.96"/><ellipse class="co" cx="797.39" cy="1560.76" rx="315.52" ry="45.56"/><ellipse class="cp" cx="797.39" cy="1560.76" rx="304.09" ry="44.16"/><ellipse class="cq" cx="797.39" cy="1560.76" rx="292.67" ry="42.76"/><ellipse class="cr" cx="797.39" cy="1560.76" rx="281.24" ry="41.37"/><ellipse class="cs" cx="797.39" cy="1560.76" rx="269.82" ry="39.97"/><ellipse class="ct" cx="797.39" cy="1560.76" rx="258.39" ry="38.57"/><ellipse class="cu" cx="797.39" cy="1560.76" rx="246.96" ry="37.18"/><ellipse class="cv" cx="797.39" cy="1560.76" rx="235.54" ry="35.78"/><ellipse class="cw" cx="797.39" cy="1560.76" rx="224.11" ry="34.38"/><ellipse class="cx" cx="797.39" cy="1560.76" rx="212.69" ry="32.99"/><ellipse class="cy" cx="797.39" cy="1560.76" rx="201.26" ry="31.59"/><ellipse class="cz" cx="797.39" cy="1560.76" rx="189.84" ry="30.19"/><ellipse class="bb" cx="797.39" cy="1560.76" rx="178.41" ry="28.8"/></g><path class="da" d="M1795.5,917.79a748.2,748.2,0,0,0-94.57-242c-111.17-182.63-297.87-314.17-516.71-351.32a761.41,761.41,0,0,0-247.06-1.09c-201.07,32.23-375.52,144.11-490,302.23a752.18,752.18,0,0,0,55.27,949.92c137.64,150,335.3,244,554.95,244,415.79,0,752.89-337.06,752.89-752.85A754.5,754.5,0,0,0,1795.5,917.79Zm-502.63,149c0,130.06-105.42,235.51-235.51,235.51s-235.55-105.45-235.55-235.51,105.45-235.58,235.55-235.58S1292.87,936.65,1292.87,1066.75Z" transform="translate(-262.72 -282.78)"/><path class="db" d="M1795.5,917.79a753.29,753.29,0,0,0-460.77-551.15,756,756,0,0,1,275.57,266,750.41,750.41,0,0,1,109.32,390.93c0,415.79-337.1,752.85-752.89,752.85A750.53,750.53,0,0,1,689,1723.53a749.71,749.71,0,0,0,368.32,96.07c415.79,0,752.89-337.06,752.89-752.85A754.5,754.5,0,0,0,1795.5,917.79Z" transform="translate(-262.72 -282.78)"/><path class="dc" d="M1795.5,917.79a748.2,748.2,0,0,0-94.57-242c-111.17-182.63-297.87-314.17-516.71-351.32a761.41,761.41,0,0,0-247.06-1.09c-201.07,32.23-375.52,144.11-490,302.23a752.18,752.18,0,0,0,55.27,949.92c137.64,150,335.3,244,554.95,244,415.79,0,752.89-337.06,752.89-752.85A754.5,754.5,0,0,0,1795.5,917.79Zm-502.63,149c0,130.06-105.42,235.51-235.51,235.51s-235.55-105.45-235.55-235.51,105.45-235.58,235.55-235.58S1292.87,936.65,1292.87,1066.75Z" transform="translate(-262.72 -282.78)"/><path class="dd" d="M1774.15,758.2c-22.69-36.17-47.41-62.51-73.22-82.38-87.08-67.14-186.21-60.61-258.68-109.59-83.4-56.36-134.11-183.93-258-241.73-43.61-20.33-96.24-32-162.54-28.94-30,1.37-57.94,11.84-84.52,27.85-89.58,54-163.35,171.29-244.5,219.29-82.42,48.74-161.64,6.74-245.52,82.94-23.22,21.1-46.81,51.23-70.9,94.88-12,21.7-17.28,43.82-18.08,66.4-3.27,86.14,58.11,178.91,58.11,280.29,0,75.67-58.57,139.86-78.76,220.87-10.57,42.38-10.61,89.36,13.73,145.05,38.69,88.49,92.88,126.1,151.17,142.43,83.53,23.31,175.39,3,241.93,26,120.48,41.68,202.26,170.8,348.48,174.91,200,5.58,183.26-156.79,300.76-244,94.24-70,224.73-44.73,274.66-152.25,42-90.35,31-171.4,31-277.58,0-73.74,67.21-120.8,96.25-184.85C1814.46,875.94,1817.16,826.81,1774.15,758.2Zm-716.79,544.06c-130.1,0-235.55-105.45-235.55-235.51s105.45-235.58,235.55-235.58,235.51,105.48,235.51,235.58S1187.45,1302.26,1057.36,1302.26Z" transform="translate(-262.72 -282.78)"/><path class="de" d="M1774.15,758.2c-22.69-36.17-47.41-62.51-73.22-82.38-87.08-67.14-186.21-60.61-258.68-109.59-39.71-26.84-72-69.82-108.33-113.72l0,0q-5.61-6.79-11.39-13.59l-2.06-2.42c-1.55-1.82-3.11-3.62-4.67-5.43-1.1-1.26-2.19-2.53-3.3-3.79-1.33-1.51-2.67-3-4-4.54s-2.66-3-4-4.48-2.44-2.69-3.68-4q-2.23-2.43-4.5-4.85-1.74-1.84-3.49-3.68c-1.61-1.7-3.24-3.38-4.89-5.06-1.11-1.14-2.24-2.28-3.37-3.42q-2.6-2.6-5.23-5.16l-3.31-3.21c-1.83-1.74-3.68-3.46-5.54-5.18q-1.63-1.53-3.3-3c-1.91-1.74-3.86-3.45-5.82-5.16-1.1-1-2.19-1.92-3.31-2.87-2-1.72-4.07-3.41-6.13-5.09-1.1-.9-2.19-1.81-3.31-2.7-2.12-1.7-4.28-3.36-6.45-5-1.11-.85-2.21-1.7-3.33-2.54-2.23-1.66-4.51-3.27-6.8-4.88-1.11-.79-2.21-1.6-3.34-2.37-2.37-1.63-4.79-3.21-7.22-4.79-1.1-.71-2.18-1.44-3.29-2.15-2.54-1.6-5.14-3.15-7.75-4.7-1.06-.62-2.09-1.27-3.15-1.89-2.86-1.64-5.78-3.22-8.72-4.79-.87-.46-1.71-1-2.59-1.41-3.85-2-7.76-3.95-11.76-5.81-43.61-20.33-96.24-32-162.54-28.94C992,296.92,964.26,307.21,937.9,323l-.14.08h0l-.6.35c-89.58,54-163.35,171.29-244.5,219.29-82.42,48.74-161.64,6.74-245.52,82.94-23.22,21.1-46.81,51.23-70.9,94.88-12,21.7-17.28,43.82-18.08,66.4-3.27,86.14,58.11,178.91,58.11,280.29,0,75.67-58.57,139.86-78.76,220.87-10.57,42.38-10.61,89.36,13.73,145.05,38.69,88.49,92.88,126.1,151.17,142.43,2.68.75,5.38,1.45,8.08,2.11l2,.46c2,.48,4.1,1,6.15,1.4l2.4.48c1.92.4,3.85.79,5.78,1.15.85.16,1.7.29,2.56.44,1.88.34,3.76.67,5.65,1,.88.14,1.77.26,2.66.39q2.77.43,5.58.81c.89.13,1.79.23,2.69.35,1.86.23,3.72.47,5.58.68l2.67.28c1.87.2,3.74.4,5.62.58l2.64.23q2.84.25,5.65.47l2.61.19,5.68.39,2.61.15,5.66.31,2.65.12c1.86.09,3.71.17,5.57.24l2.77.1,5.31.18,3.16.09,4.63.12,4.14.09,2.91.06q9.88.21,19.65.36h0c39.63.69,77.16,1.8,108.91,12.79,120.48,41.68,202.26,170.8,348.48,174.91,200,5.58,183.26-156.79,300.76-244,94.24-70,224.73-44.73,274.66-152.25,42-90.35,31-171.4,31-277.58,0-73.74,67.21-120.8,96.25-184.85C1814.46,875.94,1817.16,826.81,1774.15,758.2ZM1646.52,870.8c-39.86,47.65-119.68,100.38-119.68,165,0,93.05,78.23,187.25,39.71,266.43-45.79,94.21-208.13,55.77-294.58,117.08-107.73,76.41-18.85,244.54-202.28,239.62-134.07-3.58-232.18-193.42-380.65-148.68-186.1,56.08-321.73-63.68-295.75-186.66,15.84-74.93,139.81-143.82,139.81-212.86,0-92.46-104.87-126.15-124-257-3-20.41-11.73-122,69-189.82C610.92,552.2,727.12,669.18,801,596c81.8-81,136-384.64,388.51-190.55,78.9,60.65,167.16,199.34,248.8,255.64,61.57,42.45,138.08,32.2,172.19,48.76C1701.26,753.93,1679.67,831.17,1646.52,870.8Z" transform="translate(-262.72 -282.78)"/><path class="de" d="M1039,746.68c-174.94,0-316.74,138.67-316.74,309.75s141.8,309.71,316.74,309.71,316.73-138.67,316.73-309.71S1213.93,746.68,1039,746.68Zm18.33,555.58c-130.1,0-235.55-105.45-235.55-235.51s105.45-235.58,235.55-235.58,235.51,105.48,235.51,235.58S1187.45,1302.26,1057.36,1302.26Z" transform="translate(-262.72 -282.78)"/><path class="df" d="M1774.15,758.2c-22.69-36.17-47.41-62.51-73.22-82.38-87.08-67.14-186.21-60.61-258.68-109.59-83.4-56.36-134.11-183.93-258-241.73-43.61-20.33-96.24-32-162.54-28.94-30,1.37-57.94,11.84-84.52,27.85-89.58,54-163.35,171.29-244.5,219.29-82.42,48.74-161.64,6.74-245.52,82.94-23.22,21.1-46.81,51.23-70.9,94.88-12,21.7-17.28,43.82-18.08,66.4-3.27,86.14,58.11,178.91,58.11,280.29,0,75.67-58.57,139.86-78.76,220.87-10.57,42.38-10.61,89.36,13.73,145.05,38.69,88.49,92.88,126.1,151.17,142.43,83.53,23.31,175.39,3,241.93,26,120.48,41.68,202.26,170.8,348.48,174.91,200,5.58,183.26-156.79,300.76-244,94.24-70,224.73-44.73,274.66-152.25,42-90.35,31-171.4,31-277.58,0-73.74,67.21-120.8,96.25-184.85C1814.46,875.94,1817.16,826.81,1774.15,758.2Zm-716.79,544.06c-130.1,0-235.55-105.45-235.55-235.51s105.45-235.58,235.55-235.58,235.51,105.48,235.51,235.58S1187.45,1302.26,1057.36,1302.26Z" transform="translate(-262.72 -282.78)"/><path class="dg" d="M1203.67,1345.19l-.59-1.21a21.64,21.64,0,0,1,8.75-28.28c78.45-44.79,123.29-117.7,133.36-217,5.64-55.56-1.43-105.11-6.54-131.19a21.63,21.63,0,0,1,15.37-25l1.34-.38a21.65,21.65,0,0,1,27.16,16.64c5.75,29.19,13.36,83.22,7.15,144.41-11.47,113.11-65.15,199.54-155.7,251.36A21.71,21.71,0,0,1,1203.67,1345.19Z" transform="translate(-262.72 -282.78)"/><path class="dg" d="M1292.77,883.28c-2.93-4.27-6.2-8.68-9.45-12.88a21.71,21.71,0,0,1,2.78-29.59h0a21.65,21.65,0,0,1,31.4,2.92c3.53,4.56,7.32,9.66,10.93,14.92a21.7,21.7,0,0,1-9,32.1h0A21.64,21.64,0,0,1,1292.77,883.28Z" transform="translate(-262.72 -282.78)"/><path class="dh" d="M914.85,701.92H817a24,24,0,0,1-23.9-23.9h0a24,24,0,0,1,23.9-23.9h97.81A24,24,0,0,1,938.74,678h0A24,24,0,0,1,914.85,701.92Z" transform="translate(-262.72 -282.78)"/><rect class="dh" x="806.05" y="198.57" width="145.6" height="47.8" rx="23.9"/><path class="dh" d="M1243.64,672.07,1161,724.36a24,24,0,0,1-33-7.41h0a24,24,0,0,1,7.41-33l82.65-52.29a24,24,0,0,1,33,7.41h0A24,24,0,0,1,1243.64,672.07Z" transform="translate(-262.72 -282.78)"/><path class="dh" d="M606.57,784.36l-82.65,52.3a24,24,0,0,1-33-7.41h0a24,24,0,0,1,7.41-33L581,744a24,24,0,0,1,33,7.42h0A24,24,0,0,1,606.57,784.36Z" transform="translate(-262.72 -282.78)"/><path class="dh" d="M1635,1064.51l-82.64,52.3a24,24,0,0,1-33-7.41h0a24,24,0,0,1,7.42-33l82.65-52.3a24,24,0,0,1,33,7.42h0A24,24,0,0,1,1635,1064.51Z" transform="translate(-262.72 -282.78)"/><path class="dh" d="M1015.58,1492.59l-84.7-48.9a24,24,0,0,1-8.74-32.65h0a24,24,0,0,1,32.64-8.74l84.7,48.9a24,24,0,0,1,8.75,32.64h0A24,24,0,0,1,1015.58,1492.59Z" transform="translate(-262.72 -282.78)"/><path class="dh" d="M772.42,923.2l-93.91,27.33a24,24,0,0,1-29.62-16.27h0a24,24,0,0,1,16.26-29.62l93.91-27.33a24,24,0,0,1,29.62,16.26h0A24,24,0,0,1,772.42,923.2Z" transform="translate(-262.72 -282.78)"/><path class="dh" d="M572.19,1252.43,503,1183.28a24,24,0,0,1,0-33.8h0a24,24,0,0,1,33.79,0L606,1218.64a24,24,0,0,1,0,33.79h0A24,24,0,0,1,572.19,1252.43Z" transform="translate(-262.72 -282.78)"/><path class="dh" d="M1555.73,1352.09l-93.72-28a24,24,0,0,1-16-29.73h0a24,24,0,0,1,29.74-16.06l93.71,28a24,24,0,0,1,16,29.74h0A24,24,0,0,1,1555.73,1352.09Z" transform="translate(-262.72 -282.78)"/><path class="dh" d="M674.16,1471.34h-97.8a24,24,0,0,1-23.9-23.9h0a24,24,0,0,1,23.9-23.89h97.8a24,24,0,0,1,23.9,23.89h0A24,24,0,0,1,674.16,1471.34Z" transform="translate(-262.72 -282.78)"/><path class="dh" d="M1541.09,864.6l-79-57.72a24,24,0,0,1-5.19-33.39h0a24,24,0,0,1,33.39-5.19l79,57.71a24,24,0,0,1,5.19,33.4h0A24,24,0,0,1,1541.09,864.6Z" transform="translate(-262.72 -282.78)"/><path class="dh" d="M1153.35,1563.65l60.91-76.52a24,24,0,0,1,33.58-3.81h0a24,24,0,0,1,3.82,33.58l-60.92,76.52a24,24,0,0,1-33.58,3.81h0A24,24,0,0,1,1153.35,1563.65Z" transform="translate(-262.72 -282.78)"/><rect class="di" x="500.68" y="357.28" width="145.6" height="47.8" rx="23.9"/><path class="dj" d="M885.1,694.88H787.3a30.92,30.92,0,1,1,0-61.84h97.8a30.92,30.92,0,0,1,0,61.84Zm-97.8-47.8a16.88,16.88,0,1,0,0,33.75h97.8a16.88,16.88,0,1,0,0-33.75Z" transform="translate(-262.72 -282.78)"/><rect class="dk" x="776.31" y="184.51" width="145.6" height="47.8" rx="23.9"/><path class="dj" d="M1160.73,522.11h-97.81a30.93,30.93,0,0,1,0-61.85h97.81a30.93,30.93,0,0,1,0,61.85Zm-97.81-47.8a16.88,16.88,0,0,0,0,33.75h97.81a16.88,16.88,0,0,0,0-33.75Z" transform="translate(-262.72 -282.78)"/><path class="dl" d="M1213.9,658l-82.65,52.3a24,24,0,0,1-33-7.41h0a24,24,0,0,1,7.41-33l82.65-52.29a24,24,0,0,1,33,7.41h0A24,24,0,0,1,1213.9,658Z" transform="translate(-262.72 -282.78)"/><path class="dj" d="M1118.58,721a31.61,31.61,0,0,1-6.88-.77,30.89,30.89,0,0,1-9.76-56.27l82.65-52.3a30.92,30.92,0,0,1,33.06,52.26L1135,716.24A30.68,30.68,0,0,1,1118.58,721Zm82.51-100.08a16.73,16.73,0,0,0-9,2.61l-82.65,52.3a16.84,16.84,0,0,0,5.33,30.69,16.71,16.71,0,0,0,12.72-2.17l82.64-52.3a16.87,16.87,0,0,0-9.05-31.13Z" transform="translate(-262.72 -282.78)"/><path class="dm" d="M576.82,770.3l-82.65,52.3a24,24,0,0,1-33-7.41h0a24,24,0,0,1,7.42-33l82.64-52.3a24,24,0,0,1,33,7.42h0A24,24,0,0,1,576.82,770.3Z" transform="translate(-262.72 -282.78)"/><path class="dj" d="M481.44,833.32a30.91,30.91,0,0,1-16.58-57L547.51,724a30.92,30.92,0,0,1,33.06,52.26l-82.64,52.3A30.75,30.75,0,0,1,481.44,833.32ZM564,733.24a16.73,16.73,0,0,0-9,2.61l-82.65,52.3a16.88,16.88,0,1,0,18.05,28.52l82.64-52.3a16.87,16.87,0,0,0-9-31.13Z" transform="translate(-262.72 -282.78)"/><path class="dk" d="M1605.27,1050.45l-82.65,52.3a24,24,0,0,1-33-7.41h0a24,24,0,0,1,7.41-33l82.65-52.3a24,24,0,0,1,33,7.42h0A24,24,0,0,1,1605.27,1050.45Z" transform="translate(-262.72 -282.78)"/><path class="dj" d="M1509.89,1113.47a30.93,30.93,0,0,1-16.58-57l82.64-52.3a30.92,30.92,0,1,1,33.07,52.26l-3.75-5.94,3.75,5.94-82.64,52.3A30.83,30.83,0,0,1,1509.89,1113.47Zm82.52-100.07a16.59,16.59,0,0,0-8.94,2.6l-82.65,52.3a17,17,0,0,0-5.24,23.28,16.91,16.91,0,0,0,23.29,5.24l82.64-52.3a16.85,16.85,0,0,0-5.32-30.7A17.45,17.45,0,0,0,1592.41,1013.4Z" transform="translate(-262.72 -282.78)"/><path class="dl" d="M985.84,1478.53l-84.7-48.9a24,24,0,0,1-8.75-32.65h0a24,24,0,0,1,32.65-8.74l84.7,48.9a24,24,0,0,1,8.74,32.64h0A24,24,0,0,1,985.84,1478.53Z" transform="translate(-262.72 -282.78)"/><path class="dj" d="M997.73,1488.75a30.63,30.63,0,0,1-15.4-4.14h0l-84.7-48.9a30.92,30.92,0,1,1,30.92-53.56l84.7,48.91a30.91,30.91,0,0,1-15.52,57.69Zm-8.38-16.3a16.85,16.85,0,0,0,24.71-19,16.72,16.72,0,0,0-7.84-10.25l-84.7-48.9a16.87,16.87,0,0,0-16.87,29.23Z" transform="translate(-262.72 -282.78)"/><path class="dk" d="M742.67,909.14l-93.91,27.33a24,24,0,0,1-29.62-16.27h0a24,24,0,0,1,16.27-29.62l93.9-27.33a24,24,0,0,1,29.63,16.26h0A24,24,0,0,1,742.67,909.14Z" transform="translate(-262.72 -282.78)"/><path class="dj" d="M642.09,944.45a30.93,30.93,0,0,1-8.64-60.62l93.9-27.33a30.92,30.92,0,1,1,17.28,59.38l-93.9,27.33A30.85,30.85,0,0,1,642.09,944.45ZM736,869.31a16.72,16.72,0,0,0-4.71.68l-93.91,27.33a16.88,16.88,0,0,0,9.43,32.41l93.91-27.34A16.88,16.88,0,0,0,736,869.31Z" transform="translate(-262.72 -282.78)"/><path class="di" d="M542.45,1238.37l-69.16-69.15a24,24,0,0,1,0-33.8h0a24,24,0,0,1,33.8,0l69.15,69.16a24,24,0,0,1,0,33.79h0A24,24,0,0,1,542.45,1238.37Z" transform="translate(-262.72 -282.78)"/><path class="dj" d="M559.35,1252.37a30.72,30.72,0,0,1-21.87-9l-69.16-69.16a30.92,30.92,0,0,1,43.73-43.73l69.16,69.16a30.9,30.9,0,0,1-21.86,52.76Zm-69.16-116.9a16.87,16.87,0,0,0-11.93,28.78l69.15,69.16a16.88,16.88,0,0,0,23.87-23.87l-69.16-69.15A16.76,16.76,0,0,0,490.19,1135.47Z" transform="translate(-262.72 -282.78)"/><path class="dm" d="M1526,1338l-93.71-28a24,24,0,0,1-16.06-29.73h0a24,24,0,0,1,29.74-16.06l93.71,28a24,24,0,0,1,16.06,29.74h0A24,24,0,0,1,1526,1338Z" transform="translate(-262.72 -282.78)"/><path class="dj" d="M1532.81,1346.06a30.82,30.82,0,0,1-8.84-1.3l-93.71-28a30.92,30.92,0,0,1,17.7-59.25l93.71,28a30.93,30.93,0,0,1-8.86,60.55Zm-93.67-75.8a16.88,16.88,0,0,0-4.86,33l93.71,28a16.87,16.87,0,0,0,9.66-32.33l-93.71-28A16.81,16.81,0,0,0,1439.14,1270.26Z" transform="translate(-262.72 -282.78)"/><rect class="dm" x="260" y="1126.7" width="145.6" height="47.8" rx="23.9"/><path class="dj" d="M644.42,1464.3h-97.8a30.92,30.92,0,1,1,0-61.84h97.8a30.92,30.92,0,1,1,0,61.84Zm-97.8-47.79a16.88,16.88,0,1,0,0,33.75h97.8a16.88,16.88,0,0,0,0-33.75Z" transform="translate(-262.72 -282.78)"/><path class="dl" d="M1511.34,850.54l-79-57.72a24,24,0,0,1-5.19-33.39h0a24,24,0,0,1,33.4-5.19l79,57.71a24,24,0,0,1,5.19,33.4h0A24,24,0,0,1,1511.34,850.54Z" transform="translate(-262.72 -282.78)"/><path class="dj" d="M1525.4,862.15a30.75,30.75,0,0,1-18.2-5.94l-79-57.72a30.92,30.92,0,0,1,36.49-49.92l79,57.71a30.91,30.91,0,0,1-18.29,55.87Zm-9.91-17.28a16.87,16.87,0,0,0,19.91-27.25l-79-57.71a16.87,16.87,0,0,0-19.91,27.24Z" transform="translate(-262.72 -282.78)"/><path class="di" d="M1123.6,1549.59l60.92-76.52a24,24,0,0,1,33.58-3.81h0a24,24,0,0,1,3.81,33.58L1161,1579.36a24,24,0,0,1-33.58,3.81h0A24,24,0,0,1,1123.6,1549.59Z" transform="translate(-262.72 -282.78)"/><path class="dj" d="M1142.27,1595.38a30.94,30.94,0,0,1-24.16-50.17L1179,1468.7a30.92,30.92,0,0,1,48.38,38.51l-60.91,76.52A30.87,30.87,0,0,1,1142.27,1595.38Zm61-124.28a18.54,18.54,0,0,0-2,.11,16.8,16.8,0,0,0-11.3,6.23L1129.1,1554a16.87,16.87,0,0,0,26.4,21l60.92-76.52a16.85,16.85,0,0,0-13.15-27.36Z" transform="translate(-262.72 -282.78)"/><circle class="dh" cx="683.91" cy="264.44" r="23.22"/><circle class="dh" cx="449.75" cy="502.4" r="23.22"/><circle class="dh" cx="216.44" cy="1073.71" r="23.22"/><circle class="dh" cx="473.98" cy="831.75" r="23.22"/><circle class="dh" cx="850.61" cy="1310.06" r="23.22" transform="translate(-704.53 150.11) rotate(-22.84)"/><circle class="dh" cx="611.11" cy="1289.63" r="23.22"/><circle class="dh" cx="1083.95" cy="1159.52" r="23.22"/><circle class="dh" cx="1346.02" cy="927.1" r="23.22"/><circle class="dh" cx="1712.77" cy="885.56" r="23.22" transform="translate(301.57 2151.58) rotate(-80.78)"/><circle class="dh" cx="1110.72" cy="428.06" r="23.22"/><circle class="dh" cx="807.53" cy="115.99" r="23.22"/><circle class="dh" cx="239.66" cy="707.23" r="23.22"/><circle class="dn" cx="669.5" cy="255.52" r="23.22"/><path class="dj" d="M932.22,566.42a28.12,28.12,0,1,1,28.11-28.12A28.15,28.15,0,0,1,932.22,566.42Zm0-46.44a18.33,18.33,0,1,0,18.32,18.32A18.35,18.35,0,0,0,932.22,520Z" transform="translate(-262.72 -282.78)"/><circle class="dn" cx="698.06" cy="776.26" r="23.22" transform="translate(-506.64 43.44) rotate(-22.5)"/><path class="dj" d="M698.06,804.37a28.11,28.11,0,1,1,28.12-28.11A28.14,28.14,0,0,1,698.06,804.37Zm0-46.44a18.33,18.33,0,1,0,18.33,18.33A18.35,18.35,0,0,0,698.06,757.93Z" transform="translate(-262.72 -282.78)"/><circle class="dn" cx="464.75" cy="1347.57" r="23.22" transform="translate(-749.35 3.28) rotate(-22.84)"/><path class="dj" d="M464.75,1375.69a28.12,28.12,0,1,1,28.12-28.12A28.15,28.15,0,0,1,464.75,1375.69Zm0-46.44a18.33,18.33,0,1,0,18.33,18.32A18.34,18.34,0,0,0,464.75,1329.25Z" transform="translate(-262.72 -282.78)"/><circle class="dn" cx="722.29" cy="1105.61" r="23.22" transform="translate(-783.46 1268.83) rotate(-76.58)"/><path class="dj" d="M722.29,1133.72a28.12,28.12,0,1,1,28.12-28.11A28.14,28.14,0,0,1,722.29,1133.72Zm0-46.44a18.33,18.33,0,1,0,18.33,18.33A18.35,18.35,0,0,0,722.29,1087.28Z" transform="translate(-262.72 -282.78)"/><circle class="dn" cx="573.48" cy="1018.35" r="23.22"/><path class="dj" d="M836.2,1329.25a28.12,28.12,0,1,1,28.11-28.11A28.14,28.14,0,0,1,836.2,1329.25Zm0-46.44a18.33,18.33,0,1,0,18.32,18.33A18.35,18.35,0,0,0,836.2,1282.81Z" transform="translate(-262.72 -282.78)"/><circle class="dn" cx="596.7" cy="1280.71" r="23.22"/><path class="dj" d="M859.42,1591.6a28.11,28.11,0,1,1,28.11-28.11A28.15,28.15,0,0,1,859.42,1591.6Zm0-46.43a18.33,18.33,0,1,0,18.32,18.32A18.35,18.35,0,0,0,859.42,1545.17Z" transform="translate(-262.72 -282.78)"/><circle class="dn" cx="1332.26" cy="1433.38" r="23.22" transform="translate(-886.06 1079.1) rotate(-45)"/><path class="dj" d="M1332.26,1461.5a28.12,28.12,0,1,1,28.11-28.12A28.15,28.15,0,0,1,1332.26,1461.5Zm0-46.44a18.33,18.33,0,1,0,18.33,18.32A18.34,18.34,0,0,0,1332.26,1415.06Z" transform="translate(-262.72 -282.78)"/><circle class="dn" cx="1594.33" cy="1200.96" r="23.22" transform="translate(-600.94 418.76) rotate(-22.5)"/><path class="dj" d="M1594.33,1229.07a28.12,28.12,0,1,1,28.11-28.11A28.14,28.14,0,0,1,1594.33,1229.07Zm0-46.44a18.33,18.33,0,1,0,18.33,18.33A18.35,18.35,0,0,0,1594.33,1182.63Z" transform="translate(-262.72 -282.78)"/><circle class="dn" cx="1435.64" cy="593.86" r="23.22"/><path class="dj" d="M1698.36,904.75a28.11,28.11,0,1,1,28.11-28.11A28.14,28.14,0,0,1,1698.36,904.75Zm0-46.44a18.33,18.33,0,1,0,18.33,18.33A18.35,18.35,0,0,0,1698.36,858.31Z" transform="translate(-262.72 -282.78)"/><circle class="dn" cx="1096.31" cy="419.14" r="23.22"/><path class="dj" d="M1359,730a28.11,28.11,0,1,1,28.11-28.11A28.14,28.14,0,0,1,1359,730Zm0-46.44a18.33,18.33,0,1,0,18.32,18.33A18.35,18.35,0,0,0,1359,683.59Z" transform="translate(-262.72 -282.78)"/><circle class="dn" cx="793.12" cy="107.07" r="23.22"/><path class="dj" d="M1055.84,418A28.12,28.12,0,1,1,1084,389.85,28.14,28.14,0,0,1,1055.84,418Zm0-46.44a18.33,18.33,0,1,0,18.32,18.32A18.35,18.35,0,0,0,1055.84,371.53Z" transform="translate(-262.72 -282.78)"/><circle class="dn" cx="225.26" cy="698.31" r="23.22"/><path class="dj" d="M488,1009.21a28.12,28.12,0,1,1,28.12-28.12A28.15,28.15,0,0,1,488,1009.21Zm0-46.44a18.33,18.33,0,1,0,18.33,18.32A18.34,18.34,0,0,0,488,962.77Z" transform="translate(-262.72 -282.78)"/></g></svg>