<svg xmlns="http://www.w3.org/2000/svg" width="2500" height="2500" viewBox="0 0 192.756 192.756"><path fill-rule="evenodd" clip-rule="evenodd" fill="#fff" d="M0 0h192.756v192.756H0V0z"/><path d="M10.222 89.684c-1.896 2.495-2.531 2.273-3.781-.21-1.03-1.451-1.292-1.744.876-4.13 24.56-20.82 43.073-27.68 34.288 2.287 1.799-.735 7.66-3.009 9.449-3.558 1.788-.551 1.275 2.021.235 2.427-1.04.406-9.674 2.617-10.396 3.969-2.67 9.786-8.902 25.411-9.533 26.768-1.05 2.262-3.392 1.109-3.392 1.109s-2.167-.955-1.055-2.658c3.408-4.73 8.364-19.033 9.66-24.067-2.27.895-6.021 3.471-6.021 3.471l-1.081-2.196s5.723-3.116 7.604-3.661c16.508-40.772-24.055-3.294-26.853.449zm52.985-1.22c1.629-1.022.671 2.916-1.635 2.788-11.049-.617-11.58.281-11.564 1.675-.087 1.573 5.769.917 10.042.746 3.422.006 2.216 2.292.378 3.18-6.461 3.168-6.21 3.553-5.457 4.986 2.521 2.926 7.553-2.734 10.438-4.709 11.145-7.457 8.9 1.332 8.685 1.877s-2.014 6.295 3.269-2.23c8.814-13.808 9.808-3.64 8.772-1.369-4.341 9.878.997 7.373 1.602 7.972.605.602-7.255 5.549-5.446-3.73 3.203-11.055-1.485-4.91-4.739.387-1.962 4.158-8.667 6.391-6.902 1.008 2.896-7.174-.577-5.687-8.085.662-4.483 4.113-7.758 4.768-9.964 2.688-1.462-1.84-1.867-4.779 5.368-8.236-5.224.619-9.883-.274-10.729-3.385-.395-1.719 2.285-4.515 9.312-4.256 3.954.26 6.071.471 6.655-.054zm31.149 14.399c.59.611 3.437 1.701 5.398-1.123.566-.902 1.244-1.863 1.771-4.094 1.279-6.417 2.271-23.784 3.965-30.994-.184-2.239 4.678-3.97 4.537-.613-1.889 6.557-6.172 32.341-6.354 33.382-.693 3.615 2 6.24 4.742 3.484s1.564.707 1.172 1.117c-5.576 4.889-8.404-.842-8.377-1.334-1.055 2.355-9.516 5.906-10.66-2.391-1.226-9.045 7.119-13.84 9.33-10.312.762.723 1.291 3.415-.789 1.999-3.767-3.242-7.293 8.075-4.735 10.879zm31.738-14.012c2.072-.689-.133 3.521-2.111 3.596-11.381-1.626-15.477 3.283.209 4.036 1.873-.453 1.201 2.791.188 3.291-1.588.252-2.906-.23-3.895.154-6.918 2.688-1.051 8.947 8.557-.822.521-.527 3.84-3.624 4.818-7.965-2.25-9.473 6.268-3.983 2.352-1.23.756.847 2.09 2.346 4.119 3.573 1.006.799 1.312 1.073.096 2.729-5.537 8.639 2.229 7.084 4.061 3.508.359.205.932 1.336-.615 2.551-6.695 5.074-9.119-.045-7.529-2.51 1.826-2.908 2.027-4.46 2.027-4.46s-2.811-2.105-3.297-2.668c-7.268 16.557-23.896 16.271-20.057 9.477 1.023-1.797 3.271-2.613 6.143-3.875-7.852.982-17.459-7.535-.783-8.589 3.271-.066 3.643-.107 5.717-.796z" fill="none" stroke="#000" stroke-width=".742" stroke-linecap="round" stroke-linejoin="round" stroke-miterlimit="2.613"/><path d="M110.307 114.051l.734-.525 1.902 2.682-.734.525-1.902-2.682zm-1.393.996l.734-.525 1.902 2.682-.732.523-1.904-2.68zM118.803 113.709l-.014 1.506-1.523-.012-.061 7.092-1.57-.014.06-7.092-1.523-.013.012-1.506 4.619.039zM124.064 122.354l-4.339-.038.072-8.597 4.342.037-.014 1.506-2.771-.024-.016 1.971 2.771.023-.013 1.483-2.77-.024-.019 2.133 2.771.024-.014 1.506zM129.682 122.402l-4.086-.033.072-8.599 1.57.013-.06 7.092 2.517.021-.013 1.506zM135.176 122.451l-4.34-.039.072-8.598 4.342.038-.014 1.505-2.769-.023-.018 1.971 2.772.023-.014 1.484-2.771-.025-.018 2.133 2.771.023-.013 1.508zM144.492 116.482l-1.938-.018a2.368 2.368 0 0 0-.818-.736 2.297 2.297 0 0 0-1.07-.254c-.688-.006-1.271.256-1.758.785-.482.529-.727 1.172-.734 1.928-.006.766.23 1.414.711 1.949.479.533 1.066.801 1.76.809.377.004.727-.074 1.047-.234s.582-.385.785-.678l1.918.018c-.383.875-.887 1.531-1.514 1.967-.629.436-1.381.65-2.262.643-1.154-.01-2.123-.451-2.904-1.324s-1.168-1.949-1.156-3.227a4.493 4.493 0 0 1 .338-1.699 4.692 4.692 0 0 1 .949-1.455 4.016 4.016 0 0 1 1.307-.916c.48-.207.998-.307 1.551-.303.883.008 1.635.236 2.258.688.62.45 1.132 1.136 1.53 2.057zM148.18 119.18l1.004-2.768.926 2.783-1.93-.015zm2.439 1.619l.613 1.791 1.703.014-3.016-8.625-1.361-.012-3.197 8.572 1.625.014.639-1.779 2.994.025zM153.936 119.924l1.434.014-.002.146c-.004.355.086.639.268.855a.9.9 0 0 0 .711.328c.322.002.576-.098.766-.297.188-.199.283-.473.287-.816.006-.564-.371-.965-1.129-1.203a9.576 9.576 0 0 1-.443-.145c-.518-.184-.916-.477-1.195-.873s-.416-.867-.412-1.41c.008-.801.227-1.445.654-1.93.43-.486.992-.725 1.689-.719.656.006 1.178.227 1.559.666.385.438.594 1.049.625 1.832l-1.408-.012.002-.072c.002-.275-.074-.5-.23-.67a.787.787 0 0 0-.613-.262c-.262-.002-.471.082-.627.258-.156.174-.236.406-.24.701-.002.473.391.838 1.182 1.096.209.066.373.119.486.164.555.205.963.496 1.223.871s.387.854.381 1.436c-.006.885-.242 1.592-.709 2.125-.467.531-1.082.795-1.848.789-.721-.006-1.305-.275-1.75-.805-.449-.53-.667-1.22-.661-2.067zM164.27 114.104l-.014 1.505-1.524-.013-.06 7.092-1.57-.012.06-7.094-1.525-.012.013-1.508 4.62.042zM169.531 122.748l-4.342-.037.075-8.6 4.341.037-.013 1.508-2.77-.023-.017 1.969 2.771.023-.014 1.484-2.771-.025-.018 2.135 2.77.021-.012 1.508zM172.762 115.566l.59.006c.59.006 1.02.117 1.289.334.268.217.4.555.396 1.016-.004.473-.172.83-.502 1.072-.332.244-.818.363-1.455.357l-.342-.002.024-2.783zm-.028 3.211l2.047 4.016 1.891.018-2.004-3.355a2.247 2.247 0 0 0 1.404-.871c.352-.463.529-1.025.535-1.688.008-.85-.246-1.512-.762-1.988-.516-.475-1.244-.717-2.184-.723l-.559-.006-1.9-.016-.072 8.598 1.57.014.034-3.999zM181.605 114.908l.764.48-1.746 2.787-.762-.482 1.744-2.785zm-1.447-.914l.764.482-1.746 2.785-.762-.48 1.744-2.787zM103.934 126.826l.018-2.078.379.002c.305.004.537.098.697.283.16.188.24.453.236.801 0 .154-.021.299-.064.432a.86.86 0 0 1-.168.318c-.084.092-.176.156-.277.193s-.246.055-.434.053l-.387-.004zm.962.498a.954.954 0 0 0 .361-.178c.197-.146.346-.332.449-.559a1.88 1.88 0 0 0 .156-.766 1.995 1.995 0 0 0-.129-.773 1.378 1.378 0 0 0-.396-.553 1.13 1.13 0 0 0-.398-.215 1.989 1.989 0 0 0-.578-.068l-.988-.01-.027 3.164 1.004.01c.23.001.412-.015.546-.052zM107.99 127.406l-1.597-.013.027-3.163 1.598.014-.004.555-1.022-.008-.008.719 1.024.008-.006.55-1.022-.007-.005.783 1.021.008-.006.554zM108.533 126.426l.531.006v.055a.461.461 0 0 0 .096.314c.064.08.152.119.26.121.117 0 .209-.035.277-.109s.104-.176.105-.303c0-.209-.137-.355-.414-.443-.07-.023-.125-.041-.162-.055a.869.869 0 0 1-.439-.322.857.857 0 0 1-.15-.52c0-.295.082-.533.238-.711a.771.771 0 0 1 .621-.266c.242 0 .432.084.574.246.141.162.217.387.229.676l-.52-.004v-.027a.335.335 0 0 0-.084-.244.292.292 0 0 0-.223-.098.291.291 0 0 0-.23.096.384.384 0 0 0-.086.258c-.002.174.141.307.434.402.076.023.135.043.176.061.205.076.355.182.451.32s.141.316.141.531c-.004.324-.09.586-.262.781a.838.838 0 0 1-.678.291.809.809 0 0 1-.645-.295c-.164-.195-.244-.449-.24-.761zM111.498 127.438l-.523-.004.004-.598.525.004-.006.598zM114.742 127.465l-.558-.004.023-2.693-.521-.006.005-.469 1.079.01-.028 3.162zM116.484 126.031c.092-.1.207-.148.344-.146s.25.053.34.156.133.232.131.393a.567.567 0 0 1-.139.391.44.44 0 0 1-.352.148.417.417 0 0 1-.332-.162.587.587 0 0 1-.135-.404.546.546 0 0 1 .143-.376zm-.283-.672a3.747 3.747 0 0 0-.34.631c-.061.156-.09.309-.092.455-.002.297.098.553.299.77a.983.983 0 0 0 .734.326c.188.002.352-.035.494-.111s.266-.193.367-.348c.062-.098.113-.203.15-.316s.057-.221.057-.322a1.152 1.152 0 0 0-.244-.76.772.772 0 0 0-.619-.312c-.033-.002-.068.002-.105.006-.039.006-.08.014-.123.023l.682-1.074-.602-.006-.658 1.038zM118.742 126.492l.799-1.312-.012 1.318-.787-.006zm1.291.539l.254.002.004-.527-.252-.002.018-2.156-.525-.004-1.301 2.145-.004.527 1.299.01-.004.482.508.004.003-.481zM121.381 126.928l-.004.566c-.004.201-.045.352-.129.445-.082.094-.217.145-.402.146l.002-.318c.07-.012.117-.033.143-.064s.039-.094.039-.184h-.178l.004-.598.525.007zM123.934 127.545l-1.961-.016.006-.592 1.084-1.061c.104-.102.182-.201.234-.299s.08-.191.082-.281c0-.119-.035-.217-.105-.295s-.16-.119-.271-.119a.346.346 0 0 0-.281.119.538.538 0 0 0-.102.338v.062l-.582-.006v-.025c.002-.312.096-.566.275-.764a.872.872 0 0 1 .684-.291c.279.002.51.1.693.289a.966.966 0 0 1 .271.699.966.966 0 0 1-.113.436 1.627 1.627 0 0 1-.338.432l-.836.795 1.266.012-.006.567zM126.379 127.566l-1.961-.016.004-.592 1.084-1.062c.104-.1.182-.199.234-.297s.08-.191.08-.281c0-.119-.033-.217-.104-.295s-.16-.117-.271-.119a.34.34 0 0 0-.279.119.509.509 0 0 0-.102.336v.062l-.584-.004v-.025c.004-.312.094-.566.275-.764s.41-.295.684-.293a.957.957 0 0 1 .963.99.932.932 0 0 1-.111.436 1.692 1.692 0 0 1-.336.432l-.838.795 1.266.01-.004.568zM127.707 127.578l-.596-.006 1.127-2.597-1.166-.01.006-.557 1.709.016-.004.586-1.076 2.568zM135.176 125.035l.145.002c.17 0 .297.037.381.109.082.07.123.178.123.32a.399.399 0 0 1-.135.318c-.086.074-.211.111-.373.109l-.148-.002.007-.856zm-.014 1.391l.213.002c.318.004.572-.086.762-.266s.285-.422.287-.723a1.008 1.008 0 0 0-.102-.463.933.933 0 0 0-.283-.354.719.719 0 0 0-.266-.105 2.288 2.288 0 0 0-.439-.037l-.738-.006-.027 3.162.584.006.009-1.216zM137.422 126.41l.371-1.014.342 1.02-.713-.006zm.9.594l.227.668.627.006-1.111-3.174-.504-.006-1.18 3.156.602.004.236-.664 1.103.01zM140.895 124.529l-.006.555-.559-.004-.023 2.608-.577-.006.022-2.608-.561-.004.006-.556 1.698.015zM141.865 127.701l-.527-.006.006-.595.525.004-.004.597zM145.695 127.734l-1.959-.018.004-.59 1.084-1.064c.104-.1.182-.197.232-.295a.58.58 0 0 0 .082-.283c.002-.119-.033-.217-.104-.295s-.16-.117-.273-.117a.343.343 0 0 0-.279.117.522.522 0 0 0-.1.338l-.002.062-.582-.006v-.025c.002-.311.094-.564.275-.762a.878.878 0 0 1 .684-.293c.279.002.51.1.693.291s.273.424.27.697c0 .148-.039.295-.111.438s-.186.285-.338.43l-.836.795 1.266.012-.006.568zM146.859 127.146l-.006.566c0 .205-.043.354-.127.447s-.217.143-.404.146l.004-.318c.068-.01.117-.033.143-.064.025-.033.037-.094.039-.184h-.18l.006-.598.525.005zM149.215 124.602l-.004.549-1.018-.008-.1.541a.751.751 0 0 1 .191-.084.881.881 0 0 1 .225-.025.899.899 0 0 1 .695.332c.191.221.285.482.281.789a1.128 1.128 0 0 1-.316.797.984.984 0 0 1-.754.33.977.977 0 0 1-.711-.301 1.144 1.144 0 0 1-.32-.756l.555.006a.535.535 0 0 0 .152.346c.088.09.193.135.318.135.137.002.252-.051.346-.158s.141-.242.143-.408a.57.57 0 0 0-.137-.396.462.462 0 0 0-.361-.154.458.458 0 0 0-.232.055.431.431 0 0 0-.156.17l-.492-.125.301-1.646 1.394.011zM150.74 127.777l-.594-.006 1.125-2.597-1.164-.01.006-.557 1.707.016-.004.586-1.076 2.568zM152.365 126.777l.553.004v.031c0 .143.037.256.113.348a.367.367 0 0 0 .293.135.399.399 0 0 0 .326-.148.611.611 0 0 0 .129-.396c.002-.162-.045-.285-.137-.369-.094-.084-.23-.127-.416-.127-.008 0-.021 0-.039.002l-.045.002.004-.521c.012 0 .025 0 .043.002a.285.285 0 0 0 .037.002c.123 0 .213-.023.271-.074.061-.049.088-.127.09-.234.002-.1-.02-.176-.062-.229s-.105-.08-.186-.08a.207.207 0 0 0-.172.076.393.393 0 0 0-.07.223l-.508-.004v-.01c.002-.25.076-.451.223-.607a.737.737 0 0 1 .566-.229.701.701 0 0 1 .527.238.792.792 0 0 1 .215.557c-.002.129-.027.24-.074.334s-.121.178-.223.252a.837.837 0 0 1 .377.342c.082.145.121.322.121.535-.004.312-.094.564-.275.754-.178.188-.416.283-.713.279-.303-.002-.541-.098-.715-.289-.172-.189-.258-.447-.254-.775v-.024h.001zM155.463 127.221l-.006.566c0 .205-.043.354-.127.447s-.217.143-.402.146l.002-.318c.068-.012.117-.033.143-.064.023-.033.039-.094.039-.184h-.18l.006-.598.525.005zM158.021 127.271l-1.266-.01.838-.795c.15-.145.262-.289.336-.43a.977.977 0 0 0 .113-.438c0-.273-.088-.508-.271-.699s-.414-.287-.693-.289a.869.869 0 0 0-.684.293c-.182.195-.273.451-.275.762v.025l.582.006.002-.062c0-.145.035-.258.102-.338.064-.08.158-.119.277-.119.111.002.203.041.273.119s.104.176.104.295c0 .09-.027.184-.08.281s-.131.197-.234.297l-1.086 1.062-.004.592 1.961.016.005-.568zM158.867 124.684l-.301 1.648.492.123c.041-.076.094-.133.158-.17s.141-.055.23-.055c.15.002.271.053.363.156a.554.554 0 0 1 .135.395c-.002.166-.049.301-.143.408s-.209.16-.346.16c-.123-.002-.229-.047-.318-.137s-.141-.205-.152-.346l-.555-.004c.021.305.127.559.32.754.193.197.43.297.711.299a.98.98 0 0 0 .754-.326c.209-.223.314-.488.318-.801.002-.305-.092-.568-.283-.787a.902.902 0 0 0-.918-.307.662.662 0 0 0-.193.084l.1-.543 1.018.01.006-.551-1.396-.01zM161.428 126.861l.799-1.312-.012 1.32-.787-.008zm1.291.539l.254.002.004-.527-.254-.002.02-2.154-.527-.006-1.299 2.145-.004.527 1.299.012-.004.48.508.004.003-.481zM163.541 127.291l-.006.598h.18c0 .09-.014.152-.039.184-.025.033-.072.055-.143.064l-.002.32c.186-.006.318-.055.402-.148s.127-.242.129-.447l.004-.566-.525-.005zM170.439 127.947l-1.961-.016.004-.59 1.084-1.064c.104-.1.182-.199.234-.297s.08-.191.08-.281c.002-.119-.033-.217-.104-.295s-.16-.117-.271-.117c-.119-.002-.213.037-.279.117s-.1.191-.102.338v.062l-.582-.006v-.027c.002-.311.094-.562.275-.762a.868.868 0 0 1 .682-.291c.279.002.512.1.693.291a.99.99 0 0 1 .16 1.135 1.697 1.697 0 0 1-.338.43l-.838.795 1.268.012-.005.566zM171.602 127.361l-.004.566c-.002.203-.045.352-.127.447-.084.092-.219.143-.404.146l.002-.318c.07-.012.117-.033.143-.064.025-.033.039-.094.039-.184l-.178-.002.004-.596.525.005zM173.039 127.971l-.594-.006 1.127-2.598-1.164-.01.006-.556 1.707.015-.006.586-1.076 2.569zM175.344 126.713a.37.37 0 0 1 .287-.123c.127.002.23.045.307.129a.477.477 0 0 1 .111.334.482.482 0 0 1-.119.33.381.381 0 0 1-.297.129.368.368 0 0 1-.289-.135.488.488 0 0 1-.113-.34.451.451 0 0 1 .113-.324zm.107-1.324a.245.245 0 0 1 .188-.09c.088 0 .158.029.213.088a.328.328 0 0 1 .078.229.343.343 0 0 1-.078.232c-.049.057-.119.082-.207.082a.253.253 0 0 1-.201-.09.342.342 0 0 1-.074-.232.31.31 0 0 1 .081-.219zm-.687 1.179a.872.872 0 0 0-.117.451c-.002.293.09.537.273.736s.414.299.693.301a.973.973 0 0 0 .73-.283 1.03 1.03 0 0 0 .289-.738c0-.18-.037-.336-.115-.469s-.199-.244-.361-.338a.707.707 0 0 0 .256-.26.708.708 0 0 0 .088-.355.822.822 0 0 0-.238-.602.84.84 0 0 0-.613-.246.81.81 0 0 0-.602.244.807.807 0 0 0-.166.943.735.735 0 0 0 .24.268 1.092 1.092 0 0 0-.357.348zM178.355 127.008l.01-1.32-.799 1.314.789.006zm.499 1.013l-.508-.006.004-.48-1.297-.012.004-.525 1.299-2.146.527.006-.02 2.154.254.004-.004.525-.256-.002-.003.482zM180.205 127.436l-.004.566c-.002.203-.043.354-.127.447s-.219.143-.404.146l.004-.318c.068-.012.117-.033.143-.064.025-.033.037-.094.039-.184l-.18-.002.006-.596.523.005zM181.469 126.594c.094-.1.207-.148.344-.146s.25.053.34.156c.09.102.135.234.133.393a.568.568 0 0 1-.139.389.452.452 0 0 1-.686-.012.587.587 0 0 1-.133-.406c0-.15.047-.275.141-.374zm-.281-.672c-.17.266-.283.477-.342.631a1.29 1.29 0 0 0-.09.455c-.002.299.096.555.299.77s.447.324.734.328c.186 0 .35-.037.494-.113.143-.076.266-.193.367-.348.062-.098.113-.203.15-.316a1.164 1.164 0 0 0-.189-1.082.768.768 0 0 0-.617-.312c-.033-.002-.07.002-.107.006a.85.85 0 0 0-.123.023l.684-1.074-.602-.006-.658 1.038zM183.268 127.045l.555.004v.031a.502.502 0 0 0 .111.346.37.37 0 0 0 .295.137.399.399 0 0 0 .326-.148.603.603 0 0 0 .127-.396c.004-.162-.043-.285-.137-.369-.092-.084-.23-.127-.414-.127-.008 0-.021 0-.041.002-.018 0-.031.002-.043 0l.004-.521.043.002.037.004c.123.002.213-.023.271-.072.059-.051.088-.131.09-.236.002-.102-.02-.176-.064-.229-.041-.053-.104-.078-.184-.08a.207.207 0 0 0-.172.076.379.379 0 0 0-.07.223l-.51-.004.002-.01a.868.868 0 0 1 .221-.607.743.743 0 0 1 .568-.229.694.694 0 0 1 .525.238.785.785 0 0 1 .215.555.735.735 0 0 1-.072.336.721.721 0 0 1-.223.252c.17.084.297.199.379.342.08.145.119.324.117.537-.002.311-.094.562-.273.752-.178.189-.418.281-.715.279-.301-.002-.539-.098-.713-.289-.174-.189-.258-.447-.256-.775v-.024h.001zM187.059 128.092l-.559-.004.023-2.695-.519-.004.004-.471 1.078.01-.027 3.164z" fill-rule="evenodd" clip-rule="evenodd"/></svg>