<svg xmlns="http://www.w3.org/2000/svg" viewBox="0 0 60.9 62.05"><defs><style>.cls-1{fill:#e0e0e0;}.cls-2{fill:#bababa;}.cls-3{fill:#9e9e9e;}.cls-4{fill:#ebebeb;}.cls-5{fill:#cfcfcf;}.cls-6{fill:#858585;}.cls-7{fill:#b0b0b0;}.cls-8{fill:#c7c7c7;}.cls-9{fill:#fff;}.cls-10{fill:#adadad;}.cls-11{fill:#d9d9d9;}.cls-12{fill:#3a495e;}.cls-13{fill:#42536b;}.cls-14{fill:#cf4040;}.cls-15{fill:#b03636;}.cls-16{fill:#ff5454;}.cls-17{fill:#8f8f8f;}.cls-18{fill:#999;}</style></defs><g id="Capa_2" data-name="Capa 2"><g id="Layer_1" data-name="Layer 1"><rect class="cls-1" y="13.74" width="60.9" height="41.34"/><rect class="cls-2" y="55.08" width="60.9" height="1.43"/><rect class="cls-2" y="12.32" width="60.9" height="1.43"/><path class="cls-3" d="M57.24,62.05H3.65A3.66,3.66,0,0,1,0,58.39V56.5H60.9v1.89A3.66,3.66,0,0,1,57.24,62.05Z"/><path class="cls-1" d="M54.69,6.05H6.21A6.21,6.21,0,0,0,0,12.25v.07H60.9v-.07A6.21,6.21,0,0,0,54.69,6.05Z"/><path class="cls-4" d="M52.2,6.05H46.28s4.86,2.36,4.32,6.2l7.8.07v-.07A6.2,6.2,0,0,0,52.2,6.05Z"/><path class="cls-5" d="M8.12,6.39h5.59S9.12,8.63,9.63,12.26l-7.38.06v-.06A5.87,5.87,0,0,1,8.12,6.39Z"/><path class="cls-6" d="M6,61.73h5.53S9.63,60.53,9.63,57H2.25v0C2.25,59.61,2.71,61.73,6,61.73Z"/><path class="cls-7" d="M54.62,61.73H49.1S51,60.53,51,57h7.38v0C58.33,59.61,57.86,61.73,54.62,61.73Z"/><rect class="cls-8" x="11.8" y="15.12" width="37.29" height="23.87" rx="2.58"/><rect class="cls-9" x="12.43" y="15.52" width="36.03" height="23.06" rx="2.49"/><rect class="cls-10" x="17.05" y="17.75" width="26.79" height="10.12" rx="1.68"/><path class="cls-11" d="M42.17,27.87H18.73a1.68,1.68,0,0,1-1.68-1.67V19.43a1.68,1.68,0,0,1,1.68-1.68l.5.83c.92,0,22.44,8.47,22.44,8.47A2.59,2.59,0,0,0,42.17,27.87Z"/><rect class="cls-12" x="19.23" y="18.58" width="22.44" height="8.48"/><polygon class="cls-13" points="41.25 26.58 20.06 19.05 41.25 19.05 41.25 26.58"/><rect class="cls-10" x="44.68" y="17.75" width="3.12" height="2.59" rx="0.67"/><path class="cls-3" d="M45.29,18h1.62a.61.61,0,0,1,.61.61v1A3.2,3.2,0,0,0,45.29,18Z"/><rect class="cls-10" x="44.68" y="21.56" width="3.12" height="2.59" rx="0.67"/><path class="cls-3" d="M45.29,21.79h1.62a.61.61,0,0,1,.61.61v1A3.2,3.2,0,0,0,45.29,21.79Z"/><rect class="cls-10" x="44.68" y="25.29" width="3.12" height="2.59" rx="0.67"/><path class="cls-3" d="M45.29,25.52h1.62a.61.61,0,0,1,.61.61v1A3.17,3.17,0,0,0,45.29,25.52Z"/><rect class="cls-10" x="13.2" y="17.75" width="3.12" height="2.59" rx="0.67"/><path class="cls-3" d="M13.81,18h1.62a.61.61,0,0,1,.61.61v1A3.2,3.2,0,0,0,13.81,18Z"/><rect class="cls-10" x="13.2" y="21.56" width="3.12" height="2.59" rx="0.67"/><path class="cls-3" d="M13.81,21.79h1.62a.61.61,0,0,1,.61.61v1A3.2,3.2,0,0,0,13.81,21.79Z"/><rect class="cls-10" x="13.2" y="25.29" width="3.12" height="2.59" rx="0.67"/><path class="cls-3" d="M13.81,25.52h1.62a.61.61,0,0,1,.61.61v1A3.17,3.17,0,0,0,13.81,25.52Z"/><path class="cls-10" d="M21.43,33.2a2.75,2.75,0,1,1-2.74-2.74A2.75,2.75,0,0,1,21.43,33.2Z"/><path class="cls-3" d="M20.26,35.14A5.09,5.09,0,0,0,19,32.77a4.36,4.36,0,0,0-2.27-1.14,2.48,2.48,0,1,1,3.51,3.51Z"/><path class="cls-8" d="M16.53,32.45a12.14,12.14,0,0,0,1.28,1.69,7.26,7.26,0,0,0,1.67,1.09,2.07,2.07,0,0,1-2.38-.44A2.48,2.48,0,0,1,16.53,32.45Z"/><path class="cls-10" d="M29.41,33.2a2.75,2.75,0,1,1-2.74-2.74A2.75,2.75,0,0,1,29.41,33.2Z"/><path class="cls-3" d="M28.23,35.14A5,5,0,0,0,27,32.77a4.36,4.36,0,0,0-2.27-1.14,2.48,2.48,0,1,1,3.5,3.51Z"/><path class="cls-8" d="M24.5,32.45a12.53,12.53,0,0,0,1.29,1.69,7.28,7.28,0,0,0,1.66,1.09,2.06,2.06,0,0,1-2.37-.44A2.51,2.51,0,0,1,24.5,32.45Z"/><path class="cls-10" d="M37.39,33.2a2.75,2.75,0,1,1-2.75-2.74A2.75,2.75,0,0,1,37.39,33.2Z"/><path class="cls-3" d="M36.21,35.14A5,5,0,0,0,35,32.77a4.37,4.37,0,0,0-2.28-1.14,2.48,2.48,0,0,1,3.51,3.51Z"/><path class="cls-8" d="M32.48,32.45a13.06,13.06,0,0,0,1.28,1.69,7.48,7.48,0,0,0,1.67,1.09,2.06,2.06,0,0,1-2.37-.44A2.51,2.51,0,0,1,32.48,32.45Z"/><path class="cls-14" d="M45.37,33.2a2.75,2.75,0,1,1-2.75-2.74A2.75,2.75,0,0,1,45.37,33.2Z"/><path class="cls-15" d="M44.19,35.14A5.09,5.09,0,0,0,43,32.77a4.32,4.32,0,0,0-2.27-1.14,2.48,2.48,0,1,1,3.51,3.51Z"/><path class="cls-16" d="M40.46,32.45a13.06,13.06,0,0,0,1.28,1.69,7.48,7.48,0,0,0,1.67,1.09A2.08,2.08,0,0,1,41,34.79,2.53,2.53,0,0,1,40.46,32.45Z"/><rect class="cls-4" x="50.79" y="13.74" width="8.06" height="41.34"/><rect class="cls-5" x="1.92" y="13.74" width="8.06" height="41.34"/><rect class="cls-9" y="13.74" width="60.9" height="0.45"/><rect class="cls-17" y="11.87" width="60.9" height="0.45"/><rect class="cls-9" y="56.5" width="60.9" height="0.45"/><rect class="cls-17" y="54.63" width="60.9" height="0.45"/><path class="cls-7" d="M50.87,6A33.73,33.73,0,0,0,31.68,0H29.22A33.73,33.73,0,0,0,10,6l-.09.06H51ZM21.15,5.36l0,0a15.36,15.36,0,0,1,8.7-2.71H31a15.36,15.36,0,0,1,8.7,2.71l0,0Z"/><path class="cls-18" d="M21.15,5.36,16,5.13s4.05-4.07,14.61-4.07,13.19,4.3,13.19,4.3H39.75a15.44,15.44,0,0,0-9.1-2.74C24.53,2.62,21.15,5.36,21.15,5.36Z"/></g></g></svg>