<svg xmlns="http://www.w3.org/2000/svg" viewBox="0 0 54.44 79.41"><defs><style>.cls-1{fill:#e0e0e0;}.cls-2{fill:#454545;}.cls-3{fill:#bababa;}.cls-17,.cls-4,.cls-7{fill:#fff;}.cls-16,.cls-4{opacity:0.3;}.cls-17,.cls-5{opacity:0.1;}.cls-6{fill:#9c9c9c;}.cls-8{fill:#121212;}.cls-9{fill:#cf4040;}.cls-10{fill:#e36262;}.cls-11{fill:#992f2f;}.cls-12{fill:#3d2d19;}.cls-13{fill:#333;}.cls-14{fill:#c2e5ff;}.cls-15{fill:#1a1a1a;}.cls-18{fill:#4f4f4f;}</style></defs><g id="Capa_2" data-name="Capa 2"><g id="Layer_1" data-name="Layer 1"><rect class="cls-1" x="11.67" y="70.79" width="36.08" height="7.35"/><rect class="cls-1" x="11.67" y="5.55" width="36.08" height="36.16"/><rect class="cls-2" x="13.23" y="78.13" width="39.65" height="1.28"/><rect class="cls-1" x="47.76" y="4.05" width="6.68" height="74.08"/><path class="cls-3" d="M42.26,0H17.17a5.5,5.5,0,0,0-5.5,5.5v0H47.76v0A5.5,5.5,0,0,0,42.26,0Z"/><rect class="cls-4" x="34.13" y="5.55" width="10.67" height="35.54"/><rect class="cls-4" x="34.13" y="70.79" width="10.67" height="7.45"/><rect class="cls-5" x="14.96" y="5.55" width="9.42" height="35.54"/><rect class="cls-5" x="14.96" y="71.29" width="9.42" height="6.95"/><rect class="cls-6" x="11.67" y="5.55" width="36.08" height="0.39"/><rect class="cls-5" x="47.76" y="4.05" width="0.99" height="73.75"/><path class="cls-6" d="M46,43.92H13.45a1.78,1.78,0,0,1-1.78-1.78v-.42H47.76v.42A1.78,1.78,0,0,1,46,43.92Z"/><path class="cls-6" d="M13.45,68.58H46a1.78,1.78,0,0,1,1.78,1.78v.43H11.67v-.43A1.78,1.78,0,0,1,13.45,68.58Z"/><rect class="cls-7" x="11.89" y="70.79" width="35.87" height="0.5"/><rect class="cls-7" x="11.89" y="41.18" width="35.87" height="0.5"/><rect class="cls-2" x="25.38" y="72.19" width="8.93" height="5.61" rx="0.93"/><rect class="cls-8" x="26.53" y="73.02" width="6.67" height="3.9"/><rect class="cls-9" x="26.64" y="73.14" width="6.37" height="3.64"/><rect class="cls-10" x="32.68" y="73.14" width="0.33" height="3.64"/><rect class="cls-11" x="29.87" y="73.14" width="2.81" height="3.64"/><path class="cls-7" d="M28.3,75.65a.69.69,0,0,1-.69-.69.68.68,0,0,1,.69-.68A.67.67,0,0,1,29,75,.68.68,0,0,1,28.3,75.65Zm0-1.21a.52.52,0,0,0-.53.52.53.53,0,1,0,1.05,0A.52.52,0,0,0,28.3,74.44Z"/><path class="cls-7" d="M31.78,75.05H30.5a.09.09,0,0,1-.08-.09.09.09,0,0,1,.08-.08h1.28a.09.09,0,0,1,.08.08A.09.09,0,0,1,31.78,75.05Z"/><path class="cls-12" d="M44.9,66.28H14.52a1.22,1.22,0,0,1-1.22-1.22V50.17H46.13V65.06A1.23,1.23,0,0,1,44.9,66.28Z"/><rect class="cls-13" x="13.45" y="43.92" width="32.66" height="1.98"/><path class="cls-13" d="M44.15,68.58H15.41c-1.09,0-2-.63-2-1.42H46.11C46.11,68,45.24,68.58,44.15,68.58Z"/><path class="cls-14" d="M46.08,45.9H13.35A1.33,1.33,0,0,0,12,47.23V65.81a1.34,1.34,0,0,0,1.34,1.34H46.08a1.33,1.33,0,0,0,1.33-1.34V47.23A1.32,1.32,0,0,0,46.08,45.9Zm.05,19.16a1.23,1.23,0,0,1-1.23,1.22H14.52a1.22,1.22,0,0,1-1.22-1.22V48a1.23,1.23,0,0,1,1.22-1.23H44.9A1.23,1.23,0,0,1,46.13,48Z"/><path class="cls-13" d="M3.22,66.65H2.6A2.59,2.59,0,0,1,0,64.05V46.52a2.6,2.6,0,0,1,2.6-2.6H13.45v2H5.31a1.2,1.2,0,0,0-1.2,1.2V63.48a1.2,1.2,0,0,0,1.2,1.2h0a.57.57,0,0,1,.39,1h0A3.66,3.66,0,0,1,3.22,66.65Z"/><rect class="cls-15" x="11.89" y="43.92" width="1.56" height="1.97"/><rect class="cls-16" x="16.37" y="43.92" width="8.01" height="1.97"/><rect class="cls-17" x="34.26" y="43.92" width="9.73" height="1.97"/><rect class="cls-16" x="15.97" y="67.15" width="8.01" height="1.43"/><rect class="cls-17" x="34.31" y="67.15" width="9.73" height="1.43"/><path class="cls-18" d="M4.09,63.53h0V47.09h0a1.81,1.81,0,0,0-1.8,1.8V61.73A1.8,1.8,0,0,0,4.09,63.53Z"/><rect class="cls-7" x="13.97" y="52.33" width="12.1" height="0.3"/><rect class="cls-7" x="13.97" y="54.3" width="12.1" height="0.3"/><rect class="cls-7" x="13.97" y="56.27" width="12.1" height="0.3"/><rect class="cls-7" x="13.97" y="58.25" width="12.1" height="0.3"/><rect class="cls-7" x="13.97" y="60.22" width="12.1" height="0.3"/><rect class="cls-7" x="13.97" y="62.19" width="12.1" height="0.3"/><rect class="cls-17" x="33.41" y="45.9" width="11.99" height="21.25"/><rect class="cls-5" x="15.87" y="45.9" width="8.78" height="21.25"/></g></g></svg>