<svg xmlns="http://www.w3.org/2000/svg" viewBox="0 0 70.1 154.06"><defs><style>.cls-1{fill:#e0e0e0;}.cls-2{fill:#9c9c9c;}.cls-3{fill:#bababa;}.cls-4{fill:#d9d9d9;}.cls-5{fill:#858585;}.cls-6{fill:#8c8c8c;}.cls-7{fill:#666;}.cls-8{fill:#fff;}.cls-9{fill:#878787;}.cls-10{fill:#3a495e;}</style></defs><g id="Capa_2" data-name="Capa 2"><g id="Layer_1" data-name="Layer 1"><rect class="cls-1" y="5.53" width="70.1" height="142.06"/><rect class="cls-2" y="4.38" width="70.1" height="1.15"/><rect class="cls-3" width="70.1" height="4.38"/><polygon class="cls-4" points="70.1 0 0 0 69.58 0.52 70.1 4.38 70.1 0"/><rect class="cls-3" y="147.59" width="70.1" height="4.38"/><path class="cls-5" d="M12.54,154.06H5.82A2.07,2.07,0,0,1,3.75,152v0H14.6v0A2.07,2.07,0,0,1,12.54,154.06Z"/><path class="cls-5" d="M64.28,154.06H57.57A2.07,2.07,0,0,1,55.5,152v0H66.35v0A2.07,2.07,0,0,1,64.28,154.06Z"/><polygon class="cls-6" points="0 148.57 0 147.59 70.1 147.59 70.1 147.85 0 148.57"/><rect class="cls-7" y="47.22" width="70.1" height="0.44"/><rect class="cls-8" y="5.53" width="70.1" height="0.49"/><rect class="cls-9" y="3.89" width="70.1" height="0.49"/><path class="cls-8" d="M0,47.66v.49H7.08v0c0,1.76,1.42,2.2,3.18,2.2h5.9c1.76,0,3.19-.44,3.19-2.2v0H70.1v-.49Z"/><path class="cls-9" d="M19.35,46.73v0c0-1.75-1.43-2.19-3.19-2.19h-5.9c-1.76,0-3.18.44-3.18,2.19v0H0v.49H70.1v-.49Z"/><rect class="cls-9" x="49.78" y="39.75" width="14.08" height="2.84"/><rect class="cls-10" x="49.97" y="39.56" width="14.08" height="2.84"/></g></g></svg>