<svg xmlns="http://www.w3.org/2000/svg" viewBox="0 0 75.26 113.55"><defs><style>.cls-1{fill:#e0e0e0;}.cls-2{fill:#8f8f8f;}.cls-20,.cls-3{fill:#fff;}.cls-4{fill:#b8b8b8;}.cls-5{fill:#9c9c9c;}.cls-6{fill:#bababa;}.cls-7{fill:#d9d9d9;}.cls-8{fill:#858585;}.cls-9{fill:#8c8c8c;}.cls-10{fill:#666;}.cls-11{fill:#878787;}.cls-12{fill:#757575;}.cls-13{fill:#3d3d3d;}.cls-14{fill:#707070;}.cls-15{fill:#a6a6a6;}.cls-16{fill:#5e5e5e;}.cls-17{fill:#2d343d;}.cls-18{fill:#242424;}.cls-19{fill:#1c2126;}.cls-20{opacity:0.05;}</style></defs><g id="Capa_2" data-name="Capa 2"><g id="Layer_1" data-name="Layer 1"><rect class="cls-1" y="6.88" width="75.26" height="100.63"/><path class="cls-2" d="M6,35.43H68.36a.87.87,0,0,1,.87.86V84.23a1.47,1.47,0,0,1-1.47,1.47H7.29l-2.2-2.11V36.29A.87.87,0,0,1,6,35.43Z"/><path class="cls-3" d="M67.42,86.39H6a.86.86,0,0,1-.86-.86V37.6a1.47,1.47,0,0,1,1.47-1.47H66.09l2.19,2.1v47.3A.86.86,0,0,1,67.42,86.39Z"/><polygon class="cls-4" points="57.23 25.87 15.19 25.87 16.63 22.05 58.64 22.05 57.23 25.87"/><rect class="cls-5" y="5.81" width="75.26" height="1.07"/><rect class="cls-6" y="1.72" width="75.26" height="4.09"/><polygon class="cls-7" points="75.26 1.72 0 1.72 74.78 2.21 75.26 5.81 75.26 1.72"/><rect class="cls-6" y="107.51" width="75.26" height="4.09"/><path class="cls-8" d="M9.86,113.55H5.43a1.92,1.92,0,0,1-1.92-1.93v0h8.28v0A1.92,1.92,0,0,1,9.86,113.55Z"/><path class="cls-8" d="M69.83,113.55H65.4a1.93,1.93,0,0,1-1.93-1.93v0h8.29v0A1.93,1.93,0,0,1,69.83,113.55Z"/><polygon class="cls-9" points="0 108.43 0 107.51 75.26 107.51 75.26 107.75 0 108.43"/><rect class="cls-10" y="21.18" width="75.26" height="0.41"/><rect class="cls-3" y="6.88" width="75.26" height="0.46"/><rect class="cls-3" y="21.59" width="75.26" height="0.46"/><rect class="cls-11" y="20.72" width="75.26" height="0.46"/><rect class="cls-11" y="5.35" width="75.26" height="0.46"/><path class="cls-12" d="M40.2,14.29a3.06,3.06,0,1,1-3.06-3.06A3.05,3.05,0,0,1,40.2,14.29Z"/><circle class="cls-13" cx="37.14" cy="14.29" r="2.82"/><path class="cls-14" d="M39.4,14.29A2.26,2.26,0,1,1,37.14,12,2.26,2.26,0,0,1,39.4,14.29Z"/><circle class="cls-3" cx="36.13" cy="13.37" r="0.55"/><path class="cls-12" d="M20.58,14.29a3.06,3.06,0,1,1-3.06-3.06A3.05,3.05,0,0,1,20.58,14.29Z"/><circle class="cls-13" cx="17.52" cy="14.29" r="2.82"/><path class="cls-14" d="M19.78,14.29A2.26,2.26,0,1,1,17.52,12,2.26,2.26,0,0,1,19.78,14.29Z"/><path class="cls-3" d="M17.06,13.37a.55.55,0,1,1-.54-.55A.54.54,0,0,1,17.06,13.37Z"/><circle class="cls-12" cx="56.3" cy="14.29" r="3.06"/><circle class="cls-13" cx="56.3" cy="14.29" r="2.82"/><path class="cls-14" d="M56.3,16.54a2.26,2.26,0,1,1,2.26-2.25A2.25,2.25,0,0,1,56.3,16.54Z"/><path class="cls-3" d="M57.22,13.83a.55.55,0,1,1,.55-.55A.55.55,0,0,1,57.22,13.83Z"/><rect class="cls-11" x="16.63" y="22.05" width="42.01" height="2.41"/><rect class="cls-15" x="16.63" y="23.25" width="42.01" height="1.2"/><rect class="cls-16" x="16.63" y="24.45" width="42.01" height="0.7"/><rect class="cls-13" x="5.84" y="36.13" width="62.45" height="49.57" rx="1.02"/><rect class="cls-17" x="5.84" y="36.13" width="62.45" height="49.57" rx="1.02"/><path class="cls-18" d="M5.84,47.61V37.14a1,1,0,0,1,1-1H67.26a1,1,0,0,1,1,1V47.61Z"/><path class="cls-18" d="M68.28,66.37V84.68a1,1,0,0,1-1,1H6.85a1,1,0,0,1-1-1V66.37Z"/><rect class="cls-19" x="7.19" width="26.32" height="1.76"/><rect class="cls-19" x="49.27" width="14.07" height="1.76"/><path class="cls-20" d="M66.46,84.88,6.87,37.78a1,1,0,0,1,1-1h58.6a1,1,0,0,1,1,1V83.89A1,1,0,0,1,66.46,84.88Z"/></g></g></svg>