<svg xmlns="http://www.w3.org/2000/svg" viewBox="0 0 71.45 35.61"><defs><style>.cls-1{fill:#e0e0e0;}.cls-2{fill:#8a8a8a;}.cls-3{fill:#fff;opacity:0.3;}.cls-4{opacity:0.1;}.cls-5{opacity:0.05;}.cls-6{fill:#525252;}.cls-7{fill:#878787;}.cls-8{fill:#cf4040;}.cls-9{fill:#636363;}.cls-10{fill:#357cab;}.cls-11{fill:#215a80;}</style></defs><g id="Capa_2" data-name="Capa 2"><g id="Layer_1" data-name="Layer 1"><path class="cls-1" d="M6.86,25.26H9.19V22l-2,.19c-.4.07-.67.23-.62.63Z"/><path class="cls-2" d="M60.37,2.19s7.87-2,8.86-2.14c2-.49,2.73,2.7.54,2.74L60.37,4Z"/><path class="cls-3" d="M60.82,2.52C61,2,69.72-.13,69.7.54,70.43,1,60.68,3,60.82,2.52Z"/><path class="cls-4" d="M60.49,3.21s9-1.62,9.06-1.61c1.4-.34,1.6.86-.49,1L60.37,4Z"/><path class="cls-1" d="M70.39,21.94c-2-13.46-9.51-17.86-9.51-17.86s1.2-1.79.32-2.6c-.67-.62-21,1.31-35.34,4.94-4.65,1.18-9,3.16-11.85,7L3.67,30.54H68.6A5.9,5.9,0,0,1,70.39,21.94ZM54.84,17H31.53a2.76,2.76,0,0,1-2.2-4.42,11.18,11.18,0,0,1,1.06-1.21c3-3.05,23.54-5.21,25.9-3.58a8.65,8.65,0,0,1,2.34,3.65A4.06,4.06,0,0,1,54.84,17Z"/><path class="cls-5" d="M4.64,29.81l2.83-4.46s2.2-.17,3-3.1l4.62-9a1,1,0,0,1,.79-.44h0a.94.94,0,0,1,.82,1.39L8,29.81Z"/><rect class="cls-6" x="3.67" y="30.54" width="64.86" height="1.04"/><polygon class="cls-7" points="71.45 35.61 0 35.61 3.67 31.58 69.78 31.58 71.45 35.61"/><polygon class="cls-4" points="17.58 35.48 1.3 35.48 4.74 31.71 20.46 31.71 17.58 35.48"/><polygon class="cls-3" points="70.17 32.52 3.67 31.58 69.78 31.58 70.17 32.52"/><path class="cls-1" d="M45.05,15.13H35.3a1.63,1.63,0,0,0-1.63,1.63v0h13v0A1.63,1.63,0,0,0,45.05,15.13Z"/><polygon class="cls-8" points="41.16 15.8 33.98 15.8 33.72 16.36 41.16 16.36 41.16 15.8"/><rect class="cls-9" x="33.67" y="16.78" width="13.01" height="0.26"/><path class="cls-10" d="M47.67,24.65H37.44c-3.38,0-5.91-3.36-5.91-7.51V17H54.84v.07C54.86,21.27,52.42,24.65,47.67,24.65Z"/><path class="cls-11" d="M48,24.65H37.79c-3.79,0-5.67-2.81-6.18-6.46l23.15.1C54.2,21.9,51.78,24.65,48,24.65Z"/><path class="cls-3" d="M52.9,18.52H33.48c-.59,0-1.08-.24-1.08-.54h0c0-.3.49-.54,1.08-.54H52.9c.59,0,1.07.24,1.07.54h0C54,18.28,53.49,18.52,52.9,18.52Z"/><path class="cls-11" d="M9.19,21.42a3.3,3.3,0,0,1,2.54.63l3.68-6.3A3.6,3.6,0,0,0,13,15.13Z"/><path class="cls-11" d="M9,22.21c0,.09-.45.16-1,.16s-1-.07-1-.16.45-.16,1-.16S9,22.12,9,22.21Z"/><path class="cls-5" d="M7,25.35c2.42-.06,3-3.3,3-3.3l.58.2S9.61,25.47,7,25.35Z"/><path class="cls-1" d="M8.23,20.75H7.7a.62.62,0,0,0-.61.61v.72c0,.26,1.75.22,1.75,0v-.72A.61.61,0,0,0,8.23,20.75Z"/><path class="cls-11" d="M8.3,20.81s-.15.05-.33.05-.34,0-.34-.05.15-.06.34-.06S8.3,20.78,8.3,20.81Z"/><path class="cls-8" d="M52.83,4.39h0a1.14,1.14,0,0,1-1.25-1.27c.22-1.22-.62-1-.62-1l2.29-.25s.88-.08.55,1.59A1.16,1.16,0,0,1,52.83,4.39Z"/><path class="cls-8" d="M25.3,16.78c1,8.32-12.47,9.67-12.47,9.67S27.19,26,27.37,17C27.37,15.27,25.23,15.33,25.3,16.78Z"/><path class="cls-5" d="M59,6.57a11.29,11.29,0,0,0-4.77-1.11c5.35-.59,7.65-.67,7.65-.67s-.28-.22-1-.71c.22-.37.36-.67.36-.67S33.85,8.06,33,9.43C36.19,8.3,53.68,5.28,56.66,7.06a6.39,6.39,0,0,1,2.83,5.43.33.33,0,0,0,.64.08C60.73,10.6,61.15,7.72,59,6.57Z"/><path class="cls-5" d="M68.15,23.11c-8.68,4.8-24.3,4-28.9,6a.5.5,0,0,0,.22.94H67.86S65.09,27.38,68.15,23.11Z"/><path class="cls-3" d="M62,5.83c6.95,5.63,7.24,14.05,7.24,15C65,25.1,52.64,26.59,51.51,25.54c6-3.95,10.81-2.62,14.3-6.5S60.86,8.32,61,6.26A.63.63,0,0,1,62,5.83Z"/><path class="cls-3" d="M30,10.47c-7.42,5.5.31,8.8.64,8.55.15-.11.14-.23.09-.39A3,3,0,0,0,29.5,17C28.18,16.08,26.6,14.31,30,10.47Z"/><path class="cls-3" d="M60.82,1.6C33.93,4,18.66,9.66,18.66,9.66S26,4,60.82,1.6Z"/></g></g></svg>