<svg xmlns="http://www.w3.org/2000/svg" viewBox="0 0 86.18 91.05"><defs><style>.cls-1{fill:#c2e5ff;}.cls-2{fill:#ffc34a;}.cls-13,.cls-3,.cls-5{fill:#fff;}.cls-3{opacity:0.2;}.cls-4{opacity:0.1;}.cls-6{fill:#e0e0e0;}.cls-7{fill:#b8b8b8;}.cls-8{fill:#bababa;}.cls-9{fill:#525252;}.cls-10{fill:#828282;}.cls-11{fill:#858585;}.cls-12{opacity:0.05;}.cls-13{opacity:0.3;}.cls-14{opacity:0.15;}.cls-15{fill:#878787;}</style></defs><g id="Capa_2" data-name="Capa 2"><g id="Layer_1" data-name="Layer 1"><path class="cls-1" d="M69.58,61.45v29.6h16.6V61.45ZM85.5,90.12H70.27V62H85.5Z"/><rect class="cls-2" x="70.27" y="69.76" width="15.23" height="20.36"/><rect class="cls-3" x="79.12" y="62" width="5.84" height="28.12"/><rect class="cls-4" x="71.17" y="62" width="4.25" height="28.12"/><rect class="cls-5" x="81.56" y="62" width="2.18" height="28.12"/><polygon class="cls-6" points="66.66 50.81 74.74 55.41 73.46 56.92 63.49 54.51 66.66 50.81"/><path class="cls-7" d="M66.66,50.81l2.45,1.4a5.21,5.21,0,0,0-3.19,2.89l-2.43-.59Z"/><path class="cls-6" d="M3.49,16.73,0,31.25H33.89V82H0l4.15,5.83H64.38V56A4.44,4.44,0,0,1,68,51.58L74,50.51V18.15a6.07,6.07,0,0,0-6.07-6.07H9.39A6.06,6.06,0,0,0,3.49,16.73Z"/><rect class="cls-8" x="1.28" y="31.25" width="32.61" height="5.1"/><rect class="cls-8" x="1.28" y="80.36" width="32.61" height="1.63"/><rect class="cls-9" x="1.28" y="31.18" width="72.7" height="0.52"/><rect class="cls-10" x="33.89" y="56.47" width="30.49" height="0.45"/><rect class="cls-10" x="42.69" y="8.37" width="22.5" height="3.71"/><rect class="cls-6" x="44.16" width="19.63" height="8.37"/><path class="cls-11" d="M12,91.05h-.86a3.19,3.19,0,0,1-3.19-3.19v0h7.24v0A3.19,3.19,0,0,1,12,91.05Z"/><path class="cls-11" d="M57.2,91.05h-.86a3.19,3.19,0,0,1-3.19-3.19v0h7.24v0A3.19,3.19,0,0,1,57.2,91.05Z"/><path class="cls-1" d="M0,31.72V82H33.89V31.72ZM32.49,81.18H1.4V32.64H32.49Z"/><rect class="cls-2" x="1.4" y="45.82" width="31.09" height="35.35"/><rect class="cls-3" x="19.48" y="32.64" width="11.93" height="48.54"/><rect class="cls-4" x="3.24" y="32.64" width="8.68" height="48.54"/><rect class="cls-5" x="24.46" y="32.64" width="4.45" height="48.54"/><rect class="cls-5" x="34.78" y="56.92" width="29.6" height="0.62"/><polygon class="cls-5" points="73.98 32.34 34.77 32.41 33.89 31.72 73.98 31.72 73.98 32.34"/><polygon class="cls-10" points="34.78 81.99 33.89 81.99 33.89 31.72 34.78 32.41 34.78 81.99"/><polygon class="cls-5" points="34.78 82.47 0.35 82.44 0 81.99 34.78 81.99 34.78 82.47"/><polygon class="cls-12" points="64.38 87.82 4.15 87.82 0.35 82.44 64.38 82.44 64.38 87.82"/><rect class="cls-13" x="58.69" width="3.37" height="8.37"/><rect class="cls-12" x="46.75" width="9.24" height="8.37"/><rect class="cls-14" x="45.5" y="8.37" width="9.34" height="3.71"/><rect class="cls-13" x="59.54" y="8.37" width="4.25" height="3.71"/><polygon class="cls-15" points="73.98 30.42 0.22 30.42 0 31.25 73.98 31.25 73.98 30.42"/><path class="cls-13" d="M9.7,12.87H66.25a7,7,0,0,1,7,7v8.54c-3.17-8-37-4.69-55.23-6.38-5-.47-9.43-4.17-8.32-9Z"/><path class="cls-5" d="M9.7,12.87H66.25a7,7,0,0,1,7,7v8.54L72.7,20c-.74-3-3.33-6.34-6.4-6.5Z"/><rect class="cls-13" x="50.73" y="33.8" width="20.59" height="14.66" rx="1.5"/><path class="cls-13" d="M61.07,81.18H52.54a1.78,1.78,0,0,1-1.81-1.75V61a1.78,1.78,0,0,1,1.81-1.75h8.53A1.79,1.79,0,0,1,62.89,61V79.43A1.79,1.79,0,0,1,61.07,81.18Z"/></g></g></svg>