<svg xmlns="http://www.w3.org/2000/svg" viewBox="0 0 58.8 70.78"><defs><style>.cls-1{fill:#4c5155;}.cls-2{fill:#8da3b5;}.cls-3{fill:#589eb7;}.cls-4{fill:#42889b;}.cls-5{fill:#b8c7d8;}.cls-6{fill:#a3b5c6;}.cls-7{fill:#fff;}.cls-8{fill:#ff3912;}</style></defs><g id="Capa_2" data-name="Capa 2"><g id="Layer_1" data-name="Layer 1"><rect class="cls-1" x="10.12" y="66.62" width="3.96" height="4.16" rx="0.96"/><rect class="cls-1" x="44.72" y="66.62" width="3.96" height="4.16" rx="0.96"/><rect class="cls-2" x="26.73" y="14.16" width="5.34" height="12.93"/><path class="cls-2" d="M15.49,18.2H43.31a4.82,4.82,0,0,0,4.82-4.83V3.9H10.66v9.47A4.83,4.83,0,0,0,15.49,18.2Z"/><path class="cls-3" d="M7.57,16.78H51.23A7.56,7.56,0,0,0,58.8,9.22V0H0V9.22A7.56,7.56,0,0,0,7.57,16.78Z"/><path class="cls-4" d="M51.23,13.37H7.57A7.56,7.56,0,0,1,0,5.81V9.22a7.56,7.56,0,0,0,7.57,7.56H51.23A7.56,7.56,0,0,0,58.8,9.22V5.81A7.56,7.56,0,0,1,51.23,13.37Z"/><path class="cls-5" d="M47.23,23.7H11.56A7.56,7.56,0,0,0,4,31.26V68.7H54.8V31.26A7.56,7.56,0,0,0,47.23,23.7Z"/><path class="cls-6" d="M52.58,25.91,4,68.7H54.8V31.26A7.54,7.54,0,0,0,52.58,25.91Z"/><path class="cls-2" d="M44.34,47.65A14.94,14.94,0,1,1,29.4,32.71,14.94,14.94,0,0,1,44.34,47.65Z"/><path class="cls-7" d="M44.34,44.8A14.94,14.94,0,1,1,29.4,29.86,14.94,14.94,0,0,1,44.34,44.8Z"/><polygon class="cls-3" points="29.8 46.23 29.4 32.71 29 46.23 29.8 46.23"/><rect class="cls-3" x="16.08" y="44.71" width="2.65" height="0.37"/><rect class="cls-3" x="40.07" y="44.71" width="2.65" height="0.37"/><rect class="cls-8" x="29.21" y="31.57" width="0.37" height="2.65"/><rect class="cls-3" x="20.73" y="35.09" width="0.37" height="2.65" transform="translate(-19.56 25.23) rotate(-44.68)"/><polygon class="cls-3" points="36.81 52.56 37.07 52.31 38.95 54.18 38.69 54.44 36.81 52.56"/><rect class="cls-3" x="36.55" y="36.23" width="2.65" height="0.37" transform="translate(-14.65 37.76) rotate(-45.33)"/><rect class="cls-3" x="19.59" y="53.19" width="2.65" height="0.37" transform="translate(-31.62 30.43) rotate(-45.01)"/><rect class="cls-7" x="24.69" y="25.24" width="9.43" height="1.85"/></g></g></svg>