<svg xmlns="http://www.w3.org/2000/svg" viewBox="0 0 44.26 56.85"><defs><style>.cls-1{fill:#e55555;}.cls-2{fill:#216b7c;}.cls-3{fill:#589eb7;}.cls-4{fill:#3a7f91;}.cls-5{fill:#8bc6d6;}.cls-6{fill:#9e1300;}.cls-7{fill:#b21b10;}.cls-8{fill:#c12521;}.cls-9{fill:#d33c3c;}</style></defs><g id="Capa_2" data-name="Capa 2"><g id="Layer_1" data-name="Layer 1"><path class="cls-1" d="M32,55.33A20.7,20.7,0,0,0,34.66,45c0-9.29-5.61-16.81-12.53-16.81S9.59,35.75,9.59,45a20.6,20.6,0,0,0,2.63,10.29Z"/><path class="cls-2" d="M32,55.33A20.7,20.7,0,0,0,34.66,45c0-9.29-5.61-16.81-12.53-16.81S9.59,35.75,9.59,45a20.6,20.6,0,0,0,2.63,10.29Z"/><path class="cls-3" d="M23.91,32.53c-6.68,0-12.34,5.87-14.27,14a20.42,20.42,0,0,0,2.58,8.82H32A20.7,20.7,0,0,0,34.66,45,21.32,21.32,0,0,0,33,36.65,12.68,12.68,0,0,0,23.91,32.53Z"/><path class="cls-4" d="M32.89,36.42c-1,9.74-7.27,17.24-14.83,17.24a12.19,12.19,0,0,1-7.7-2.86,19.06,19.06,0,0,0,1.86,4.53H32A20.7,20.7,0,0,0,34.66,45,21.1,21.1,0,0,0,32.89,36.42Z"/><path class="cls-2" d="M33,56.09a.76.76,0,0,1-.76.76H12a.76.76,0,0,1-.76-.76h0a.76.76,0,0,1,.76-.76H32.28a.76.76,0,0,1,.76.76Z"/><path class="cls-5" d="M19.1,29.73c-2.55,2.64-4.32,8.5-4.32,15.31a32.83,32.83,0,0,0,1.54,10.29h2.15a38.15,38.15,0,0,1-1.79-12A35.78,35.78,0,0,1,19.1,29.73Z"/><polygon class="cls-6" points="44.26 30.75 0 30.75 5.4 0 38.85 0 44.26 30.75"/><polygon class="cls-7" points="41.56 30.75 2.69 30.75 7.44 0 36.82 0 41.56 30.75"/><polygon class="cls-8" points="36.83 30.75 7.43 30.75 11.02 0 33.24 0 36.83 30.75"/><polygon class="cls-9" points="30.72 30.75 13.54 30.75 15.64 0 28.62 0 30.72 30.75"/><polygon class="cls-1" points="25.09 30.75 19.17 30.75 19.89 0 24.36 0 25.09 30.75"/></g></g></svg>