<svg xmlns="http://www.w3.org/2000/svg" viewBox="0 0 75 46.12"><defs><style>.cls-1{fill:#e0e0e0;}.cls-2{fill:#bababa;}.cls-3{fill:#303030;}.cls-4{fill:#fff;}.cls-5{fill:#3e4754;}.cls-6{fill:#444e5c;}.cls-7{fill:#c2c2c2;}.cls-8{fill:#a3a3a3;}.cls-9{fill:#919191;}.cls-10{fill:#cf4040;}.cls-11{fill:#b53838;}.cls-12{fill:#878787;}.cls-13{fill:gray;}.cls-14{fill:#858585;}</style></defs><g id="Capa_2" data-name="Capa 2"><g id="Layer_1" data-name="Layer 1"><rect class="cls-1" width="75" height="42.87"/><path class="cls-2" d="M43.11,6.59V36.08s-.42.43,0,.43C48.71,32.46,48.53,10.27,43.11,6.59Z"/><path class="cls-3" d="M43.11,36.08H3.73V7.19H43.11s3.54,4.37,3.54,14.59S43.11,36.08,43.11,36.08Z"/><rect class="cls-4" x="3.31" y="7.19" width="0.42" height="28.9"/><rect class="cls-4" x="49.64" width="0.75" height="42.87"/><rect class="cls-4" x="74.26" width="0.75" height="42.87"/><rect class="cls-2" x="51.08" width="0.75" height="42.87"/><rect class="cls-2" width="0.75" height="42.87"/><path class="cls-5" d="M40.54,33.24H6.34V10.31h34.2l.16.71a49.4,49.4,0,0,1,0,21.51Z"/><path class="cls-6" d="M40,32.93,6.81,10.69H40l.62,4.65a48.23,48.23,0,0,1,0,12.87Z"/><rect class="cls-7" x="55.11" y="3.68" width="16.61" height="35.91"/><rect class="cls-8" x="56" y="4.48" width="4.23" height="4.23"/><path class="cls-9" d="M59.89,8.34a4.07,4.07,0,0,0-1.25-2.22,6.92,6.92,0,0,0-2.28-1.3h3.53Z"/><rect class="cls-8" x="61.35" y="4.48" width="4.23" height="4.23"/><path class="cls-9" d="M65.22,8.34A4,4,0,0,0,64,6.12a6.93,6.93,0,0,0-2.27-1.3h3.52Z"/><rect class="cls-8" x="66.62" y="4.48" width="4.23" height="4.23"/><path class="cls-9" d="M70.5,8.34a4.07,4.07,0,0,0-1.25-2.22A7,7,0,0,0,67,4.82H70.5Z"/><rect class="cls-8" x="56" y="9.85" width="4.23" height="4.23"/><path class="cls-9" d="M59.89,13.71a4,4,0,0,0-1.25-2.21,6.85,6.85,0,0,0-2.28-1.31h3.53Z"/><rect class="cls-8" x="61.35" y="9.85" width="4.23" height="4.23"/><path class="cls-9" d="M65.22,13.71A4,4,0,0,0,64,11.5a6.86,6.86,0,0,0-2.27-1.31h3.52Z"/><rect class="cls-8" x="66.62" y="9.85" width="4.23" height="4.23"/><path class="cls-9" d="M70.5,13.71a4,4,0,0,0-1.25-2.21A7,7,0,0,0,67,10.19H70.5Z"/><rect class="cls-8" x="56" y="15.22" width="4.23" height="4.23"/><path class="cls-9" d="M59.89,19.09a4,4,0,0,0-1.25-2.22,6.85,6.85,0,0,0-2.28-1.31h3.53Z"/><rect class="cls-8" x="61.35" y="15.22" width="4.23" height="4.23"/><path class="cls-9" d="M65.22,19.09A4,4,0,0,0,64,16.87a6.86,6.86,0,0,0-2.27-1.31h3.52Z"/><rect class="cls-8" x="66.62" y="15.22" width="4.23" height="4.23"/><path class="cls-9" d="M70.5,19.09a4,4,0,0,0-1.25-2.22A7,7,0,0,0,67,15.56H70.5Z"/><rect class="cls-8" x="56" y="20.59" width="4.23" height="4.23"/><path class="cls-9" d="M59.89,24.46a4,4,0,0,0-1.25-2.22,7.07,7.07,0,0,0-2.28-1.31h3.53Z"/><rect class="cls-8" x="61.35" y="20.59" width="4.23" height="4.23"/><path class="cls-9" d="M65.22,24.46A4,4,0,0,0,64,22.24a7.08,7.08,0,0,0-2.27-1.31h3.52Z"/><rect class="cls-8" x="66.62" y="20.59" width="4.23" height="4.23"/><path class="cls-9" d="M70.5,24.46a4,4,0,0,0-1.25-2.22A7.18,7.18,0,0,0,67,20.93H70.5Z"/><rect class="cls-8" x="56" y="25.96" width="4.23" height="4.23"/><path class="cls-9" d="M59.89,29.83a4,4,0,0,0-1.25-2.22,7.07,7.07,0,0,0-2.28-1.31h3.53Z"/><rect class="cls-10" x="61.35" y="25.96" width="9.5" height="4.23"/><path class="cls-11" d="M70.5,29.83s-.79-.51-3.06-1.75A23,23,0,0,0,61.7,26.3h8.8Z"/><path class="cls-9" d="M70.85,31.28H57a1,1,0,0,0-1,1v5.23a1,1,0,0,0,1,1H70.85Z"/><rect class="cls-12" x="50.38" width="0.7" height="42.87"/><rect class="cls-4" x="3.31" y="36.08" width="39.79" height="0.42"/><rect class="cls-2" x="3.31" y="6.59" width="39.79" height="0.6"/><rect class="cls-2" y="42.87" width="74.26" height="1.99"/><rect class="cls-13" y="42.87" width="74.26" height="0.57"/><path class="cls-14" d="M9.86,46.12h-4a1.25,1.25,0,0,1-1.25-1.25h6.55A1.25,1.25,0,0,1,9.86,46.12Z"/><path class="cls-14" d="M68.65,46.12H64.59a1.25,1.25,0,0,1-1.25-1.25H69.9A1.25,1.25,0,0,1,68.65,46.12Z"/></g></g></svg>