<svg xmlns="http://www.w3.org/2000/svg" viewBox="0 0 62.64 82.44"><defs><style>.cls-1{fill:#e0e0e0;}.cls-2{opacity:0.05;}.cls-3{fill:gray;}.cls-4{fill:#bfbfbf;}.cls-10,.cls-5{fill:#fff;}.cls-6{fill:#ababab;}.cls-7{fill:#1f1f1f;}.cls-8{fill:#525252;}.cls-9{fill:#878787;}.cls-10{opacity:0.3;}.cls-11{opacity:0.1;}.cls-12{fill:#919191;}</style></defs><g id="Capa_2" data-name="Capa 2"><g id="Layer_1" data-name="Layer 1"><path class="cls-1" d="M48.08,1.46,25.66,4.23C6.25,7.29,1.3,23.67.06,31.3a4.3,4.3,0,0,0,4.24,5H61.54a1.1,1.1,0,0,0,1.1-1.1V19C62.64,11,56.12,1.46,48.08,1.46ZM31.93,18.85c-11.87,0-13.41.71-13.41-3.2S21.3,9.65,33,7.73s20.41-4.84,20.41,5.94C53.42,17.57,43.8,18.85,31.93,18.85Z"/><path class="cls-2" d="M10.6,12.7c-7.5,7-9.19,19.67-9.19,19.67A3.25,3.25,0,0,0,5,35.55H27.28a5.83,5.83,0,0,0,6-5.83V29.6a5.84,5.84,0,0,0-5.39-5.82s-12,.21-13.48-1.14C10.43,18.89,13.7,10.25,10.6,12.7Z"/><path class="cls-3" d="M46.76,1.65,43.94,2V2c-.11-1,.22-1.79.75-1.85l.9-.11c.53-.06,1,.67,1.16,1.63Z"/><path class="cls-3" d="M35,3.1l-5.19.61h0c-.09-.75.63-1.46,1.61-1.58l1.65-.19A1.61,1.61,0,0,1,35,3.09Z"/><rect class="cls-4" x="25.07" y="31.8" width="31.52" height="1.83" rx="0.91"/><path class="cls-5" d="M55.68,33.63H26a.9.9,0,0,1-.9-.91v0a1,1,0,0,0,.9,1.1H54.4S56.18,33.63,55.68,33.63Z"/><path class="cls-6" d="M55.68,32.71H26c-.5,0-.9.51-.9,0v0a.9.9,0,0,1,.9-.9H55.68a.9.9,0,0,1,.91.9v0C56.59,33.22,56.18,32.71,55.68,32.71Z"/><rect class="cls-4" x="25.07" y="28.76" width="31.52" height="1.83" rx="0.91"/><path class="cls-5" d="M55.68,30.6H26a.9.9,0,0,1-.9-.91v0a1,1,0,0,0,.9,1.1H54.4S56.18,30.6,55.68,30.6Z"/><path class="cls-6" d="M55.68,29.68H26c-.5,0-.9.51-.9,0v0a.9.9,0,0,1,.9-.91H55.68a.91.91,0,0,1,.91.91v0C56.59,30.19,56.18,29.68,55.68,29.68Z"/><rect class="cls-4" x="25.07" y="25.55" width="31.52" height="1.83" rx="0.91"/><path class="cls-5" d="M55.68,27.39H26a.9.9,0,0,1-.9-.91v0a1,1,0,0,0,.9,1.09H54.4S56.18,27.39,55.68,27.39Z"/><path class="cls-6" d="M55.68,26.47H26c-.5,0-.9.51-.9,0v0a.9.9,0,0,1,.9-.91H55.68a.91.91,0,0,1,.91.91v0C56.59,27,56.18,26.47,55.68,26.47Z"/><path class="cls-7" d="M48.08,1.46s-23,2.39-28.2,4.12A11.11,11.11,0,0,0,16.14,7s21.79-2.88,35.3-5A8.06,8.06,0,0,0,48.08,1.46Z"/><rect class="cls-7" x="13.27" y="25.83" width="3.79" height="8.78" rx="1.88"/><rect class="cls-8" x="13.7" y="27.55" width="2.93" height="6.79" rx="1.45"/><rect class="cls-9" x="37.26" y="36.31" width="22.89" height="3.25"/><rect class="cls-10" x="52.88" y="36.31" width="5.81" height="3.25"/><rect class="cls-11" x="39.52" y="36.31" width="9.18" height="3.25"/><rect class="cls-12" x="53.05" y="64.84" width="1.01" height="17.1"/><rect class="cls-10" x="53.56" y="64.84" width="0.51" height="17.1"/><rect class="cls-12" x="57.48" y="64.84" width="1.01" height="17.1"/><rect class="cls-10" x="57.99" y="64.84" width="0.51" height="17.1"/><rect class="cls-12" x="54.95" y="39.57" width="1.64" height="25.27"/><rect class="cls-10" x="55.77" y="39.57" width="0.82" height="25.27"/><path class="cls-12" d="M58,82.44H53.56A3.46,3.46,0,0,1,50.1,79V67.79a3.46,3.46,0,0,1,3.46-3.46H58a3.46,3.46,0,0,1,3.45,3.46V79A3.46,3.46,0,0,1,58,82.44Zm-4.43-17.1a2.45,2.45,0,0,0-2.45,2.45V79a2.45,2.45,0,0,0,2.45,2.44H58A2.44,2.44,0,0,0,60.43,79V67.79A2.45,2.45,0,0,0,58,65.34Z"/><path class="cls-10" d="M61.29,73.49a57.17,57.17,0,0,1-.18,6.42,62,62,0,0,1-.17-6.42,62.13,62.13,0,0,1,.17-6.42A57.32,57.32,0,0,1,61.29,73.49Z"/><rect class="cls-12" x="39.38" y="64.84" width="1.01" height="17.1"/><rect class="cls-10" x="39.89" y="64.84" width="0.51" height="17.1"/><rect class="cls-12" x="43.81" y="64.84" width="1.01" height="17.1"/><rect class="cls-10" x="44.32" y="64.84" width="0.51" height="17.1"/><rect class="cls-12" x="41.28" y="39.57" width="1.64" height="25.27"/><rect class="cls-10" x="42.1" y="39.57" width="0.82" height="25.27"/><path class="cls-12" d="M44.32,82.44H39.89A3.46,3.46,0,0,1,36.43,79V67.79a3.46,3.46,0,0,1,3.46-3.46h4.43a3.46,3.46,0,0,1,3.45,3.46V79A3.46,3.46,0,0,1,44.32,82.44Zm-4.43-17.1a2.45,2.45,0,0,0-2.45,2.45V79a2.45,2.45,0,0,0,2.45,2.44h4.43A2.44,2.44,0,0,0,46.76,79V67.79a2.45,2.45,0,0,0-2.44-2.45Z"/><path class="cls-10" d="M47.62,73.49a57.17,57.17,0,0,1-.18,6.42,62,62,0,0,1-.17-6.42,62.13,62.13,0,0,1,.17-6.42A57.32,57.32,0,0,1,47.62,73.49Z"/><path class="cls-2" d="M48.4,3.71c-20.44.54-29.95,7-29.95,7S40.22,4.54,47.33,5.26a7.1,7.1,0,0,1,6.86,5.79S54,4.13,48.4,3.71Z"/><path class="cls-10" d="M17.84,14.17s-.59,4.25,2.18,5.25c12.77,2.67,32.42-2.28,32.42-2.28S30.1,24.19,19.87,20.66C16.16,18.38,17.84,14.17,17.84,14.17Z"/><path class="cls-5" d="M54.19,4.23C57.63,6.1,60,10,61.23,14.5a17.05,17.05,0,0,1,.57,4c.3,8.32.12,16.5.12,16.5H59.83S63.75,13.92,54.19,4.23Z"/></g></g></svg>