<svg xmlns="http://www.w3.org/2000/svg" viewBox="0 0 38.55 44.89"><defs><style>.cls-1{fill:#3a4245;}.cls-2{fill:#b8c7d8;}.cls-3{fill:#8da3b5;}.cls-4{fill:#589eb7;}</style></defs><g id="Capa_2" data-name="Capa 2"><g id="Layer_1" data-name="Layer 1"><rect class="cls-1" x="7.84" y="43.58" width="2.05" height="1.32"/><rect class="cls-1" x="32.67" y="43.58" width="2.05" height="1.32"/><path class="cls-2" d="M6.22,3.67H36.79a1.76,1.76,0,0,1,1.76,1.76V42.21A1.76,1.76,0,0,1,36.79,44H6.22a1.75,1.75,0,0,1-1.75-1.75V5.43A1.76,1.76,0,0,1,6.22,3.67Z"/><rect class="cls-3" x="15.63" y="15.42" width="5.58" height="5.59" rx="0.51"/><rect class="cls-3" x="15.63" y="22.17" width="5.58" height="5.59" rx="0.51"/><rect class="cls-3" x="15.63" y="28.92" width="5.58" height="5.59" rx="0.51"/><rect class="cls-3" x="15.63" y="35.68" width="5.58" height="5.59" rx="0.51"/><rect class="cls-3" x="22.38" y="15.42" width="5.59" height="5.59" rx="0.51"/><rect class="cls-3" x="22.38" y="22.17" width="5.59" height="5.59" rx="0.51"/><rect class="cls-3" x="22.38" y="28.92" width="5.59" height="5.59" rx="0.51"/><rect class="cls-3" x="22.38" y="35.68" width="5.59" height="5.59" rx="0.51"/><rect class="cls-3" x="29.13" y="15.42" width="5.59" height="5.59" rx="0.51"/><rect class="cls-3" x="29.13" y="22.17" width="5.59" height="5.59" rx="0.51"/><rect class="cls-3" x="29.13" y="28.92" width="5.59" height="5.59" rx="0.51"/><rect class="cls-3" x="29.13" y="35.68" width="5.59" height="5.59" rx="0.51"/><rect class="cls-3" x="22.38" y="15.42" width="5.59" height="5.59" rx="0.51"/><rect class="cls-3" x="22.38" y="22.17" width="5.59" height="5.59" rx="0.51"/><rect class="cls-3" x="22.38" y="28.92" width="5.59" height="5.59" rx="0.51"/><rect class="cls-3" x="22.38" y="35.68" width="5.59" height="5.59" rx="0.51"/><rect class="cls-3" x="29.13" y="15.42" width="5.59" height="5.59" rx="0.51"/><rect class="cls-3" x="29.13" y="22.17" width="5.59" height="5.59" rx="0.51"/><rect class="cls-3" x="29.13" y="28.92" width="5.59" height="5.59" rx="0.51"/><rect class="cls-3" x="29.13" y="35.68" width="5.59" height="5.59" rx="0.51"/><path class="cls-3" d="M6.22,3.67A1.75,1.75,0,0,0,4.47,5.43V41.26h6.05a1.76,1.76,0,0,0,1.76-1.76V3.67Z"/><path class="cls-4" d="M1.76,0H9.47a1.75,1.75,0,0,1,1.75,1.75V38.54A1.76,1.76,0,0,1,9.47,40.3H1.76A1.76,1.76,0,0,1,0,38.54V1.76A1.76,1.76,0,0,1,1.76,0Z"/><rect class="cls-3" x="15.63" y="14.72" width="5.58" height="5.59" rx="0.51"/><rect class="cls-3" x="15.63" y="21.47" width="5.58" height="5.59" rx="0.51"/><rect class="cls-3" x="15.63" y="28.22" width="5.58" height="5.59" rx="0.51"/><rect class="cls-3" x="15.63" y="34.97" width="5.58" height="5.59" rx="0.51"/><rect class="cls-3" x="22.38" y="14.72" width="5.59" height="5.59" rx="0.51"/><rect class="cls-3" x="22.38" y="21.47" width="5.59" height="5.59" rx="0.51"/><rect class="cls-3" x="22.38" y="28.22" width="5.59" height="5.59" rx="0.51"/><rect class="cls-3" x="22.38" y="34.97" width="5.59" height="5.59" rx="0.51"/><rect class="cls-3" x="29.13" y="14.72" width="5.59" height="5.59" rx="0.51"/><rect class="cls-3" x="29.13" y="21.47" width="5.59" height="5.59" rx="0.51"/><rect class="cls-3" x="29.13" y="28.22" width="5.59" height="5.59" rx="0.51"/><rect class="cls-3" x="29.13" y="34.97" width="5.59" height="5.59" rx="0.51"/><rect class="cls-1" x="15.63" y="7.11" width="19.3" height="5.58" rx="0.51"/></g></g></svg>