<svg xmlns="http://www.w3.org/2000/svg" viewBox="0 0 74.56 85.53"><defs><style>.cls-1{fill:#e0e0e0;}.cls-2{fill:#fff;}.cls-3{opacity:0.05;}.cls-4{fill:#828282;}.cls-5{fill:#030303;opacity:0.2;}.cls-6{fill:#1c1c1c;}.cls-7{fill:#545454;}.cls-8{fill:#2b2b2b;}.cls-9{fill:#cf4040;}.cls-10{fill:#b52d2d;}.cls-11{fill:#e6e6e6;}.cls-12{fill:#a6a6a6;}.cls-13{fill:#8a8a8a;}.cls-14{fill:#c9c9c9;}.cls-15{fill:#2e4194;}.cls-16{fill:#4ac7ed;}.cls-17{fill:#5c5c5c;}.cls-18{fill:#1a1a1a;}.cls-19{fill:#050505;}.cls-20{fill:#595959;}</style></defs><g id="Capa_2" data-name="Capa 2"><g id="Layer_1" data-name="Layer 1"><rect x="31.98" y="71.67" width="10.6" height="5.1"/><circle class="cls-1" cx="37.28" cy="38.11" r="37.28" transform="translate(-11.75 17.17) rotate(-22.5)"/><path class="cls-2" d="M63.64,64.47s24-26.6-.21-51.94c-27.52-24.93-52.51-.78-52.51-.78A37.28,37.28,0,0,1,63.64,64.47Z"/><path class="cls-3" d="M63,63.78A36.34,36.34,0,0,1,11.61,12.39c5.05-5,1.72,22.31,15.91,36.5S67,59.77,63,63.78Z"/><circle class="cls-4" cx="37.28" cy="37.77" r="33.65"/><circle class="cls-1" cx="37.28" cy="37.81" r="32.9"/><path class="cls-2" d="M25.51,7.08a32.61,32.61,0,0,1,34.87,7.35c5.68,5.67,8.6,13.64,9.7,20.78-1-.63,1.37-13.7-15.73-24.87C40.62,1.37,23.66,7.83,25.51,7.08Z"/><path class="cls-3" d="M60,60.54A32.16,32.16,0,0,1,14.56,15.06c3-3,3,17.39,15.52,29.95S62.84,57.73,60,60.54Z"/><circle class="cls-1" cx="37.28" cy="37.79" r="22.29" transform="translate(-15.8 37.43) rotate(-45)"/><circle class="cls-5" cx="36.39" cy="38.67" r="22.29" transform="translate(-9.61 65.21) rotate(-76.72)"/><circle class="cls-2" cx="37.55" cy="37.03" r="22.29"/><circle class="cls-1" cx="37.28" cy="37.79" r="22.29" transform="translate(-15.8 37.43) rotate(-45)"/><circle class="cls-4" cx="37.28" cy="37.67" r="17.65"/><circle cx="37.28" cy="37.67" r="17.07" transform="translate(-7.95 65.3) rotate(-76.72)"/><path class="cls-6" d="M48.93,26a16.48,16.48,0,0,1,0,23.3L25.63,26A16.48,16.48,0,0,1,48.93,26Z"/><path class="cls-7" d="M53.64,42.56a17.08,17.08,0,0,1-32.72,0s3.34,11.86,16.36,11.86S53.64,42.56,53.64,42.56Z"/><rect class="cls-8" x="25.47" y="76.77" width="23.63" height="8.76" rx="2.02"/><path d="M39.71,81.15a2.43,2.43,0,1,1-2.43-2.43A2.43,2.43,0,0,1,39.71,81.15Z"/><path d="M46.58,81.15a1,1,0,1,1-1-1A1,1,0,0,1,46.58,81.15Z"/><path class="cls-9" d="M46.49,81.15a1,1,0,1,1-1-1A1,1,0,0,1,46.49,81.15Z"/><path class="cls-10" d="M46.14,81.73A.84.84,0,0,1,45,80.54a1.44,1.44,0,0,0,.46.79C45.81,81.72,46.47,81.4,46.14,81.73Z"/><circle class="cls-11" cx="37.28" cy="37.12" r="4.05"/><path class="cls-12" d="M41,37.12a3.68,3.68,0,1,1-3.68-3.67A3.68,3.68,0,0,1,41,37.12Z"/><path class="cls-13" d="M39.38,39.72a6.92,6.92,0,0,0-1.65-3.18,5.8,5.8,0,0,0-3-1.52,3.32,3.32,0,0,1,4.7,4.7Z"/><path class="cls-14" d="M34.38,36.12a17.71,17.71,0,0,0,1.72,2.26,10,10,0,0,0,2.24,1.46,2.78,2.78,0,0,1-3.19-.59A3.38,3.38,0,0,1,34.38,36.12Z"/><path class="cls-15" d="M31.38,47H26.53a1.16,1.16,0,0,1-1.16-1.17v0a1.16,1.16,0,0,1,1.16-1.16h4.85Z"/><path class="cls-15" d="M43.18,44.63H48a1.16,1.16,0,0,1,1.17,1.16v0A1.17,1.17,0,0,1,48,47H43.18Z"/><rect class="cls-16" x="31.38" y="44.63" width="5.9" height="2.35"/><rect class="cls-15" x="37.28" y="44.63" width="5.9" height="2.35"/><polygon class="cls-4" points="74.56 35.53 70.73 38.67 70.3 37.05 74.33 33.96 74.56 35.53"/><polygon class="cls-17" points="74.56 35.53 70.73 38.67 70.93 38.51 74.48 34.96 74.56 35.53"/><polygon class="cls-4" points="0 35.53 3.83 38.67 4.26 37.05 0.23 33.96 0 35.53"/><polygon class="cls-17" points="0.13 34.65 3.63 37.18 3.65 36.58 0.23 33.96 0.13 34.65"/><path class="cls-9" d="M27.88,28a.76.76,0,0,1,.55.24l-.23.26a.45.45,0,0,0-.31-.14c-.26,0-.46.22-.46.6s.17.6.45.6a.46.46,0,0,0,.35-.17l.23.26a.75.75,0,0,1-.59.27A.86.86,0,0,1,27,29,.89.89,0,0,1,27.88,28Z"/><path class="cls-9" d="M28.74,28h.42v1.5h.73v.36H28.74Z"/><path class="cls-9" d="M30.21,28h1.16v.36h-.74v.37h.63v.35h-.63v.42h.77v.36H30.21Z"/><path class="cls-9" d="M32.64,29.44h-.56l-.12.44h-.42L32.12,28h.5l.58,1.86h-.45Zm-.08-.33-.05-.17-.15-.6h0c0,.2-.09.41-.14.6l-.05.17Z"/><path class="cls-9" d="M33.4,28h.43l.48.92.18.41h0c0-.19,0-.45,0-.67V28h.4v1.86h-.43L33.94,29l-.18-.4h0c0,.2,0,.45,0,.67v.66h-.4Z"/><path class="cls-9" d="M35.29,28h.42v1.86h-.42Z"/><path class="cls-9" d="M36.15,28h.42l.49.92.18.41h0c0-.19,0-.45,0-.67V28h.4v1.86h-.43L36.68,29l-.18-.4h0c0,.2,0,.45,0,.67v.66h-.39Z"/><path class="cls-9" d="M38.86,28a.8.8,0,0,1,.57.24l-.23.26a.46.46,0,0,0-.34-.14c-.28,0-.48.22-.48.6s.17.6.52.6a.29.29,0,0,0,.19-.06v-.32h-.3v-.34h.67v.85a.9.9,0,0,1-.62.23A.87.87,0,0,1,38,29,.9.9,0,0,1,38.86,28Z"/><path class="cls-9" d="M40.44,28h.44l.31.84.11.32h0l.12-.32.3-.84h.44v1.86h-.39V29.2a6.19,6.19,0,0,1,0-.63h0l-.15.42-.29.72h-.16L40.93,29l-.15-.42h0a6.19,6.19,0,0,1,0,.63v.68h-.38Z"/><path class="cls-9" d="M42.52,28.94a.85.85,0,1,1,1.68,0c0,.61-.34,1-.84,1S42.52,29.55,42.52,28.94Zm1.25,0c0-.37-.16-.59-.41-.59s-.41.22-.41.59.16.61.41.61S43.77,29.31,43.77,28.94Z"/><path class="cls-9" d="M44.55,28h.52a.93.93,0,0,1,0,1.86h-.55Zm.5,1.52c.31,0,.52-.16.52-.6s-.21-.58-.52-.58H45v1.18Z"/><path class="cls-9" d="M46.35,28h1.16v.36h-.74v.37h.63v.35h-.63v.42h.77v.36H46.35Z"/><ellipse class="cls-2" cx="45.92" cy="80.65" rx="0.18" ry="0.19"/><path class="cls-18" d="M38.84,82.72a2.17,2.17,0,0,1-3.06-3.07,2.83,2.83,0,0,0,.93,2.2C37.74,82.87,39.2,82.36,38.84,82.72Z"/><path class="cls-18" d="M50.57,2.56S46,0,37.3,0,24,2.56,24,2.56V7.68A30.83,30.83,0,0,1,37.3,4.91,31.94,31.94,0,0,1,50.57,7.68Z"/><path class="cls-19" d="M24.45,2.87c0,1.2.07,4.58.07,4.58S29.29,4.91,37.3,4.91A31.94,31.94,0,0,1,50.57,7.68S42.24.56,24.45,2.87Z"/><path class="cls-20" d="M50.57,2.56S46,0,37.3,0,24,2.56,24,2.56a36.32,36.32,0,0,1,25.91.23l.63,4.89Z"/></g></g></svg>