<svg xmlns="http://www.w3.org/2000/svg" viewBox="0 0 69.35 69.08"><defs><style>.cls-1{fill:#4c5155;}.cls-2{fill:#3a4245;}.cls-3{fill:#ebecf0;}.cls-4{fill:#e2e2e2;}.cls-5{fill:#a3b5c6;}.cls-6{fill:#8da3b5;}.cls-7{fill:#b8c7d8;}.cls-8{fill:#fff;}.cls-9{fill:#6b6b6b;}.cls-10{fill:#ff3912;}.cls-11{fill:#589eb7;}.cls-12{fill:#e0e0e2;}</style></defs><g id="Capa_2" data-name="Capa 2"><g id="Layer_1" data-name="Layer 1"><rect class="cls-1" x="5.4" y="64.88" width="3.96" height="4.16" rx="0.96"/><path class="cls-1" d="M62.43,64.92h-2a1,1,0,0,0-1,1v2.23a1,1,0,0,0,1,1h2a1,1,0,0,0,1-1V65.88A1,1,0,0,0,62.43,64.92Z"/><rect class="cls-2" x="10.99" y="22.63" width="4.51" height="5.03"/><rect class="cls-1" x="8.73" y="18.85" width="9.02" height="5.03"/><path class="cls-3" d="M1.92,37.41V52.59a4.74,4.74,0,0,0,4.74,4.74H20.71a4.74,4.74,0,0,0,4.74-4.74V37.41Z"/><path class="cls-3" d="M1.92,37.41V52.59a4.74,4.74,0,0,0,4.74,4.74H20.71a4.74,4.74,0,0,0,4.74-4.74V37.41Z"/><path class="cls-4" d="M20.79,54.8h-14A4.74,4.74,0,0,1,2,50.06l-.08,2.53a4.74,4.74,0,0,0,4.74,4.74H20.71a4.74,4.74,0,0,0,4.74-4.74V50.93A4.74,4.74,0,0,1,20.79,54.8Z"/><path class="cls-3" d="M25.53,53.05a6.9,6.9,0,1,1,6.91-6.9A6.91,6.91,0,0,1,25.53,53.05Zm0-12.62a5.72,5.72,0,1,0,5.72,5.72A5.72,5.72,0,0,0,25.53,40.43Z"/><rect class="cls-5" x="39.44" y="13.07" width="27.4" height="46.21"/><polygon class="cls-6" points="39.44 59.28 66.84 59.28 66.84 13.07 39.44 59.28"/><path class="cls-7" d="M64.61,0H5.27A4.74,4.74,0,0,0,.53,4.74V21.37H39.44v4.78H64.61a4.74,4.74,0,0,0,4.74-4.74V4.74A4.74,4.74,0,0,0,64.61,0Z"/><path class="cls-8" d="M62.3,1.38H7.58c-2.41,0-4.37,1-4.37,2.33V4.78c0-1.29,2-2.33,4.37-2.33H62.3c2.42,0,4.38,1,4.38,2.33V3.71C66.68,2.42,64.72,1.38,62.3,1.38Z"/><path class="cls-9" d="M58.38,37.14a5,5,0,1,1-5-5A5,5,0,0,1,58.38,37.14Z"/><path class="cls-8" d="M58.38,36.2a5,5,0,1,1-5-5A5,5,0,0,1,58.38,36.2Z"/><path class="cls-10" d="M56.25,36.2a2.85,2.85,0,1,1-2.85-2.85A2.85,2.85,0,0,1,56.25,36.2Z"/><path class="cls-6" d="M64.47,15.79h-22V6.07h22Zm-21.1-.95H63.52V7H43.37Z"/><rect class="cls-11" x="42.9" y="6.01" width="21.1" height="8.77"/><path class="cls-3" d="M64.47,15.25h-22V5.54h22Zm-21.1-.94H63.52V6.48H43.37Z"/><path class="cls-7" d="M4.74,67H64.61a4.74,4.74,0,0,0,4.74-4.74V57.92H0v4.34A4.74,4.74,0,0,0,4.74,67Z"/><rect class="cls-12" x="6.02" y="57.33" width="14.99" height="0.59"/><rect class="cls-6" x="42.9" y="19.35" width="6.06" height="5.93" rx="2.37"/><rect class="cls-6" x="50.64" y="19.35" width="6.05" height="5.93" rx="2.37"/><rect class="cls-6" x="58.38" y="19.35" width="6.06" height="5.93" rx="2.37"/><rect class="cls-3" x="42.9" y="18.41" width="6.06" height="5.93" rx="2.37"/><rect class="cls-3" x="50.64" y="18.41" width="6.05" height="5.93" rx="2.37"/><rect class="cls-3" x="58.38" y="18.41" width="6.06" height="5.93" rx="2.37"/><path class="cls-2" d="M60.17,36.38a.2.2,0,0,1-.2-.2h0a.2.2,0,0,1,.2-.2h1.49a.2.2,0,0,1,.2.2h0a.2.2,0,0,1-.2.2Z"/><path class="cls-2" d="M45.14,36.38a.2.2,0,0,1-.2-.2h0a.2.2,0,0,1,.2-.2h1.49a.2.2,0,0,1,.2.2h0a.2.2,0,0,1-.2.2Z"/><path class="cls-2" d="M53.2,27.91a.2.2,0,0,1,.2-.2h0a.2.2,0,0,1,.2.2v1.5a.2.2,0,0,1-.2.2h0a.2.2,0,0,1-.2-.2Z"/><path class="cls-2" d="M47.42,30.47a.19.19,0,0,1,0-.28h0a.21.21,0,0,1,.28,0l1,1.06a.19.19,0,0,1,0,.28h0a.19.19,0,0,1-.28,0Z"/><path class="cls-2" d="M59.1,30.19a.21.21,0,0,1,.28,0h0a.19.19,0,0,1,0,.28l-1.05,1.06a.21.21,0,0,1-.29,0h0a.21.21,0,0,1,0-.28Z"/></g></g></svg>