<svg xmlns="http://www.w3.org/2000/svg" viewBox="0 0 69.17 50.09"><defs><style>.cls-1{fill:#795547;}.cls-2{fill:#f0daa7;}.cls-3{fill:#bfae85;}.cls-4{fill:#e0e0e0;}.cls-5{fill:#fff;opacity:0.3;}.cls-6{opacity:0.05;}.cls-7{fill:#bababa;}.cls-8{fill:#6b6b6b;}.cls-9{fill:#454545;}.cls-10{fill:#2e2e2e;}.cls-11{fill:#757575;}.cls-12{fill:#6e6e6e;}.cls-13{fill:#cf4040;}</style></defs><g id="Capa_2" data-name="Capa 2"><g id="Layer_1" data-name="Layer 1"><path class="cls-1" d="M44.73,0H15a2.71,2.71,0,0,0-2.71,2.71v7H47.45v-7A2.71,2.71,0,0,0,44.73,0Z"/><path class="cls-2" d="M44.43,2H15.33a2.16,2.16,0,0,0-2.16,2.16V9.7H46.59V4.13A2.16,2.16,0,0,0,44.43,2Z"/><path class="cls-3" d="M18.44,4.93c0,.5-.65.9-1.44.9s-1.45-.4-1.45-.9S16.2,4,17,4,18.44,4.43,18.44,4.93Z"/><path class="cls-3" d="M20.84,8.3c0,.33-.42.59-.95.59s-.95-.26-.95-.59.43-.6.95-.6S20.84,8,20.84,8.3Z"/><path class="cls-3" d="M25.71,4.41c0,.49-.65.9-1.44.9s-1.44-.41-1.44-.9.65-.91,1.44-.91S25.71,3.91,25.71,4.41Z"/><path class="cls-3" d="M27.51,7.08c0,.5-.64.9-1.44.9s-1.44-.4-1.44-.9.65-.9,1.44-.9S27.51,6.59,27.51,7.08Z"/><path class="cls-3" d="M44.92,6.5c0,.34-.43.61-1,.61s-1-.27-1-.61.44-.61,1-.61S44.92,6.16,44.92,6.5Z"/><path class="cls-3" d="M40.43,8c0,.55-.7,1-1.57,1s-1.57-.44-1.57-1,.7-1,1.57-1S40.43,7.44,40.43,8Z"/><path class="cls-3" d="M35.24,5.08c0,.38-.48.68-1.08.68s-1.09-.3-1.09-.68.49-.67,1.09-.67S35.24,4.71,35.24,5.08Z"/><path class="cls-3" d="M33.71,7.44c0,.52-.68.94-1.51.94S30.71,8,30.71,7.44s.67-.94,1.49-.94S33.71,6.92,33.71,7.44Z"/><path class="cls-3" d="M31,3.41c0,.25-.33.46-.74.46s-.75-.21-.75-.46.33-.48.75-.48S31,3.15,31,3.41Z"/><path class="cls-3" d="M40.78,3.87c0,.26-.33.48-.75.48s-.75-.22-.75-.48.34-.46.75-.46S40.78,3.62,40.78,3.87Z"/><path class="cls-4" d="M50.81,9.7h-39A11.79,11.79,0,0,0,0,21.49V43.33H62.6V21.49A11.79,11.79,0,0,0,50.81,9.7Z"/><polygon class="cls-5" points="31.91 9.7 26.43 9.7 15.7 40.99 21.11 41.18 31.91 9.7"/><polygon class="cls-5" points="51.31 9.7 41.47 9.7 30.55 41.52 40.27 41.87 51.31 9.7"/><path class="cls-6" d="M14.84,41C1.89,41,1.38,14.86,1.38,21.23V42.59h58.8Z"/><path class="cls-7" d="M58.58,48.35H4a4,4,0,0,1-4-4v-1H62.6v1A4,4,0,0,1,58.58,48.35Z"/><path class="cls-8" d="M10.19,50.09H7.78c-.41,0-.74-.77-.74-1.72v0h3.88v0C10.92,49.32,10.59,50.09,10.19,50.09Z"/><path class="cls-8" d="M54.21,50.09h-2.4c-.41,0-.74-.77-.74-1.72v0H55v0C55,49.32,54.62,50.09,54.21,50.09Z"/><path class="cls-9" d="M67.82,38.08H62.6V35.35h5.22a1.35,1.35,0,0,1,1.35,1.35v0A1.35,1.35,0,0,1,67.82,38.08Z"/><path class="cls-10" d="M67.48,37.81H62.6V36.5h6.17v0A1.3,1.3,0,0,1,67.48,37.81Z"/><circle class="cls-11" cx="53.01" cy="36.71" r="4.58"/><circle class="cls-10" cx="53.01" cy="36.71" r="4.23"/><circle class="cls-12" cx="53.01" cy="36.71" r="3.38"/><circle class="cls-13" cx="51.5" cy="35.33" r="0.82"/></g></g></svg>