<svg xmlns="http://www.w3.org/2000/svg" viewBox="0 0 80.27 103.22"><defs><style>.cls-1{fill:#292929;}.cls-2{fill:#404040;}.cls-3{opacity:0.4;}.cls-4{fill:#171717;}.cls-5{fill:#e0e0e0;}.cls-6{fill:#e8e8e8;}.cls-21,.cls-7{fill:#fff;}.cls-8{fill:#333;}.cls-9{fill:#b5b5b5;}.cls-10{fill:#c9c9c9;}.cls-11{fill:#a6a6a6;}.cls-12{fill:#ebebeb;}.cls-13{fill:#cfcfcf;}.cls-14{fill:#949494;}.cls-15{fill:#1a1a1a;}.cls-16{fill:#363636;}.cls-17{fill:#0d0d0d;}.cls-18{fill:#d1d1d1;}.cls-19{fill:#9e9e9e;}.cls-20{fill:#787878;}.cls-21{opacity:0.3;}.cls-22{fill:#3d3d3d;}.cls-23{opacity:0.2;}.cls-24{fill:#4a4a4a;}</style></defs><g id="Capa_2" data-name="Capa 2"><g id="Layer_1" data-name="Layer 1"><polygon class="cls-1" points="43.57 60.04 36.87 60.04 37.7 56.57 42.74 56.57 43.57 60.04"/><polygon class="cls-2" points="42.8 59.83 41.2 59.83 40.84 56.57 42.12 56.57 42.8 59.83"/><polygon class="cls-3" points="40.04 60.04 37.34 60.04 38.17 56.57 40.04 56.57 40.04 60.04"/><path class="cls-4" d="M55.2,96.87h0V83h0a3.21,3.21,0,0,1,3.21,3.21v7.44A3.21,3.21,0,0,1,55.2,96.87Z"/><path class="cls-4" d="M25.31,83h0V96.87h0a3.21,3.21,0,0,1-3.22-3.21V86.22A3.22,3.22,0,0,1,25.31,83Z"/><path class="cls-5" d="M40.35,58.88h-.27A13.53,13.53,0,0,0,26.55,72.41V95.82H53.89V72.41A13.54,13.54,0,0,0,40.35,58.88Z"/><path class="cls-6" d="M40.32,62.81h-.2A10.15,10.15,0,0,0,30,73V95.82h20.5V73A10.15,10.15,0,0,0,40.32,62.81Z"/><path class="cls-7" d="M40.32,62.81h-.2A10.15,10.15,0,0,0,30,73s.88-9.87,10.25-9.87S50.47,73,50.47,73A10.15,10.15,0,0,0,40.32,62.81Z"/><path class="cls-8" d="M53.92,72.5l0-.09V95.82H26.55V72.41l0,.09a51.35,51.35,0,0,0-2.8,16.76v8.16a3.79,3.79,0,0,0,3.79,3.79H52.93a3.79,3.79,0,0,0,3.79-3.79V89.26A51.62,51.62,0,0,0,53.92,72.5Z"/><path class="cls-9" d="M46.77,89.88H33.66a3.61,3.61,0,0,0-3.61,3.61v2.33H50.39V93.49A3.61,3.61,0,0,0,46.77,89.88Z"/><path class="cls-10" d="M44.35,92.07H36.08a2.28,2.28,0,0,0-2.28,2.28v1.47H46.63V94.35A2.28,2.28,0,0,0,44.35,92.07Z"/><path class="cls-11" d="M37,88.63H43.4c1.76,0,1.76-.64,1.76-.64H35.28S35.28,88.63,37,88.63Z"/><path class="cls-11" d="M37,87.53H43.4c1.76,0,1.76-.64,1.76-.64H35.28S35.28,87.53,37,87.53Z"/><path class="cls-11" d="M37,86.43H43.4c1.76,0,1.76-.64,1.76-.64H35.28S35.28,86.43,37,86.43Z"/><path class="cls-11" d="M37,85.33H43.4c1.76,0,1.76-.64,1.76-.64H35.28S35.28,85.33,37,85.33Z"/><path class="cls-11" d="M37,84.24H43.4c1.76,0,1.76-.64,1.76-.64H35.28S35.28,84.24,37,84.24Z"/><path class="cls-12" d="M53.89,72.41h0a3.46,3.46,0,0,0-3.46,3.47V95.82h3.5Z"/><path class="cls-13" d="M26.55,72.41h0a3.47,3.47,0,0,1,3.47,3.47V95.82h-3.5Z"/><rect class="cls-14" x="35.28" y="72.21" width="9.88" height="2.44" rx="1.21"/><rect class="cls-8" x="35.69" y="72.44" width="4.02" height="1.98" rx="0.98"/><path class="cls-7" d="M50.69,84.39c0,6.31-.24,11.43-.3,11.43s.08-5.12.08-11.43S50.41,73,50.47,73,50.69,78.08,50.69,84.39Z"/><rect class="cls-15" x="37.7" y="55.95" width="5.04" height="0.61"/><rect class="cls-16" x="40.84" y="55.95" width="1.29" height="0.61"/><rect class="cls-17" x="38.16" y="55.95" width="1.88" height="0.61"/><rect class="cls-18" x="35.28" y="75.6" width="10.38" height="6.95" rx="1.48"/><path class="cls-8" d="M68,21.37H62.22V11.51a6.15,6.15,0,0,0-6.13-6.14H51.33V0h4.76A11.58,11.58,0,0,1,68,11.51Z"/><path class="cls-3" d="M65.25,21.37h-3V11.51a6.15,6.15,0,0,0-6.13-6.14H51.33V2.69h4.76c6.55,0,9,2.27,9,8.82Z"/><rect class="cls-19" x="63.21" y="21.38" width="3.74" height="30.16"/><rect class="cls-20" x="63.79" y="21.38" width="1.46" height="30.16"/><rect class="cls-21" x="66.06" y="21.38" width="0.6" height="30.16"/><rect class="cls-19" x="63.58" y="51.54" width="3" height="38.99"/><rect class="cls-21" x="65.87" y="51.54" width="0.48" height="38.99"/><rect class="cls-20" x="64.04" y="51.54" width="1.17" height="38.99"/><rect class="cls-20" x="63.58" y="51.54" width="3" height="0.41"/><path class="cls-8" d="M67,33.4h0V22.2h0a1.25,1.25,0,0,1,1.25,1.25v8.71A1.24,1.24,0,0,1,67,33.4Z"/><path class="cls-22" d="M67.1,90.53H63.22v5h-.06A1.54,1.54,0,0,0,61.61,97H67.1Z"/><path class="cls-23" d="M65.16,90.53H63.22v5h-.06A1.54,1.54,0,0,0,61.61,97h3.55Z"/><rect class="cls-4" x="63.22" y="94.52" width="3.88" height="0.97"/><path class="cls-22" d="M67.42,96.75h9.23a3.43,3.43,0,0,1,3,2.33l.55,1.28a.59.59,0,0,1-.48.85H67.42Z"/><path class="cls-23" d="M67.42,99.08H79.67l.55,1.28a.59.59,0,0,1-.48.85H67.42Z"/><path class="cls-4" d="M65,101.21h2.39V97.05H60.91v0A4.12,4.12,0,0,0,65,101.21Z"/><path class="cls-21" d="M52.19.41a45.85,45.85,0,0,1,6,.21c9.29,2.49,9,9.88,9,9.88V20.65L67,10.5s.06-7.2-8.87-9.69A32.93,32.93,0,0,0,52.19.41Z"/><path class="cls-24" d="M9.63,103.22H9.48A9.49,9.49,0,0,1,0,93.75V12A11.29,11.29,0,0,1,11.28.68H51.33v4h-40A7.27,7.27,0,0,0,4,12V93.75A5.46,5.46,0,0,0,9.48,99.2h.15a5.46,5.46,0,0,0,5.45-5.45v-58A11.29,11.29,0,0,1,26.36,24.44H27.7c3.51-.05,8.32-.11,11.46,3,1.92,1.9,2.89,4.69,2.89,8.3V56H38V35.72c0-2.5-.57-4.32-1.7-5.44-1.94-1.91-5.62-1.87-8.58-1.83H26.36a7.27,7.27,0,0,0-7.26,7.26v58A9.48,9.48,0,0,1,9.63,103.22Z"/></g></g></svg>