<svg xmlns="http://www.w3.org/2000/svg" viewBox="0 0 78.67 110.71"><defs><style>.cls-1{fill:#e0e0e0;}.cls-2{fill:#9c9c9c;}.cls-3{fill:#bababa;}.cls-4{fill:#d9d9d9;}.cls-5{fill:#858585;}.cls-6{fill:#8c8c8c;}.cls-7{fill:#666;}.cls-17,.cls-21,.cls-24,.cls-8{fill:#fff;}.cls-9{fill:#878787;}.cls-10{fill:#4a4a4a;}.cls-11{fill:#a6a6a6;}.cls-12{fill:#cf4040;}.cls-13{fill:#828282;}.cls-14{fill:#030303;}.cls-14,.cls-17,.cls-18{opacity:0.2;}.cls-15{fill:#cfcfcf;}.cls-16,.cls-24{opacity:0.05;}.cls-19{fill:#3a495e;}.cls-20{fill:#2c3c54;}.cls-21{opacity:0.15;}.cls-22{fill:#28374f;}.cls-23{fill:#233045;}.cls-25{fill:#84a6d6;}.cls-26{fill:#2d343d;}.cls-27{fill:#adadad;}.cls-28{fill:#9e9e9e;}.cls-29{fill:#b03636;}.cls-30{fill:#ff5454;}</style></defs><g id="Capa_2" data-name="Capa 2"><g id="Layer_1" data-name="Layer 1"><rect class="cls-1" y="7.35" width="78.67" height="97.05"/><rect class="cls-2" y="6.23" width="78.67" height="1.12"/><rect class="cls-3" width="78.67" height="6.23"/><polygon class="cls-4" points="78.67 0 0 0 78.16 0.51 78.67 6.23 78.67 0"/><rect class="cls-3" y="104.4" width="78.67" height="4.28"/><path class="cls-5" d="M10.31,110.71H5.68a2,2,0,0,1-2-2v0h8.66v0A2,2,0,0,1,10.31,110.71Z"/><path class="cls-5" d="M73,110.71H68.36a2,2,0,0,1-2-2v0H75v0A2,2,0,0,1,73,110.71Z"/><polygon class="cls-6" points="0 105.35 0 104.4 78.67 104.4 78.67 104.65 0 105.35"/><rect class="cls-7" y="22.29" width="78.67" height="0.43"/><rect class="cls-8" y="7.35" width="78.67" height="0.48"/><rect class="cls-8" y="22.72" width="78.67" height="0.48"/><rect class="cls-9" y="21.81" width="78.67" height="0.48"/><rect class="cls-9" y="5.75" width="78.67" height="0.48"/><path class="cls-10" d="M69.93,18.59a4.13,4.13,0,1,1,4.12-4.12A4.12,4.12,0,0,1,69.93,18.59Z"/><path class="cls-11" d="M69.93,18.28a3.81,3.81,0,1,1,3.81-3.81A3.81,3.81,0,0,1,69.93,18.28Z"/><circle class="cls-1" cx="69.93" cy="14.47" r="3.04"/><path class="cls-12" d="M71.17,13.84a.74.74,0,1,1,.74-.73A.73.73,0,0,1,71.17,13.84Z"/><circle class="cls-10" cx="61.55" cy="14.47" r="2.14"/><path class="cls-11" d="M63,15.86a2,2,0,1,1,0-2.79A2,2,0,0,1,63,15.86Z"/><circle class="cls-1" cx="61.55" cy="14.47" r="1.58"/><path class="cls-12" d="M61.78,13.78a.38.38,0,1,1,0-.54A.38.38,0,0,1,61.78,13.78Z"/><path class="cls-10" d="M56.83,16a2.14,2.14,0,1,1,0-3A2.14,2.14,0,0,1,56.83,16Z"/><path class="cls-11" d="M56.71,15.86a2,2,0,1,1,0-2.79A2,2,0,0,1,56.71,15.86Z"/><circle class="cls-1" cx="55.32" cy="14.47" r="1.58"/><path class="cls-12" d="M55.55,13.78a.39.39,0,0,1-.55,0,.4.4,0,0,1,0-.54.39.39,0,0,1,.55,0A.38.38,0,0,1,55.55,13.78Z"/><circle class="cls-13" cx="39.43" cy="57.52" r="23.22"/><rect class="cls-13" x="61.31" y="53.17" width="9.14" height="10.94"/><circle class="cls-1" cx="39.43" cy="57.52" r="22.12"/><path class="cls-14" d="M34,60.55c8.64,8.64,23.45,9.85,21.11,12.61A22.12,22.12,0,0,1,23.79,41.88C26.29,38.38,25.32,51.91,34,60.55Z"/><circle class="cls-15" cx="39.43" cy="57.66" r="19.47" transform="translate(-25.45 83.55) rotate(-77.39)"/><rect class="cls-1" x="58.66" y="53.61" width="11.27" height="10.07"/><path class="cls-16" d="M69.93,63.28H59.1V53.61a11.81,11.81,0,0,0,3.23,6C65.1,62.43,69.93,63.28,69.93,63.28Z"/><path class="cls-17" d="M69.93,63.68S66.19,60.44,64,58.24a62.67,62.67,0,0,0-5.36-4.63H69.93Z"/><polygon class="cls-8" points="69.93 63.67 69.64 53.99 58.66 53.61 69.93 53.61 69.93 63.67"/><path class="cls-8" d="M53.2,71.43s13.06-13.62-1.51-28.25c-14.28-10.89-26,.71-26,.71A19.47,19.47,0,1,1,53.2,71.43Z"/><path class="cls-18" d="M52.84,71.43c-6-2.72,4-17.46-3.49-25s-21.44,4.08-23.68-2.21A19.22,19.22,0,1,1,52.84,71.43Z"/><circle class="cls-19" cx="39.43" cy="57.66" r="16.54" transform="translate(-25.44 83.57) rotate(-77.4)"/><path class="cls-20" d="M39,57.27c0-9-8.25-16.15.71-16.15A16.23,16.23,0,0,1,56,57.35c0,9-4.84.2-13.8.2S39,66.23,39,57.27Z"/><path class="cls-21" d="M40,57.27c1.68-.11-.11-7.35-.11,1.78s9,14.76-.09,14.76A16.54,16.54,0,0,1,23.29,57.27C23.29,48.13,30.9,57.27,40,57.27Z"/><circle class="cls-22" cx="39.83" cy="57.48" r="10.22"/><path class="cls-23" d="M41.32,56a26.89,26.89,0,0,0-8.72-5.72A10.21,10.21,0,1,1,47.05,64.7,27,27,0,0,0,41.32,56Z"/><path class="cls-24" d="M37.33,60c1.91,1.91,7.88,5.3,6.71,5.89A9.4,9.4,0,0,1,31.43,53.26C32,52.09,35.41,58.06,37.33,60Z"/><path class="cls-25" d="M47.05,64.7s6-7.14-.2-14.11c-7.51-6.9-14.25-.33-14.25-.33A10.21,10.21,0,1,1,47.05,64.7Z"/><rect class="cls-26" x="4.99" y="10.66" width="13.3" height="7.94"/><rect class="cls-27" x="20.72" y="10.66" width="2.94" height="2.44" rx="0.63"/><path class="cls-28" d="M21.3,10.87h1.53a.58.58,0,0,1,.57.58v1A3,3,0,0,0,21.3,10.87Z"/><rect class="cls-27" x="25.02" y="10.66" width="2.94" height="2.44" rx="0.63"/><path class="cls-28" d="M25.59,10.87h1.53a.58.58,0,0,1,.58.58v1A3,3,0,0,0,25.59,10.87Z"/><rect class="cls-27" x="20.72" y="16.04" width="2.94" height="2.44" rx="0.63"/><path class="cls-28" d="M21.3,16.26h1.53a.58.58,0,0,1,.57.58v1A3,3,0,0,0,21.3,16.26Z"/><rect class="cls-27" x="25.02" y="16.04" width="2.94" height="2.44" rx="0.63"/><path class="cls-28" d="M25.59,16.26h1.53a.58.58,0,0,1,.58.58v1A3,3,0,0,0,25.59,16.26Z"/><rect class="cls-27" x="20.72" y="13.36" width="2.94" height="2.44" rx="0.63"/><path class="cls-28" d="M21.3,13.58h1.53a.58.58,0,0,1,.57.58v1A3,3,0,0,0,21.3,13.58Z"/><rect class="cls-27" x="25.02" y="13.36" width="2.94" height="2.44" rx="0.63"/><path class="cls-28" d="M25.59,13.58h1.53a.58.58,0,0,1,.58.58v1A3,3,0,0,0,25.59,13.58Z"/><circle class="cls-12" cx="32.67" cy="15.99" r="2.41"/><path class="cls-29" d="M34,17.69A4.47,4.47,0,0,0,33,15.6a3.78,3.78,0,0,0-2-1A2.18,2.18,0,1,1,34,17.69Z"/><path class="cls-30" d="M30.77,15.33a12.21,12.21,0,0,0,1.12,1.48,6.46,6.46,0,0,0,1.47,1,1.8,1.8,0,0,1-2.09-.38A2.22,2.22,0,0,1,30.77,15.33Z"/></g></g></svg>