<svg xmlns="http://www.w3.org/2000/svg" viewBox="0 0 70.8 83.54"><defs><style>.cls-1{isolation:isolate;}.cls-2{fill:#aab3b8;opacity:0.5;mix-blend-mode:multiply;}.cls-3{fill:#f2ddc6;}.cls-4{fill:#fdf4dc;}.cls-5{fill:#fff;}.cls-6{fill:#f19e28;}.cls-7{fill:#f1b32d;}.cls-8{fill:#ffd334;}.cls-9{fill:#ffe084;}.cls-10{fill:#fff2bf;}.cls-11{fill:#7eb023;}</style></defs><g class="cls-1"><g id="Capa_2" data-name="Capa 2"><g id="Layer_1" data-name="Layer 1"><path class="cls-2" d="M21.31,44.16c.12-2-3.27-3.82-7.56-4.06s-7.87,1.19-8,3.2,3.28,3.81,7.57,4.05S21.2,46.16,21.31,44.16Z"/><path class="cls-3" d="M19.41,32.75C17.28,28.88,11.59,29.3,8,30.26,3.77,31.41-.63,36.42.08,41a.44.44,0,0,0,.75.18,1.84,1.84,0,0,0,.57.38C4.3,42.75,6.57,45,9.63,46A7.28,7.28,0,0,0,16.51,45C20.08,42.32,21.56,36.66,19.41,32.75Z"/><path class="cls-4" d="M9.45,42.39a6,6,0,0,0,5.32-2.6A9.67,9.67,0,0,0,16.1,32C14,29.83,10,30.21,7.39,31,3.83,32,.17,36.42.7,40.53a.37.37,0,0,0,.54-.15,1.42,1.42,0,0,0,.55.18C4.4,40.86,6.75,42.24,9.45,42.39Z"/><path class="cls-5" d="M1.76,39.26a1.43,1.43,0,0,0,.42.09l.25,0a11.5,11.5,0,0,1,4.26-3.82,17.2,17.2,0,0,1,7.21-2,3.41,3.41,0,0,0-1.09-1.72c-1.84-1.54-5.47-.34-7.66.76C2.52,33.91.26,37.15,1.26,39.3,1.33,39.46,1.66,39.42,1.76,39.26Z"/><path class="cls-2" d="M64,46.41c.3-5.39-8.82-10.28-20.37-10.93s-21.15,3.2-21.46,8.59S30.94,54.35,42.49,55,63.65,51.79,64,46.41Z"/><path class="cls-2" d="M68.57,63.23c.19-3.28-6.86-6.35-15.74-6.84s-16.23,1.76-16.41,5,6.87,6.35,15.74,6.84S68.39,66.52,68.57,63.23Z"/><path class="cls-6" d="M58.81,7.31c-10.17-9-22-7.74-28.06-6.29A11.19,11.19,0,0,0,28,1.79h0c-5.37,2.26-10.53,8.75-13.08,17.27-2.92,9.76-1.5,19.18,3,23.51,7.91,8.6,19.27,11.18,28.3,9.94l0-.07c6.73-.8,13.81-8.48,17-19.18C66.65,22.05,64.6,11.27,58.81,7.31Z"/><path class="cls-7" d="M63.92,15.56c0-.07,0-.13,0-.19C63,11.81,61.22,9,58.81,7.31c-10.17-9-22-7.74-28.06-6.29A11.19,11.19,0,0,0,28,1.79h0c-12.95,9.79-11,21.56-9.43,23.06,7.9,8.61,19.26,11.18,28.3,9.94l0-.07C53.63,33.93,60.72,26.25,63.92,15.56Z"/><path class="cls-3" d="M63.29,33.27c3.8-12.71.68-24.87-7-27.16S39.36,12.27,35.56,25s-.68,24.87,7,27.16S59.49,46,63.29,33.27Z"/><path class="cls-8" d="M63.29,33.27c3.8-12.71.68-24.87-7-27.16S39.36,12.27,35.56,25s-.68,24.87,7,27.16S59.49,46,63.29,33.27Z"/><path class="cls-5" d="M43.18,9.4c-1.7.14-5,4-6.69,6.82-1.43,2.38-3.14,7.32-2.38,9.23.54,1.35,1.35-4,3.86-8.44S44.2,9.31,43.18,9.4Z"/><path class="cls-8" d="M49,41.05,34.2,61.27A23.54,23.54,0,0,0,70.8,51.8Z"/><path class="cls-9" d="M49.18,41.28,35.05,60.55a22.44,22.44,0,0,0,34.89-9Z"/><polygon class="cls-10" points="35.05 60.1 31.63 56.23 47.23 41.05 49.02 41.05 35.05 60.1"/><polygon class="cls-9" points="34.2 61.27 30.87 56.88 31.63 56.23 35.05 60.1 34.2 61.27"/><path class="cls-2" d="M26.21,66.2c.11-2-3.28-3.82-7.57-4.06s-7.87,1.19-8,3.2,3.28,3.82,7.57,4S26.09,68.21,26.21,66.2Z"/><path class="cls-3" d="M21.26,49.13c-5.45-3.41-15.55,2-14.77,8.68a7.9,7.9,0,0,0,0,2.91c.43,2.16,2.3,3.84,4,5,3.83,2.51,9.73,3.12,13.23-.24C27.92,61.46,25.83,52,21.26,49.13Z"/><path class="cls-4" d="M10,61.93c3.1,2.18,7.88,2.71,10.71-.21,1.63-1.69,2.07-4.51,1.67-7.24A8.93,8.93,0,0,0,19.31,50c-4.4-3-12.57,1.73-11.95,7.57A6.48,6.48,0,0,0,7.26,59,8.73,8.73,0,0,0,10,61.93Z"/><path class="cls-5" d="M19,53.59a5.39,5.39,0,0,1,1.33,1.12,6.61,6.61,0,0,0-2.81-4.26c-3.47-2-9.89,1.16-9.4,5.06a4.17,4.17,0,0,0,0,1.69,3.08,3.08,0,0,0,.5,1.09C9.05,54.41,15.43,51.55,19,53.59Z"/><path class="cls-2" d="M55.09,80.24c.2-2.21-3.47-4.33-8.19-4.73s-8.7,1-8.89,3.24,3.48,4.31,8.2,4.72S54.9,82.43,55.09,80.24Z"/><path class="cls-3" d="M49.54,66.84a11.36,11.36,0,0,0-8-4.08c-2.62-.13-10.5,2.53-8.66,6.36a1.54,1.54,0,0,0,.27.37c.67,5,4,11,9.23,11.69A11.17,11.17,0,0,0,50.07,79c1.73-1.15,4.36-3.12,4-5.52S51.14,68.65,49.54,66.84Z"/><path class="cls-4" d="M41,76.78a9.82,9.82,0,0,0,6.92-2c1.32-.89,3.22-2.33,3.52-4.11a35.6,35.6,0,0,0-3-3.63,10.23,10.23,0,0,0-7.23-3.79c-2.36-.12-9.42,2.27-7.74,5.79a1.28,1.28,0,0,0,.24.34c0,.25.08.51.13.76C35.26,73.45,37.74,76.33,41,76.78Z"/><path class="cls-5" d="M36.65,71.09a1,1,0,0,1-.21-.24c-1.43-2.44,5.77-4.67,8.11-4.74a12.24,12.24,0,0,1,1.62.07c-.19-.15-.37-.29-.53-.43A8.17,8.17,0,0,0,40,63.93c-1.89.06-7.72,1.86-6.56,3.83a.52.52,0,0,0,.17.19,6.63,6.63,0,0,0,3.51,5.21A8.32,8.32,0,0,1,36.65,71.09Z"/><path class="cls-11" d="M11.64,50.94c-.64-.24-1.22-.53-1.83-.82-.1,0,0-.17.06-.16.68.07,1.39.07,2.07.12s1.13,0,1.41.49a.39.39,0,0,1,0,.36c3.15.92,6.46,1.84,9.67,3,.08.24.18.47.27.7l-1.16-.45C19.23,53.05,16.28,52,13.32,51l-.08.09C12.74,51.49,12.16,51.14,11.64,50.94ZM14,49c0,.12.07.24.11.36a.91.91,0,0,0,0,1,1.44,1.44,0,0,0,.82.59.69.69,0,0,0,.79-.89,1.38,1.38,0,0,0-.56-.66c.07.1.05.07-.08-.08a.56.56,0,0,0-.33-.19.44.44,0,0,1-.41-.28C14.25,48.62,14,48.79,14,49Zm.91,4.29a.64.64,0,0,0-.07.31c0-.14-.06.07-.08.11a3.64,3.64,0,0,0-.14.47.08.08,0,0,0,.13.09c.11-.07.22-.09.33-.16l.16-.09H15.2a.67.67,0,0,0,.2,0,1.21,1.21,0,0,0,1.09-.53.62.62,0,0,0-.26-.82A1,1,0,0,0,14.92,53.29Zm3.52-2.84,0,0a1.62,1.62,0,0,0-.18-.19.11.11,0,0,0-.17,0,1,1,0,0,0-.12.36,1,1,0,0,0-.18.36,1,1,0,0,0,0,.65A.73.73,0,1,0,19.11,51a1.46,1.46,0,0,0-.52-.5C18.44,50.41,18.43,50.43,18.44,50.45Zm0,3.88a1.4,1.4,0,0,0-.19,1.13c0,.18,0,.35.06.52a.74.74,0,0,0,.27.38.19.19,0,0,0,.3-.1c0-.22.07-.43.11-.66a.5.5,0,0,1,.13-.22s0,0,.07,0a.67.67,0,0,0,.25-.32C19.72,54.41,18.86,53.78,18.41,54.33Z"/><path class="cls-11" d="M45.91,69.18c.14.07.27.15.4.23s.08.53-.18.43a.53.53,0,0,0-.59.08.71.71,0,0,1-.45.1c-.24,0-.28,0-.14,0a1.76,1.76,0,0,1-1-.15.83.83,0,0,1,0-1.43,1.69,1.69,0,0,1,1.21-.13A1.09,1.09,0,0,1,45.91,69.18Zm-4.56-1.27A1.2,1.2,0,0,0,42,66.3a.75.75,0,0,0-.18-.34c.12.12,0-.12,0-.16a5.29,5.29,0,0,0-.25-.54.11.11,0,0,0-.2,0c0,.15-.12.27-.16.41s-.05.14-.07.21l0,0A.84.84,0,0,0,41,66a1.46,1.46,0,0,0-.55,1.36A.73.73,0,0,0,41.35,67.91Zm-.69,1.49c1.57-.75,3.13-1.51,4.66-2.23a.47.47,0,0,0,.3.3c.69.25,1.15-.3,1.66-.69.67-.51,1.3-1.08,2-1.56.09-.07,0-.24-.08-.2-.78.23-1.54.44-2.31.74-.62.24-1.43.39-1.56,1.13a.92.92,0,0,0,0,.16l-5,2.08C40.45,69.21,40.55,69.31,40.66,69.4Z"/><path class="cls-11" d="M5.53,30.83a2.3,2.3,0,0,1-.45,0c-.25,0-.29-.45,0-.46a.52.52,0,0,0,.5-.31A.72.72,0,0,1,6,29.73c.22-.06.27-.07.12-.05a1.83,1.83,0,0,1,1-.29.84.84,0,0,1,.59,1.31,1.69,1.69,0,0,1-1,.61A1.09,1.09,0,0,1,5.53,30.83Zm4.68-.7a1.21,1.21,0,0,0,0,1.74.9.9,0,0,0,.31.24c-.16-.06,0,.1.08.14a4.31,4.31,0,0,0,.46.39c.07.06.18,0,.17-.11s0-.29,0-.44,0-.14,0-.22l0,.05a2,2,0,0,0,.1-.21,1.46,1.46,0,0,0-.06-1.47A.72.72,0,0,0,10.21,30.13Zm0-1.64C9.11,29.81,8,31.14,6.9,32.43a.46.46,0,0,0-.4-.15c-.73,0-.92.74-1.23,1.31-.4.73-.75,1.51-1.16,2.23-.05.1.06.23.16.15.62-.54,1.22-1,1.8-1.62s1.15-1,1-1.68A.35.35,0,0,0,7,32.53q1.83-2,3.68-3.93Z"/></g></g></g></svg>