<svg xmlns="http://www.w3.org/2000/svg" viewBox="0 0 394.42 694.26"><defs><style>.cls-1{fill:#b38658;}.cls-2{fill:#8e5a2e;}</style></defs><g id="Capa_2" data-name="Capa 2"><g id="Layer_1" data-name="Layer 1"><path class="cls-1" d="M52.7,437.19l24.35,58.15c102.14,3.15,176.48,5.51,240.32,0l24.35-58.15-144.51-5.51Z"/><path class="cls-1" d="M77.05,495.34V524.6S38.8,578.93,3,604.36c0,0-19.64,19.7,41.26,35.87H350.13c60.91-16.17,41.27-35.87,41.27-35.87-35.78-25.43-74-79.76-74-79.76V495.34H77.05Z"/><path class="cls-2" d="M5,602.94c-.64.48-1.29,1-1.93,1.42,0,0-19.64,19.7,41.26,35.87H350.14c60.9-16.17,41.26-35.87,41.26-35.87-.64-.45-1.29-.94-1.93-1.42C373.2,609,325,621.1,197.21,623.46,69.43,621.1,21.22,609,5,602.94Z"/><path class="cls-1" d="M15.25,636.89H373.06c5.37,0,9.7,3.85,9.7,8.62V669c0,4.78-4.33,8.62-9.7,8.62H15.25c-5.37,0-9.7-3.84-9.7-8.62V645.51C5.55,640.74,9.88,636.89,15.25,636.89Z"/><path class="cls-2" d="M5.55,669v16.63c0,4.78,4.33,8.63,9.7,8.63H373.06c5.37,0,9.7-3.85,9.7-8.63V669c0,4.78-4.33,8.62-9.7,8.62H15.25C9.88,677.62,5.55,673.78,5.55,669Z"/><path class="cls-2" d="M87.79,42.48S97,17.38,97,7.07,163.26.76,163.26.76s14.55,43.67,12.51,43.34S87.79,42.48,87.79,42.48Z"/><path class="cls-1" d="M52.7,437.19l-8.78-16.38s63-156.36,7-288.55l4.83-56.45s-28.9-41-.77-37.71C84,41.46,188.83,35.83,188.71,35L307.52,49.65s24.92-11.29,46.41.92-8.81,52.49-8.81,52.49,14.87,17.48,8.05,40.84-31.61,13.48-31.61,13.48-80.29-11.94-96.34,49.75c0,0,52,34.78,60.75,55.26s46.1,43.65,52.45,65.32,3.89,64.17,3.89,64.17,21.93,23.44-.59,45.31Z"/><path class="cls-2" d="M54.23,93.35,50.9,132.26c56,132.19-7,288.55-7,288.55l8.78,16.38H70.15c14.36-33.39,32.69-94.54,34.51-191.59C106,173.13,81.59,124.72,54.23,93.35Z"/><path class="cls-2" d="M52.49,37.92c-23.89-.55,3.24,37.89,3.24,37.89s31,15.44,59.3,8c0,0-2.62-24.59-43.95-44.82C64.6,38.84,59,38.56,55,38.1,54.08,38,53.26,37.94,52.49,37.92Z"/><path class="cls-1" d="M115,83.82S96.16,57.59,62.61,51.41C62.61,51.41,76.2,81.82,115,83.82Z"/><path class="cls-2" d="M138.8,57.32l59.74,1S187.13,78.43,165.1,79.6,138.8,57.32,138.8,57.32Z"/><path class="cls-2" d="M283.31,133c-92.11,1.23-106.48,82.55-106.48,82.55s72.74,33.57,99.4,108.24c18.3,51.26-1.11,92.57-15.09,113.45h80.58c22.52-21.87.59-45.31.59-45.31s2.45-42.49-3.89-64.17S294.71,282.88,286,262.39s-60.74-55.26-60.74-55.26c16.05-61.69,96.34-49.75,96.34-49.75s24.32,9.69,31.41-12.87C325.86,136,302.83,132.69,283.31,133Z"/><rect class="cls-2" x="77.05" y="495.34" width="240.33" height="29.26"/></g></g></svg>