<svg xmlns="http://www.w3.org/2000/svg" viewBox="0 0 470.85 1179.56"><defs><style>.cls-1{fill:#8e5a2e;}.cls-2{fill:#b38658;}</style></defs><g id="Capa_2" data-name="Capa 2"><g id="Layer_1" data-name="Layer 1"><path class="cls-1" d="M142.59,409.06S132,412,129.21,422s14.56,16.7,14.56,16.7c63.53,5.09,119.83,1.86,183.31,0,0,0,17.35-6.74,14.56-16.7s-13.38-12.89-13.38-12.89H142.59Z"/><polygon class="cls-2" points="146.06 438.65 146.06 486.01 235.43 487.37 324.79 486.01 324.79 438.65 235.43 438.65 146.06 438.65"/><path class="cls-1" d="M183.4,482.68c-12.87,0-24.39.18-30.69.62-20.15,1.4-24,13.72-24,13.72v16.27c78.68,13.81,134.81,6.09,213.43,0V497s-3.85-12.32-24-13.72c-15.41-1.08-61.6-.51-82.71-.19C222.94,482.92,202,482.65,183.4,482.68Z"/><path class="cls-2" d="M128.71,513.29C96,521.67,83.24,537.52,83.24,537.52H387.61s-12.8-15.85-45.47-24.23H128.71Z"/><path class="cls-1" d="M136.71,870.67,92,912.35c99.33,19.21,187.56,7,286.89,0l-44.73-41.68H136.71Z"/><path class="cls-2" d="M92,912.35v39.3s-45.67,73-88.37,107.15c0,0-23.46,26.46,49.26,48.19H418c72.71-21.73,49.26-48.19,49.26-48.19-42.7-34.16-88.37-107.15-88.37-107.15v-39.3H92Z"/><path class="cls-1" d="M5.91,1056.9c-.77.63-1.54,1.29-2.3,1.9,0,0-23.46,26.46,49.26,48.19H418c72.71-21.73,49.26-48.19,49.26-48.19-.77-.61-1.54-1.27-2.31-1.9-19.42,8.12-77,24.39-229.51,27.56C82.88,1081.29,25.34,1065,5.91,1056.9Z"/><rect class="cls-2" x="10.27" y="1102.5" width="450.31" height="54.72" rx="11.59"/><path class="cls-1" d="M10.27,1145.63V1168a11.56,11.56,0,0,0,11.59,11.58H449A11.56,11.56,0,0,0,460.58,1168v-22.35A11.57,11.57,0,0,1,449,1157.22H21.86A11.57,11.57,0,0,1,10.27,1145.63Z"/><path class="cls-1" d="M83.24,537.52c5.67,21.17,81.36,28.91,81.36,28.91,53,7.52,88.87,3.09,141.65,0,0,0,75.69-7.74,81.36-28.91H83.24Z"/><path class="cls-2" d="M168.55,566.43c0,104.26-31.84,304.24-31.84,304.24,8,4.87,98.71,4.48,98.71,4.48s90.73.39,98.72-4.48c0,0-31.85-200-31.85-304.24H168.55Z"/><polygon class="cls-2" points="93.76 237.1 142.59 409.06 328.25 409.06 377.09 237.1 247.84 237.1 223.01 237.1 93.76 237.1"/><polygon class="cls-2" points="228.67 193.89 228.5 194.41 177.44 196.35 153.32 205.18 146.43 229.13 217.49 229.13 253.36 229.13 324.42 229.13 317.53 205.18 293.41 196.35 242.34 194.41 242.18 193.89 235.42 194.15 228.67 193.89"/><path class="cls-1" d="M233.4,220.19h0c-130.33.34-139.64,16.9-139.64,16.9H377.09s-9.31-16.56-139.64-16.9h-4Z"/><polygon class="cls-1" points="235.42 0 193.38 37.67 193.38 73.66 141.82 65.3 141.82 151.64 191.15 142.42 177.44 196.35 235.42 196.35 293.41 196.35 279.7 142.42 329.03 151.64 329.03 65.3 277.47 73.66 277.47 37.67 235.42 0"/></g></g></svg>