<svg xmlns="http://www.w3.org/2000/svg" viewBox="0 0 350.5 776.77"><defs><style>.cls-1{fill:#8e5a2e;}.cls-2{fill:#b38658;}</style></defs><g id="Capa_2" data-name="Capa 2"><g id="Layer_1" data-name="Layer 1"><path class="cls-1" d="M101.77,550.26l-33.3,27.59c73.94,7.25,139.62,2.65,213.56,0l-33.3-27.59Z"/><path class="cls-2" d="M68.47,577.85v29.26s-34,54.34-65.79,79.77c0,0-17.45,19.69,36.67,35.87h271.8c54.12-16.18,36.67-35.87,36.67-35.87C316,661.45,282,607.11,282,607.11V577.85H68.47Z"/><path class="cls-1" d="M4.4,685.46c-.57.47-1.14,1-1.72,1.42,0,0-17.45,19.69,36.67,35.87h271.8c54.13-16.18,36.67-35.87,36.67-35.87-.57-.46-1.15-1-1.72-1.42-14.46,6-57.3,18.16-170.85,20.52C61.7,703.62,18.86,691.5,4.4,685.46Z"/><rect class="cls-2" x="7.65" y="719.4" width="335.21" height="40.73" rx="8.62"/><path class="cls-1" d="M7.65,751.51v16.64a8.6,8.6,0,0,0,8.62,8.62h318a8.61,8.61,0,0,0,8.63-8.62V751.51a8.61,8.61,0,0,1-8.63,8.63h-318A8.6,8.6,0,0,1,7.65,751.51Z"/><path class="cls-2" d="M112.6,371.63s1.34,118.79-10.83,178.63h147c-12.17-59.84-10.83-178.63-10.83-178.63H112.6Z"/><rect class="cls-2" x="114.46" y="284.65" width="121.59" height="36.42"/><path class="cls-1" d="M84.68,316.4H265.83a12.45,12.45,0,0,1,0,24.9H84.68a12.45,12.45,0,1,1,0-24.9Z"/><path class="cls-2" d="M90.65,341.05c-17.05-.08-48.24.8-52.08,13.55s14.39,17,14.39,17H297.54s18.23-4.28,14.39-17-35-13.63-52.08-13.55Z"/><path class="cls-2" d="M140.06,39.06S61.65,138.29,59.11,192.88s39.4,68.63,39.4,68.63H252s41.94-14,39.4-68.63c-1-21.41-13.7-49.65-28.72-76.1L161.19,198.65l-23.52-29.16L242.93,84.58c-17.26-26.23-32.49-45.52-32.49-45.52H140.06Z"/><path class="cls-1" d="M84.68,259.75H265.83a12.45,12.45,0,0,1,0,24.9H84.68a12.45,12.45,0,0,1,0-24.9Z"/><path class="cls-1" d="M136.14,0h78.22a20.36,20.36,0,0,1,0,40.72H136.14a20.36,20.36,0,1,1,0-40.72Z"/><path class="cls-1" d="M84.68,370.32H265.83a12.46,12.46,0,0,1,0,24.91H84.68a12.46,12.46,0,0,1,0-24.91Z"/></g></g></svg>