<svg xmlns="http://www.w3.org/2000/svg" viewBox="0 0 350.5 544.68"><defs><style>.cls-1{fill:#8e5a2e;}.cls-2{fill:#b38658;}</style></defs><g id="Capa_2" data-name="Capa 2"><g id="Layer_1" data-name="Layer 1"><path class="cls-1" d="M101.77,318.17l-33.3,27.6c73.94,7.24,139.62,2.64,213.56,0l-33.3-27.6Z"/><path class="cls-2" d="M68.47,345.77V375s-34,54.33-65.79,79.76c0,0-17.45,19.69,36.67,35.87h271.8c54.12-16.18,36.67-35.87,36.67-35.87C316,429.36,282,375,282,375V345.77H68.47Z"/><path class="cls-1" d="M4.4,453.37c-.57.48-1.14,1-1.72,1.42,0,0-17.45,19.69,36.67,35.87h271.8c54.13-16.18,36.67-35.87,36.67-35.87-.57-.46-1.15-.94-1.72-1.42-14.46,6.05-57.3,18.16-170.85,20.52C61.7,471.53,18.86,459.42,4.4,453.37Z"/><rect class="cls-2" x="7.65" y="487.32" width="335.21" height="40.73" rx="8.62"/><path class="cls-1" d="M7.65,519.43v16.63a8.6,8.6,0,0,0,8.62,8.62h318a8.6,8.6,0,0,0,8.63-8.62V519.43a8.61,8.61,0,0,1-8.63,8.62h-318A8.6,8.6,0,0,1,7.65,519.43Z"/><path class="cls-2" d="M106.94,192.47s8.34,70-5.17,125.7h147c-13.51-55.7-5.16-125.7-5.16-125.7Z"/><path class="cls-2" d="M265.07,89.82a89.83,89.83,0,1,1-26.31-63.51A89.81,89.81,0,0,1,265.07,89.82Z"/><path class="cls-1" d="M98.57,165.48H251.93a13.5,13.5,0,0,1,0,27H98.57a13.5,13.5,0,0,1,0-27Z"/></g></g></svg>