<svg xmlns="http://www.w3.org/2000/svg" viewBox="0 0 428.19 915.3"><defs><style>.cls-1{fill:#b38658;}.cls-2{fill:#8e5a2e;}</style></defs><g id="Capa_2" data-name="Capa 2"><g id="Layer_1" data-name="Layer 1"><path class="cls-1" d="M152.69,311.44c0,98.45-29.24,320.79-29.24,320.79,7.34,4.59,90.64,4.23,90.64,4.23s83.3.36,90.64-4.23c0,0-29.24-222.34-29.24-320.79H152.69Z"/><path class="cls-2" d="M124.32,632.53,83.64,672.29c90.33,18.33,170.57,6.7,260.9,0l-40.68-39.76H124.32Z"/><path class="cls-1" d="M83.64,672.29V708S42.12,774.41,3.28,805.48c0,0-21.33,24,44.8,43.82h332c66.12-19.77,44.8-43.82,44.8-43.82C386.07,774.41,344.54,708,344.54,708V672.29H83.64Z"/><path class="cls-2" d="M5.38,803.74c-.7.58-1.4,1.18-2.1,1.74,0,0-21.33,24,44.8,43.82h332c66.12-19.77,44.8-43.82,44.8-43.82-.7-.56-1.4-1.16-2.1-1.74-17.67,7.39-70,22.19-208.72,25.07C75.37,825.93,23,811.13,5.38,803.74Z"/><rect class="cls-1" x="9.34" y="845.21" width="409.51" height="49.76" rx="10.54"/><path class="cls-2" d="M9.34,884.44v20.32A10.52,10.52,0,0,0,19.88,915.3H408.31a10.52,10.52,0,0,0,10.54-10.54V884.44A10.52,10.52,0,0,1,408.31,895H19.88A10.52,10.52,0,0,1,9.34,884.44Z"/><path class="cls-2" d="M101.57,283.36c-16.47,7-6.75,28.08-6.75,28.08H333.37s9.71-21.06-6.76-28.08h-225Z"/><rect class="cls-1" x="131.99" y="221.17" width="164.21" height="56.37"/><path class="cls-2" d="M137.54,253.87c-8.88,0-16.09,15.51-16.09,15.51H306.74s-7.22-15.51-16.1-15.51H137.54Z"/><path class="cls-1" d="M121.12,267.85c-10.78,0-19.55,15.51-19.55,15.51h225s-8.76-15.51-19.55-15.51H121.12Z"/><rect class="cls-2" x="146.38" y="200.67" width="135.43" height="20.5"/><path class="cls-2" d="M163,0c-8.34,0-17.26,21.65-30.25,19.37S114.47-5.44,107,3.48s-30.44,26.2-30.44,26.2V40.83c98.39,13.18,173.78,5.29,275.13,0V29.68s-23-17.27-30.45-26.2-12.74,13.61-25.73,15.89S273.56,0,265.23,0s-16,20.44-22.52,20-22-18.84-28.62-18.84-20,18.38-26.44,18.84S171.29,0,163,0Z"/><path class="cls-1" d="M76.53,40.83c47.64,18.09,69.85,160.64,69.85,160.64H281.81S304,58.92,351.66,40.83H76.53Z"/></g></g></svg>