<svg xmlns="http://www.w3.org/2000/svg" viewBox="0 0 385.93 667.51"><defs><style>.cls-1{fill:#8e5a2e;}.cls-2{fill:#b38658;}</style></defs><g id="Capa_2" data-name="Capa 2"><g id="Layer_1" data-name="Layer 1"><path class="cls-1" d="M112.05,418.11,75.39,448.49c81.41,8,153.73,2.91,235.15,0l-36.67-30.38Z"/><path class="cls-2" d="M75.39,448.49v32.22S38,540.53,3,568.53c0,0-19.23,21.68,40.37,39.5H342.59c59.6-17.82,40.38-39.5,40.38-39.5-35-28-72.43-87.82-72.43-87.82V448.49H75.39Z"/><path class="cls-1" d="M4.85,567c-.63.52-1.26,1.06-1.89,1.56,0,0-19.23,21.68,40.37,39.5H342.6c59.59-17.82,40.37-39.5,40.37-39.5-.63-.5-1.26-1-1.89-1.56C365.16,573.63,318,587,193,589.56,67.93,587,20.77,573.63,4.85,567Z"/><rect class="cls-2" x="8.42" y="604.35" width="369.09" height="44.85" rx="9.5"/><path class="cls-1" d="M8.42,639.7V658a9.47,9.47,0,0,0,9.49,9.49H368a9.47,9.47,0,0,0,9.5-9.49V639.7a9.48,9.48,0,0,1-9.5,9.5H17.91A9.47,9.47,0,0,1,8.42,639.7Z"/><polygon class="cls-2" points="124.52 142.68 120.06 418.11 265.87 418.11 261.4 142.68 192.96 142.68 124.52 142.68"/><rect class="cls-1" x="74.81" y="124.61" width="236.31" height="18.07"/><polygon class="cls-2" points="66.78 111.08 74.81 124.61 311.12 124.61 319.14 111.08 66.78 111.08"/><polygon class="cls-1" points="66.78 0 66.78 68.04 66.78 111.08 113.1 111.08 135.47 111.08 181.78 111.08 204.14 111.08 250.47 111.08 272.82 111.08 319.14 111.08 319.14 111.08 319.14 68.04 319.14 68.04 319.14 0 272.82 0 272.82 68.04 250.47 68.04 250.47 0 204.14 0 204.14 68.04 181.78 68.04 181.78 0 135.47 0 135.47 68.04 113.1 68.04 113.1 0 66.78 0"/></g></g></svg>