<?xml version="1.0" encoding="UTF-8"?>
<!DOCTYPE svg PUBLIC "-//W3C//DTD SVG 1.1//EN" "http://www.w3.org/Graphics/SVG/1.1/DTD/svg11.dtd">
<!-- Creator: CorelDRAW 2019 (64-Bit) -->
<svg xmlns="http://www.w3.org/2000/svg" xml:space="preserve" width="27mm" height="27mm" version="1.1" style="shape-rendering:geometricPrecision; text-rendering:geometricPrecision; image-rendering:optimizeQuality; fill-rule:evenodd; clip-rule:evenodd"
viewBox="0 0 2700 2700"
 xmlns:xlink="http://www.w3.org/1999/xlink">
 <defs>
  <style type="text/css">
   <![CDATA[
    .str0 {stroke:#FEFEFE;stroke-width:20;stroke-miterlimit:22.9256}
    .fil1 {fill:#FEFEFE}
    .fil2 {fill:#20278F}
    .fil3 {fill:#20278F}
    .fil0 {fill:#FE7203}
   ]]>
  </style>
 </defs>
 <g id="Capa_x0020_1">
  <metadata id="CorelCorpID_0Corel-Layer"/>
  <g id="_2663219833744">
   <ellipse class="fil0" transform="matrix(0.881312 -0 -0.0320055 0.926571 1079.24 1321.67)" rx="1185.5" ry="1177.89"/>
   <path class="fil1 str0" d="M1227.77 597.52c-196.02,-94.64 -634.47,112.21 -406.83,415.14 -220.52,18.01 -1109.08,890.43 -616.04,1269.11 147.34,113.16 427.21,-198.57 600.34,-309.37 -54.52,273.5 -98.53,440.85 -198.07,700.86 144.06,-166.19 288.24,-331.25 434.86,-495.49 39.96,143.59 79.91,287.17 119.86,430.76 20.71,-243.28 176.13,-523.65 145.9,-773.95 -42.11,-348.66 -235.77,-356.75 -635.98,-214.81 165.42,-212.47 263.24,-227.27 597.83,-366.05 -335.76,66.06 -554.44,65.48 -317.73,-214.27 235.1,33.29 561.02,-304.26 275.86,-441.93z"/>
   <path class="fil2" d="M1316.27 631.53c-171.23,-93.49 -582.62,110.85 -396.88,410.1 -201.08,17.79 -1065.58,879.63 -644.45,1253.71 125.85,111.79 400.65,-196.16 565.07,-305.62 -67.98,270.19 -119.22,435.51 -227.08,692.36 141.84,-164.17 283.71,-327.23 427.74,-489.48 26.46,141.85 52.92,283.69 79.38,425.54 35.28,-240.33 116.24,-473.73 105.83,-721 -14.5,-344.43 -110.52,-395.98 -482.86,-255.77 164.34,-209.89 254,-224.51 566.65,-361.6 -308.78,65.25 -506.92,64.68 -273.41,-211.67 210.81,32.88 529.09,-300.57 280.01,-436.57z"/>
   <rect class="fil3" transform="matrix(0.346771 0.369825 -0.369825 0.346771 2620.22 27.2555)" width="105.84" height="4109.87"/>
  </g>
 </g>
</svg>
