<svg xmlns="http://www.w3.org/2000/svg" viewBox="0 0 111.2 54.05"><defs><style>.cls-1{isolation:isolate;}.cls-2{fill:#aab3b8;opacity:0.3;mix-blend-mode:multiply;}.cls-3{fill:#f19e28;}.cls-4{fill:#ffe084;}.cls-5{fill:#e25e07;}.cls-6{fill:#b72916;}.cls-7{fill:#d9be70;}.cls-8{fill:#fdf4dc;}.cls-9{fill:#402c1b;}.cls-10,.cls-11{fill:#f2ddc6;}.cls-10{opacity:0.5;}.cls-12{fill:#4a7006;}.cls-13{fill:#7eb023;}</style></defs><g class="cls-1"><g id="Capa_2" data-name="Capa 2"><g id="Layer_1" data-name="Layer 1"><path class="cls-2" d="M92.9,35.07c5.34-5.31,4-15.33-3-22.37s-17-8.44-22.37-3.12-4,15.33,3,22.37S87.57,40.39,92.9,35.07Z"/><path class="cls-2" d="M110.76,39.55c2.82-5.36-8.4-7.06-22.83-9.31-3.88-.61-18.79,3.16-19.59,9.16-.16,1.24-.48,8.16,12.82,14.19C88.29,56.82,109.51,41.92,110.76,39.55Z"/><path class="cls-2" d="M70.77,48.64c2.39-.86-16.29-20.36-28.37-28.55-3.25-2.21-9.31,4.78-12.59,9.87-.68,1.06-3.92,7.18,5.54,18.3C40.41,54.22,68.24,49.54,70.77,48.64Z"/><path class="cls-3" d="M85.57,9.5C79.83,3.32,69.9,1.58,61.93.78,44.86-.95-6.85-2.42.76,27c4,15.59,24.86,20.9,38.6,22.47a65.43,65.43,0,0,0,22.46-.82c1.25-.29,2.58-.66,3.94-1.09a1.84,1.84,0,0,0,1.56-1.08,2.63,2.63,0,0,0,.05-2.68c-1.05-2-3.42-1.94-5.08-.87-.94-1.16-1.86-2.33-2.76-3.53-2.56-3.43-5-7.24-8.1-10.2A23.29,23.29,0,0,1,47.55,25a3.42,3.42,0,0,0,1.39,0c2.17.59,4.55.57,6.71,1.39a17.58,17.58,0,0,0,5.1.64c3,.17,6,1.18,9,1.76,4.58.89,9,2.67,13.57,3.55,2,.39,3.61.63,4.81-1A18.44,18.44,0,0,0,85.57,9.5Zm1.36,20.58c-1.75,2.2-10-.9-12.19-1.6A93,93,0,0,0,63.46,25.9c-3.4-.6-6.8-.72-10.16-1.57a14,14,0,0,0-5.13-.44L48,23.83c-.38-.12-.77-.22-1.16-.32,0,0,0-.07,0-.1a.32.32,0,0,1,.19-.55c3.5-.48,7.92,1.36,11.38,1.95,5.55,1,11.12,1.8,16.62,3,2.79.62,5.61,1.3,8.42,2.07a3.37,3.37,0,0,1,2.19-1.17,2.26,2.26,0,0,1,1.76.87l.19.31A.54.54,0,0,0,86.93,30.08Z"/><path class="cls-4" d="M86.93,28.61h0a17.26,17.26,0,0,0-3-19.4c-5.53-6-15.22-7.64-23-8.43C58,.48,52.14,0,44.9,0,32.6,0,10.78,1.51,3,11.62,0,15.41-.73,20.19.72,25.83,4.91,42.05,28.54,46.46,38.51,47.6a84,84,0,0,0,9.43.57h0a55,55,0,0,0,12.69-1.38c1-.22,2.31-.57,3.89-1.07l0,0a12.1,12.1,0,0,0,1.3-.52c.81-.36,1.51-1,1.22-2s-1.56-1.14-2.44-1.08a4.81,4.81,0,0,0-2.64.76,39.52,39.52,0,0,1-7.6,1.61,60.82,60.82,0,0,1-6.55.34,82.3,82.3,0,0,1-19.91-2.65C16.65,39.36,9.3,34.91,5.43,28.56S3,15.06,8.8,10.9c9.42-6.76,23-7.63,33.82-7.63,3.21,0,6.26.08,9.21.16A80.48,80.48,0,0,1,72,6.13c5.63,1.63,9.69,4.43,12.08,8.32,2.51,4.09,2.44,9.17-.19,14.33-2.77.24-6.86-1.64-9.28-2.31a88.36,88.36,0,0,0-11.39-2.3c-3.79-.52-7.56-1-11.34-1.62-1.85-.29-3.45-1-5.35-.77-1.65.23-1,2.73.69,2.51,2.47-.34,6.27,1.17,8.69,1.62,3.91.74,7.91.92,11.83,1.62,3.58.64,7.08,1.75,10.58,2.72a24.77,24.77,0,0,0,4.29,1,1.09,1.09,0,0,0,.32.17c.11,0,3.58,1.82,4.79-1.13C88,29.82,87.61,28.71,86.93,28.61Z"/><path class="cls-5" d="M81.55,26.75c-.58.48-6.58-1.45-7.39-1.57-2.9-.44-5.77-1-8.69-1.35-3.76-.42-7.4-1.24-11.13-1.84-2.61-.43-5.2-1.2-7.78-.44a.83.83,0,0,0,0,1.58,88.12,88.12,0,0,0,18.91,3.61A99.07,99.07,0,0,1,78.11,29c1.67.39,3.34,1.14,5,.44A1.6,1.6,0,1,0,81.55,26.75Z"/><path class="cls-5" d="M84.27,15.91C81.7,11.71,77.37,9.35,72.74,8a79.2,79.2,0,0,0-20-2.66C39.49,5,21.64,4.5,10.32,12.63,4.9,16.53,3.69,23.26,7.21,29,11.77,36.5,21,40.17,29.09,42.22A74.93,74.93,0,0,0,55.21,44.5,38.7,38.7,0,0,0,62.33,43c-.95-1.19-1.89-2.38-2.8-3.6-2.56-3.43-5-7.24-8.1-10.2-1.81-1.73-3.6-3.28-4.59-5.62a.36.36,0,0,1,0-.2.32.32,0,0,1,.19-.55c3.5-.48,7.92,1.36,11.38,1.95,5.55,1,11.12,1.8,16.62,3,2.76.61,5.55,1.28,8.34,2l.08-.07a1.65,1.65,0,0,1,.55-.33C86.17,25.21,86.93,20.25,84.27,15.91Z"/><path class="cls-6" d="M81.84,20.48a9.52,9.52,0,0,0-.37-2.15,13.37,13.37,0,0,0-1.19-2.87c-.86-1.57-2.75-3.36-4.63-2.21a1.37,1.37,0,0,0-.29.24,4.74,4.74,0,0,1-.27-1.14,2.38,2.38,0,0,0-3.44-2.07,7.63,7.63,0,0,0-2.9-1.44,3.65,3.65,0,0,0-3,.5,2.4,2.4,0,0,0-.4.37,2,2,0,0,0-1.84-.27c-.56.23-3.46,1.66-3.77.36-.44-1.87-2.69-2.14-4-1.05a1.8,1.8,0,0,1-.4.25l-.09-.09L55,8.63a.82.82,0,0,1-.11-.27c-.07-.31-.11-.63-.18-.94a1.76,1.76,0,0,0-2.91-.77,4.13,4.13,0,0,0-1.37,1.87C46.83,5.34,40.86,6,35.94,6.86a8.62,8.62,0,0,0-3.11.59l-.07,0h0l-.42.16a1.46,1.46,0,0,0-.9,1.14A15.7,15.7,0,0,0,25,9a1.81,1.81,0,0,0-2.19-.43,4.19,4.19,0,0,0-1.59,1,1.81,1.81,0,0,0-.74,1.89,6.56,6.56,0,0,1-1.1.73,2.64,2.64,0,0,0-.38.18,11,11,0,0,1-3.91.78,1.86,1.86,0,0,0-.87.28,1.72,1.72,0,0,0-1.35.17,16.5,16.5,0,0,0-4.49,3.83,2.27,2.27,0,0,0-.09,3c-2.56,1.68-1.12,6-.21,8.35a2,2,0,0,0,2.43,1.38,5.41,5.41,0,0,1,2.12,0A4.44,4.44,0,0,0,14.28,32a7.22,7.22,0,0,0,2.84.87,3.64,3.64,0,0,0-1.12.78A1.38,1.38,0,0,0,17,36a1.22,1.22,0,0,1,.27,0h.07l.11,0a4.5,4.5,0,0,0,1.16.05A3.34,3.34,0,0,0,20,35.75a1.76,1.76,0,0,0,.45-.41C22.24,37,24.08,38.5,26,39.1a8,8,0,0,0,3.67-.2c2.09-.39,2.92.87,4.83,1.66,2.43,1,7.06-1.72,8.49-.06a2,2,0,0,0,2.46.25.73.73,0,0,0,.34.28c1.45.56,2.65,1.69,4.19,2a1.7,1.7,0,0,0,2-1.69,1.39,1.39,0,0,0,.54-.39c.12-.15.62-.69.22-.28l.13-.15A.85.85,0,0,0,53.3,40c0-.07,0-.14,0-.21l.26.07a5.6,5.6,0,0,0,2.69.08,2.26,2.26,0,0,0,.35.9,1,1,0,0,0,1.27.34,1.68,1.68,0,0,0,.3-.15,3.43,3.43,0,0,0,.32-.23l.32-.21a2.67,2.67,0,0,0,.48,0c-.73.13.05,0,.29,0a1.68,1.68,0,0,0,.56-.25c-.22-.28-.44-.55-.65-.84-2.09-2.8-4.1-5.85-6.46-8.49a2,2,0,0,0,.34,2.73l-.57.14c-.39-.7-.62-1.56-1-2.26a4.33,4.33,0,0,0-3.69-2.17,11.65,11.65,0,0,0-3.13.53,1.71,1.71,0,0,0-.57-.83l.34-.19a1.63,1.63,0,0,0,.74.52,3,3,0,0,0,1.54,0,1.17,1.17,0,0,0,.31-.12l.26-.1a1.26,1.26,0,0,0,.59-1,1.5,1.5,0,0,0-.63-1.29c.27-.24.54-.49.79-.74a10.47,10.47,0,0,1-1.59-2.57.36.36,0,0,1,0-.2.32.32,0,0,1,.19-.55c3.5-.48,7.92,1.36,11.38,1.95l2.89.49a4,4,0,0,0-.86-3.44,41.68,41.68,0,0,1,4.67,1.51,1.6,1.6,0,0,0,.72.34,8.29,8.29,0,0,1,1.52,1c-.54.44-1.07.9-1.63,1.34l0,0c3.13.53,6.25,1.1,9.35,1.79,1.78.39,3.57.82,5.37,1.27a16.24,16.24,0,0,0,4.1-5.47C85.3,21.83,83.47,19.75,81.84,20.48ZM12.72,25.84a2.26,2.26,0,0,0-.25.38,9.8,9.8,0,0,0-1.23,0l-.05-.12c-.32-.79-1.83-2.34-.24-1.63a6.38,6.38,0,0,0,2.71.42A7,7,0,0,0,12.72,25.84Zm2.75-5a10.25,10.25,0,0,1-1.92.06,20.33,20.33,0,0,0,2.94-1.32C16.13,20,15.78,20.4,15.47,20.83Zm25.67-8a4.42,4.42,0,0,1,.75,1.06c-.59.56-1.16,1.14-1.68,1.73a24,24,0,0,0-4.49-2.38A49.79,49.79,0,0,1,41.14,12.79Zm-9.39,5.87s0-.05,0-.08.09-.22.13-.33a2.74,2.74,0,0,1,.9,1.61,3,3,0,0,0-1-.37,4.66,4.66,0,0,0-.85-.06A1.66,1.66,0,0,0,31.75,18.66Zm-6.32-3.05c.47.1,1,.22,1.46.35a1.85,1.85,0,0,0,.81,2.11,2,2,0,0,0,.51.24,1.83,1.83,0,0,0,.84,1.05,1.28,1.28,0,0,0,.24.11,5.29,5.29,0,0,1-3.06-.5l-.6-.62a2.92,2.92,0,0,0-.37-.41q-.33-.36-.63-.75A10.63,10.63,0,0,0,25.43,15.61ZM20.87,27a2.46,2.46,0,0,0-1.07-3.19,27.91,27.91,0,0,0,3.78-1.91,6.08,6.08,0,0,0,1.47,1l.46.37c-1.11.86-2.18,1.8-3.24,2.68C21.81,26.26,21.35,26.61,20.87,27Zm5,7.9a14.57,14.57,0,0,1-2.62-1.6c.24-.06.48-.12.72-.16h0c-.29,0-.09.09.09.09l.23.25c1,1.19,2.71.57,3.42-.53a2,2,0,0,0,.5,1.11,1.68,1.68,0,0,0,2.26.25,3.11,3.11,0,0,0,.64.3C29.33,34.51,27.85,35.78,25.83,34.85Zm12.74-.52a4,4,0,0,1-2.24-1.85,5.9,5.9,0,0,0,.54-1.32l.54-.09a2.07,2.07,0,0,0,1.41,2.75l.43.07A7.91,7.91,0,0,1,38.57,34.33ZM33.06,27.1c-1.84.39-4.63,1.89-4.62,4.08l-.19.16a1.58,1.58,0,0,0-.28.3,1.71,1.71,0,0,0-.35-.8,4.48,4.48,0,0,0-1.93-1.49c2.37-2,5.5-4.49,5.8-4,.73,1.17,2.76,1.75,3.73.48a9.73,9.73,0,0,0,2.34-5.43,1,1,0,0,0,.21.14l.11,0a4.77,4.77,0,0,0,0,.76c.42,2.77,2.27,3.44,4.49,3.28C39.72,26,36.53,26.38,33.06,27.1Zm11.56,8.57a7,7,0,0,1,1-.72h0a11.06,11.06,0,0,1-1.33,1.49l-.33-.18Zm4.56-17.6a26.68,26.68,0,0,0-3.8,1.12,4.39,4.39,0,0,0,.93-3.05c.56-.51,1.11-1,1.65-1.55,0,.23.08.44.12.64A2.35,2.35,0,0,0,49.92,17c0,.37.12.75.18,1.1A2.86,2.86,0,0,0,49.18,18.07Zm8.22,2.22a3.36,3.36,0,0,1-1.64-.65,1.59,1.59,0,0,0,.44-.95,1.59,1.59,0,0,0,.37.27,1.81,1.81,0,0,0,.45.14,2.22,2.22,0,0,0,.39,1.19Zm.71-4.35-.07,0a1.3,1.3,0,0,0-1.81,0,1.48,1.48,0,0,0-.66,1.24,2,2,0,0,0-.43-.36,1.57,1.57,0,0,0-.23-.09,17.24,17.24,0,0,1-.13-2.09,3.61,3.61,0,0,0-.09-.7c.25,0,.51,0,.74,0a5.08,5.08,0,0,0,1.07-.2,4.46,4.46,0,0,0,2.35,1.22A7.88,7.88,0,0,0,58.11,15.94Zm10.07,2.84a5.91,5.91,0,0,0-.54.77c-.54-.26-1.09-.5-1.66-.71.39-.2.79-.38,1.17-.59l1.12.45Zm-1.85-5.46c.06-.54.12-1.07.16-1.61v0a3,3,0,0,1,1.88.44ZM70.64,21a1.53,1.53,0,0,0,.13-.43,4.54,4.54,0,0,0,0-.6l.9.5A1.41,1.41,0,0,0,70.64,21Zm3.71,5.39A2.28,2.28,0,0,0,73,24a1.71,1.71,0,0,0,.35-.59,2.83,2.83,0,0,0-.22-2.19c1.76,1,3.3,2,4.2,2.39a3.33,3.33,0,0,0,.51.16A31.69,31.69,0,0,0,74.35,26.37Z"/><path class="cls-7" d="M68.17,11.66c.15,1-1.85,2.16-4.47,2.54s-4.87-.12-5-1.14,1.86-2.16,4.48-2.54S68,10.64,68.17,11.66Z"/><path class="cls-8" d="M58.7,12.94a8.24,8.24,0,0,0,4.12.26c2.51-.37,4.44-1.43,4.46-2.42a8.27,8.27,0,0,0-4.12-.26C60.64,10.89,58.72,12,58.7,12.94Z"/><path class="cls-7" d="M36.09,11.91c0,.85-1.82,1.47-4,1.38s-3.92-.83-3.89-1.67,1.83-1.47,4-1.39S36.12,11.06,36.09,11.91Z"/><path class="cls-8" d="M28.23,11.52a6.87,6.87,0,0,0,3.3.83c2.09.08,3.81-.49,4-1.28a6.75,6.75,0,0,0-3.3-.84C30.11,10.15,28.4,10.72,28.23,11.52Z"/><path class="cls-7" d="M33.59,32.27c-.05.86-1.87,1.47-4.08,1.36s-4-.88-3.93-1.74,1.87-1.47,4.08-1.36S33.63,31.42,33.59,32.27Z"/><path class="cls-8" d="M25.61,31.79a6.93,6.93,0,0,0,3.34.88c2.12.11,3.87-.45,4-1.26a6.89,6.89,0,0,0-3.33-.88C27.54,30.42,25.79,31,25.61,31.79Z"/><path class="cls-7" d="M17.67,21.9c0,1-2,1.73-4.41,1.75S8.83,22.91,8.82,22s2-1.74,4.41-1.75S17.67,20.94,17.67,21.9Z"/><path class="cls-8" d="M8.85,21.85a7.69,7.69,0,0,0,3.73.77c2.35,0,4.24-.74,4.39-1.64a7.73,7.73,0,0,0-3.74-.77C10.89,20.22,9,21,8.85,21.85Z"/><path class="cls-7" d="M23.4,14.46c.18,1.08-1.93,2.32-4.7,2.79s-5.17,0-5.35-1.12,1.92-2.33,4.7-2.79S23.22,13.38,23.4,14.46Z"/><path class="cls-8" d="M13.36,16a8.82,8.82,0,0,0,4.38.2c2.67-.44,4.69-1.61,4.69-2.66a8.82,8.82,0,0,0-4.38-.2C15.38,13.78,13.36,15,13.36,16Z"/><path class="cls-7" d="M33.26,21.68c0,.87-1.75,1.65-4,1.75S25.18,22.9,25.14,22s1.75-1.65,4-1.75S33.22,20.81,33.26,21.68Z"/><path class="cls-8" d="M25.16,21.92a7,7,0,0,0,3.45.59c2.15-.09,3.87-.82,4-1.65a7,7,0,0,0-3.45-.59C27,20.37,25.26,21.09,25.16,21.92Z"/><path class="cls-7" d="M47.36,30.24c0,1.07-2.22,1.93-5,1.92s-5-.87-5-1.93,2.22-1.93,5-1.92S47.37,29.18,47.36,30.24Z"/><path class="cls-8" d="M37.47,30.1a8.64,8.64,0,0,0,4.18.91c2.63,0,4.76-.8,4.93-1.8a8.51,8.51,0,0,0-4.18-.9C39.77,28.3,37.64,29.1,37.47,30.1Z"/><path class="cls-7" d="M64.86,21.39c.15,1-1.9,2.2-4.57,2.58s-4.95-.14-5.1-1.17,1.89-2.2,4.56-2.58S64.71,20.36,64.86,21.39Z"/><path class="cls-8" d="M55.2,22.67a8.41,8.41,0,0,0,4.2.28C62,22.58,63.93,21.5,64,20.5a8.43,8.43,0,0,0-4.2-.28C57.18,20.59,55.22,21.67,55.2,22.67Z"/><path class="cls-7" d="M80.07,16.58c.1.83-1.55,1.7-3.67,1.94s-3.93-.22-4-1.05,1.55-1.69,3.67-1.94S80,15.76,80.07,16.58Z"/><path class="cls-8" d="M72.39,17.37a6.64,6.64,0,0,0,3.32.32c2-.23,3.62-1,3.66-1.84a6.62,6.62,0,0,0-3.32-.32C74,15.77,72.43,16.58,72.39,17.37Z"/><path class="cls-7" d="M52.85,20.28c.07.82-1.57,1.61-3.67,1.78s-3.84-.35-3.91-1.16,1.58-1.62,3.67-1.78S52.79,19.47,52.85,20.28Z"/><path class="cls-8" d="M45.29,20.8a6.62,6.62,0,0,0,3.25.42c2-.16,3.59-.9,3.65-1.68a6.62,6.62,0,0,0-3.25-.42C46.93,19.28,45.36,20,45.29,20.8Z"/><path class="cls-7" d="M56.58,38.31c-.17,1-2.42,1.5-5,1.08s-4.6-1.59-4.44-2.6,2.42-1.5,5-1.08S56.74,37.29,56.58,38.31Z"/><path class="cls-8" d="M47.16,36.67A8.26,8.26,0,0,0,51,38.17c2.51.4,4.66,0,5-1a8.38,8.38,0,0,0-3.85-1.49C49.63,35.3,47.47,35.74,47.16,36.67Z"/><path class="cls-7" d="M77.72,23.7c.09,1-1.89,1.95-4.41,2.16s-4.63-.41-4.71-1.39,1.89-1.94,4.41-2.16S77.64,22.72,77.72,23.7Z"/><path class="cls-8" d="M68.62,24.36a7.93,7.93,0,0,0,3.91.49c2.42-.2,4.32-1.1,4.39-2a8,8,0,0,0-3.91-.5C70.59,22.52,68.7,23.42,68.62,24.36Z"/><path class="cls-9" d="M46.47,10.54c0,1.57-1.82,2.84-4.07,2.84s-4.07-1.27-4.07-2.84,1.82-2.86,4.07-2.86S46.47,9,46.47,10.54Z"/><path class="cls-10" d="M43,9.36c0-.13-.07-.25-.1-.38a8.9,8.9,0,0,0-.25-.86h-.2A4.13,4.13,0,0,0,39.74,9c.44.31.87.63,1.32.93A3.21,3.21,0,0,1,43,9.36Z"/><path class="cls-10" d="M39.71,11.47a3.71,3.71,0,0,1,.56-.87l-1.06-1a1.82,1.82,0,0,0-.26.94,1.71,1.71,0,0,0,.14.67l.56.23Z"/><path class="cls-11" d="M42.72,8.5l-.12-.38h-.2A4.13,4.13,0,0,0,39.74,9l.59.41A3.42,3.42,0,0,1,42.72,8.5Z"/><path class="cls-11" d="M39.16,11.24a5.33,5.33,0,0,1,.54-1.12l0,0-.51-.49a1.82,1.82,0,0,0-.26.94,1.71,1.71,0,0,0,.14.67Z"/><path class="cls-9" d="M32.93,16.37c0,1.58-1.82,2.85-4.06,2.85S24.8,18,24.8,16.37s1.82-2.85,4.07-2.85S32.93,14.8,32.93,16.37Z"/><path class="cls-10" d="M29.42,15.2a2.48,2.48,0,0,1-.1-.39c-.06-.27-.16-.56-.25-.85h-.2a4.17,4.17,0,0,0-2.67.88c.44.31.88.63,1.33.93A3.12,3.12,0,0,1,29.42,15.2Z"/><path class="cls-10" d="M26.18,17.3a3.86,3.86,0,0,1,.56-.86l-1.06-1a1.82,1.82,0,0,0-.27.93,1.77,1.77,0,0,0,.15.68l.56.23Z"/><path class="cls-11" d="M29.19,14.34,29.07,14h-.2a4.17,4.17,0,0,0-2.67.88l.59.41A3.41,3.41,0,0,1,29.19,14.34Z"/><path class="cls-11" d="M25.63,17.08A4.5,4.5,0,0,1,26.17,16a.05.05,0,0,1,0,0l-.51-.48a1.82,1.82,0,0,0-.27.93,1.77,1.77,0,0,0,.15.68Z"/><path class="cls-9" d="M45.3,24.1c0,1.58-1.83,2.85-4.07,2.85s-4.07-1.27-4.07-2.85,1.82-2.85,4.07-2.85S45.3,22.53,45.3,24.1Z"/><path class="cls-10" d="M41.78,22.93a2.48,2.48,0,0,1-.1-.39c-.06-.27-.16-.56-.25-.85h-.2a4.17,4.17,0,0,0-2.67.88c.44.31.88.63,1.33.93A3.12,3.12,0,0,1,41.78,22.93Z"/><path class="cls-10" d="M38.54,25a3.71,3.71,0,0,1,.56-.87l-1.06-1a1.82,1.82,0,0,0-.27.93,1.73,1.73,0,0,0,.15.68l.56.23Z"/><path class="cls-11" d="M41.55,22.07l-.12-.38h-.2a4.17,4.17,0,0,0-2.67.88l.59.41A3.41,3.41,0,0,1,41.55,22.07Z"/><path class="cls-11" d="M38,24.81a4.88,4.88,0,0,1,.54-1.12.05.05,0,0,1,0,0L38,23.17a1.82,1.82,0,0,0-.27.93,1.73,1.73,0,0,0,.15.68Z"/><path class="cls-9" d="M24.31,25.53c0,1.58-1.82,2.86-4.06,2.86s-4.07-1.28-4.07-2.86,1.82-2.85,4.07-2.85S24.31,24,24.31,25.53Z"/><path class="cls-10" d="M20.8,24.36a2.66,2.66,0,0,1-.1-.38c-.06-.27-.16-.57-.25-.86h-.2a4.17,4.17,0,0,0-2.67.88c.44.31.88.63,1.33.93A3.19,3.19,0,0,1,20.8,24.36Z"/><path class="cls-10" d="M17.56,26.47a3.67,3.67,0,0,1,.55-.87l-1.05-1a1.82,1.82,0,0,0-.27.93,1.73,1.73,0,0,0,.15.68l.56.23Z"/><path class="cls-11" d="M20.57,23.5l-.12-.38h-.2a4.17,4.17,0,0,0-2.67.88l.59.41A3.46,3.46,0,0,1,20.57,23.5Z"/><path class="cls-11" d="M17,26.24a5.11,5.11,0,0,1,.53-1.12l0,0-.51-.48a1.82,1.82,0,0,0-.27.93,1.73,1.73,0,0,0,.15.68Z"/><path class="cls-9" d="M46.47,36.94c0,1.57-1.82,2.85-4.07,2.85s-4.07-1.28-4.07-2.85,1.82-2.85,4.07-2.85S46.47,35.36,46.47,36.94Z"/><path class="cls-10" d="M43,35.76c0-.13-.07-.25-.1-.38a8,8,0,0,0-.25-.85h-.2a4.13,4.13,0,0,0-2.66.88c.44.31.87.62,1.32.92A3.21,3.21,0,0,1,43,35.76Z"/><path class="cls-10" d="M39.71,37.87a4.17,4.17,0,0,1,.56-.87l-1.06-1a1.85,1.85,0,0,0-.26.94,1.8,1.8,0,0,0,.14.68l.56.22Z"/><path class="cls-11" d="M42.72,34.91l-.12-.38h-.2a4.13,4.13,0,0,0-2.66.88l.59.41A3.33,3.33,0,0,1,42.72,34.91Z"/><path class="cls-11" d="M39.16,37.65a5.44,5.44,0,0,1,.54-1.13l0,0L39.21,36a1.85,1.85,0,0,0-.26.94,1.8,1.8,0,0,0,.14.68Z"/><path class="cls-9" d="M60,17.3c0,1.36-1.57,2.47-3.51,2.47S53,18.66,53,17.3s1.57-2.46,3.51-2.46S60,15.94,60,17.3Z"/><path class="cls-10" d="M57,16.29c0-.11-.07-.22-.09-.33a6.51,6.51,0,0,0-.21-.74h-.17a3.59,3.59,0,0,0-2.3.76c.38.27.75.54,1.14.8A2.79,2.79,0,0,1,57,16.29Z"/><path class="cls-10" d="M54.16,18.11a3.46,3.46,0,0,1,.49-.75l-.92-.86a1.64,1.64,0,0,0-.23.8,1.49,1.49,0,0,0,.13.59l.48.2Z"/><path class="cls-11" d="M56.76,15.55c0-.11-.06-.22-.1-.33h-.17a3.59,3.59,0,0,0-2.3.76l.51.36A2.88,2.88,0,0,1,56.76,15.55Z"/><path class="cls-11" d="M53.69,17.92a4.75,4.75,0,0,1,.46-1l0,0-.45-.42a1.64,1.64,0,0,0-.23.8,1.49,1.49,0,0,0,.13.59Z"/><path class="cls-9" d="M72.25,14.85c0,1.58-1.82,2.85-4.07,2.85s-4.07-1.27-4.07-2.85S65.93,12,68.18,12,72.25,13.28,72.25,14.85Z"/><path class="cls-10" d="M68.73,13.68a2.48,2.48,0,0,1-.1-.39c-.06-.27-.16-.56-.25-.85h-.2a4.17,4.17,0,0,0-2.67.88c.44.31.88.63,1.33.93A3.12,3.12,0,0,1,68.73,13.68Z"/><path class="cls-10" d="M65.49,15.79a3.71,3.71,0,0,1,.56-.87l-1.06-1a1.82,1.82,0,0,0-.27.93,1.73,1.73,0,0,0,.15.68l.56.23Z"/><path class="cls-11" d="M68.5,12.82l-.12-.38h-.2a4.17,4.17,0,0,0-2.67.88l.59.41A3.41,3.41,0,0,1,68.5,12.82Z"/><path class="cls-11" d="M64.94,15.56a5.33,5.33,0,0,1,.54-1.12.05.05,0,0,1,0,0L65,13.92a1.82,1.82,0,0,0-.27.93,1.73,1.73,0,0,0,.15.68Z"/><path class="cls-7" d="M23.4,29.24c.12,1-1.8,2-4.29,2.33s-4.6-.2-4.73-1.17,1.79-2,4.28-2.33S23.27,28.27,23.4,29.24Z"/><path class="cls-8" d="M14.39,30.28a7.78,7.78,0,0,0,3.91.33c2.39-.31,4.23-1.28,4.26-2.21a7.73,7.73,0,0,0-3.9-.33C16.27,28.38,14.43,29.35,14.39,30.28Z"/><path class="cls-7" d="M40.17,40.15c-.1.79-1.84,1.23-3.89,1S32.66,40,32.76,39.22s1.84-1.23,3.88-1S40.27,39.35,40.17,40.15Z"/><path class="cls-8" d="M32.8,39.13a6.29,6.29,0,0,0,3,1.06c2,.25,3.63-.15,3.85-.88a6.33,6.33,0,0,0-3-1.06C34.68,38,33,38.4,32.8,39.13Z"/><path class="cls-7" d="M51.57,13.65c.15,1-1.88,2.19-4.55,2.58s-4.94-.14-5.09-1.18,1.89-2.18,4.55-2.57S51.42,12.62,51.57,13.65Z"/><path class="cls-8" d="M41.94,14.93a8.5,8.5,0,0,0,4.19.28c2.56-.37,4.51-1.45,4.54-2.45a8.39,8.39,0,0,0-4.19-.28C43.92,12.85,42,13.92,41.94,14.93Z"/><path class="cls-12" d="M61.56,12.3A4.66,4.66,0,0,0,59.42,9a3.72,3.72,0,0,0-2.13-.29A10.49,10.49,0,0,0,55,9.64a.17.17,0,0,0-.26.1h0l-.23-.1-.3-.11a.06.06,0,0,0,0-.07,3.13,3.13,0,0,0-3.38-2c-1.43.16-3.66,2.51-3.54,2.61a4.71,4.71,0,0,0,3.45.81A5.88,5.88,0,0,0,54,9.79a1.21,1.21,0,0,0,.3.11l.33.08a1.2,1.2,0,0,0,.2,0,2.5,2.5,0,0,0,2.06,2.41c.85.1,1.7-.05,2.55,0a6,6,0,0,0,2.06.06A.15.15,0,0,0,61.56,12.3Z"/><path class="cls-13" d="M56.47,8.86a4.62,4.62,0,0,0-.89-2.74c0-.13,0-.24-.07-.33a.22.22,0,0,0-.4,0A13.15,13.15,0,0,0,54,7.9a1.72,1.72,0,0,0,.18,1.65.52.52,0,0,0-.06.16.09.09,0,0,0,0,.07c-.72-.19-1.32.57-1.55,1.16a3.65,3.65,0,0,0-.09,2.48.21.21,0,0,0,.3.12,7.19,7.19,0,0,0,2.43-2,1.27,1.27,0,0,0,.31-1.11,1,1,0,0,0-.72-.58.05.05,0,0,0,0,0,.25.25,0,0,0,0-.07.06.06,0,0,0,0,0h.28C55.75,9.76,56.4,9.56,56.47,8.86Z"/><path class="cls-12" d="M41.57,16.25A3.64,3.64,0,0,0,39.44,16a10.46,10.46,0,0,0-2.27.88.19.19,0,0,0-.13,0l-.09.3,0,.08h0A2.49,2.49,0,0,0,39,19.63c.85.1,1.7-.05,2.55,0a6,6,0,0,0,2.06.06.16.16,0,0,0,.12-.2A4.7,4.7,0,0,0,41.57,16.25Z"/><path class="cls-13" d="M37.47,17.34a1.07,1.07,0,0,1-.9-.31,1.78,1.78,0,0,1-.22-.26.47.47,0,0,0-.06.15.11.11,0,0,0,0,.08c-.72-.2-1.32.56-1.55,1.15a3.65,3.65,0,0,0-.09,2.48.21.21,0,0,0,.3.12,7.19,7.19,0,0,0,2.43-2,1.27,1.27,0,0,0,.31-1.11A.71.71,0,0,0,37.47,17.34Z"/><path class="cls-12" d="M51.64,30.69A2.93,2.93,0,0,0,50,30.46a9.1,9.1,0,0,0-1.79.7h-.1c0,.08,0,.16-.07.24a.33.33,0,0,1,0,.06h0a2,2,0,0,0,1.63,1.91c.67.08,1.34,0,2,0a4.48,4.48,0,0,0,1.63.05.15.15,0,0,0,.09-.16A3.7,3.7,0,0,0,51.64,30.69Z"/><path class="cls-13" d="M48.41,31.55a.87.87,0,0,1-.72-.24l-.17-.21a.61.61,0,0,0-.05.12v.06c-.56-.16-1,.44-1.22.91a2.93,2.93,0,0,0-.07,2,.17.17,0,0,0,.24.09,5.7,5.7,0,0,0,1.92-1.56,1.05,1.05,0,0,0,.25-.88A.64.64,0,0,0,48.41,31.55Z"/><path class="cls-12" d="M24.16,35.64a3.14,3.14,0,0,0-1.45-2.2,2.43,2.43,0,0,0-1.43-.2,7.23,7.23,0,0,0-1.54.6.12.12,0,0,0-.17.07h0l-.16-.06-.2-.07a.11.11,0,0,0,0-.05,2.11,2.11,0,0,0-2.28-1.37,4.9,4.9,0,0,0-2.4,1.77,3.24,3.24,0,0,0,2.33.54A4,4,0,0,0,19,34l.2.07.23,0a.59.59,0,0,0,.13,0A1.7,1.7,0,0,0,21,35.72c.58.07,1.15,0,1.73,0a3.82,3.82,0,0,0,1.39,0A.09.09,0,0,0,24.16,35.64Z"/><path class="cls-13" d="M31,28.78a4.62,4.62,0,0,0,2-2.09l.26-.22a.22.22,0,0,0-.15-.38,13.87,13.87,0,0,0-2.41.07,1.71,1.71,0,0,0-1.37.94l-.16,0s-.06,0-.07,0c-.17-.72-1.13-.9-1.75-.81a3.58,3.58,0,0,0-2.23,1.1.21.21,0,0,0,0,.32A7,7,0,0,0,28.05,29a1.25,1.25,0,0,0,1.12-.25,1,1,0,0,0,.17-.9h.12l.05,0a1.17,1.17,0,0,0,.13.25C29.88,28.57,30.35,29,31,28.78Z"/><path class="cls-12" d="M69.68,24.52a3.16,3.16,0,0,0-1.45-2.2,2.42,2.42,0,0,0-1.43-.19,6.74,6.74,0,0,0-1.54.6.11.11,0,0,0-.17.06h0l-.16-.07-.19-.07v-.05a2.11,2.11,0,0,0-2.28-1.36A4.9,4.9,0,0,0,60,23a3.19,3.19,0,0,0,2.33.55,3.92,3.92,0,0,0,2.17-.73.53.53,0,0,0,.2.07L65,23l.13,0a1.7,1.7,0,0,0,1.39,1.63c.58.06,1.15,0,1.73,0a4.06,4.06,0,0,0,1.39,0A.12.12,0,0,0,69.68,24.52Z"/><path class="cls-13" d="M75.68,20.8a4.64,4.64,0,0,0,2-2.09l.26-.22a.22.22,0,0,0-.15-.38,13.84,13.84,0,0,0-2.41.07,1.71,1.71,0,0,0-1.37.94l-.17,0-.07,0c-.16-.72-1.12-.9-1.74-.81a3.68,3.68,0,0,0-2.24,1.1.21.21,0,0,0,0,.32,7.13,7.13,0,0,0,2.9,1.2,1.29,1.29,0,0,0,1.12-.26,1,1,0,0,0,.16-.9h.13l0,0a1.17,1.17,0,0,0,.12.25C74.56,20.59,75,21.06,75.68,20.8Z"/><path class="cls-12" d="M25.63,17.14a3.72,3.72,0,0,0-2.13-.29,10.49,10.49,0,0,0-2.27.89.17.17,0,0,0-.26.1h0l-.23-.1-.24-.08-.11.3.1,0,.33.09.2,0a2.5,2.5,0,0,0,2.06,2.41c.85.1,1.7-.05,2.55,0a6,6,0,0,0,2.06.06.15.15,0,0,0,.11-.2A4.66,4.66,0,0,0,25.63,17.14Z"/><path class="cls-13" d="M22.68,17a4.57,4.57,0,0,0-.89-2.74c0-.13-.05-.25-.07-.34a.22.22,0,0,0-.4,0A13.56,13.56,0,0,0,20.23,16a1.7,1.7,0,0,0,.18,1.65.52.52,0,0,0-.06.16.11.11,0,0,0,0,.08c-.72-.2-1.33.56-1.55,1.15a3.65,3.65,0,0,0-.09,2.48.21.21,0,0,0,.3.12,7.19,7.19,0,0,0,2.43-2,1.27,1.27,0,0,0,.31-1.11A1,1,0,0,0,21,18a.09.09,0,0,0,0-.06.14.14,0,0,0,0-.06.11.11,0,0,0,0-.05,1.31,1.31,0,0,0,.28,0C22,17.86,22.61,17.67,22.68,17Z"/><path class="cls-3" d="M105.64,31.58c0,.37.07-.5,0,0Z"/><path class="cls-3" d="M105.63,31.6h0v-.07A.11.11,0,0,1,105.63,31.6Z"/><path class="cls-3" d="M105,30.31a1.88,1.88,0,0,0-1.67-.06h-.08a3.37,3.37,0,0,0-2.06.45,2.88,2.88,0,0,0-.7.52A101.85,101.85,0,0,0,89,29.74c-6-.32-11.93,0-17.9,0-3.38,0-8.25-.56-11.71.75,3.57,5.52,8.56,9.77,13.45,14.13,1.65,1.47,3.24,3.07,4.82,4.69-.89-.68-1.7-1.46-2.44-2.07-1.86-1.53-3.86-2.88-5.78-4.33-3.46-2.61-6-6.2-9.49-8.76-.12-.09-.34,0-.27.19,2.14,4.81,6.9,8.43,10.79,11.8,2.77,2.39,6,6.47,9.82,7.08a1.08,1.08,0,0,0,.3.21l.12,0a1.32,1.32,0,0,0,1.12,0h0c5.57-2,11.92-5.36,16.15-9.95a28.48,28.48,0,0,0,4.72-5.41,21.45,21.45,0,0,0,2.66-5.61,1.26,1.26,0,0,0,.18-.32,1.48,1.48,0,0,0,.1-.58A1.23,1.23,0,0,0,105,30.31Z"/><path class="cls-4" d="M103.23,31.67a1.1,1.1,0,0,0-.77-1.26,1.91,1.91,0,0,0-1.32.33,2.27,2.27,0,0,0-.91.88,1.57,1.57,0,0,0-.16.62c-.17.12-.29.43-.4.59s-.32.33-.46.5a3.58,3.58,0,0,0-.47.68.56.56,0,0,0,0,.25C92.17,40.92,85.9,46.06,78.08,48.9c-1-.68-2.4-1.92-2.76-2.19-1.87-1.4-3.64-3-5.42-4.47s-3.45-3.09-5.07-4.74-4.16-3.62-4.88-6c-.12-.43-.87-.41-.9.06-.15,2,.85,3.36,2.14,4.82a87.11,87.11,0,0,0,7.4,7.36c2.43,2.15,4.82,4.32,7.33,6.38,1.21,1,2.46,2.06,4.09,1.66l.06,0,.05.05c4.23-1.5,11.33-4.63,16.18-9.88a28.26,28.26,0,0,0,4.57-5.24,20.92,20.92,0,0,0,2.45-5Z"/><path class="cls-5" d="M89,29.74c-6-.32-11.93,0-17.9,0-3.22,0-7.79-.49-11.2.6a.48.48,0,0,0-.39,0c-2.36,1.46,6.55,9.13,7.39,10,1.57,1.55,3.31,2.92,4.85,4.48,1.28,1.3,3.51,4.56,5.71,4.28l.19.19c8.77-2.88,15.43-8.61,22-15.42a1.52,1.52,0,0,1,.52-.36,19.38,19.38,0,0,0,.79-2.21A105.35,105.35,0,0,0,89,29.74Z"/><path class="cls-6" d="M91.58,29.94c-.42.37-.84.76-1.23,1.18A2.22,2.22,0,0,0,90,29.81l-1-.07c-2.11-.11-4.21-.14-6.31-.14l.53.32c-.5.48-1,1-1.53,1.46a1.69,1.69,0,0,0-.52.83,9.88,9.88,0,0,0-1.06,1.09,1,1,0,0,0-.17-.18.21.21,0,0,0,0-.06,2.35,2.35,0,0,0-1.49-1.17,1.69,1.69,0,0,0-1.36.3,6.67,6.67,0,0,0,.14-2.53c-2,0-4.06.07-6.09.07-3.38,0-8.25-.56-11.71.75A41.36,41.36,0,0,0,63.7,36l.24-.12a1.23,1.23,0,0,0,.52-1,1.51,1.51,0,0,0-.72-1.24c.27-.28.53-.56.78-.85a1.77,1.77,0,0,0,1.32,0c.07,0,.09,0,.09,0a2,2,0,0,0,.48-.18,2.68,2.68,0,0,0-.3.28,2,2,0,1,0,3.4,1.67c0-.22,0-.43,0-.65,0-.43,0-.58-.12-.49a1.33,1.33,0,0,0-1.73-1.27,2,2,0,0,0-.65.08l.07,0a2.93,2.93,0,0,0,1.56-1.93,1.64,1.64,0,0,0,0-.38,10.2,10.2,0,0,0,1.36.69,1,1,0,0,0,.13.16l.2.14,0,0c.12.11.6.44.21.16a2.38,2.38,0,0,0,.76.39h.07a1.15,1.15,0,0,0,0,.26c0,.06,0,.15,0,.31a1.19,1.19,0,0,0,.08.45,1.42,1.42,0,0,0,.46.71,32.84,32.84,0,0,1-2.49,4,2,2,0,0,0,.5,2.76l-.56.18c-.43-.67-.72-1.51-1.12-2.19A4.32,4.32,0,0,0,64.47,36l-.67.1c2.79,3,5.92,5.74,9,8.5.84.75,1.66,1.53,2.47,2.33h0l.29-.25.31-.24a1.63,1.63,0,0,0,.48-.08c-.72.18,0,0,.29-.07a1.85,1.85,0,0,0,.53-3.16,11.57,11.57,0,0,0,.9-1.3c.43-.13.86-.28,1.28-.43-.6,2,1.65,3.29,3.39,2.4,3.33-1.72,5.94-4.4,8.45-7.15a17.91,17.91,0,0,0,2.31-1,14.13,14.13,0,0,0,5-4.75C96.25,30.52,93.92,30.17,91.58,29.94Z"/><path class="cls-7" d="M75.55,37.33c-.09,1-2.3,1.67-4.94,1.44s-4.7-1.25-4.61-2.28,2.3-1.66,4.93-1.43S75.64,36.3,75.55,37.33Z"/><path class="cls-8" d="M66,36.38A8.29,8.29,0,0,0,70,37.59c2.54.22,4.65-.37,4.9-1.32a8.19,8.19,0,0,0-3.95-1.21C68.4,34.84,66.28,35.42,66,36.38Z"/><path class="cls-7" d="M88.24,32c.06.82-1.63,1.6-3.75,1.73s-3.88-.43-3.94-1.25,1.63-1.6,3.76-1.73S88.19,31.17,88.24,32Z"/><path class="cls-8" d="M80.57,32.38a6.65,6.65,0,0,0,3.28.49c2-.12,3.65-.85,3.74-1.63a6.54,6.54,0,0,0-3.28-.49C82.27,30.87,80.65,31.59,80.57,32.38Z"/><path class="cls-7" d="M90.21,39.48c.16,1-1.74,2.08-4.24,2.48s-4.65-.07-4.8-1,1.75-2.08,4.25-2.48S90.06,38.51,90.21,39.48Z"/><path class="cls-8" d="M81.18,40.8a8,8,0,0,0,3.94.21c2.4-.38,4.22-1.41,4.23-2.36a8,8,0,0,0-3.93-.21C83,38.82,81.19,39.86,81.18,40.8Z"/><path class="cls-9" d="M83.81,35.14c.11,1.57-1.61,3-3.86,3.14s-4.14-1-4.26-2.55,1.61-3,3.85-3.14S83.69,33.57,83.81,35.14Z"/><path class="cls-10" d="M80.21,34.22c0-.12-.09-.24-.13-.37s-.2-.55-.3-.83a1.47,1.47,0,0,0-.21,0A4.16,4.16,0,0,0,77,34.09c.46.28.92.56,1.39.83A3.23,3.23,0,0,1,80.21,34.22Z"/><path class="cls-10" d="M77.13,36.56a3.93,3.93,0,0,1,.5-.9l-1.13-.92a1.85,1.85,0,0,0-.2.95,1.74,1.74,0,0,0,.2.66l.57.19Z"/><path class="cls-11" d="M79.92,33.39c0-.13-.1-.25-.14-.37a1.47,1.47,0,0,0-.21,0A4.16,4.16,0,0,0,77,34.09l.62.37A3.32,3.32,0,0,1,79.92,33.39Z"/><path class="cls-11" d="M76.57,36.38A5,5,0,0,1,77,35.22l0,0-.55-.44a1.85,1.85,0,0,0-.2.95,1.74,1.74,0,0,0,.2.66Z"/><path class="cls-9" d="M96.48,34.33c.11,1.57-1.61,3-3.85,3.14s-4.15-1-4.26-2.55,1.6-3,3.84-3.14S96.36,32.76,96.48,34.33Z"/><path class="cls-10" d="M92.88,33.42c0-.13-.09-.25-.13-.38a8.42,8.42,0,0,0-.3-.83h-.21a4.16,4.16,0,0,0-2.59,1.07c.46.28.92.57,1.39.83A3.22,3.22,0,0,1,92.88,33.42Z"/><path class="cls-10" d="M89.8,35.75a4.15,4.15,0,0,1,.5-.9l-1.13-.92a1.85,1.85,0,0,0-.2,1,1.69,1.69,0,0,0,.2.66l.57.19Z"/><path class="cls-11" d="M92.59,32.58c0-.12-.1-.25-.14-.37h-.21a4.16,4.16,0,0,0-2.59,1.07l.62.37A3.4,3.4,0,0,1,92.59,32.58Z"/><path class="cls-11" d="M89.24,35.57a5,5,0,0,1,.45-1.16l0,0c-.18-.16-.37-.3-.55-.45a1.85,1.85,0,0,0-.2,1,1.69,1.69,0,0,0,.2.66Z"/><path class="cls-12" d="M69.62,29a3.64,3.64,0,0,0-2.14-.13A10.58,10.58,0,0,0,65.28,30a.2.2,0,0,0-.13,0,2.82,2.82,0,0,1-.07.31l0,.08h0a2.51,2.51,0,0,0,2.23,2.26c.86,0,1.7-.18,2.55-.17a5.93,5.93,0,0,0,2.06-.08.18.18,0,0,0,.1-.21A4.7,4.7,0,0,0,69.62,29Z"/><path class="cls-13" d="M65.62,30.43a1.13,1.13,0,0,1-.93-.25,2.72,2.72,0,0,1-.24-.24.66.66,0,0,0,0,.15.12.12,0,0,0,0,.08c-.73-.15-1.28.65-1.46,1.26A3.65,3.65,0,0,0,63,33.91a.21.21,0,0,0,.31.1,7.21,7.21,0,0,0,2.28-2.15,1.32,1.32,0,0,0,.23-1.13A.71.71,0,0,0,65.62,30.43Z"/><path class="cls-12" d="M80.66,42.31a3.7,3.7,0,0,0-1.73-1.26,11,11,0,0,0-2.42-.3.18.18,0,0,0-.28,0h0a1.3,1.3,0,0,0-.15-.2,1,1,0,0,1-.17-.19l-.24.22.07.07.25.24s.11.07.16.11a2.53,2.53,0,0,0,.67,3.11c.7.49,1.52.75,2.24,1.22a5.79,5.79,0,0,0,1.78,1A.15.15,0,0,0,81,46.2,4.64,4.64,0,0,0,80.66,42.31Z"/><path class="cls-13" d="M78.16,40.76a4.72,4.72,0,0,0,.52-2.84c0-.12.06-.23.09-.32a.22.22,0,0,0-.33-.23,13.67,13.67,0,0,0-2,1.37,1.73,1.73,0,0,0-.63,1.55.64.64,0,0,0-.13.1.25.25,0,0,0,0,.07c-.53-.51-1.43-.13-1.9.28a3.71,3.71,0,0,0-1.27,2.14.21.21,0,0,0,.21.25,7,7,0,0,0,3.08-.59,1.26,1.26,0,0,0,.8-.82.94.94,0,0,0-.36-.85l.06,0,0,0a.05.05,0,0,0,0,0,1.28,1.28,0,0,0,.25.14C77.1,41.2,77.76,41.34,78.16,40.76Z"/></g></g></g></svg>