<svg xmlns="http://www.w3.org/2000/svg" viewBox="0 0 90.82 59.09"><defs><style>.cls-1{isolation:isolate;}.cls-2{fill:#aab3b8;opacity:0.3;mix-blend-mode:multiply;}.cls-3{fill:#d9ba98;}.cls-4{fill:#f2ddc6;}.cls-5{fill:#ffedd9;}.cls-6{fill:#fdf4dc;}.cls-7{fill:#e6d2bc;}.cls-8{fill:#fff;}.cls-9{fill:#f1c731;}.cls-10{fill:#fff2bf;}.cls-11{fill:#e25e07;}.cls-12{fill:#a31300;}.cls-13{fill:#b72916;}.cls-14{fill:#cc4215;}.cls-15{fill:#4a7006;}.cls-16{fill:#649015;}.cls-17{fill:#7eb023;}</style></defs><g class="cls-1"><g id="Capa_2" data-name="Capa 2"><g id="Layer_1" data-name="Layer 1"><path class="cls-2" d="M78.56,49.3c.34-6.18-11.46-11.87-26.37-12.71S24.91,40.1,24.57,46.28,36,58.15,50.94,59,78.21,55.48,78.56,49.3Z"/><path class="cls-3" d="M90.82,23.76c0-6-20.33-10.81-45.41-10.81S0,17.79,0,23.76,20.33,52.33,45.41,52.33,90.82,29.74,90.82,23.76Z"/><path class="cls-4" d="M90.82,23.35c0-5.74-20.33-10.4-45.41-10.4S0,17.61,0,23.35,20.33,50.84,45.41,50.84,90.82,29.1,90.82,23.35Z"/><path class="cls-5" d="M5.11,19.36c-2.83,2.38-4,5-3,7.36,2.43,5.76,23.88,25.43,39,22.8S59.29,23,56.86,17.18a6.94,6.94,0,0,0-2.6-2.93c-3.2-.17-6.52-.26-9.93-.26C27.59,14,13,16.14,5.11,19.36Z"/><path class="cls-6" d="M90.82,23.76c0-9.48-20.33-17.16-45.41-17.16S0,14.28,0,23.76,20.33,40.92,45.41,40.92,90.82,33.24,90.82,23.76Z"/><path class="cls-7" d="M45.41,38.17c-23.09,0-42.59-6.85-42.59-15s19.5-15,42.59-15S88,15.1,88,23.21,68.5,38.17,45.41,38.17Z"/><path class="cls-3" d="M38.17,15.71C22,13.89,7.6,19.52,6.65,28a7.71,7.71,0,0,0,0,1.27c6.77,5.19,21.81,8.9,38.8,8.9a107,107,0,0,0,20.41-1.89,7.72,7.72,0,0,0,.34-1.57C67.12,26.23,54.3,17.53,38.17,15.71Z"/><path class="cls-8" d="M6.71,31.06c-.35,1.14,4.12,3.58,10,5.45S27.58,39,27.92,37.82s-5.09-.77-11-2.64S7.06,29.92,6.71,31.06Z"/><path class="cls-9" d="M12.26,32.48l.12.05c0-.16-.09-.32-.12-.48C12.25,32.2,12.26,32.34,12.26,32.48Z"/><path class="cls-9" d="M42.4,37.75l0-.5a6.33,6.33,0,0,1-.94.61c0,.09-.06.16-.08.24l.61,0C42.15,38,42.28,37.88,42.4,37.75Z"/><path class="cls-9" d="M49.21,6.45l.8,0h.39L50.8,6l-3.48-.12c.59.17,1.18.34,1.76.54Z"/><path class="cls-9" d="M41,38.09h.37c0-.08.05-.15.08-.24Z"/><path class="cls-9" d="M12.35,26.62C13.46,17.2,21,11.83,29.21,9l.32-.26C21,11.68,13.19,17.29,12,27.17a14.39,14.39,0,0,0,.24,4.88c0,.16.08.32.12.48l.68.29A13.24,13.24,0,0,1,12.35,26.62Z"/><path class="cls-9" d="M14.74,27A17,17,0,0,1,20.8,16.32a22.08,22.08,0,0,1,5.84-4.58L27,11.3C20.51,14,14.62,18.69,13.67,26.78a11.61,11.61,0,0,0,1.13,6.71c.33.13.67.25,1,.36A11.81,11.81,0,0,1,14.74,27Z"/><path class="cls-10" d="M13.67,26.78C14.62,18.69,20.51,14,27,11.3a12.88,12.88,0,0,1,1.31-1.47c.3-.3.61-.57.92-.83C21,11.83,13.46,17.2,12.35,26.62a13.24,13.24,0,0,0,.71,6.2c.56.23,1.14.45,1.74.67A11.61,11.61,0,0,1,13.67,26.78Z"/><path class="cls-9" d="M53.7,7.53l-.58.54c.6.28,1.18.57,1.75.87l.24-.06,1.76-1.65-3.51-.1-.4.38Z"/><path class="cls-9" d="M20.17,34.48a9.48,9.48,0,0,1-1.54-2.4A11.17,11.17,0,0,1,17,24.56c.05-.4.12-.79.2-1.17a14.5,14.5,0,0,0-.88,3.31,9.49,9.49,0,0,0,2.37,7.81c.1.12.21.23.32.34l2.07.55C20.76,35.1,20.45,34.8,20.17,34.48Z"/><path class="cls-9" d="M43.85,38.16h1.22a7.17,7.17,0,0,1-1-.32Z"/><path class="cls-9" d="M42.88,37.21l-.06,0a5.06,5.06,0,0,1-.42.58c-.12.13-.25.25-.38.37h.08A4.82,4.82,0,0,0,42.88,37.21Z"/><path class="cls-9" d="M15,26.52a15.94,15.94,0,0,1,5.52-9.9l.27-.3A17,17,0,0,0,14.74,27a11.81,11.81,0,0,0,1.07,6.84l1,.33A10.82,10.82,0,0,1,15,26.52Z"/><path class="cls-10" d="M53,7.51l-.33.34.49.22.58-.54Z"/><path class="cls-10" d="M16.32,26.7a14.5,14.5,0,0,1,.88-3.31,15.24,15.24,0,0,1,3.33-6.77A15.94,15.94,0,0,0,15,26.52a10.82,10.82,0,0,0,1.76,7.66c.73.23,1.47.45,2.24.67-.11-.11-.22-.22-.32-.34A9.49,9.49,0,0,1,16.32,26.7Z"/><path class="cls-10" d="M42.88,37.21a4.82,4.82,0,0,1-.78.91l1.75,0,.2-.31A6,6,0,0,1,42.88,37.21Z"/><path class="cls-9" d="M21.91,31.48a8.77,8.77,0,0,1-2.14-7.2,12.13,12.13,0,0,1,3.52-6.84,12,12,0,0,1,1.27-2.62,13.88,13.88,0,0,0-5.87,9.48,8.77,8.77,0,0,0,2.2,7.22c2.4,2.74,6.63,4.59,11.08,4.94C27.81,35.79,24.08,34,21.91,31.48Z"/><path class="cls-9" d="M17.37,24.13c.72-5.52,4.33-9.39,9-12l.23-.34a22.08,22.08,0,0,0-5.84,4.58l-.27.3a15.24,15.24,0,0,0-3.33,6.77c-.08.38-.15.77-.2,1.17a11.17,11.17,0,0,0,1.63,7.52,10.92,10.92,0,0,0,1.14,1.54,14.42,14.42,0,0,0,2.23,2c1.26.3,2.57.57,3.91.82a15.57,15.57,0,0,1-6-4.05A10.19,10.19,0,0,1,17.37,24.13Z"/><path class="cls-9" d="M42.43,37.25l.24-.18a6,6,0,0,1-1.18-1.18h-.27l-.06,0a6.35,6.35,0,0,1-1.75,1,16,16,0,0,1-3.86.87c1.79.15,3.62.27,5.49.34l.45-.23A6.33,6.33,0,0,0,42.43,37.25Z"/><path class="cls-9" d="M49.21,6.45h-.13l1.34.47.5,0-.13.13c.62.24,1.24.5,1.84.77L53,7.51l.4-.38.56-.55-3.52-.1H50Z"/><path class="cls-10" d="M50.42,6.93l.37.15L50.92,7Z"/><path class="cls-10" d="M39.41,36.88a6.35,6.35,0,0,0,1.75-1,18.33,18.33,0,0,1-5.64.84,22,22,0,0,1-3.55-.3c-4.45-.35-8.68-2.2-11.08-4.94a8.77,8.77,0,0,1-2.2-7.22,13.88,13.88,0,0,1,5.87-9.48,13.52,13.52,0,0,1,1.17-1.59,13.35,13.35,0,0,1,.68-1.15c-4.71,2.66-8.32,6.53-9,12a10.19,10.19,0,0,0,2.52,8.27,15.57,15.57,0,0,0,6,4.05c3,.56,6.26,1,9.64,1.3A16,16,0,0,0,39.41,36.88Z"/><path class="cls-9" d="M23.1,29.5a11.92,11.92,0,0,0,4.37,3,17.81,17.81,0,0,1-1.65-1.94,8.45,8.45,0,0,1-1.39-1.24A5.51,5.51,0,0,1,23,26a7.14,7.14,0,0,1-.16-2.17,13.32,13.32,0,0,1-.23-2.16c0-.26,0-.5,0-.75a9.39,9.39,0,0,0-1.15,3.3A6.43,6.43,0,0,0,23.1,29.5Z"/><path class="cls-9" d="M38.92,35.5a6.34,6.34,0,0,1-5.29.77,13.34,13.34,0,0,1-3.21-1.46,15.34,15.34,0,0,1-8.32-4.44A7.83,7.83,0,0,1,20.19,24a11.09,11.09,0,0,1,2.92-6c.05-.19.12-.38.18-.56a12.13,12.13,0,0,0-3.52,6.84,8.77,8.77,0,0,0,2.14,7.2c2.17,2.51,5.9,4.31,10.06,5a22,22,0,0,0,3.55.3,18.33,18.33,0,0,0,5.64-.84l.06,0h0A7.17,7.17,0,0,1,38.92,35.5Z"/><path class="cls-10" d="M28.64,33.57c-.41-.34-.8-.71-1.17-1.08a11.92,11.92,0,0,1-4.37-3,6.43,6.43,0,0,1-1.6-5.33,9.39,9.39,0,0,1,1.15-3.3A11.87,11.87,0,0,1,23.11,18a11.09,11.09,0,0,0-2.92,6,7.83,7.83,0,0,0,1.91,6.4,15.34,15.34,0,0,0,8.32,4.44,16.24,16.24,0,0,1-1.78-1.24Z"/><path class="cls-9" d="M28.56,29.31l-.49-.56.34.48Z"/><path class="cls-9" d="M36.71,31.13a3.45,3.45,0,0,0,1,0L37.39,31c-.36,0-.72-.08-1.08-.13Z"/><path class="cls-9" d="M34.52,33.53a4.52,4.52,0,0,0,.47.11,14.18,14.18,0,0,1-3.57-1.78l-.4-.13A11.12,11.12,0,0,0,34.52,33.53Z"/><path class="cls-9" d="M23,26a7.51,7.51,0,0,0,1.65,3.25,9.88,9.88,0,0,0,.72.73,16.13,16.13,0,0,1-2.53-6.15A7.14,7.14,0,0,0,23,26Z"/><path class="cls-10" d="M30.49,31.33h0c.17.15.35.27.53.4l.4.13c-.36-.25-.72-.52-1.07-.8h0a18.49,18.49,0,0,1-1.79-1.75l-.15-.08A14.74,14.74,0,0,0,30.49,31.33Z"/><path class="cls-9" d="M29.46,18.89c0,.05,0,.1,0,.15a11.14,11.14,0,0,0,.39,2.69A5.75,5.75,0,0,1,30,21a11.56,11.56,0,0,1-.34-2.45A3.81,3.81,0,0,0,29.46,18.89Z"/><path class="cls-9" d="M32.67,27.28c.27.11.53.21.81.3a16.55,16.55,0,0,1-1.09-1.41,8.65,8.65,0,0,1-.84-.54A17.74,17.74,0,0,0,32.67,27.28Z"/><path class="cls-9" d="M35.51,30.24h0c.26.21.52.41.79.6s.72.1,1.08.13a14.37,14.37,0,0,1-1.73-1.23l-.35-.31c-.31-.05-.6-.13-.9-.2C34.76,29.58,35.13,29.92,35.51,30.24Z"/><path class="cls-10" d="M34.41,29.23c.3.07.59.15.9.2a17.75,17.75,0,0,1-1.83-1.85c-.28-.09-.54-.19-.81-.3A18.8,18.8,0,0,0,34.41,29.23Z"/><path class="cls-10" d="M29.46,18.89a3.81,3.81,0,0,1,.24-.32c0-.11,0-.21,0-.32a11.11,11.11,0,0,1,.13-1.64A8.11,8.11,0,0,0,29.46,18.89Z"/><path class="cls-10" d="M45.11,23.82c0,.18.08.36.11.54l.29-.34Z"/><path class="cls-9" d="M77.21,16a10.84,10.84,0,0,1,.63,1.28,10.53,10.53,0,0,1,1.83,5.84,13.64,13.64,0,0,1-5.46,10.53h0a13.26,13.26,0,0,1-1.16.8c1.27-.39,2.49-.8,3.62-1.24A13.89,13.89,0,0,0,80.47,24,11.64,11.64,0,0,0,77.21,16Z"/><path class="cls-9" d="M65.47,36.35,67,36a4.27,4.27,0,0,1-.48-.13C66.15,36.07,65.81,36.22,65.47,36.35Z"/><path class="cls-9" d="M72.86,32.94h0a11,11,0,0,1-4,2l-.46.09-.27.09a4.36,4.36,0,0,0,1-.15,11.63,11.63,0,0,0,4.25-2.12,12.83,12.83,0,0,0,5.05-9.06,14.39,14.39,0,0,1-3.3,6.79A13.23,13.23,0,0,1,72.86,32.94Z"/><path class="cls-10" d="M74.21,33.69a13.64,13.64,0,0,0,5.46-10.53,10.53,10.53,0,0,0-1.83-5.84,11.28,11.28,0,0,1,.88,4.27,11.58,11.58,0,0,1-.21,2.18,12.83,12.83,0,0,1-5.05,9.06A11.63,11.63,0,0,1,69.21,35a4.36,4.36,0,0,1-1,.15l-.08,0-.17,0c-.47.27-1,.53-1.43.75A4.27,4.27,0,0,0,67,36c2.16-.45,4.2-1,6.09-1.55a13.26,13.26,0,0,0,1.16-.8Z"/><path class="cls-9" d="M49.42,18.79c.25.14.49.29.73.44l.1-.08c-.22-.15-.46-.29-.69-.43Z"/><path class="cls-9" d="M73.36,13.34c-5-4.61-11.14-4.88-16.6-3.62.13,0,.26.12.39.18a19,19,0,0,1,5.83.17A15.89,15.89,0,0,1,72.81,14a10.24,10.24,0,0,1,3.62,7.62,11.71,11.71,0,0,1-.3,2.8,10.85,10.85,0,0,0,.67-3.73A10,10,0,0,0,73.36,13.34Z"/><path class="cls-9" d="M47.31,19.88c.45.25.87.52,1.28.79.25-.24.49-.48.75-.71-.34-.21-.69-.42-1-.61C48,19.52,47.63,19.7,47.31,19.88Z"/><path class="cls-9" d="M56.93,25.21l.14.15c0-.07.1-.14.14-.21L57.07,25A1.64,1.64,0,0,1,56.93,25.21Z"/><path class="cls-9" d="M55,9C61.4,7.28,68.5,7.46,74.09,12.6a11,11,0,0,1,3.83,8.17,13.59,13.59,0,0,1-5.25,10.35,18.33,18.33,0,0,1-4.76,4l.17,0,.08,0,.27-.09A13.54,13.54,0,0,0,73,32.69h0a16.08,16.08,0,0,0,2.23-2.13,14.39,14.39,0,0,0,3.3-6.79,11.58,11.58,0,0,0,.21-2.18,11.28,11.28,0,0,0-.88-4.27A10.84,10.84,0,0,0,77.21,16a13.33,13.33,0,0,0-2.6-3.24c-5.75-5.28-13-5.59-19.5-3.92l-.24.06Z"/><path class="cls-9" d="M55.42,27l0,.05,0,0a10.37,10.37,0,0,0,.9-.84l-.1-.12A10.39,10.39,0,0,1,55.42,27Z"/><path class="cls-10" d="M77.92,20.77a11,11,0,0,0-3.83-8.17C68.5,7.46,61.4,7.28,55,9l.3.16c.49.17,1,.35,1.45.55,5.46-1.26,11.58-1,16.6,3.62a10,10,0,0,1,3.44,7.35,10.85,10.85,0,0,1-.67,3.73,16.08,16.08,0,0,1-3.46,6.7A13.59,13.59,0,0,0,77.92,20.77Z"/><path class="cls-10" d="M48.3,19.35c.35.19.7.4,1,.61.26-.24.53-.49.81-.73-.24-.15-.48-.3-.73-.44C49,19,48.66,19.16,48.3,19.35Z"/><path class="cls-10" d="M56.29,26.06l.1.12a8.44,8.44,0,0,0,.68-.82l-.14-.15A9.94,9.94,0,0,1,56.29,26.06Z"/><path class="cls-9" d="M55.7,33.33c.11.11.22.23.33.33.43-.22.85-.46,1.25-.71L57,32.64A14.09,14.09,0,0,1,55.7,33.33Z"/><path class="cls-9" d="M36.11,21.74h0c-.08-.2-.15-.4-.22-.6l-.07.05C35.92,21.37,36,21.56,36.11,21.74Z"/><path class="cls-9" d="M68.5,31.7c3.76-2.89,6.14-7.2,6.08-11a8.2,8.2,0,0,0-2.93-6.16,13.27,13.27,0,0,0-2.42-1.7c.26.21.53.42.79.65a9.86,9.86,0,0,1,3.22,5.62,7.18,7.18,0,0,1,.39,2.28c.07,3.55-2.21,7.63-5.79,10.39h0l-.39.28-.18.47A14.33,14.33,0,0,0,68.5,31.7Z"/><path class="cls-9" d="M45,23.23c.05.19.09.39.14.59l.4.2.37-.43A6.63,6.63,0,0,0,45,23.23Z"/><path class="cls-9" d="M67.91,35.16a18.33,18.33,0,0,0,4.76-4,16.08,16.08,0,0,0,3.46-6.7,11.71,11.71,0,0,0,.3-2.8A10.24,10.24,0,0,0,72.81,14,15.89,15.89,0,0,0,63,10.07c.11,0,.23,0,.34.06a15,15,0,0,1,9.05,3.69,9.39,9.39,0,0,1,3.33,7c.07,4.06-2.46,8.67-6.45,11.75a16.33,16.33,0,0,1-2.9,1.79,14.11,14.11,0,0,1-1.6,2.13l.72-.13c.34-.13.68-.28,1-.44S67.44,35.43,67.91,35.16Z"/><path class="cls-10" d="M57,32.64l.31.31c.12-.07.25-.14.36-.22-.12-.09-.25-.17-.37-.27Z"/><path class="cls-10" d="M69.23,12.87a13.27,13.27,0,0,1,2.42,1.7,8.2,8.2,0,0,1,2.93,6.16c.06,3.77-2.32,8.08-6.08,11a14.33,14.33,0,0,1-1.23.86A14.71,14.71,0,0,1,66.58,34c-.07.11-.16.22-.23.34a16.33,16.33,0,0,0,2.9-1.79c4-3.08,6.52-7.69,6.45-11.75a9.39,9.39,0,0,0-3.33-7,15,15,0,0,0-9.05-3.69A14.42,14.42,0,0,1,69.23,12.87Z"/><path class="cls-9" d="M68.82,14.17a13.19,13.19,0,0,0-9.63-3.24c.5.29,1,.59,1.47.92a11.91,11.91,0,0,1,7.47,2.83,7.61,7.61,0,0,1,2.72,5.66,11.59,11.59,0,0,1-2.67,7.07c0,.06,0,.11,0,.16a11.6,11.6,0,0,0,3.32-7.69A7.58,7.58,0,0,0,68.82,14.17Z"/><path class="cls-9" d="M57.15,9.9a1.59,1.59,0,0,1,.27.12c4.33-.49,8.65.29,12.13,3.4A8.8,8.8,0,0,1,72.63,20a12.79,12.79,0,0,1-4.5,9.29,12.19,12.19,0,0,1-.43,2.08c3.57-2.76,5.76-6.84,5.7-10.65a9.68,9.68,0,0,0-.16-1.54A9.86,9.86,0,0,0,70,13.52c-.26-.23-.53-.44-.79-.65a14.42,14.42,0,0,0-5.91-2.74c-.11,0-.23,0-.34-.06A19,19,0,0,0,57.15,9.9Z"/><path class="cls-9" d="M55.42,27l-.22.2.06.06.23-.19,0,0Z"/><path class="cls-9" d="M47.31,19.88l0,0-.12.07c.46.26.89.53,1.32.81a.57.57,0,0,0,.11-.11C48.18,20.4,47.76,20.13,47.31,19.88Z"/><path class="cls-9" d="M44.07,14.88l-.11,0a4.9,4.9,0,0,0-1.49.91l-.07.08,0,.05C43,15.56,43.5,15.22,44.07,14.88Z"/><path class="cls-9" d="M47.23,15.5a13,13,0,0,0-1.3-.33c-1.18.65-2.19,1.28-3,1.8.12.28.25.56.37.85A41.44,41.44,0,0,1,47.23,15.5Z"/><path class="cls-9" d="M57.27,32.46c.12.1.25.18.37.27s.12-.09.18-.13l-.49-.17Z"/><path class="cls-10" d="M72.63,20a8.8,8.8,0,0,0-3.08-6.54c-3.48-3.11-7.8-3.89-12.13-3.4.6.27,1.19.58,1.77.91a13.19,13.19,0,0,1,9.63,3.24,7.58,7.58,0,0,1,2.69,5.71,11.6,11.6,0,0,1-3.32,7.69,13.34,13.34,0,0,1-.06,1.68A12.79,12.79,0,0,0,72.63,20Z"/><path class="cls-10" d="M55.1,27.23l.06.06.1-.08-.06-.06Z"/><path class="cls-10" d="M47.16,20l-.75.45a15.22,15.22,0,0,1,1.68.75l.39-.39C48.05,20.5,47.62,20.23,47.16,20Z"/><path class="cls-10" d="M45.93,15.17a18.49,18.49,0,0,0-1.86-.29c-.57.34-1.12.68-1.64,1,.18.36.35.71.51,1.07C43.74,16.45,44.75,15.82,45.93,15.17Z"/><path class="cls-9" d="M67,15.45a9.17,9.17,0,0,0-4.45-2.1q.39.35.75.72a9.43,9.43,0,0,1,2.26,1.43,6.67,6.67,0,0,1,1.51,1.83,4.63,4.63,0,0,1,1,2.74l0,0h0s0,0,0,0a6.83,6.83,0,0,1-.38,2.26,13.63,13.63,0,0,1,.19,1.41A8.71,8.71,0,0,0,69,19.65,5.58,5.58,0,0,0,67,15.45Z"/><path class="cls-9" d="M47.73,15.66l-.5-.16a41.44,41.44,0,0,0-3.92,2.32l.15.41A43.38,43.38,0,0,1,47.73,15.66Z"/><path class="cls-9" d="M68.13,14.68a11.91,11.91,0,0,0-7.47-2.83l.33.23a10.89,10.89,0,0,1,6.7,2.61,6.73,6.73,0,0,1,2.42,5A10.54,10.54,0,0,1,68,25.79a12.72,12.72,0,0,1,.17,1.62,11.59,11.59,0,0,0,2.67-7.07A7.61,7.61,0,0,0,68.13,14.68Z"/><path class="cls-9" d="M58.74,31.43c-.44.35-.92.68-1.41,1l.49.17a13.94,13.94,0,0,0,1.47-1.13A4.91,4.91,0,0,1,58.74,31.43Z"/><path class="cls-9" d="M54.86,27.45s0,0,0,0l.28-.19-.06-.06Z"/><path class="cls-9" d="M46.41,20.42l-.21.13a14.55,14.55,0,0,1,1.74.78l.15-.16A15.22,15.22,0,0,0,46.41,20.42Z"/><path class="cls-10" d="M67.69,14.69A10.89,10.89,0,0,0,61,12.08a17,17,0,0,1,1.54,1.27A9.17,9.17,0,0,1,67,15.45a5.58,5.58,0,0,1,2,4.2,8.71,8.71,0,0,1-1.13,4.18,11.89,11.89,0,0,1,0,1.33c0,.21.08.42.11.63a10.54,10.54,0,0,0,2.1-6.07A6.73,6.73,0,0,0,67.69,14.69Z"/><path class="cls-10" d="M59.11,31.25l-.21.06-.16.12a4.91,4.91,0,0,0,.55,0c.21-.18.42-.36.61-.55C59.64,31,59.38,31.15,59.11,31.25Z"/><path class="cls-10" d="M54.77,27.53v0l.1-.07s0,0,0,0Z"/><path class="cls-10" d="M46.2,20.55l-.29.18a13.39,13.39,0,0,1,1.88.75l.15-.15A14.55,14.55,0,0,0,46.2,20.55Z"/><path class="cls-10" d="M45.47,17.69c.92-.55,2-1.14,3.1-1.7q-.41-.18-.84-.33a43.38,43.38,0,0,0-4.27,2.57c.08.19.15.37.22.56C44.2,18.45,44.8,18.08,45.47,17.69Z"/><path class="cls-9" d="M62.7,26.2v0s0,0,0,.05Z"/><path class="cls-9" d="M58.9,31.31l.21-.06c.27-.1.53-.21.79-.33a10.66,10.66,0,0,0,1.94-2.47l0-.07-.58.4A13.56,13.56,0,0,1,58.9,31.31Z"/><path class="cls-9" d="M67.83,20.14l-.76.06v.05c.08.23.17.46.24.7q.18.59.3,1.17a7.52,7.52,0,0,0,.23-1.92S67.83,20.16,67.83,20.14Z"/><path class="cls-9" d="M65.12,15.59a5.48,5.48,0,0,1,1.95,3.63l.74.65a6.2,6.2,0,0,0-.76-2.54,6.67,6.67,0,0,0-1.51-1.83,9.43,9.43,0,0,0-2.26-1.43c.2.2.39.42.58.63A8.23,8.23,0,0,1,65.12,15.59Z"/><path class="cls-9" d="M45.47,17.69A34.33,34.33,0,0,1,48.69,16l-.12,0C47.43,16.55,46.39,17.14,45.47,17.69Z"/><path class="cls-9" d="M54.67,27.6h0l.08-.06v0Z"/><path class="cls-9" d="M45.91,20.73l.29-.18.21-.13.75-.45.12-.07c-.51.29-1,.57-1.45.85a10.92,10.92,0,0,1,1.86.84l.1-.11A13.39,13.39,0,0,0,45.91,20.73Z"/><path class="cls-10" d="M67.05,20.2s0,0,0,.05V20.2Z"/><path class="cls-10" d="M65.12,15.59a8.23,8.23,0,0,0-1.26-.89,16.54,16.54,0,0,1,2,2.78l.72.64-.37,0c.09.17.17.33.25.51l.64.55A5.48,5.48,0,0,0,65.12,15.59Z"/><path class="cls-10" d="M62,27.66a11.4,11.4,0,0,1-.74,1.12l.58-.4a8.08,8.08,0,0,0,.83-2.18h0A12.48,12.48,0,0,1,62,27.66Z"/><path class="cls-9" d="M44.64,21.89c.12.45.23.9.33,1.34a6.63,6.63,0,0,1,.91.36c.27-.31.54-.63.82-.94A9.26,9.26,0,0,0,44.64,21.89Z"/><path class="cls-9" d="M45.83,20.75c.45-.28.94-.56,1.45-.85l0,0c.32-.18.65-.36,1-.53s.74-.38,1.12-.56l.14-.07c.56-.26,1.14-.51,1.73-.74a6,6,0,0,0-.9-.92,34.27,34.27,0,0,0-6.16,3.37l.09.31a10.46,10.46,0,0,1,3.11,1.12l.26-.27A10.92,10.92,0,0,0,45.83,20.75Z"/><path class="cls-9" d="M54.29,27.87h0l.39-.27h0C54.55,27.7,54.42,27.78,54.29,27.87Z"/><path class="cls-9" d="M49.25,16.31c-.18-.09-.37-.19-.56-.27a34.33,34.33,0,0,0-3.22,1.65c-.67.39-1.27.76-1.79,1.1l.18.52A34,34,0,0,1,49.25,16.31Z"/><path class="cls-10" d="M50.39,17.06a7.75,7.75,0,0,0-1.14-.75,34,34,0,0,0-5.39,3c.13.37.25.75.37,1.12A34.27,34.27,0,0,1,50.39,17.06Z"/><path class="cls-10" d="M54.05,28l.26-.16h0Z"/><path class="cls-10" d="M44.32,20.74c.11.39.22.77.32,1.15a9.26,9.26,0,0,1,2.06.76c.24-.26.48-.53.73-.79A10.46,10.46,0,0,0,44.32,20.74Z"/><path class="cls-9" d="M45.3,35.23c-.11-.19-.21-.38-.31-.58l-.4.25A3.85,3.85,0,0,0,45.3,35.23Z"/><path class="cls-9" d="M64.94,32.9a16.44,16.44,0,0,1-6,4.46l1.24-.16A13.62,13.62,0,0,0,64.94,32.9Z"/><path class="cls-9" d="M66.35,34.35c.07-.12.16-.23.23-.34a14.71,14.71,0,0,0,.69-1.45l.18-.47c.09-.25.18-.5.25-.76a12.19,12.19,0,0,0,.43-2.08,13.34,13.34,0,0,0,.06-1.68c0-.05,0-.1,0-.16A12.72,12.72,0,0,0,68,25.79c0-.21-.06-.42-.11-.63a12.14,12.14,0,0,1-.12,1.47,11.39,11.39,0,0,1-1.48,6.25,14,14,0,0,1-3.45,3.93l1.9-.33A14.11,14.11,0,0,0,66.35,34.35Z"/><path class="cls-10" d="M66.3,32.88a11.39,11.39,0,0,0,1.48-6.25A12.23,12.23,0,0,1,66.29,31a13.29,13.29,0,0,1-1.35,1.92,13.62,13.62,0,0,1-4.72,4.3c.89-.12,1.76-.25,2.63-.39A14,14,0,0,0,66.3,32.88Z"/><path class="cls-9" d="M48.71,35.1a5,5,0,0,0,.78.45l.23,0a3.81,3.81,0,0,1-.88-.44Z"/><path class="cls-9" d="M45.11,23.82c0-.2-.09-.4-.14-.59-.1-.44-.21-.89-.33-1.34s-.21-.76-.32-1.15l-.09-.31c-.12-.37-.24-.75-.37-1.12l-.18-.52c-.07-.19-.14-.37-.22-.56l-.15-.41c-.12-.29-.25-.57-.37-.85s-.33-.71-.51-1.07l0-.05a1.31,1.31,0,0,0-.11.12,35.05,35.05,0,0,1,2.62,8.15l.29.27s0,0,0,0C45.19,24.18,45.15,24,45.11,23.82Z"/><path class="cls-9" d="M65.06,29.25a10.41,10.41,0,0,0,.84-8.39,4.93,4.93,0,0,0-.19-.54l-.95.08c.1.27.21.54.3.82a10.65,10.65,0,0,1-.83,8.72,12.83,12.83,0,0,1-1.77,2.44A12.26,12.26,0,0,0,65.06,29.25Z"/><path class="cls-9" d="M65.83,17.48a16.54,16.54,0,0,0-2-2.78c-.19-.21-.38-.43-.58-.63s-.49-.49-.75-.72A17,17,0,0,0,61,12.08l-.33-.23c-.47-.33-1-.63-1.47-.92S58,10.29,57.42,10a1.59,1.59,0,0,0-.27-.12c-.13-.06-.26-.13-.39-.18-.48-.2-1-.38-1.45-.55l.35.19a18.28,18.28,0,0,1,9.19,6.74h0c.25.36.48.74.7,1.13Z"/><path class="cls-9" d="M66,18.17c0,.08.07.17.11.24l.28.26c-.08-.18-.16-.34-.25-.51Z"/><path class="cls-9" d="M45.3,35.23a3.26,3.26,0,0,0,.73.21,10.86,10.86,0,0,0,1.53.15,6.52,6.52,0,0,1-.5-.55c-.37,0-.74-.08-1.1-.15a6.59,6.59,0,0,1-1-.25h0C45.09,34.85,45.19,35,45.3,35.23Z"/><path class="cls-9" d="M64.94,32.9A13.29,13.29,0,0,0,66.29,31a12.27,12.27,0,0,0,1.61-5.82,11.89,11.89,0,0,0,0-1.33,13.63,13.63,0,0,0-.19-1.41l-.06-.3q-.12-.59-.3-1.17c-.07-.24-.16-.47-.24-.7,0,0,0,0,0-.05l-.2,0c0,.1.07.2.11.3A11.62,11.62,0,0,1,66,29.86,15.46,15.46,0,0,1,55.8,37a20.48,20.48,0,0,1-3,1c2.12-.13,4.19-.33,6.2-.57A16.44,16.44,0,0,0,64.94,32.9Z"/><path class="cls-9" d="M39.31,15a2.53,2.53,0,0,1,.13.22c.1-.16.2-.32.31-.48h-.09C39.55,14.8,39.42,14.87,39.31,15Z"/><path class="cls-9" d="M41.62,17.17a3,3,0,0,0-.12.82,7.94,7.94,0,0,0,1.92,4.57A31.58,31.58,0,0,0,41.62,17.17Z"/><path class="cls-10" d="M47.06,35a6.52,6.52,0,0,0,.5.55,15.66,15.66,0,0,0,1.93,0,5,5,0,0,1-.78-.45A15,15,0,0,1,47.06,35Z"/><path class="cls-10" d="M42.29,16a2.7,2.7,0,0,0-.67,1.2,31.58,31.58,0,0,1,1.8,5.39,11.5,11.5,0,0,0,1.49,1.56A35.05,35.05,0,0,0,42.29,16Z"/><path class="cls-10" d="M65.89,18.19l.26.22c0-.07-.07-.16-.11-.24Z"/><path class="cls-10" d="M64.85,16.11l-.49.08,1.19,1C65.33,16.85,65.1,16.47,64.85,16.11Z"/><path class="cls-10" d="M55.66,9.36a42.2,42.2,0,0,1,6.4,4.29l.55.47,2.24,2A18.28,18.28,0,0,0,55.66,9.36Z"/><path class="cls-10" d="M65.71,20.32a4.93,4.93,0,0,1,.19.54,10.41,10.41,0,0,1-.84,8.39,12.26,12.26,0,0,1-2.6,3.13A18.3,18.3,0,0,1,55.8,37,15.46,15.46,0,0,0,66,29.86,11.62,11.62,0,0,0,67,20.52c0-.1-.08-.2-.11-.3Z"/><path class="cls-9" d="M35.1,17.33l.18.27a7.34,7.34,0,0,1,.08-.82l-.17-.17A5.67,5.67,0,0,0,35.1,17.33Z"/><path class="cls-9" d="M63.21,21.17a10,10,0,0,1-.5,5v0a8.08,8.08,0,0,1-.83,2.18l0,.07a10.66,10.66,0,0,1-1.94,2.47c-.19.19-.4.37-.61.55a13.94,13.94,0,0,1-1.47,1.13c-.06,0-.11.09-.18.13s-.24.15-.36.22c-.4.25-.82.49-1.25.71a18,18,0,0,1-4.91,1.67h0a13.48,13.48,0,0,1-1.4.2l-.23,0a15.66,15.66,0,0,1-1.93,0A10.86,10.86,0,0,1,46,35.44a3.26,3.26,0,0,1-.73-.21,3.85,3.85,0,0,1-.71-.33l-.07,0a5,5,0,0,0,1.88.72,15.31,15.31,0,0,0,5.38-.12c4.89-.92,9.31-3.78,11.27-7.28a8.56,8.56,0,0,0,.67-7.06s0,0,0,0Z"/><path class="cls-9" d="M62.46,32.38a12.83,12.83,0,0,0,1.77-2.44,10.65,10.65,0,0,0,.83-8.72c-.09-.28-.2-.55-.3-.82h-.15c0,.14.11.28.16.43a9.79,9.79,0,0,1-.77,8c-2.1,3.78-6.82,6.86-12,7.83a16.45,16.45,0,0,1-5.75.12,5.66,5.66,0,0,1-2.86-1.3,6.24,6.24,0,0,1-1.89.39,6,6,0,0,0,1.18,1.18l.15.1.06,0a6,6,0,0,0,1.17.64,7.17,7.17,0,0,0,1,.32h.34q3.77,0,7.37-.24a20.48,20.48,0,0,0,3-1A18.3,18.3,0,0,0,62.46,32.38Z"/><path class="cls-10" d="M41.89,33a3.63,3.63,0,0,0,.54-.15c0-.05-.09-.11-.14-.17h-.1Z"/><path class="cls-10" d="M64,20.49l.71.61h-.07l0,0-1,0s0,0,0,0a8.56,8.56,0,0,1-.67,7.06c-2,3.5-6.38,6.36-11.27,7.28a15.31,15.31,0,0,1-5.38.12,5,5,0,0,1-1.88-.72,7.52,7.52,0,0,1-1.14.56,5.66,5.66,0,0,0,2.86,1.3A16.45,16.45,0,0,0,52,36.68c5.19-1,9.91-4,12-7.83a9.79,9.79,0,0,0,.77-8c0-.15-.11-.29-.16-.43Z"/><path class="cls-9" d="M59.93,26.15A13.94,13.94,0,0,1,52.42,32a13.71,13.71,0,0,0,8.35-6,7.89,7.89,0,0,0,1-4.83h-.9A7.91,7.91,0,0,1,59.93,26.15Z"/><path class="cls-9" d="M46,34.89c.36.07.73.11,1.1.15a15,15,0,0,0,1.65.06h.13a16.6,16.6,0,0,0,2.4-.26,17.36,17.36,0,0,0,4.46-1.5A14.09,14.09,0,0,0,57,32.64l.3-.18.06,0c.49-.32,1-.65,1.41-1l.16-.12a13.56,13.56,0,0,0,2.39-2.53A11.4,11.4,0,0,0,62,27.66a12.48,12.48,0,0,0,.66-1.45s0,0,0-.05a10,10,0,0,0,.5-5h-.33a9.15,9.15,0,0,1-1.15,5.46C59.85,30,55.93,32.57,51.5,33.4h0a13.55,13.55,0,0,1-5,.06h0A13.25,13.25,0,0,1,45,34.64,6.59,6.59,0,0,0,46,34.89Z"/><path class="cls-9" d="M39.31,15l0,0a1.09,1.09,0,0,0-.1.11l.16.27.09-.18A2.53,2.53,0,0,0,39.31,15Z"/><path class="cls-9" d="M42.93,32.63c-.21,0-.42,0-.64,0,.05.06.09.12.14.17A5.32,5.32,0,0,0,42.93,32.63Z"/><path class="cls-10" d="M39.19,15.1a3.23,3.23,0,0,0-.46.52l.32.45a4.76,4.76,0,0,1,.3-.7Z"/><path class="cls-10" d="M46.51,33.46a13.55,13.55,0,0,0,5-.06h0c4.43-.83,8.35-3.43,10.23-6.77a9.15,9.15,0,0,0,1.15-5.46l-1.1,0a7.89,7.89,0,0,1-1,4.83,13.71,13.71,0,0,1-8.35,6,18.36,18.36,0,0,1-2.75.77A15.74,15.74,0,0,1,46.9,33c-.14.15-.29.28-.44.42Z"/><path class="cls-9" d="M49.68,30.29c4-.74,7.48-3,9-5.65a5.86,5.86,0,0,0,.77-3c-.43.18-.85.37-1.25.58a5,5,0,0,1-.63,2.43c-.09.16-.21.31-.32.47s-.09.14-.14.21a8.44,8.44,0,0,1-.68.82,10.37,10.37,0,0,1-.9.84l-.23.19-.1.08-.28.19-.1.07-.08.06-.39.27-.26.16a15.78,15.78,0,0,1-4.63,2.16l-.12.15.38-.06Z"/><path class="cls-9" d="M38.6,15.84l.35.51c0-.09.06-.19.1-.28l-.32-.45C38.68,15.69,38.65,15.77,38.6,15.84Z"/><path class="cls-9" d="M49.67,32.76A18.36,18.36,0,0,0,52.42,32a13.94,13.94,0,0,0,7.51-5.84,7.91,7.91,0,0,0,1-4.94h0l-.29,0-.1,0a7.07,7.07,0,0,1-.89,4c-1.63,3-5.44,5.4-9.7,6.2h0a14.6,14.6,0,0,1-1.7.21c-.43.49-.86,1-1.3,1.39A15.74,15.74,0,0,0,49.67,32.76Z"/><path class="cls-10" d="M49.9,31.43c4.26-.8,8.07-3.23,9.7-6.2a7.07,7.07,0,0,0,.89-4c-.37.12-.73.25-1.08.4a5.86,5.86,0,0,1-.77,3c-1.48,2.69-5,4.91-9,5.65h0l-.38.06c-.37.44-.73.87-1.1,1.29a14.6,14.6,0,0,0,1.7-.21Z"/><path class="cls-10" d="M38.48,16.05l.4.57a2.68,2.68,0,0,1,.07-.27l-.35-.51Z"/><path class="cls-9" d="M55.49,23.94A24,24,0,0,0,53,26.19,9.52,9.52,0,0,0,55.49,23.94Z"/><path class="cls-9" d="M54.05,28l.24-.17c.13-.09.26-.17.38-.27l.1-.07.09-.08.24-.22.1-.08.22-.2a10.39,10.39,0,0,0,.87-.89,9.94,9.94,0,0,0,.64-.85,1.64,1.64,0,0,0,.14-.22c.08-.12.18-.24.25-.37a6.8,6.8,0,0,0,.77-2.33c-.23.11-.45.23-.66.35a5.68,5.68,0,0,1-.49,1.14,11.49,11.49,0,0,1-6.12,4.76c-.39.45-.76.9-1.13,1.35l-.27.31A15.78,15.78,0,0,0,54.05,28Z"/><path class="cls-9" d="M38.4,16.18c.15.23.29.45.42.67a2,2,0,0,1,.06-.23l-.4-.57A1.48,1.48,0,0,1,38.4,16.18Z"/><path class="cls-10" d="M56.94,23.78a5.68,5.68,0,0,0,.49-1.14,17.72,17.72,0,0,0-1.94,1.3A9.52,9.52,0,0,1,53,26.19c-.75.77-1.46,1.56-2.13,2.35A11.49,11.49,0,0,0,56.94,23.78Z"/><path class="cls-9" d="M45.93,15.17a13,13,0,0,1,1.3.33l.5.16q.44.15.84.33l.12,0c.19.08.38.18.56.27a7.75,7.75,0,0,1,1.14.75,6,6,0,0,1,.9.92c.05.07.1.14.14.21l1-.75A7.07,7.07,0,0,0,49.53,15,8.9,8.9,0,0,0,44,14.86l.11,0A18.49,18.49,0,0,1,45.93,15.17Z"/><path class="cls-9" d="M53.64,16.69c-.18-.09-.36-.19-.54-.27a4.5,4.5,0,0,1,.3.42Z"/><path class="cls-9" d="M39.66,14.71h.09l.09-.13Z"/><path class="cls-9" d="M35.19,16.61l.17.17a6.7,6.7,0,0,1,.39-1.43s0,0,0,0A5.05,5.05,0,0,0,35.19,16.61Z"/><path class="cls-9" d="M38.25,16.65c.17.29.33.59.47.88a5.06,5.06,0,0,1,.1-.68c-.13-.22-.27-.44-.42-.67A3.68,3.68,0,0,0,38.25,16.65Z"/><path class="cls-9" d="M40.32,23.14a1.74,1.74,0,0,1-.11-.18V23Z"/><path class="cls-10" d="M52.47,17.44c.3-.2.61-.41.93-.6a4.5,4.5,0,0,0-.3-.42A22.43,22.43,0,0,0,49.53,15,7.07,7.07,0,0,1,52.47,17.44Z"/><path class="cls-10" d="M35.71,15.31s0,0,0,0c.08-.18.16-.36.25-.53A3,3,0,0,0,35.71,15.31Z"/><path class="cls-10" d="M38.08,17.75A9.23,9.23,0,0,0,40.22,23V23a9.56,9.56,0,0,1-1.52-4.85,5.49,5.49,0,0,1,0-.58c-.14-.29-.3-.59-.47-.88A3.9,3.9,0,0,0,38.08,17.75Z"/><path class="cls-9" d="M23.29,17.44c-.06.18-.13.37-.18.56a11.87,11.87,0,0,0-.46,2.87c0,.25,0,.49,0,.75a13.32,13.32,0,0,0,.23,2.16,16.13,16.13,0,0,0,2.53,6.15c.14.21.29.42.44.62a17.81,17.81,0,0,0,1.65,1.94c.37.37.76.74,1.17,1.08h0a16.24,16.24,0,0,0,1.78,1.24,13.34,13.34,0,0,0,3.21,1.46,6.34,6.34,0,0,0,5.29-.77h0A16.09,16.09,0,0,1,37,34.64a5.29,5.29,0,0,1-3.13,0,13.31,13.31,0,0,1-4.7-2.55h0a15.53,15.53,0,0,1-5.73-11.33,11.37,11.37,0,0,1,1.72-6.2,13.36,13.36,0,0,1,.6-1.34,13.52,13.52,0,0,0-1.17,1.59A12,12,0,0,0,23.29,17.44Z"/><path class="cls-9" d="M29.88,31.2a12.35,12.35,0,0,0,4.32,2.36,5.18,5.18,0,0,0,1.06.17c-.09,0-.18-.06-.27-.09a4.52,4.52,0,0,1-.47-.11,11.12,11.12,0,0,1-3.5-1.8c-.18-.13-.36-.25-.53-.4h0a14.74,14.74,0,0,1-2.08-2.1l-.34-.48a16.66,16.66,0,0,1-3.48-7.31A14.55,14.55,0,0,0,29.88,31.2Z"/><path class="cls-9" d="M40.65,33a3.69,3.69,0,0,0,1.24,0l.3-.32a6.19,6.19,0,0,1-.95-.08C41,32.72,40.85,32.86,40.65,33Z"/><path class="cls-10" d="M23.41,20.77A15.53,15.53,0,0,0,29.14,32.1h0a13.31,13.31,0,0,0,4.7,2.55,5.29,5.29,0,0,0,3.13,0,16.45,16.45,0,0,1-1.45-.84l-.18,0-.08,0a5.18,5.18,0,0,1-1.06-.17,12.35,12.35,0,0,1-4.32-2.36,14.55,14.55,0,0,1-5.29-9.76,14.33,14.33,0,0,1-.26-2.33,12.34,12.34,0,0,1,.8-4.54A11.37,11.37,0,0,0,23.41,20.77Z"/><path class="cls-9" d="M28.29,9.83A12.88,12.88,0,0,0,27,11.3l-.34.44-.23.34a12.41,12.41,0,0,0-1.28,2.49,12.34,12.34,0,0,0-.8,4.54,14.33,14.33,0,0,0,.26,2.33,16.66,16.66,0,0,0,3.48,7.31l.49.56a18.49,18.49,0,0,0,1.79,1.75h0c.35.28.71.55,1.07.8A14.18,14.18,0,0,0,35,33.64c.09,0,.18.07.27.09l.08,0,.18,0a19.12,19.12,0,0,1-1.85-1.33,21.06,21.06,0,0,1-3-3.08,15.47,15.47,0,0,1-5.51-11.13A11.59,11.59,0,0,1,28.8,9.63C39-.21,54.6,7.88,61.45,13.53L62,14l.9.8-.21,0c.32.25.64.5.94.75s.35.29.5.43l.25.21.49-.08h0l-2.24-2-.55-.47a42.2,42.2,0,0,0-6.4-4.29l-.35-.19L55,9l-.14-.07c-.57-.3-1.15-.59-1.75-.87l-.49-.22c-.6-.27-1.22-.53-1.84-.77l-.37-.15-1.34-.47c-.58-.2-1.17-.37-1.76-.54-6-1.62-12.47-1.48-17.79,2.82L29.21,9C28.9,9.26,28.59,9.53,28.29,9.83Z"/><path class="cls-9" d="M48.63,7.69c-6.09-2.17-13.38-2.78-19.07,2.74a10.4,10.4,0,0,0-3.31,7.76,12.26,12.26,0,0,0,.76,4,13,13,0,0,1-.37-3,10.7,10.7,0,0,1,3.48-8,14.93,14.93,0,0,1,9.81-4A20.14,20.14,0,0,1,48.63,7.69Z"/><path class="cls-9" d="M36.71,31.13l.13.08a4,4,0,0,0,.91,0l-.08-.05A3.45,3.45,0,0,1,36.71,31.13Z"/><path class="cls-9" d="M53.78,16.76a.61.61,0,0,0-.14-.07l-.24.15c-.32.19-.63.4-.93.6l-1,.75c-.4.31-.8.63-1.18,1l-.1.08c-.28.24-.55.49-.81.73s-.5.47-.75.71a.57.57,0,0,1-.11.11l-.39.39-.15.16-.15.15-.1.11-.26.27c-.25.26-.49.53-.73.79s-.55.63-.82.94l-.37.43-.29.34s0,0,0,0h0l.2.15A35.56,35.56,0,0,1,53.78,16.76Z"/><path class="cls-9" d="M38.51,32.18a10.73,10.73,0,0,0,1.41.61,4.14,4.14,0,0,0,.73.19c.2-.12.39-.26.59-.39a6.53,6.53,0,0,1-1-.25,11.09,11.09,0,0,1-1-.4A4.45,4.45,0,0,1,38.51,32.18Z"/><path class="cls-9" d="M47.88,25.37a30,30,0,0,1,8-7.41l-1-.58a32.84,32.84,0,0,0-8.61,7.81,8.46,8.46,0,0,0,1.18.63Z"/><path class="cls-10" d="M27,22.19a12.26,12.26,0,0,1-.76-4,10.4,10.4,0,0,1,3.31-7.76c5.69-5.52,13-4.91,19.07-2.74a41.43,41.43,0,0,1,14,7.11l.21,0L62,14l-.53-.44C54.6,7.88,39-.21,28.8,9.63a11.59,11.59,0,0,0-3.68,8.63,15.47,15.47,0,0,0,5.51,11.13A18.35,18.35,0,0,1,27,22.19Z"/><path class="cls-10" d="M36.84,31.21a13.6,13.6,0,0,0,1.67,1,4.45,4.45,0,0,0,.7-.24,13.35,13.35,0,0,1-1.46-.74A4,4,0,0,1,36.84,31.21Z"/><path class="cls-10" d="M54.93,17.38c-.38-.22-.76-.42-1.15-.62a35.56,35.56,0,0,0-8.37,7.79,8.85,8.85,0,0,0,.91.64A32.84,32.84,0,0,1,54.93,17.38Z"/><path class="cls-9" d="M67.83,20.14l.21,0h0l0,0-.23-.2-.74-.65-.64-.55-.28-.26-.26-.22-.47,0,.46.4-1.37.12-.86.11,1.54,1.34-1.42.08.23.2.61-.07h.15l.95-.08,1.14-.1.2,0h0Z"/><path class="cls-9" d="M44.52,34.94l.07,0,.4-.25h0a13.25,13.25,0,0,0,1.45-1.19c.15-.14.3-.27.44-.42.44-.43.87-.9,1.3-1.39s.73-.85,1.1-1.29l.12-.15.27-.31c.37-.45.74-.9,1.13-1.35.67-.79,1.38-1.58,2.13-2.35a24,24,0,0,1,2.54-2.25,17.72,17.72,0,0,1,1.94-1.3c.21-.12.43-.24.66-.35l.07,0c.4-.21.82-.4,1.25-.58s.71-.28,1.08-.4l.1,0a11,11,0,0,0-1.31.13c-2.91.56-4.49,2.43-6,4.25a9.67,9.67,0,0,1-3.45,3,6.73,6.73,0,0,1-1.68,1.16c-.26.22-.51.43-.78.62-2.43,2.74-4.81,4.66-8.27,3.46a16.3,16.3,0,0,1-5-2.88c-4.08-3.36-6.73-8.33-6.75-12.66A9.85,9.85,0,0,1,30.56,11a14.08,14.08,0,0,1,9-3.74l.33,0a14.93,14.93,0,0,0-9.81,4,10.7,10.7,0,0,0-3.48,8,13,13,0,0,0,.37,3,18.35,18.35,0,0,0,3.62,7.2,21.06,21.06,0,0,0,3,3.08,19.12,19.12,0,0,0,1.85,1.33,16.45,16.45,0,0,0,1.45.84,16.09,16.09,0,0,0,1.92.85h0a7.17,7.17,0,0,0,2.32.4h.25a6.24,6.24,0,0,0,1.89-.39A7.52,7.52,0,0,0,44.52,34.94Z"/><path class="cls-9" d="M31.3,11.78a8.56,8.56,0,0,0-2.81,6.51c0,4,2.51,8.65,6.35,11.82a15.49,15.49,0,0,0,4.65,2.69,4.48,4.48,0,0,0,3.66-.2,1.66,1.66,0,0,1-.22,0,5.32,5.32,0,0,1-.5.21,3.63,3.63,0,0,1-.54.15,3.69,3.69,0,0,1-1.24,0,4.14,4.14,0,0,1-.73-.19,10.73,10.73,0,0,1-1.41-.61,13.6,13.6,0,0,1-1.67-1l-.13-.08-.4-.29c-.27-.19-.53-.39-.79-.6h0c-.38-.32-.75-.66-1.1-1a18.8,18.8,0,0,1-1.74-1.95,17.74,17.74,0,0,1-1.12-1.65,15.15,15.15,0,0,1-1.71-3.9A11.14,11.14,0,0,1,29.45,19c0-.05,0-.1,0-.15a8.11,8.11,0,0,1,.34-2.28,10.12,10.12,0,0,1,3.12-5.91c.26-.24.52-.47.79-.68A12.78,12.78,0,0,0,31.3,11.78Z"/><path class="cls-10" d="M63.25,18.48h0l.43.38.86-.11,1.37-.12-.46-.4Z"/><path class="cls-10" d="M46.37,31a7,7,0,0,1-3.22,1.6,4.48,4.48,0,0,1-3.66.2,15.49,15.49,0,0,1-4.65-2.69C31,26.94,28.51,22.3,28.49,18.29a8.56,8.56,0,0,1,2.81-6.51A12.78,12.78,0,0,1,33.71,10a13.58,13.58,0,0,1,5.89-2.8,14.08,14.08,0,0,0-9,3.74,9.85,9.85,0,0,0-3.2,7.38c0,4.33,2.67,9.3,6.75,12.66a16.3,16.3,0,0,0,5,2.88c3.46,1.2,5.84-.72,8.27-3.46A6.47,6.47,0,0,1,46.37,31Z"/><path class="cls-9" d="M48.42,25.2a29.44,29.44,0,0,1,7.67-7.14L56,18l0,0a30,30,0,0,0-8,7.41l-.38.45.21.1a.32.32,0,0,1,.09,0Z"/><path class="cls-9" d="M48.63,7.69a20.14,20.14,0,0,0-8.7-.52l-.33,0A13.58,13.58,0,0,0,33.71,10c-.27.21-.53.44-.79.68a10.12,10.12,0,0,0-3.12,5.91,11.11,11.11,0,0,0-.13,1.64c0,.11,0,.21,0,.32A11.56,11.56,0,0,0,30,21a15.72,15.72,0,0,0,2.35,5.15,16.55,16.55,0,0,0,1.09,1.41,17.75,17.75,0,0,0,1.83,1.85l.35.31A14.37,14.37,0,0,0,37.39,31l.28.18.08.05a13.35,13.35,0,0,0,1.46.74,11.09,11.09,0,0,0,1,.4,6.53,6.53,0,0,0,1,.25,6.19,6.19,0,0,0,.95.08h.1c.22,0,.43,0,.64,0a1.66,1.66,0,0,0,.22,0A7,7,0,0,0,46.37,31a5.12,5.12,0,0,1-4.21.13l0,0a5.6,5.6,0,0,1-1.65-.28,13.76,13.76,0,0,1-4.34-2.46h0c-3.48-2.87-5.66-7-5.69-10.87a9.21,9.21,0,0,1,3-6.9c8.7-8.22,23.14-.38,29.57,4.91l.49.42,1,.85-1.32.15c-.51.06-1,.14-1.46.23l.42.34.46.39.69.6h0l2.17-.24.47,0,.15,0h.14l.37,0-.72-.64-.28-.24-1.19-1L64.11,16c-.15-.14-.32-.28-.5-.43s-.62-.5-.94-.75A41.43,41.43,0,0,0,48.63,7.69Z"/><path class="cls-9" d="M61.7,16c-3-2.32-18.39-13.24-27.55-4.58a7.89,7.89,0,0,0-2.59,6A13.72,13.72,0,0,0,36,26.68,14,14,0,0,1,32.23,18a7.94,7.94,0,0,1,2.62-6c7.07-6.49,19-.59,25.63,4.28C60.88,16.16,61.28,16.07,61.7,16Z"/><path class="cls-10" d="M48.56,25.26c1.9-2.29,4.35-5.19,8.29-6.7l-.76-.5a29.44,29.44,0,0,0-7.67,7.14L47.8,26l.14,0Z"/><path class="cls-10" d="M38,28.69a17.62,17.62,0,0,1-2-2,13.72,13.72,0,0,1-4.43-9.24,7.89,7.89,0,0,1,2.59-6C43.31,2.76,58.67,13.68,61.7,16c-.42.07-.82.16-1.22.26l1.17.9c.47-.09,1-.17,1.46-.23l1.32-.15-1-.85L63,15.51C56.54,10.22,42.1,2.38,33.4,10.6a9.21,9.21,0,0,0-3,6.9c0,3.83,2.21,8,5.69,10.87h0a13.76,13.76,0,0,0,4.34,2.46,5.6,5.6,0,0,0,1.65.28A14.54,14.54,0,0,1,38,28.69Z"/><path class="cls-9" d="M36,12.81a5.81,5.81,0,0,0-1.93,4.44c0,3.07,2,6.7,5.11,9.27h0c.38.31.77.59,1.16.85a16,16,0,0,1-3.9-4.94,7.59,7.59,0,0,1-.36-.69c-.09-.18-.19-.37-.27-.55a8.5,8.5,0,0,1-.79-3.37,3.87,3.87,0,0,1,.05-.49,5.67,5.67,0,0,1,.09-.72,5.05,5.05,0,0,1,.52-1.3,3,3,0,0,1,.29-.49,6.74,6.74,0,0,1,1.47-1.92,9.38,9.38,0,0,1,6.25-2.35A9.72,9.72,0,0,0,36,12.81Z"/><path class="cls-9" d="M63.22,18.49l-.69-.6-.46-.39-.42-.34-1.17-.9C53.9,11.39,41.92,5.49,34.85,12a7.94,7.94,0,0,0-2.62,6A14,14,0,0,0,36,26.68a17.62,17.62,0,0,0,2,2,14.54,14.54,0,0,0,4.08,2.42l0,0A5.12,5.12,0,0,0,46.37,31a6.47,6.47,0,0,0,1-.58c.27-.19.52-.4.78-.62a4.55,4.55,0,0,1-3.32.2,4.65,4.65,0,0,1-2.44-.28,14,14,0,0,1-3.9-2.31h0C35.13,24.65,33,20.68,33,17.3A7,7,0,0,1,35.29,12c7.25-6.65,20.25.74,26.12,5.57l.44.38,1.07.93-.74,0,1.59,1.38,1.42-.08-1.54-1.34Z"/><path class="cls-9" d="M49.08,25.18c1.94-2.33,4.24-5.08,8-6.48l-.21-.14c-3.94,1.51-6.39,4.41-8.29,6.7l-.62.73a1.46,1.46,0,0,0,.4.07C48.58,25.79,48.82,25.49,49.08,25.18Z"/><path class="cls-10" d="M44.29,29.82a13.59,13.59,0,0,1-3.66-2.21h0l-.26-.24c-.39-.26-.78-.54-1.16-.85h0c-3.11-2.57-5.12-6.2-5.11-9.27A5.81,5.81,0,0,1,36,12.81a9.72,9.72,0,0,1,7.69-2.26c5-.1,10.46,2.81,14,5.11a36.55,36.55,0,0,1,3.81,2.7l.36.3.29.25.74,0-1.07-.93-.44-.38C55.54,12.73,42.54,5.34,35.29,12A7,7,0,0,0,33,17.3c0,3.38,2.16,7.35,5.5,10.11h0a14,14,0,0,0,3.9,2.31,4.65,4.65,0,0,0,2.44.28Z"/><path class="cls-10" d="M49.69,24.69c1.7-2,3.9-4.67,7.67-5.78l-.3-.21c-3.74,1.4-6,4.15-8,6.48-.26.31-.5.61-.74.88l.15,0C48.84,25.7,49.23,25.24,49.69,24.69Z"/><path class="cls-9" d="M60.91,21.18a9.13,9.13,0,0,0-1.63.18,11,11,0,0,1,1.31-.13l.29,0h.9l1.1,0h.83l1,0,0,0Z"/><path class="cls-9" d="M38.63,13.84a4.48,4.48,0,0,0-1.51,3.42c0,2.62,1.87,5.94,4.69,8.26a13.45,13.45,0,0,0,1.57,1.13h0a14.15,14.15,0,0,1-3-3.5l-.1-.12a9.23,9.23,0,0,1-2.14-5.27,3.9,3.9,0,0,1,.17-1.1,3.68,3.68,0,0,1,.15-.47,1.48,1.48,0,0,0,.08-.13l.12-.21c0-.07.08-.15.13-.22a3.23,3.23,0,0,1,.46-.52,1.09,1.09,0,0,1,.1-.11l0,0c.11-.1.24-.17.35-.26l.18-.13a6.29,6.29,0,0,1,.82-.9,7.73,7.73,0,0,1,2.8-1.62A7.29,7.29,0,0,0,38.63,13.84Z"/><path class="cls-9" d="M47.06,28.73a4,4,0,0,1-2.54-.22,13.26,13.26,0,0,1-3.45-2.09C38,23.86,36,20.29,36,17.31A5.62,5.62,0,0,1,37.9,13c3-2.72,7.34-2.48,11.58-1a28.76,28.76,0,0,1,8.24,3.67c-3.54-2.3-9-5.21-14-5.11a9.38,9.38,0,0,0-6.25,2.35A6.74,6.74,0,0,0,36,14.82c-.09.17-.17.35-.25.53a6.7,6.7,0,0,0-.39,1.43,7.34,7.34,0,0,0-.08.82,2.45,2.45,0,0,0,0,.27,9.65,9.65,0,0,0,.65,3.27c.07.2.14.4.22.6s.22.46.34.69a16,16,0,0,0,3.9,4.94l.26.24h0a13.59,13.59,0,0,0,3.66,2.21l.52.18a4.55,4.55,0,0,0,3.32-.2,6.73,6.73,0,0,0,1.68-1.16A4,4,0,0,1,47.06,28.73Z"/><path class="cls-9" d="M49.3,25.76c.29-.32.59-.67.91-1.06a23.08,23.08,0,0,1,3.32-3.42,11,11,0,0,1,3.91-2.35c-.46-.31-.95-.62-1.47-.94l.12.07.76.5.21.14.3.21c-3.77,1.11-6,3.74-7.67,5.78-.46.55-.85,1-1.2,1.39A1.57,1.57,0,0,0,49.3,25.76Z"/><path class="cls-10" d="M37.9,13a5.62,5.62,0,0,0-1.9,4.3c0,3,2,6.55,5.07,9.11a13.26,13.26,0,0,0,3.45,2.09,4,4,0,0,0,2.54.22l-.49-.16a12.15,12.15,0,0,1-3.19-1.92,13.45,13.45,0,0,1-1.57-1.13c-2.82-2.32-4.7-5.64-4.69-8.26a4.48,4.48,0,0,1,1.51-3.42,7.29,7.29,0,0,1,4.83-1.78,11.17,11.17,0,0,1,6-.07C45.24,10.53,40.92,10.29,37.9,13Z"/><path class="cls-10" d="M50.21,24.7c-.32.39-.62.74-.91,1.06a11,11,0,0,0,1.84-1.91,24.14,24.14,0,0,1,2.39-2.57A23.08,23.08,0,0,0,50.21,24.7Z"/><path class="cls-9" d="M62.18,18.91l-.29-.25-.36-.3a36.55,36.55,0,0,0-3.81-2.7A28.76,28.76,0,0,0,49.48,12a11.17,11.17,0,0,0-6,.07,7.73,7.73,0,0,0-2.8,1.62,6.29,6.29,0,0,0-.82.9l-.09.13c-.11.16-.21.32-.31.48l-.09.18a4.76,4.76,0,0,0-.3.7c0,.09-.07.19-.1.28a2.68,2.68,0,0,0-.07.27,2,2,0,0,0-.06.23,5.06,5.06,0,0,0-.1.68,5.49,5.49,0,0,0,0,.58A9.56,9.56,0,0,0,40.21,23a1.74,1.74,0,0,0,.11.18,14.15,14.15,0,0,0,3,3.5h0a12.15,12.15,0,0,0,3.19,1.92l.49.16a4,4,0,0,0,2.75-.09,9.67,9.67,0,0,0,3.45-3c1.53-1.82,3.11-3.69,6-4.25a9.13,9.13,0,0,1,1.63-.18l3.73-.08h.07L64,20.49l-.23-.2ZM41.1,13.86c5.32-4.78,15.27,1,19.78,4.72l.35.29,1.12,1-1.52,0c-4.41.09-6.47,2.57-8.3,4.76-1.6,1.91-3.1,3.72-5.72,2.69a11.33,11.33,0,0,1-3-1.81c-2.69-2.21-4.41-5.31-4.4-7.9A5,5,0,0,1,41.1,13.86Z"/><path class="cls-9" d="M51.68,23.93c1.69-2,3.75-4.5,7.69-5.07-4-3-13-8.29-17.54-4.17a3.78,3.78,0,0,0-1.27,2.89c0,2.23,1.6,5.06,4,7a10.12,10.12,0,0,0,2.71,1.64C49,27,50,26,51.68,23.93Zm-3.19,2.15-.15,0a1.46,1.46,0,0,1-.4-.07l-.14,0a.32.32,0,0,0-.09,0l-.21-.1a8.46,8.46,0,0,1-1.18-.63,8.85,8.85,0,0,1-.91-.64l-.2-.15h0l-.29-.27a11.5,11.5,0,0,1-1.49-1.56A7.94,7.94,0,0,1,41.5,18a3,3,0,0,1,.12-.82,2.7,2.7,0,0,1,.67-1.2,1.31,1.31,0,0,1,.11-.12l.07-.08A4.9,4.9,0,0,1,44,14.86a8.9,8.9,0,0,1,5.57.15,22.43,22.43,0,0,1,3.57,1.41c.18.08.36.18.54.27a.61.61,0,0,1,.14.07c.39.2.77.4,1.15.62l1,.58,0,0c.52.32,1,.63,1.47.94a11,11,0,0,0-3.91,2.35,24.14,24.14,0,0,0-2.39,2.57,11,11,0,0,1-1.84,1.91A1.57,1.57,0,0,1,48.49,26.08Z"/><path class="cls-10" d="M39.43,17.62c0,2.59,1.71,5.69,4.4,7.9a11.33,11.33,0,0,0,3,1.81c2.62,1,4.12-.78,5.72-2.69,1.83-2.19,3.89-4.67,8.3-4.76l1.52,0-1.12-1-.35-.29c-4.51-3.72-14.46-9.5-19.78-4.72A5,5,0,0,0,39.43,17.62Zm7.84,8.64a10.12,10.12,0,0,1-2.71-1.64c-2.4-2-4-4.81-4-7a3.78,3.78,0,0,1,1.27-2.89c4.58-4.12,13.57,1.15,17.54,4.17-3.94.57-6,3-7.69,5.07S49,27,47.27,26.26Z"/><path class="cls-11" d="M69,17.15a3.57,3.57,0,0,0,.49-2.78c-.87-3.16-4.8-3.77-7.54-3.4-2.06.28-1.57,3.77.49,3.62a4.15,4.15,0,0,1,3,.57,11.69,11.69,0,0,0-1.8.82,3.39,3.39,0,0,0-1.44,2.89,1.54,1.54,0,0,0,.1.72c-1.94.8-3.72,2.3-6,2.49a1.79,1.79,0,0,0-1.71,1.47c-2-1.6-3.75-2.84-6.31-2.43a1.92,1.92,0,0,0-2.61.12c-.11.16-.22.29-.31.43-1.39-1.54-3-2.54-5-2a3,3,0,0,0-1.93,3.39,6.3,6.3,0,0,0-1.45-.65c-2-.58-1.37-3.08-1.52-4.79A1.73,1.73,0,0,0,33,16.14c-.19.13-.35.26-.51.39a1.86,1.86,0,0,0-2.66-.63,4.09,4.09,0,0,0,.39-1.28,1.5,1.5,0,0,0-1.88-1.43,5.75,5.75,0,0,0-1.5.77,16,16,0,0,1,1.41-1.18.76.76,0,0,0-.77-1.32c-1.81.89-6.7,4.24-5.15,6.9.56.95,1.44.93,2.4.5a3.72,3.72,0,0,0,.09,4.72,1.76,1.76,0,0,0,2,.8A4.2,4.2,0,0,0,28,23.62c-.41,2.79-.25,5.51,2.38,7.37a1.88,1.88,0,0,0,2.75-1.12c.39-1.43.07-3.6,0-5.65a2.39,2.39,0,0,0,.21.26,5.7,5.7,0,0,0,1.82,1.05c2.8,1.11,3.54,3,4.73,5.5.63,1.34,3.08,1.1,3.3-.43A41.35,41.35,0,0,0,44,26C45.4,27.78,46.42,30,48,31.49a1.9,1.9,0,0,0,2.22.28c3.26-1.37,3-3.81,1.67-6.12,1.46,1,2.77,2.58,4.25,3.53a1.82,1.82,0,0,0,2.47-.65,4.56,4.56,0,0,0,.58-3.07,3.81,3.81,0,0,0,1.39-.41c2.67-1.62,4.64-2.69,7.92-1,1.55.81,4.43,1.57,5.19-.71C74.73,20.29,72.1,18.06,69,17.15Z"/><path class="cls-11" d="M29.76,15.48a1.37,1.37,0,1,0-1.37,1.37A1.37,1.37,0,0,0,29.76,15.48Z"/><path class="cls-12" d="M31.64,20.07a.62.62,0,1,0-.62.63A.62.62,0,0,0,31.64,20.07Z"/><path class="cls-13" d="M33,20.36a1.29,1.29,0,1,0-1.29,1.29A1.29,1.29,0,0,0,33,20.36Z"/><path class="cls-14" d="M37.28,22.65a1.45,1.45,0,1,0-1.45,1.45A1.45,1.45,0,0,0,37.28,22.65Z"/><path class="cls-12" d="M38.36,23.34a.69.69,0,1,0-.69.69A.69.69,0,0,0,38.36,23.34Z"/><path class="cls-14" d="M43.19,24a1.34,1.34,0,1,0-1.34,1.35A1.34,1.34,0,0,0,43.19,24Z"/><path class="cls-11" d="M45.25,24.56a.68.68,0,1,0-1.36,0,.68.68,0,0,0,1.36,0Z"/><path class="cls-12" d="M51.09,24a1.28,1.28,0,1,0-1.27,1.27A1.27,1.27,0,0,0,51.09,24Z"/><path class="cls-14" d="M53.16,25.75a.65.65,0,1,0-.65.65A.65.65,0,0,0,53.16,25.75Z"/><path class="cls-13" d="M56,24a1.47,1.47,0,1,0-1.47,1.47A1.47,1.47,0,0,0,56,24Z"/><path class="cls-11" d="M59.59,25.05a1.33,1.33,0,1,0-1.33,1.32A1.33,1.33,0,0,0,59.59,25.05Z"/><path class="cls-14" d="M60.21,21.52a.66.66,0,1,0-.65.66A.66.66,0,0,0,60.21,21.52Z"/><path class="cls-14" d="M62.52,20.85A1.14,1.14,0,1,0,61.38,22,1.15,1.15,0,0,0,62.52,20.85Z"/><path class="cls-14" d="M66.06,18.13a.88.88,0,1,0-.88.89A.87.87,0,0,0,66.06,18.13Z"/><path class="cls-13" d="M68.66,14.69A1.27,1.27,0,1,0,67.4,16,1.27,1.27,0,0,0,68.66,14.69Z"/><path class="cls-12" d="M66.07,13.8a1.27,1.27,0,1,0-2.53,0,1.27,1.27,0,0,0,2.53,0Z"/><path class="cls-12" d="M66,12.39a.66.66,0,1,0-.66.66A.66.66,0,0,0,66,12.39Z"/><path class="cls-13" d="M65,12.42a1.46,1.46,0,1,0-1.46,1.46A1.46,1.46,0,0,0,65,12.42Z"/><path class="cls-12" d="M64.12,10.64a.55.55,0,0,0-1.1,0,.55.55,0,0,0,1.1,0Z"/><path class="cls-11" d="M63.44,10.5A1.53,1.53,0,1,0,61.91,12,1.53,1.53,0,0,0,63.44,10.5Z"/><path class="cls-11" d="M62.61,8.16a1.06,1.06,0,1,0-2.12,0,1.06,1.06,0,0,0,2.12,0Z"/><path class="cls-13" d="M60.29,10.2a.82.82,0,1,0-.82.82A.82.82,0,0,0,60.29,10.2Z"/><path class="cls-14" d="M59.62,9.19a1.22,1.22,0,1,0-1.22,1.22A1.22,1.22,0,0,0,59.62,9.19Z"/><path class="cls-13" d="M57.9,6.65a1.16,1.16,0,1,0-1.15,1.16A1.16,1.16,0,0,0,57.9,6.65Z"/><path class="cls-11" d="M53,5.8a1,1,0,1,0-.95,1A1,1,0,0,0,53,5.8Z"/><circle class="cls-11" cx="51.28" cy="5.73" r="1.17"/><path class="cls-12" d="M49.35,5.88a.45.45,0,1,0-.45.45A.45.45,0,0,0,49.35,5.88Z"/><path class="cls-12" d="M46.87,5.64A1.34,1.34,0,1,0,45.54,7,1.34,1.34,0,0,0,46.87,5.64Z"/><path class="cls-14" d="M44.33,4.79a1,1,0,1,0-1,1A1,1,0,0,0,44.33,4.79Z"/><path class="cls-14" d="M42.91,4.24a.68.68,0,0,0-.69-.68.67.67,0,0,0-.68.68.68.68,0,0,0,.68.69A.69.69,0,0,0,42.91,4.24Z"/><path class="cls-13" d="M41.17,5.85a1,1,0,1,0-1,1A1,1,0,0,0,41.17,5.85Z"/><path class="cls-12" d="M37.76,7.39a.47.47,0,0,0-.48-.48.48.48,0,0,0-.48.48.49.49,0,0,0,.48.48A.48.48,0,0,0,37.76,7.39Z"/><path class="cls-12" d="M32.53,6.64a.72.72,0,1,0-.72.72A.71.71,0,0,0,32.53,6.64Z"/><path class="cls-14" d="M31.74,12.32a1,1,0,1,0-1,1A1,1,0,0,0,31.74,12.32Z"/><path class="cls-13" d="M28.79,11.74A1.26,1.26,0,1,0,27.53,13,1.26,1.26,0,0,0,28.79,11.74Z"/><path class="cls-12" d="M27.68,14.58a1,1,0,1,0-1,1A1,1,0,0,0,27.68,14.58Z"/><path class="cls-11" d="M31,18.52a1,1,0,0,0-2,0,1,1,0,0,0,2,0Z"/><path class="cls-12" d="M32.17,21.3a.45.45,0,1,0-.45.45A.45.45,0,0,0,32.17,21.3Z"/><path class="cls-13" d="M34.7,23a1.25,1.25,0,1,0-1.25,1.25A1.24,1.24,0,0,0,34.7,23Z"/><path class="cls-13" d="M39.3,23.21a.75.75,0,1,0-.75.75A.75.75,0,0,0,39.3,23.21Z"/><path class="cls-13" d="M41.68,22.4a.85.85,0,1,0-.85.85A.85.85,0,0,0,41.68,22.4Z"/><path class="cls-12" d="M44.68,24.84a1.08,1.08,0,1,0-1.08,1.07A1.07,1.07,0,0,0,44.68,24.84Z"/><path class="cls-12" d="M46.55,24.78a1.22,1.22,0,1,0-2.43,0,1.22,1.22,0,0,0,2.43,0Z"/><path class="cls-12" d="M48,22.62a.54.54,0,0,0-.54-.54.55.55,0,0,0-.55.54.55.55,0,0,0,.55.55A.55.55,0,0,0,48,22.62Z"/><path class="cls-11" d="M52.35,26.14a.7.7,0,1,0-.7.7A.7.7,0,0,0,52.35,26.14Z"/><path class="cls-14" d="M57.13,23.65a.77.77,0,1,0-.77.77A.77.77,0,0,0,57.13,23.65Z"/><path class="cls-13" d="M61.25,23.55a1.17,1.17,0,1,0-1.17,1.16A1.17,1.17,0,0,0,61.25,23.55Z"/><path class="cls-14" d="M63.27,21.6a1.08,1.08,0,1,0-1.08,1.08A1.08,1.08,0,0,0,63.27,21.6Z"/><path class="cls-12" d="M63.88,19.48a.49.49,0,1,0-.49.48A.49.49,0,0,0,63.88,19.48Z"/><path class="cls-12" d="M65.93,18.6a.63.63,0,1,0-.63.62A.63.63,0,0,0,65.93,18.6Z"/><path class="cls-12" d="M66.57,14.12a1.43,1.43,0,1,0-1.42,1.43A1.43,1.43,0,0,0,66.57,14.12Z"/><path class="cls-14" d="M60.56,7.05a1.43,1.43,0,1,0-1.43,1.43A1.43,1.43,0,0,0,60.56,7.05Z"/><path class="cls-13" d="M64.14,11.13a.65.65,0,0,0-.65-.65.65.65,0,1,0,.65.65Z"/><path class="cls-13" d="M62.7,7.53a1.24,1.24,0,1,0-1.24,1.23A1.24,1.24,0,0,0,62.7,7.53Z"/><circle class="cls-14" cx="56.84" cy="5.94" r="1.59"/><path class="cls-13" d="M54.55,7.1a1.58,1.58,0,0,0-3.15,0,1.58,1.58,0,1,0,3.15,0Z"/><path class="cls-13" d="M51.74,6.23a1.5,1.5,0,1,0-1.5,1.5A1.51,1.51,0,0,0,51.74,6.23Z"/><path class="cls-11" d="M46,7a.92.92,0,1,0-.92.92A.92.92,0,0,0,46,7Z"/><path class="cls-12" d="M43.82,5.22A1.18,1.18,0,1,0,42.64,6.4,1.18,1.18,0,0,0,43.82,5.22Z"/><path class="cls-11" d="M42.56,7.6a1,1,0,1,0-1,1A1,1,0,0,0,42.56,7.6Z"/><path class="cls-14" d="M38.24,7.71a.84.84,0,1,0-1.68,0,.84.84,0,0,0,1.68,0Z"/><path class="cls-13" d="M35.77,6.27a.68.68,0,0,0-1.35,0,.68.68,0,1,0,1.35,0Z"/><path class="cls-11" d="M32.65,10.27a.75.75,0,0,0-.75-.76.76.76,0,1,0,0,1.51A.75.75,0,0,0,32.65,10.27Z"/><path class="cls-12" d="M27,10.38a.57.57,0,0,0-.57-.56.57.57,0,0,0,0,1.13A.57.57,0,0,0,27,10.38Z"/><path class="cls-11" d="M27.36,14a.78.78,0,1,0-.78.78A.78.78,0,0,0,27.36,14Z"/><path class="cls-11" d="M62.69,18.08a.61.61,0,0,0-.61-.61.61.61,0,0,0-.62.61.62.62,0,0,0,.62.62A.61.61,0,0,0,62.69,18.08Z"/><path class="cls-14" d="M64.91,15.77a1.52,1.52,0,1,0-1.52,1.52A1.52,1.52,0,0,0,64.91,15.77Z"/><path class="cls-12" d="M66.9,16.51a1,1,0,1,0-1,1A1,1,0,0,0,66.9,16.51Z"/><path class="cls-12" d="M63.52,18.63a.68.68,0,1,0-.67.67A.67.67,0,0,0,63.52,18.63Z"/><path class="cls-11" d="M63,16.61a.68.68,0,1,0-1.36,0,.68.68,0,1,0,1.36,0Z"/><path class="cls-11" d="M63.08,15.4a1,1,0,1,0-1,1A1,1,0,0,0,63.08,15.4Z"/><path class="cls-13" d="M60,18.79a.8.8,0,1,0-.8.8A.8.8,0,0,0,60,18.79Z"/><path class="cls-14" d="M60.45,20.29a1.32,1.32,0,1,0-1.32,1.32A1.32,1.32,0,0,0,60.45,20.29Z"/><path class="cls-12" d="M62.8,15.89a.62.62,0,1,0-.62.61A.61.61,0,0,0,62.8,15.89Z"/><path class="cls-12" d="M65.38,16.2A1.39,1.39,0,1,0,64,17.59,1.39,1.39,0,0,0,65.38,16.2Z"/><path class="cls-12" d="M62.07,13.88a.63.63,0,1,0-.63.63A.63.63,0,0,0,62.07,13.88Z"/><path class="cls-13" d="M61.25,14.18a.68.68,0,0,0-1.36,0,.68.68,0,0,0,1.36,0Z"/><path class="cls-12" d="M59.6,16.14a1,1,0,1,0-1,1A1,1,0,0,0,59.6,16.14Z"/><path class="cls-11" d="M59.42,20.76a.85.85,0,1,0-.84.84A.84.84,0,0,0,59.42,20.76Z"/><path class="cls-14" d="M58.57,23A1.56,1.56,0,1,0,57,24.59,1.56,1.56,0,0,0,58.57,23Z"/><path class="cls-12" d="M60.13,20.8a1.63,1.63,0,1,0-1.63,1.63A1.63,1.63,0,0,0,60.13,20.8Z"/><path class="cls-13" d="M60.94,19.43A1.56,1.56,0,1,0,59.39,21,1.55,1.55,0,0,0,60.94,19.43Z"/><circle class="cls-14" cx="60.12" cy="18.29" r="1.5"/><path class="cls-12" d="M62.67,13.33A1.27,1.27,0,1,0,61.4,14.6,1.27,1.27,0,0,0,62.67,13.33Z"/><path class="cls-13" d="M67.47,12.43A1.27,1.27,0,1,0,66.2,13.7,1.27,1.27,0,0,0,67.47,12.43Z"/><path class="cls-13" d="M60,15.47a.73.73,0,1,0-.73.73A.73.73,0,0,0,60,15.47Z"/><path class="cls-13" d="M59,18.16a.59.59,0,1,0-.58.58A.58.58,0,0,0,59,18.16Z"/><path class="cls-13" d="M57.22,19.48A1.23,1.23,0,1,0,56,20.7,1.23,1.23,0,0,0,57.22,19.48Z"/><path class="cls-13" d="M55.12,20.09a1,1,0,1,0-1,1A1,1,0,0,0,55.12,20.09Z"/><path class="cls-12" d="M54.28,24.19a1.4,1.4,0,1,0-1.39,1.4A1.39,1.39,0,0,0,54.28,24.19Z"/><path class="cls-12" d="M53,22.23a.67.67,0,1,0-1.33,0,.67.67,0,0,0,1.33,0Z"/><path class="cls-12" d="M56.74,20.55a.69.69,0,1,0-.69.68A.68.68,0,0,0,56.74,20.55Z"/><path class="cls-14" d="M59.32,18.58a1.56,1.56,0,1,0-1.56,1.56A1.56,1.56,0,0,0,59.32,18.58Z"/><path class="cls-14" d="M58.69,15.78a.56.56,0,0,0-1.11,0,.56.56,0,0,0,1.11,0Z"/><path class="cls-12" d="M61.87,11.19a1.42,1.42,0,1,0-1.42,1.42A1.42,1.42,0,0,0,61.87,11.19Z"/><path class="cls-13" d="M65.23,10.75a1.43,1.43,0,1,0-1.43,1.42A1.43,1.43,0,0,0,65.23,10.75Z"/><path class="cls-12" d="M63.57,9.1a.94.94,0,1,0-.94.94A.94.94,0,0,0,63.57,9.1Z"/><path class="cls-14" d="M60.17,11.66a1.47,1.47,0,0,0-2.93,0,1.47,1.47,0,1,0,2.93,0Z"/><path class="cls-11" d="M58.42,12.35a.61.61,0,1,0-.61.61A.61.61,0,0,0,58.42,12.35Z"/><path class="cls-12" d="M58.05,15.67a1.47,1.47,0,1,0-1.46,1.46A1.46,1.46,0,0,0,58.05,15.67Z"/><path class="cls-11" d="M56.2,15.92a1.42,1.42,0,1,0-1.42,1.42A1.42,1.42,0,0,0,56.2,15.92Z"/><path class="cls-14" d="M55.19,16.19a1.47,1.47,0,1,0-1.46,1.46A1.46,1.46,0,0,0,55.19,16.19Z"/><path class="cls-14" d="M51.74,21a.58.58,0,0,0-.59-.59.59.59,0,1,0,0,1.18A.58.58,0,0,0,51.74,21Z"/><path class="cls-11" d="M52.46,20.94a1.55,1.55,0,1,0-1.55,1.55A1.54,1.54,0,0,0,52.46,20.94Z"/><path class="cls-14" d="M53.81,20.75a1.54,1.54,0,1,0-1.54,1.53A1.53,1.53,0,0,0,53.81,20.75Z"/><path class="cls-13" d="M55.32,17.12a1.2,1.2,0,1,0-1.2,1.19A1.19,1.19,0,0,0,55.32,17.12Z"/><path class="cls-13" d="M58.24,15.49a1.59,1.59,0,1,0-1.58,1.59A1.59,1.59,0,0,0,58.24,15.49Z"/><path class="cls-12" d="M57.23,12.14a1.18,1.18,0,1,0-1.18,1.17A1.18,1.18,0,0,0,57.23,12.14Z"/><path class="cls-13" d="M58.89,10.39A1.61,1.61,0,1,0,57.29,12,1.6,1.6,0,0,0,58.89,10.39Z"/><path class="cls-11" d="M59.22,9.38a.69.69,0,1,0-.69.69A.69.69,0,0,0,59.22,9.38Z"/><path class="cls-14" d="M59.49,10.42a1.05,1.05,0,1,0-1.05,1.05A1,1,0,0,0,59.49,10.42Z"/><path class="cls-13" d="M55.48,13.6a.6.6,0,0,0-.6-.6.6.6,0,0,0,0,1.2A.6.6,0,0,0,55.48,13.6Z"/><path class="cls-14" d="M53.79,14.34a.78.78,0,0,0-1.56,0,.78.78,0,0,0,1.56,0Z"/><path class="cls-14" d="M51.07,18.25a1.21,1.21,0,1,0-1.2,1.21A1.21,1.21,0,0,0,51.07,18.25Z"/><path class="cls-11" d="M49.06,21.2a.91.91,0,1,0-.91.91A.91.91,0,0,0,49.06,21.2Z"/><path class="cls-11" d="M48.27,21.65a.8.8,0,0,0-.8-.79.8.8,0,0,0,0,1.59A.8.8,0,0,0,48.27,21.65Z"/><path class="cls-13" d="M51.73,21.48a.66.66,0,1,0-.66.66A.66.66,0,0,0,51.73,21.48Z"/><path class="cls-11" d="M53.78,20.48a.91.91,0,1,0-.91.91A.91.91,0,0,0,53.78,20.48Z"/><path class="cls-12" d="M56,16.17a1.12,1.12,0,1,0-1.12,1.12A1.12,1.12,0,0,0,56,16.17Z"/><path class="cls-14" d="M56.91,15.4a1.31,1.31,0,1,0-1.31,1.31A1.31,1.31,0,0,0,56.91,15.4Z"/><circle class="cls-12" cx="56.42" cy="11.24" r="0.74"/><path class="cls-13" d="M59.52,8.26A1.5,1.5,0,1,0,58,9.76,1.5,1.5,0,0,0,59.52,8.26Z"/><path class="cls-11" d="M54.67,10.76a.72.72,0,1,0-.71.72A.71.71,0,0,0,54.67,10.76Z"/><path class="cls-12" d="M52.48,16.08a.49.49,0,0,0-.49-.5.5.5,0,1,0,.49.5Z"/><path class="cls-14" d="M50.59,15.61a.55.55,0,0,0-.56-.55.54.54,0,0,0-.55.55.55.55,0,0,0,.55.56A.56.56,0,0,0,50.59,15.61Z"/><path class="cls-14" d="M47.62,17.48a.54.54,0,1,0-.53.54A.53.53,0,0,0,47.62,17.48Z"/><path class="cls-12" d="M46.21,21.45a.45.45,0,1,0-.45.44A.45.45,0,0,0,46.21,21.45Z"/><path class="cls-14" d="M47.29,19.68a.76.76,0,1,0-.76.76A.76.76,0,0,0,47.29,19.68Z"/><path class="cls-13" d="M47,17.91a.47.47,0,0,0-.94,0,.47.47,0,0,0,.94,0Z"/><path class="cls-14" d="M50.37,17.81a1,1,0,1,0-1,1A1,1,0,0,0,50.37,17.81Z"/><path class="cls-14" d="M50.2,15.31a.71.71,0,1,0-.71.71A.71.71,0,0,0,50.2,15.31Z"/><path class="cls-12" d="M52.08,15a1.53,1.53,0,1,0-1.53,1.53A1.54,1.54,0,0,0,52.08,15Z"/><path class="cls-12" d="M52,11.86a1.23,1.23,0,1,0-1.23,1.23A1.22,1.22,0,0,0,52,11.86Z"/><path class="cls-13" d="M54.9,9a.89.89,0,1,0-.88.88A.88.88,0,0,0,54.9,9Z"/><path class="cls-14" d="M54.15,12.19a1.33,1.33,0,1,0-1.33,1.33A1.32,1.32,0,0,0,54.15,12.19Z"/><path class="cls-13" d="M49.77,13.43a.46.46,0,1,0-.46.45A.46.46,0,0,0,49.77,13.43Z"/><path class="cls-11" d="M49.07,18a.58.58,0,0,0-.59-.59.59.59,0,0,0-.59.59.6.6,0,0,0,.59.59A.59.59,0,0,0,49.07,18Z"/><path class="cls-14" d="M44.45,20.14a.94.94,0,1,0-.94.94A.94.94,0,0,0,44.45,20.14Z"/><path class="cls-11" d="M45.63,22.33a1.22,1.22,0,1,0-1.21,1.21A1.22,1.22,0,0,0,45.63,22.33Z"/><path class="cls-11" d="M47.63,20.91a.55.55,0,1,0-.54.54A.54.54,0,0,0,47.63,20.91Z"/><path class="cls-13" d="M48.83,17.06a1.05,1.05,0,1,0-1,1.06A1,1,0,0,0,48.83,17.06Z"/><path class="cls-12" d="M49.14,13.76a.55.55,0,0,0-.55-.55.55.55,0,0,0,0,1.1A.55.55,0,0,0,49.14,13.76Z"/><path class="cls-13" d="M52.63,14.27a1.26,1.26,0,1,0-1.26,1.26A1.25,1.25,0,0,0,52.63,14.27Z"/><path class="cls-12" d="M51.57,11.23a.52.52,0,1,0-.52.53A.52.52,0,0,0,51.57,11.23Z"/><path class="cls-12" d="M55.22,9.57a1.58,1.58,0,1,0-1.58,1.58A1.58,1.58,0,0,0,55.22,9.57Z"/><path class="cls-13" d="M56.86,8.36A1.06,1.06,0,1,0,55.8,9.41,1.05,1.05,0,0,0,56.86,8.36Z"/><path class="cls-14" d="M53,5.39a.83.83,0,0,0-.83-.83.83.83,0,1,0,0,1.66A.83.83,0,0,0,53,5.39Z"/><path class="cls-12" d="M52.53,7.18a1,1,0,1,0-1,1.05A1,1,0,0,0,52.53,7.18Z"/><path class="cls-12" d="M49.36,9.53a.52.52,0,1,0-.52.52A.52.52,0,0,0,49.36,9.53Z"/><path class="cls-12" d="M47.66,13.19a1.43,1.43,0,1,0-1.42,1.42A1.43,1.43,0,0,0,47.66,13.19Z"/><path class="cls-13" d="M45.8,18.71a.71.71,0,1,0-.71.71A.71.71,0,0,0,45.8,18.71Z"/><path class="cls-11" d="M45.63,19.22a1.11,1.11,0,1,0-1.11,1.12A1.11,1.11,0,0,0,45.63,19.22Z"/><path class="cls-13" d="M43.79,22a1.52,1.52,0,1,0-1.52,1.52A1.53,1.53,0,0,0,43.79,22Z"/><path class="cls-13" d="M45.56,17a1.45,1.45,0,1,0-1.45,1.45A1.44,1.44,0,0,0,45.56,17Z"/><path class="cls-14" d="M49.11,15.89a1.37,1.37,0,1,0-1.37,1.37A1.38,1.38,0,0,0,49.11,15.89Z"/><path class="cls-12" d="M49.41,9.76a1.29,1.29,0,1,0-1.29,1.29A1.29,1.29,0,0,0,49.41,9.76Z"/><path class="cls-11" d="M51.25,9.43a.63.63,0,1,0-.62.62A.63.63,0,0,0,51.25,9.43Z"/><circle class="cls-12" cx="48.19" cy="9.06" r="0.86"/><path class="cls-11" d="M47.87,13.16a.88.88,0,0,0-1.75,0,.88.88,0,1,0,1.75,0Z"/><path class="cls-14" d="M45.17,12.22a.45.45,0,1,0-.9,0,.45.45,0,1,0,.9,0Z"/><circle class="cls-14" cx="42.07" cy="14.89" r="0.65"/><path class="cls-11" d="M44.3,17.74a.56.56,0,1,0-.55.55A.56.56,0,0,0,44.3,17.74Z"/><path class="cls-13" d="M41.88,21.4a1.36,1.36,0,1,0-1.36,1.36A1.36,1.36,0,0,0,41.88,21.4Z"/><path class="cls-14" d="M44.77,17.93a1.28,1.28,0,1,0-1.28,1.28A1.28,1.28,0,0,0,44.77,17.93Z"/><path class="cls-12" d="M44.13,16.9a.63.63,0,1,0-.63.63A.63.63,0,0,0,44.13,16.9Z"/><path class="cls-12" d="M46.15,13.41a1,1,0,0,0-2,0,1,1,0,1,0,2,0Z"/><circle class="cls-12" cx="48.96" cy="10.5" r="1.58"/><path class="cls-13" d="M49.91,9.27a.61.61,0,1,0-.61.61A.61.61,0,0,0,49.91,9.27Z"/><circle class="cls-11" cx="49.82" cy="7.98" r="0.53"/><path class="cls-12" d="M47.78,7.13A1.28,1.28,0,1,0,46.51,8.4,1.28,1.28,0,0,0,47.78,7.13Z"/><path class="cls-11" d="M47.3,8.9a.46.46,0,0,0-.46-.47.47.47,0,0,0,0,.93A.46.46,0,0,0,47.3,8.9Z"/><path class="cls-14" d="M47.31,11A1.32,1.32,0,1,0,46,12.3,1.32,1.32,0,0,0,47.31,11Z"/><path class="cls-14" d="M44.52,13.85a1.26,1.26,0,1,0-1.25,1.26A1.25,1.25,0,0,0,44.52,13.85Z"/><path class="cls-11" d="M42.13,13.83a1,1,0,1,0-2,0,1,1,0,0,0,2,0Z"/><path class="cls-13" d="M40.39,17.91a.72.72,0,1,0-1.43,0,.72.72,0,1,0,1.43,0Z"/><path class="cls-11" d="M39,21.58a1.35,1.35,0,1,0-1.35,1.35A1.35,1.35,0,0,0,39,21.58Z"/><path class="cls-14" d="M39.41,21.65a.47.47,0,1,0-.47.47A.47.47,0,0,0,39.41,21.65Z"/><path class="cls-12" d="M40.46,17.61a.65.65,0,1,0-.65.65A.66.66,0,0,0,40.46,17.61Z"/><path class="cls-14" d="M42,16.49a1.62,1.62,0,1,0-1.62,1.62A1.63,1.63,0,0,0,42,16.49Z"/><path class="cls-11" d="M46,14.19A1.06,1.06,0,1,0,45,15.25,1.06,1.06,0,0,0,46,14.19Z"/><path class="cls-12" d="M46.55,11.93a.81.81,0,1,0-.8.81A.8.8,0,0,0,46.55,11.93Z"/><path class="cls-14" d="M47.7,7.86A1.13,1.13,0,1,0,46.58,9,1.13,1.13,0,0,0,47.7,7.86Z"/><path class="cls-14" d="M49.23,6A1.47,1.47,0,1,0,47.76,7.5,1.47,1.47,0,0,0,49.23,6Z"/><path class="cls-11" d="M49,7.05a.79.79,0,0,0-.79-.79.8.8,0,1,0,.79.79Z"/><path class="cls-13" d="M46.23,7.06a1.62,1.62,0,1,0-1.62,1.62A1.62,1.62,0,0,0,46.23,7.06Z"/><path class="cls-12" d="M43.9,11a1.44,1.44,0,1,0-1.43,1.43A1.43,1.43,0,0,0,43.9,11Z"/><path class="cls-12" d="M40.2,13.92a1.63,1.63,0,1,0-1.62,1.63A1.62,1.62,0,0,0,40.2,13.92Z"/><circle class="cls-14" cx="35.03" cy="17.84" r="0.49"/><path class="cls-13" d="M34.33,19.15a.9.9,0,1,0-.89.89A.89.89,0,0,0,34.33,19.15Z"/><path class="cls-11" d="M38.75,19.25a1.34,1.34,0,1,0-1.33,1.33A1.34,1.34,0,0,0,38.75,19.25Z"/><path class="cls-11" d="M39.6,13.9a1.42,1.42,0,1,0-1.42,1.43A1.42,1.42,0,0,0,39.6,13.9Z"/><path class="cls-14" d="M42.74,13.36a1.05,1.05,0,1,0-1.05,1.05A1,1,0,0,0,42.74,13.36Z"/><path class="cls-14" d="M41.51,11.23a1.14,1.14,0,1,0-1.14,1.14A1.14,1.14,0,0,0,41.51,11.23Z"/><path class="cls-11" d="M42.35,8.82a.7.7,0,1,0-.7.7A.69.69,0,0,0,42.35,8.82Z"/><path class="cls-13" d="M45.14,6.79A1.2,1.2,0,1,0,43.94,8,1.2,1.2,0,0,0,45.14,6.79Z"/><path class="cls-12" d="M46.68,6.85A1.48,1.48,0,1,0,45.2,8.33,1.48,1.48,0,0,0,46.68,6.85Z"/><path class="cls-14" d="M41.79,8.21a1.28,1.28,0,1,0-1.27,1.28A1.27,1.27,0,0,0,41.79,8.21Z"/><path class="cls-11" d="M38.31,12.13a.74.74,0,0,0-1.47,0,.74.74,0,0,0,1.47,0Z"/><path class="cls-14" d="M34.7,15.78a.64.64,0,1,0-.64.64A.64.64,0,0,0,34.7,15.78Z"/><path class="cls-13" d="M35.78,18.67a1.56,1.56,0,1,0-1.56,1.55A1.56,1.56,0,0,0,35.78,18.67Z"/><path class="cls-12" d="M39,15.45a.93.93,0,1,0-.92.92A.92.92,0,0,0,39,15.45Z"/><path class="cls-14" d="M41.07,11.17a1.38,1.38,0,1,0-1.38,1.38A1.38,1.38,0,0,0,41.07,11.17Z"/><path class="cls-14" d="M42.78,11.45a1.1,1.1,0,1,0-1.1,1.1A1.1,1.1,0,0,0,42.78,11.45Z"/><path class="cls-12" d="M44.89,9.44a1.28,1.28,0,1,0-2.56,0,1.28,1.28,0,0,0,2.56,0Z"/><path class="cls-14" d="M41.53,10.19a.77.77,0,1,0-1.54,0,.77.77,0,1,0,1.54,0Z"/><path class="cls-13" d="M38.78,12a1.63,1.63,0,1,0-1.62,1.62A1.63,1.63,0,0,0,38.78,12Z"/><path class="cls-11" d="M36.91,12.28a1.34,1.34,0,1,0-2.67,0,1.34,1.34,0,0,0,2.67,0Z"/><path class="cls-13" d="M34.73,14.71a.93.93,0,1,0-.93.93A.92.92,0,0,0,34.73,14.71Z"/><path class="cls-14" d="M33.94,17.83a1.41,1.41,0,1,0-1.4,1.41A1.41,1.41,0,0,0,33.94,17.83Z"/><path class="cls-11" d="M37.36,16.31a1.51,1.51,0,1,0-1.51,1.51A1.5,1.5,0,0,0,37.36,16.31Z"/><path class="cls-11" d="M37.15,11.85a.84.84,0,1,0-.84.84A.85.85,0,0,0,37.15,11.85Z"/><path class="cls-14" d="M41.5,9.27A1.54,1.54,0,1,0,40,10.81,1.54,1.54,0,0,0,41.5,9.27Z"/><path class="cls-11" d="M41.06,8a1.6,1.6,0,1,0-1.6,1.6A1.6,1.6,0,0,0,41.06,8Z"/><path class="cls-14" d="M39.05,10a.5.5,0,0,0-.5-.5.5.5,0,1,0,.5.5Z"/><path class="cls-11" d="M36.9,11.46a.79.79,0,1,0-.79.79A.79.79,0,0,0,36.9,11.46Z"/><path class="cls-12" d="M35.85,11.85a.46.46,0,1,0-.91,0,.46.46,0,0,0,.91,0Z"/><path class="cls-11" d="M34.49,15.67a.9.9,0,1,0-.9.9A.89.89,0,0,0,34.49,15.67Z"/><path class="cls-12" d="M34.82,13.57a1.25,1.25,0,1,0-1.25,1.25A1.25,1.25,0,0,0,34.82,13.57Z"/><path class="cls-12" d="M37.38,12.84a.93.93,0,1,0-.92.93A.93.93,0,0,0,37.38,12.84Z"/><path class="cls-14" d="M37.78,11.55a.63.63,0,0,0-.63-.63.64.64,0,0,0-.64.63.64.64,0,0,0,.64.64A.64.64,0,0,0,37.78,11.55Z"/><path class="cls-12" d="M37.38,9.47a.9.9,0,1,0-.9.9A.9.9,0,0,0,37.38,9.47Z"/><path class="cls-11" d="M40.83,7.44a.9.9,0,1,0-.9.9A.9.9,0,0,0,40.83,7.44Z"/><path class="cls-12" d="M40.09,8.29A1.59,1.59,0,1,0,38.5,9.88,1.59,1.59,0,0,0,40.09,8.29Z"/><path class="cls-12" d="M36.37,8a.91.91,0,1,0-.91.91A.91.91,0,0,0,36.37,8Z"/><path class="cls-13" d="M35.75,10.14a1.13,1.13,0,0,0-2.25,0,1.13,1.13,0,1,0,2.25,0Z"/><circle class="cls-12" cx="31.26" cy="13.99" r="0.91"/><path class="cls-13" d="M31.22,14.08a.51.51,0,1,0-.51.51A.51.51,0,0,0,31.22,14.08Z"/><path class="cls-14" d="M36.73,12.16a1.11,1.11,0,1,0-1.11,1.11A1.11,1.11,0,0,0,36.73,12.16Z"/><path class="cls-11" d="M39,9.74a1.42,1.42,0,1,0-1.42,1.42A1.42,1.42,0,0,0,39,9.74Z"/><path class="cls-12" d="M40.19,6.9a1.54,1.54,0,1,0-1.53,1.53A1.53,1.53,0,0,0,40.19,6.9Z"/><path class="cls-14" d="M37.49,6.36a.56.56,0,1,0-.56.56A.56.56,0,0,0,37.49,6.36Z"/><path class="cls-12" d="M37.22,7.14A1.24,1.24,0,1,0,36,8.39,1.24,1.24,0,0,0,37.22,7.14Z"/><path class="cls-11" d="M35.34,9.4a.57.57,0,0,0-.57-.56.56.56,0,0,0,0,1.12A.57.57,0,0,0,35.34,9.4Z"/><path class="cls-13" d="M33.78,10.24a.72.72,0,1,0-.71.71A.71.71,0,0,0,33.78,10.24Z"/><path class="cls-13" d="M34,12.55a1.15,1.15,0,1,0-1.14,1.14A1.14,1.14,0,0,0,34,12.55Z"/><path class="cls-13" d="M34,12.61a1.31,1.31,0,1,0-1.31,1.3A1.31,1.31,0,0,0,34,12.61Z"/><path class="cls-12" d="M34.92,12a1.34,1.34,0,1,0-1.34,1.34A1.34,1.34,0,0,0,34.92,12Z"/><path class="cls-14" d="M34.92,8.52a1.11,1.11,0,1,0-1.11,1.1A1.11,1.11,0,0,0,34.92,8.52Z"/><path class="cls-13" d="M34.08,7.22a.51.51,0,1,0-.51.51A.51.51,0,0,0,34.08,7.22Z"/><path class="cls-12" d="M36.9,7.71a1,1,0,1,0-1,1A1,1,0,0,0,36.9,7.71Z"/><path class="cls-14" d="M34.79,7.35a.49.49,0,1,0-.49.49A.49.49,0,0,0,34.79,7.35Z"/><path class="cls-13" d="M33,8a1.36,1.36,0,1,0-1.36,1.36A1.35,1.35,0,0,0,33,8Z"/><path class="cls-11" d="M29.78,12.16a.91.91,0,0,0-1.81,0,.91.91,0,1,0,1.81,0Z"/><path class="cls-12" d="M31.59,10.86a.83.83,0,0,0-.83-.83.84.84,0,0,0-.84.83.85.85,0,0,0,.84.84A.84.84,0,0,0,31.59,10.86Z"/><path class="cls-12" d="M32.31,9a1.19,1.19,0,1,0-1.18,1.19A1.19,1.19,0,0,0,32.31,9Z"/><path class="cls-12" d="M43.8,7.22a1,1,0,1,0-1,1A1,1,0,0,0,43.8,7.22Z"/><path class="cls-14" d="M32.64,6.9a.78.78,0,1,0-.78.78A.78.78,0,0,0,32.64,6.9Z"/><path class="cls-12" d="M32.16,8.07A1.18,1.18,0,1,0,31,9.25,1.18,1.18,0,0,0,32.16,8.07Z"/><path class="cls-14" d="M30,10.3a.75.75,0,1,0-.75.75A.75.75,0,0,0,30,10.3Z"/><path class="cls-13" d="M30.57,12.78a.52.52,0,1,0-.52.52A.52.52,0,0,0,30.57,12.78Z"/><path class="cls-12" d="M48,10.06a1.42,1.42,0,1,0-1.41,1.42A1.41,1.41,0,0,0,48,10.06Z"/><path class="cls-11" d="M41.94,6.61a.81.81,0,1,0-.81.8A.8.8,0,0,0,41.94,6.61Z"/><path class="cls-14" d="M47.8,9.45a1.46,1.46,0,1,0-1.46,1.46A1.46,1.46,0,0,0,47.8,9.45Z"/><path class="cls-12" d="M47.77,10.58a1.33,1.33,0,1,0-1.33,1.33A1.33,1.33,0,0,0,47.77,10.58Z"/><path class="cls-12" d="M47,11A1.06,1.06,0,1,0,46,12.09,1.05,1.05,0,0,0,47,11Z"/><path class="cls-12" d="M29.09,10.11a1,1,0,0,0-1.95,0,1,1,0,1,0,1.95,0Z"/><path class="cls-13" d="M46.44,10.6a1.34,1.34,0,1,0-1.33,1.34A1.34,1.34,0,0,0,46.44,10.6Z"/><circle class="cls-13" cx="30.24" cy="7.7" r="0.58"/><path class="cls-13" d="M44.78,10.06a1,1,0,1,0-1,1A1,1,0,0,0,44.78,10.06Z"/><path class="cls-13" d="M29.84,11.34a1.11,1.11,0,1,0-2.21,0,1.11,1.11,0,0,0,2.21,0Z"/><path class="cls-12" d="M28.06,10.3a.7.7,0,1,0-.7.7A.7.7,0,0,0,28.06,10.3Z"/><path class="cls-14" d="M31.63,8.91a1,1,0,1,0-1,1A1,1,0,0,0,31.63,8.91Z"/><path class="cls-11" d="M62.31,12.66a.72.72,0,1,0-1.43,0,.72.72,0,1,0,1.43,0Z"/><path class="cls-11" d="M60.08,13.89a.58.58,0,0,0-1.16,0,.58.58,0,0,0,1.16,0Z"/><path class="cls-13" d="M56.88,9.53a.77.77,0,1,0-.77.77A.76.76,0,0,0,56.88,9.53Z"/><path class="cls-14" d="M57.27,12.55A1.46,1.46,0,1,0,55.81,14,1.47,1.47,0,0,0,57.27,12.55Z"/><path class="cls-13" d="M58.8,14.54a1,1,0,1,0-1,1A1,1,0,0,0,58.8,14.54Z"/><path class="cls-14" d="M60.69,14.1a1.25,1.25,0,1,0-1.24,1.24A1.25,1.25,0,0,0,60.69,14.1Z"/><path class="cls-11" d="M61.36,15.69a1.47,1.47,0,1,0-1.47,1.48A1.47,1.47,0,0,0,61.36,15.69Z"/><path class="cls-12" d="M58.37,14a.77.77,0,1,0-.77.77A.77.77,0,0,0,58.37,14Z"/><path class="cls-13" d="M58.11,10.78a1,1,0,1,0-1,1A1,1,0,0,0,58.11,10.78Z"/><path class="cls-13" d="M53.82,12.73a1.54,1.54,0,1,0-1.54,1.53A1.54,1.54,0,0,0,53.82,12.73Z"/><path class="cls-13" d="M56.42,14A1.44,1.44,0,1,0,55,15.47,1.43,1.43,0,0,0,56.42,14Z"/><path class="cls-13" d="M56.79,17.4a1.44,1.44,0,1,0-1.44,1.44A1.44,1.44,0,0,0,56.79,17.4Z"/><path class="cls-14" d="M60.44,12.88a1.32,1.32,0,1,0-1.32,1.32A1.33,1.33,0,0,0,60.44,12.88Z"/><path class="cls-14" d="M64.4,17.6a1.32,1.32,0,1,0-1.32,1.32A1.33,1.33,0,0,0,64.4,17.6Z"/><path class="cls-12" d="M56.18,12.69A1.35,1.35,0,1,0,54.83,14,1.36,1.36,0,0,0,56.18,12.69Z"/><path class="cls-14" d="M55.85,10.11a.76.76,0,1,0-.76.76A.76.76,0,0,0,55.85,10.11Z"/><path class="cls-14" d="M54.61,10.1a1.22,1.22,0,1,0-2.44,0,1.22,1.22,0,0,0,2.44,0Z"/><path class="cls-11" d="M51.25,11a.82.82,0,1,0-.82.82A.82.82,0,0,0,51.25,11Z"/><path class="cls-14" d="M51.78,11.41a.85.85,0,1,0-.85.84A.85.85,0,0,0,51.78,11.41Z"/><path class="cls-13" d="M56.57,12.35A1.58,1.58,0,1,0,55,13.93,1.57,1.57,0,0,0,56.57,12.35Z"/><path class="cls-12" d="M57.76,12.19a1.43,1.43,0,1,0-1.43,1.43A1.43,1.43,0,0,0,57.76,12.19Z"/><path class="cls-13" d="M54.4,10.28A1.43,1.43,0,1,0,53,11.71,1.43,1.43,0,0,0,54.4,10.28Z"/><path class="cls-12" d="M52.74,12.27a1.49,1.49,0,1,0-1.49,1.48A1.49,1.49,0,0,0,52.74,12.27Z"/><path class="cls-13" d="M50.51,7.84A1.21,1.21,0,1,0,49.3,9.05,1.21,1.21,0,0,0,50.51,7.84Z"/><path class="cls-11" d="M49.09,8.8A1.08,1.08,0,1,0,48,9.87,1.07,1.07,0,0,0,49.09,8.8Z"/><path class="cls-14" d="M50,10.81a1.61,1.61,0,1,0-1.61,1.61A1.61,1.61,0,0,0,50,10.81Z"/><path class="cls-14" d="M52.56,15.69a1.51,1.51,0,1,0-1.51,1.51A1.52,1.52,0,0,0,52.56,15.69Z"/><path class="cls-14" d="M56.42,16.12a1,1,0,1,0-1,1.05A1,1,0,0,0,56.42,16.12Z"/><path class="cls-12" d="M54.22,15.07a.83.83,0,1,0-.83.82A.83.83,0,0,0,54.22,15.07Z"/><path class="cls-14" d="M50.12,15.5A1.51,1.51,0,1,0,48.61,17,1.52,1.52,0,0,0,50.12,15.5Z"/><path class="cls-12" d="M47.78,11.17a1.38,1.38,0,1,0-1.37,1.37A1.37,1.37,0,0,0,47.78,11.17Z"/><path class="cls-12" d="M45.08,11.87a.91.91,0,1,0-.91.9A.91.91,0,0,0,45.08,11.87Z"/><path class="cls-14" d="M47.64,14.9a1.54,1.54,0,1,0-1.54,1.54A1.54,1.54,0,0,0,47.64,14.9Z"/><path class="cls-11" d="M47.94,15.36A1.24,1.24,0,1,0,46.7,16.6,1.23,1.23,0,0,0,47.94,15.36Z"/><path class="cls-13" d="M50.9,14.29a.7.7,0,0,0-.71-.7.7.7,0,0,0-.7.7.7.7,0,0,0,.7.71A.71.71,0,0,0,50.9,14.29Z"/><path class="cls-12" d="M53.22,18.25a1.39,1.39,0,1,0-1.38,1.39A1.38,1.38,0,0,0,53.22,18.25Z"/><path class="cls-11" d="M50.37,17.55a.76.76,0,1,0-.76.75A.75.75,0,0,0,50.37,17.55Z"/><path class="cls-13" d="M46.81,14.2a1.47,1.47,0,1,0-1.47,1.47A1.47,1.47,0,0,0,46.81,14.2Z"/><path class="cls-12" d="M46.2,12.22a.54.54,0,0,0-.54-.54.54.54,0,1,0,0,1.08A.54.54,0,0,0,46.2,12.22Z"/><path class="cls-11" d="M45.47,12.27a1.11,1.11,0,1,0-1.11,1.12A1.11,1.11,0,0,0,45.47,12.27Z"/><path class="cls-11" d="M43.83,15.35a1.11,1.11,0,1,0-1.11,1.12A1.11,1.11,0,0,0,43.83,15.35Z"/><path class="cls-14" d="M41.33,10.38a1.19,1.19,0,1,0-1.18,1.19A1.18,1.18,0,0,0,41.33,10.38Z"/><path class="cls-11" d="M40.7,9.84a.65.65,0,1,0-.65.65A.65.65,0,0,0,40.7,9.84Z"/><path class="cls-12" d="M43.73,12.84a.88.88,0,1,0-.88.88A.87.87,0,0,0,43.73,12.84Z"/><path class="cls-14" d="M45.07,15.89A1.1,1.1,0,1,0,44,17,1.09,1.09,0,0,0,45.07,15.89Z"/><path class="cls-14" d="M48.76,17.08a1.09,1.09,0,1,0-1.09,1.09A1.09,1.09,0,0,0,48.76,17.08Z"/><path class="cls-14" d="M52.5,19a1.27,1.27,0,1,0-1.26,1.26A1.27,1.27,0,0,0,52.5,19Z"/><path class="cls-11" d="M52.5,9.1a1.27,1.27,0,1,0-1.26,1.26A1.26,1.26,0,0,0,52.5,9.1Z"/><path class="cls-12" d="M47.44,19.25a.56.56,0,1,0-.56.56A.56.56,0,0,0,47.44,19.25Z"/><path class="cls-12" d="M46.35,16.45a.47.47,0,0,0-.93,0,.47.47,0,1,0,.93,0Z"/><path class="cls-11" d="M46.25,16a1.32,1.32,0,1,0-1.32,1.33A1.32,1.32,0,0,0,46.25,16Z"/><path class="cls-12" d="M41.9,13a1,1,0,1,0-1,1A1,1,0,0,0,41.9,13Z"/><path class="cls-14" d="M38.89,13a1,1,0,1,0-1,1A1,1,0,0,0,38.89,13Z"/><path class="cls-11" d="M41.3,12.61a1.25,1.25,0,1,0-1.25,1.26A1.25,1.25,0,0,0,41.3,12.61Z"/><path class="cls-11" d="M41.9,13.44a1.64,1.64,0,1,0-1.64,1.64A1.64,1.64,0,0,0,41.9,13.44Z"/><path class="cls-12" d="M41.9,15.5a.94.94,0,1,0-.94.94A.94.94,0,0,0,41.9,15.5Z"/><path class="cls-11" d="M39.91,18a.94.94,0,1,0-.94.94A.94.94,0,0,0,39.91,18Z"/><path class="cls-11" d="M42.61,17.27a.91.91,0,1,0-.91.91A.91.91,0,0,0,42.61,17.27Z"/><path class="cls-12" d="M45.17,17.25a1.42,1.42,0,1,0-1.42,1.42A1.42,1.42,0,0,0,45.17,17.25Z"/><path class="cls-14" d="M45.9,18.28a1,1,0,1,0-1,1A1,1,0,0,0,45.9,18.28Z"/><path class="cls-11" d="M46.87,20.87a.72.72,0,0,0-1.43,0,.72.72,0,0,0,1.43,0Z"/><path class="cls-11" d="M47.32,21.6a.51.51,0,0,0-1,0,.51.51,0,0,0,1,0Z"/><path class="cls-12" d="M48.72,22.24a1.22,1.22,0,1,0-1.22,1.21A1.22,1.22,0,0,0,48.72,22.24Z"/><path class="cls-11" d="M48.33,18.78A1.19,1.19,0,1,0,47.15,20,1.18,1.18,0,0,0,48.33,18.78Z"/><path class="cls-14" d="M46.14,17.72a.84.84,0,1,0-.84.84A.84.84,0,0,0,46.14,17.72Z"/><path class="cls-14" d="M44,15.46a.59.59,0,0,0-.59-.6.6.6,0,0,0,0,1.19A.59.59,0,0,0,44,15.46Z"/><path class="cls-12" d="M40.19,13a1.43,1.43,0,1,0-1.44,1.43A1.44,1.44,0,0,0,40.19,13Z"/><path class="cls-12" d="M40.46,10.64a1.11,1.11,0,1,0-2.21,0,1.11,1.11,0,0,0,2.21,0Z"/><path class="cls-13" d="M35.62,8.07a.56.56,0,1,0-.56.56A.56.56,0,0,0,35.62,8.07Z"/><path class="cls-13" d="M34.71,8.83a.85.85,0,1,0-.85.85A.85.85,0,0,0,34.71,8.83Z"/><path class="cls-13" d="M36.48,10.28a1.33,1.33,0,1,0-1.33,1.33A1.33,1.33,0,0,0,36.48,10.28Z"/><path class="cls-13" d="M37.36,12.91a1,1,0,1,0-1,1A1,1,0,0,0,37.36,12.91Z"/><path class="cls-14" d="M41.24,16.32A1.26,1.26,0,1,0,40,17.58,1.26,1.26,0,0,0,41.24,16.32Z"/><path class="cls-13" d="M44.14,19.37a.87.87,0,1,0-.86.86A.86.86,0,0,0,44.14,19.37Z"/><path class="cls-11" d="M40.83,16.11a.68.68,0,1,0-.68.68A.68.68,0,0,0,40.83,16.11Z"/><path class="cls-11" d="M42.68,20.76a.67.67,0,1,0-.67.68A.67.67,0,0,0,42.68,20.76Z"/><path class="cls-11" d="M41.52,12.67a1.58,1.58,0,0,0-3.15,0,1.58,1.58,0,1,0,3.15,0Z"/><path class="cls-11" d="M32.42,15.49a1.58,1.58,0,1,0-1.58,1.57A1.57,1.57,0,0,0,32.42,15.49Z"/><path class="cls-13" d="M38.72,13.68a1.07,1.07,0,1,0-1.06,1.07A1.06,1.06,0,0,0,38.72,13.68Z"/><path class="cls-14" d="M37.07,12.65a1.13,1.13,0,1,0-1.13,1.12A1.13,1.13,0,0,0,37.07,12.65Z"/><path class="cls-13" d="M37.59,11A1.56,1.56,0,1,0,36,12.52,1.55,1.55,0,0,0,37.59,11Z"/><path class="cls-11" d="M34.79,10.17a1.42,1.42,0,1,0-1.42,1.42A1.41,1.41,0,0,0,34.79,10.17Z"/><path class="cls-14" d="M35.5,12a.53.53,0,0,0-.53-.52.53.53,0,0,0,0,1.05A.53.53,0,0,0,35.5,12Z"/><circle class="cls-13" cx="37.91" cy="16.41" r="1.27"/><path class="cls-11" d="M39.71,20.61a.94.94,0,1,0-.94.94A.95.95,0,0,0,39.71,20.61Z"/><path class="cls-13" d="M42.15,18.83a.85.85,0,1,0-.85.85A.85.85,0,0,0,42.15,18.83Z"/><path class="cls-12" d="M39.37,15.1a1.32,1.32,0,1,0-1.32,1.32A1.32,1.32,0,0,0,39.37,15.1Z"/><path class="cls-13" d="M40.63,19.65A1.32,1.32,0,1,0,39.32,21,1.31,1.31,0,0,0,40.63,19.65Z"/><path class="cls-12" d="M35.06,11.07a.43.43,0,0,0-.44-.44.44.44,0,0,0-.44.44.44.44,0,0,0,.44.44A.44.44,0,0,0,35.06,11.07Z"/><path class="cls-11" d="M32.71,12.2a.84.84,0,0,0-1.68,0,.84.84,0,0,0,1.68,0Z"/><path class="cls-12" d="M32.23,10.12a1.16,1.16,0,1,0-1.16,1.15A1.15,1.15,0,0,0,32.23,10.12Z"/><circle class="cls-12" cx="32.44" cy="14.14" r="0.88"/><path class="cls-14" d="M35.47,16a1.34,1.34,0,1,0-1.33,1.33A1.34,1.34,0,0,0,35.47,16Z"/><path class="cls-12" d="M38,16.28a1.44,1.44,0,1,0-1.44,1.44A1.43,1.43,0,0,0,38,16.28Z"/><path class="cls-14" d="M39.56,20.18a1.63,1.63,0,1,0-1.63,1.63A1.63,1.63,0,0,0,39.56,20.18Z"/><path class="cls-11" d="M37.39,18.58a.86.86,0,1,0-1.71,0,.86.86,0,0,0,1.71,0Z"/><path class="cls-14" d="M37.79,17a1.54,1.54,0,1,0-1.53,1.53A1.53,1.53,0,0,0,37.79,17Z"/><path class="cls-13" d="M44.94,7.48A1.54,1.54,0,1,0,43.4,9,1.54,1.54,0,0,0,44.94,7.48Z"/><path class="cls-12" d="M33,16a.85.85,0,1,0-1.7,0A.85.85,0,0,0,33,16Z"/><path class="cls-11" d="M30.24,13.65a.9.9,0,1,0-1.8,0,.9.9,0,0,0,1.8,0Z"/><path class="cls-12" d="M30.72,13.87a1.59,1.59,0,1,0-1.59,1.58A1.58,1.58,0,0,0,30.72,13.87Z"/><path class="cls-13" d="M29.48,15.86a.59.59,0,0,0-.6-.59.58.58,0,0,0-.59.59.59.59,0,0,0,.59.6A.6.6,0,0,0,29.48,15.86Z"/><path class="cls-14" d="M35.23,18a1.37,1.37,0,1,0-1.36,1.36A1.36,1.36,0,0,0,35.23,18Z"/><path class="cls-11" d="M34.17,21.15a1,1,0,1,0-1,1A1,1,0,0,0,34.17,21.15Z"/><path class="cls-13" d="M36.56,20.76a1,1,0,1,0-1,1A1,1,0,0,0,36.56,20.76Z"/><path class="cls-13" d="M32.3,18.74a.87.87,0,1,0-.87.87A.87.87,0,0,0,32.3,18.74Z"/><path class="cls-13" d="M31,14.17a.47.47,0,1,0-.94,0,.47.47,0,1,0,.94,0Z"/><path class="cls-12" d="M30.53,10.75a1.35,1.35,0,1,0-1.35,1.35A1.36,1.36,0,0,0,30.53,10.75Z"/><path class="cls-13" d="M54.59,17.93a.67.67,0,1,0-.67.67A.67.67,0,0,0,54.59,17.93Z"/><path class="cls-13" d="M54.83,16.43a1.43,1.43,0,1,0-1.43,1.43A1.44,1.44,0,0,0,54.83,16.43Z"/><path class="cls-12" d="M53.94,14.18a.7.7,0,1,0-.7.7A.69.69,0,0,0,53.94,14.18Z"/><path class="cls-14" d="M51.42,10.1a.69.69,0,1,0-.69.69A.69.69,0,0,0,51.42,10.1Z"/><path class="cls-12" d="M54.14,15.23a1.1,1.1,0,1,0-1.1,1.1A1.09,1.09,0,0,0,54.14,15.23Z"/><path class="cls-12" d="M61.58,9.14a1.1,1.1,0,1,0-1.09,1.09A1.09,1.09,0,0,0,61.58,9.14Z"/><path class="cls-14" d="M49.54,16.75a.86.86,0,1,0-.86.85A.86.86,0,0,0,49.54,16.75Z"/><path class="cls-11" d="M50.62,19.58a1.55,1.55,0,1,0-1.54,1.54A1.55,1.55,0,0,0,50.62,19.58Z"/><path class="cls-12" d="M50.33,16.88a1.39,1.39,0,1,0-1.39,1.39A1.39,1.39,0,0,0,50.33,16.88Z"/><path class="cls-13" d="M50.27,12.39a.62.62,0,1,0-1.24,0,.62.62,0,0,0,1.24,0Z"/><path class="cls-11" d="M49.23,12.2a.84.84,0,1,0-.84.84A.84.84,0,0,0,49.23,12.2Z"/><path class="cls-13" d="M47.92,16.29a1.08,1.08,0,1,0-1.08,1.07A1.08,1.08,0,0,0,47.92,16.29Z"/><circle class="cls-12" cx="45.84" cy="17.28" r="0.52"/><path class="cls-12" d="M46.38,21.89a.72.72,0,1,0-.72.72A.71.71,0,0,0,46.38,21.89Z"/><path class="cls-12" d="M46.62,21.07a.81.81,0,1,0-.81.81A.81.81,0,0,0,46.62,21.07Z"/><path class="cls-14" d="M49.08,16.9a.6.6,0,0,0-.61-.6.61.61,0,1,0,.61.6Z"/><path class="cls-13" d="M49.43,16.05a.61.61,0,0,0-.61-.61.61.61,0,1,0,0,1.21A.6.6,0,0,0,49.43,16.05Z"/><path class="cls-13" d="M51.35,16.3a.82.82,0,1,0-.82.82A.82.82,0,0,0,51.35,16.3Z"/><path class="cls-13" d="M51.6,11.46a.95.95,0,1,0-.94.94A.94.94,0,0,0,51.6,11.46Z"/><path class="cls-11" d="M53.35,15.48a1.45,1.45,0,1,0-1.44,1.45A1.44,1.44,0,0,0,53.35,15.48Z"/><path class="cls-12" d="M43,19.31a1.45,1.45,0,1,0-1.45,1.44A1.45,1.45,0,0,0,43,19.31Z"/><path class="cls-13" d="M55.61,19.21a1.45,1.45,0,1,0-1.45,1.45A1.45,1.45,0,0,0,55.61,19.21Z"/><path class="cls-12" d="M56.07,21.75a1.45,1.45,0,1,0-1.45,1.45A1.45,1.45,0,0,0,56.07,21.75Z"/><path class="cls-11" d="M45.78,19.53A1.45,1.45,0,1,0,44.33,21,1.45,1.45,0,0,0,45.78,19.53Z"/><path class="cls-13" d="M51.75,19.89a1,1,0,1,0-1,1A1,1,0,0,0,51.75,19.89Z"/><path class="cls-14" d="M49.68,20.65a1.29,1.29,0,1,0-1.28,1.29A1.28,1.28,0,0,0,49.68,20.65Z"/><path class="cls-13" d="M50,22a1.34,1.34,0,1,0-1.33,1.34A1.34,1.34,0,0,0,50,22Z"/><path class="cls-13" d="M48.74,20.4a.58.58,0,1,0-1.15,0,.58.58,0,0,0,1.15,0Z"/><path class="cls-12" d="M50.73,15.76a1.41,1.41,0,1,0-1.4,1.4A1.41,1.41,0,0,0,50.73,15.76Z"/><circle class="cls-14" cx="54.77" cy="6.61" r="1.4"/><path class="cls-14" d="M50.88,19.12a1.41,1.41,0,1,0-1.41,1.41A1.41,1.41,0,0,0,50.88,19.12Z"/><path class="cls-11" d="M53.4,22.89A1.41,1.41,0,1,0,52,24.3,1.41,1.41,0,0,0,53.4,22.89Z"/><path class="cls-11" d="M37.59,13.93a1.41,1.41,0,1,0-1.41,1.41A1.41,1.41,0,0,0,37.59,13.93Z"/><path class="cls-14" d="M48.71,21.16a1.18,1.18,0,1,0-1.18,1.18A1.17,1.17,0,0,0,48.71,21.16Z"/><path class="cls-14" d="M57,21.89a1.18,1.18,0,1,0-1.18,1.18A1.18,1.18,0,0,0,57,21.89Z"/><path class="cls-12" d="M46.17,17.75a.54.54,0,0,0-1.08,0,.54.54,0,1,0,1.08,0Z"/><path class="cls-14" d="M42.36,19.38a.54.54,0,1,0-1.08,0,.54.54,0,0,0,1.08,0Z"/><path class="cls-12" d="M42.36,20.37a.54.54,0,1,0-.54.54A.54.54,0,0,0,42.36,20.37Z"/><path class="cls-12" d="M48.19,16.05a.51.51,0,1,0-.51.51A.51.51,0,0,0,48.19,16.05Z"/><path class="cls-11" d="M48.59,13.89a1.41,1.41,0,1,0-1.41,1.41A1.41,1.41,0,0,0,48.59,13.89Z"/><path class="cls-15" d="M63.26,10.87a.31.31,0,0,0,.15-.35C62.27,6,53.48,4.62,50.67,8.21c-1.66,2.14.68,4.83,2.9,5,3.31.25,5.65-3,9-2A.63.63,0,0,0,63.26,10.87Z"/><path class="cls-16" d="M55.71,9.81c-.72.21-2,.76-2.58,0s3.11-1.54,3.48-1.57a7.32,7.32,0,0,1,4.24.88,7.5,7.5,0,0,0-1.89.2C57.89,9.6,56.77,9.52,55.71,9.81Z"/><path class="cls-15" d="M40.91,1.34c2.67,2.21,1.33,6,3.4,8.56,1.39,1.73,4.93,2.14,5.75-.43C51.45,5.12,45.35-1.37,41,.25a.33.33,0,0,0-.21.33A.63.63,0,0,0,40.91,1.34Z"/><path class="cls-16" d="M44.43,3.28a8.15,8.15,0,0,0-.9-1.67,7.33,7.33,0,0,1,3.12,3c.18.33,1.71,3.83.67,3.76s-1.19-1.45-1.43-2.16C45.54,5.17,44.84,4.29,44.43,3.28Z"/><path class="cls-17" d="M22.5,9.92c-1.08-.4-2.06-.89-3.09-1.37-.17-.08-.06-.31.1-.29,1.15.12,2.34.12,3.5.21.9.07,1.9-.07,2.38.83a.67.67,0,0,1,0,.6c5.3,1.56,10.89,3.11,16.31,5,.14.41.3.8.46,1.2l-2-.77c-4.93-1.83-9.91-3.56-14.9-5.27a1,1,0,0,1-.14.16C24.36,10.86,23.37,10.25,22.5,9.92Zm4-3.28a6.17,6.17,0,0,0,.19.61,1.52,1.52,0,0,0,0,1.66,2.39,2.39,0,0,0,1.38,1A1.17,1.17,0,0,0,29.4,8.41a2.51,2.51,0,0,0-.94-1.12c.11.16.07.12-.14-.14a1,1,0,0,0-.57-.32.72.72,0,0,1-.67-.47C26.9,6,26.4,6.3,26.49,6.64ZM28,13.88a1.18,1.18,0,0,0-.13.52c0-.23-.1.13-.13.19a5.29,5.29,0,0,0-.24.8.15.15,0,0,0,.23.16c.18-.12.36-.17.54-.28l.28-.15-.08,0h.32a2,2,0,0,0,1.85-.9,1,1,0,0,0-.45-1.37A1.67,1.67,0,0,0,28,13.88ZM34,9.1l0-.07a2.34,2.34,0,0,0-.31-.32.18.18,0,0,0-.28,0,1.52,1.52,0,0,0-.2.6,2,2,0,0,0-.32.61,1.77,1.77,0,0,0,.08,1.09,1.22,1.22,0,1,0,2.2-1,2.29,2.29,0,0,0-.87-.85C34,9,34,9.06,34,9.1Zm-.06,6.54a2.36,2.36,0,0,0-.31,1.91c0,.29,0,.59.1.88a1.16,1.16,0,0,0,.46.63.31.31,0,0,0,.5-.16c.09-.38.13-.73.19-1.11a1,1,0,0,1,.21-.38c0-.05,0-.07.11-.07a1.09,1.09,0,0,0,.44-.53C36.12,15.78,34.67,14.71,33.91,15.64Z"/><path class="cls-17" d="M65.67,25.29a4.37,4.37,0,0,1,.55.32c.29.2.11.74-.25.6a.71.71,0,0,0-.81.11,1.13,1.13,0,0,1-.65.14c-.32-.06-.38-.06-.19,0a2.41,2.41,0,0,1-1.45-.2,1.17,1.17,0,0,1,0-2,2.35,2.35,0,0,1,1.69-.18A1.5,1.5,0,0,1,65.67,25.29ZM59.3,23.51a1.67,1.67,0,0,0,.93-2.25,1,1,0,0,0-.25-.47c.17.16,0-.17,0-.23a7.43,7.43,0,0,0-.35-.76.16.16,0,0,0-.28,0c0,.21-.16.37-.22.57L59,20.7l.08,0a1.64,1.64,0,0,0-.25.21,2.06,2.06,0,0,0-.77,1.9A1,1,0,0,0,59.3,23.51Zm-1,2.08,6.51-3.12a.69.69,0,0,0,.42.43c1,.35,1.61-.42,2.33-1,.92-.71,1.81-1.5,2.74-2.19.13-.09.06-.33-.11-.27-1.1.32-2.15.62-3.22,1-.87.34-2,.55-2.19,1.59a.81.81,0,0,0,0,.22q-3.45,1.46-6.93,2.9C58,25.33,58.17,25.47,58.33,25.59Z"/></g></g></g></svg>