<svg xmlns="http://www.w3.org/2000/svg" xmlns:xlink="http://www.w3.org/1999/xlink" viewBox="0 0 46.95 70.11"><defs><style>.cls-1{isolation:isolate;}.cls-11,.cls-2{fill:#aab3b8;}.cls-2{opacity:0.3;mix-blend-mode:multiply;}.cls-3,.cls-9{fill:#d1dce3;}.cls-4{fill:#829aa8;}.cls-13,.cls-5{fill:#fff;}.cls-5{opacity:0.7;}.cls-6{fill:#ffe084;}.cls-7{fill:#fff2bf;}.cls-8{fill:#f1c731;}.cls-11,.cls-9{opacity:0.5;}.cls-10{fill:#dfeaf2;}.cls-11,.cls-12{mix-blend-mode:screen;}.cls-12{opacity:0.6;fill:url(#linear-gradient);}.cls-14{fill:#a14a1c;}.cls-15{fill:#d78938;}.cls-16{fill:#ffd454;}</style><linearGradient id="linear-gradient" x1="17.4" y1="14.09" x2="32.81" y2="31.27" gradientUnits="userSpaceOnUse"><stop offset="0" stop-color="#fff"/><stop offset="1"/></linearGradient></defs><g class="cls-1"><g id="Capa_2" data-name="Capa 2"><g id="Layer_1" data-name="Layer 1"><path class="cls-2" d="M44.57,63.3c.24-4.29-8-8.25-18.34-8.83S7.27,56.91,7,61.21,15,69.46,25.36,70,44.33,67.6,44.57,63.3Z"/><path class="cls-3" d="M7.84,60.63c0,3,6.63,7.16,14.81,7.16s14.8-4.14,14.8-7.16-6.62-14.49-14.8-14.49S7.84,57.6,7.84,60.63Z"/><path class="cls-3" d="M7.84,60.63c0,3,6.63,7.16,14.81,7.16s14.8-4.14,14.8-7.16-6.62-14.49-14.8-14.49S7.84,57.6,7.84,60.63Z"/><path class="cls-4" d="M31.06,50.05c3.26,3.49,5.33,7.82,5.33,9.51,0,3-6.63,7.17-14.8,7.17-5.49,0-10.27-1.86-12.83-4,2.09,2.54,7.51,5.06,13.89,5.06,8.18,0,14.8-4.14,14.8-7.16C37.45,58.75,34.92,53.67,31.06,50.05Z"/><path class="cls-4" d="M10.19,60.63c0-2.21,3.41-9.13,8.21-12.24,1.28-1.8,2.72-3,4.25-3-7.14,0-12.92,10.89-12.92,13.77a3,3,0,0,0,.47,1.5Z"/><path class="cls-4" d="M22.65,45.38c5.24,0,9.49,14.21,9.49,18v.07c2.12-1.3,3.43-2.9,3.43-4.27C35.57,56.27,29.78,45.38,22.65,45.38Z"/><path class="cls-5" d="M10.19,63.29A17.55,17.55,0,0,0,15.59,66c.22-4,3.5-14.35,8.21-20.15C16.49,47,10.67,59.11,10.19,63.29Z"/><path class="cls-3" d="M45.3,17.55c0-3.35-10.22-8.27-22.65-8.27S0,14.2,0,17.55c0,7.82,0,43.3,22.65,43.3S45.3,25.37,45.3,17.55Z"/><path class="cls-6" d="M45.07,23.65c0-4-10.27-7.41-22.42-7.41S.23,19.64.23,23.65s10.26,7.41,22.42,7.41S45.07,27.67,45.07,23.65Z"/><path class="cls-7" d="M22.65,30.21C11.8,30.21,2.42,27.35.12,23.66.66,36.45,3.86,60.85,22.65,60.85s22-24.4,22.53-37.19C42.88,27.35,33.5,30.21,22.65,30.21Z"/><path class="cls-6" d="M39.7,26.49c-.84,11.7-4.44,30-19.71,30C3.42,56.46.6,34.94.12,23.66.63,36.45,3.68,60.85,21.55,60.85S42.46,36.45,43,23.66A8.62,8.62,0,0,1,39.7,26.49Z"/><path class="cls-8" d="M5.89,48C1.52,40.74.4,30.38.12,23.66A80.37,80.37,0,0,0,3.35,44.32,23.29,23.29,0,0,0,5.89,48Z"/><path class="cls-8" d="M21.55,58.72a18.44,18.44,0,0,1-15-7.16c3.19,5.44,7.94,9.29,15,9.29s11.84-3.85,15-9.29A18.44,18.44,0,0,1,21.55,58.72Z"/><path class="cls-5" d="M13.81,16c0-2,1.59-4.35,4.15-6.3C11.82,11,7.3,14.79,7.3,17.55c0,7.38,0,39.34,12.45,43C13.81,47.86,13.81,22.93,13.81,16Z"/><path class="cls-2" d="M32.33,16c0-2-1.59-4.35-4.15-6.3,6.13,1.26,10.66,5.07,10.66,7.83,0,7.38,0,39.34-12.45,43C32.32,47.86,32.33,22.93,32.33,16Z"/><path class="cls-4" d="M45.3,17.55c0-4.63-10.14-8.39-22.65-8.39S0,12.92,0,17.55s10.14,8.39,22.65,8.39S45.3,22.19,45.3,17.55Z"/><path class="cls-9" d="M43.63,18.36c.16-4.29-9.1-8.13-20.68-8.58s-21.11,2.67-21.28,7,9.09,8.13,20.68,8.57S43.46,22.65,43.63,18.36Z"/><path class="cls-10" d="M22.65,24c-11,0-20.31-3.08-20.31-6.71s9.3-6.72,20.31-6.72S43,13.65,43,17.29,33.66,24,22.65,24Z"/><path class="cls-11" d="M22.65,30.21c-8.48,0-16.06-1.74-20.07-4.27C2.66,36.36,7.87,54.7,14.31,56.57c10.13,3,12.32-13.31,12.34-26.49C25.34,30.17,24,30.21,22.65,30.21Z"/><path class="cls-8" d="M22.65,24c8.07,0,15.22-1.66,18.47-4-.68-3.13-8.86-5.69-18.47-5.69S4.86,16.89,4.18,20C7.42,22.34,14.57,24,22.65,24Z"/><path class="cls-12" d="M7.19,21.57A44.74,44.74,0,0,0,22.65,24c7.38,0,14-1.39,17.53-3.39C37.8,17.82,31.36,15.76,24,15.76,15.82,15.76,8.77,18.31,7.19,21.57Z"/><path class="cls-13" d="M4.17,21c-.17.54,2,1.68,4.76,2.55s5.2,1.15,5.37.61-2.27-.7-5.07-1.58S4.33,20.43,4.17,21Z"/><path class="cls-13" d="M31.5,10.63c0-.4-2.13-.87-4.81-1s-4.87,0-4.89.42,2.17.14,4.85.31S31.47,11,31.5,10.63Z"/><path class="cls-13" d="M5.25,28.59c-.07-2.34-.68-4.21-1.36-4.19s-1.17,1.92-1.1,4.26.67,4.21,1.35,4.19S5.31,30.92,5.25,28.59Z"/><path class="cls-13" d="M5.77,38.92c-.37-2.4-1-4.28-1.46-4.21s-.5,2.06-.13,4.45,1,4.27,1.46,4.2S6.14,41.31,5.77,38.92Z"/><path class="cls-13" d="M11.41,61.48c-.82-.56-1.69-.71-1.94-.35s.21,1.12,1,1.68,1.69.71,1.94.34S12.23,62,11.41,61.48Z"/><path class="cls-14" d="M46.93,3.11c0-1-1.69-3-4.51-3.11-.44,0-2,.18-2.35.93C37,6.6,37.51,5.07,34,10.46A70,70,0,0,0,28.28,20a18.11,18.11,0,0,0,3,2.1c1.84.94,4-.44,6-1.78A100.6,100.6,0,0,0,45,10.12,9.8,9.8,0,0,0,46.93,3.11Z"/><path class="cls-15" d="M46.3,2.2c0-.14,0-.29,0-.44A5.16,5.16,0,0,0,42.42,0c-.44,0-2,.18-2.35.93C37,6.6,37.51,5.07,34,10.46l-.28.42A64.87,64.87,0,0,0,28.28,20a18.11,18.11,0,0,0,3,2.1,3.81,3.81,0,0,0,3.44-.26c.11-.16.22-.3.32-.43,3.93-5.07,5.83-6.81,9.3-12.18A9.79,9.79,0,0,0,46.3,2.2Z"/><path class="cls-16" d="M46.17,1.65A5.18,5.18,0,0,0,42.42,0a4,4,0,0,0-.51,0c.49,2,1.57,4.87.18,7.4-1.48,2.7-3,4.3-4.66,6.83s-3.81,5.51-5.6,8A4.05,4.05,0,0,0,34.36,22c.79-1,1.57-2,2.32-3,1.39-1.82,2.7-3.68,3.93-5.61,1.72-2.71,2.75-3.06,4.49-6.51.23-.47.41-1.44.5-1.63A7.26,7.26,0,0,0,46.17,1.65Z"/></g></g></g></svg>