<?xml version="1.0" encoding="UTF-8"?>
<!DOCTYPE svg PUBLIC "-//W3C//DTD SVG 1.1//EN" "http://www.w3.org/Graphics/SVG/1.1/DTD/svg11.dtd">
<!-- Creator: CorelDRAW 2019 (64-Bit) -->
<svg xmlns="http://www.w3.org/2000/svg" xml:space="preserve" width="46.3128mm" height="42.5414mm" version="1.1" style="shape-rendering:geometricPrecision; text-rendering:geometricPrecision; image-rendering:optimizeQuality; fill-rule:evenodd; clip-rule:evenodd"
viewBox="0 0 6590.73 6054.03"
 xmlns:xlink="http://www.w3.org/1999/xlink">
 <defs>
  <style type="text/css">
   <![CDATA[
    .fil0 {fill:none}
    .fil1 {fill:#7C72FF}
    .fil6 {fill:url(#id0)}
    .fil14 {fill:url(#id1)}
    .fil15 {fill:url(#id2)}
    .fil11 {fill:url(#id3)}
    .fil9 {fill:url(#id4)}
    .fil13 {fill:url(#id5)}
    .fil16 {fill:url(#id6)}
    .fil7 {fill:url(#id7)}
    .fil12 {fill:url(#id8)}
    .fil17 {fill:url(#id9)}
    .fil2 {fill:url(#id10)}
    .fil3 {fill:url(#id11)}
    .fil10 {fill:url(#id12)}
    .fil8 {fill:url(#id13)}
    .fil5 {fill:url(#id14)}
    .fil4 {fill:url(#id15)}
   ]]>
  </style>
  <linearGradient id="id0" gradientUnits="objectBoundingBox" x1="0%" y1="50%" x2="100%" y2="50%">
   <stop offset="0" style="stop-opacity:1; stop-color:#7C72FF"/>
   <stop offset="1" style="stop-opacity:1; stop-color:#6D64F4"/>
  </linearGradient>
  <linearGradient id="id1" gradientUnits="userSpaceOnUse" xlink:href="#id0" x1="2117.66" y1="670.28" x2="2914.23" y2="670.28">
  </linearGradient>
  <linearGradient id="id2" gradientUnits="userSpaceOnUse" xlink:href="#id0" x1="2117.66" y1="1723.11" x2="2914.23" y2="1723.11">
  </linearGradient>
  <linearGradient id="id3" gradientUnits="userSpaceOnUse" xlink:href="#id0" x1="661.51" y1="2913.75" x2="2031.21" y2="2913.75">
  </linearGradient>
  <linearGradient id="id4" gradientUnits="userSpaceOnUse" xlink:href="#id0" x1="1781.71" y1="3563.55" x2="2031.21" y2="3563.55">
  </linearGradient>
  <linearGradient id="id5" gradientUnits="userSpaceOnUse" xlink:href="#id0" x1="3170.96" y1="670.28" x2="3967.48" y2="670.28">
  </linearGradient>
  <linearGradient id="id6" gradientUnits="userSpaceOnUse" xlink:href="#id0" x1="3170.96" y1="1723.11" x2="3967.48" y2="1723.11">
  </linearGradient>
  <linearGradient id="id7" gradientUnits="objectBoundingBox" xlink:href="#id0" x1="0%" y1="50.0099%" x2="100%" y2="50.0099%">
  </linearGradient>
  <linearGradient id="id8" gradientUnits="userSpaceOnUse" xlink:href="#id0" x1="3960.39" y1="3053.46" x2="4448.16" y2="3053.46">
  </linearGradient>
  <linearGradient id="id9" gradientUnits="objectBoundingBox" xlink:href="#id0" x1="0%" y1="50%" x2="99.9924%" y2="50%">
  </linearGradient>
  <linearGradient id="id10" gradientUnits="objectBoundingBox" xlink:href="#id0" x1="8.64832e-15%" y1="50.0101%" x2="99.9899%" y2="50.0101%">
  </linearGradient>
  <linearGradient id="id11" gradientUnits="objectBoundingBox" xlink:href="#id0" x1="0%" y1="50.0107%" x2="99.9901%" y2="50.0107%">
  </linearGradient>
  <linearGradient id="id12" gradientUnits="userSpaceOnUse" xlink:href="#id0" x1="661.51" y1="3176.87" x2="1672.47" y2="3176.87">
  </linearGradient>
  <linearGradient id="id13" gradientUnits="userSpaceOnUse" xlink:href="#id0" x1="661.51" y1="3563.55" x2="1672.47" y2="3563.55">
  </linearGradient>
  <linearGradient id="id14" gradientUnits="userSpaceOnUse" xlink:href="#id0" x1="1518.48" y1="4081.67" x2="2721.18" y2="4081.67">
  </linearGradient>
  <linearGradient id="id15" gradientUnits="userSpaceOnUse" xlink:href="#id0" x1="2822.89" y1="1196.71" x2="3262.22" y2="1196.71">
  </linearGradient>
 </defs>
 <g id="Capa_x0020_1">
  <metadata id="CorelCorpID_0Corel-Layer"/>
  <path id="Fill-1" class="fil0" d="M2427.62 2161.93l1133.12 0c27.74,0 54.7,3.54 80.43,10.22 -174.29,107.24 -379.32,169.21 -598.59,169.21l0 0c-226.14,0 -437.2,-65.87 -614.96,-179.42z"/>
  <path id="Fill-1_0" class="fil0" d="M6590.73 2917.02c0,177.2 -145.07,322.17 -322.37,322.17l-2881.69 0c-177.32,0 -322.39,-144.97 -322.39,-322.17l0 -1138.47c0,-87.32 35.25,-166.8 92.2,-224.98 125.36,72.35 270.81,113.75 425.95,113.75 215.1,0 411.59,-79.61 561.69,-210.93l899.29 0 1547.31 1460.63zm-1472.57 -1410.03l2.38 1.49c6.22,3.86 12.45,7.64 18.76,11.4l1.22 0.73c9.04,5.37 18.16,10.62 27.34,15.75l2.79 1.55c6.08,3.37 12.2,6.7 18.34,9.98l1.08 0.58 10.26 5.39 13.9 7.1 9.05 4.5c5.51,2.7 11.03,5.38 16.58,8l10.13 4.74c5.32,2.46 10.66,4.87 16.02,7.24l11.31 4.97c4.64,2.01 9.28,3.98 13.96,5.92 5.25,2.19 10.52,4.35 15.8,6.46l9.56 3.76c5.48,2.13 10.97,4.21 16.48,6.28l11.63 4.27 17.11 6.05 9.25 3.13c6.66,2.23 13.33,4.38 20.04,6.5l7.12 2.21c6.76,2.08 13.55,4.13 20.36,6.09l8.42 2.39c7,1.96 14.03,3.87 21.08,5.71l6.2 1.61c7.51,1.92 15.07,3.77 22.64,5.54l6.42 1.48c7.47,1.71 14.96,3.34 22.47,4.91l6.56 1.34c7.96,1.61 15.94,3.15 23.95,4.6l3.98 0.71c8.99,1.59 18.02,3.1 27.07,4.5l0.63 0.1 0.06 0.01 0.73 0.1c9.26,1.42 18.57,2.72 27.89,3.91l2.48 0.31c9.11,1.15 18.24,2.19 27.42,3.15l1.3 0.14 0.03 0.01 1.3 0.11c9.25,0.94 18.53,1.76 27.84,2.48l2.08 0.16c9.82,0.75 19.62,1.38 29.5,1.88l0.01 0c9.82,0.5 19.67,0.87 29.56,1.12l2.23 0.06c9.88,0.24 19.8,0.38 29.73,0.38 10.1,0 20.17,-0.14 30.2,-0.38l1.15 -0.03c9.99,-0.26 19.95,-0.64 29.88,-1.14l0.61 -0.03c9.99,-0.51 19.94,-1.14 29.86,-1.91l0.81 -0.06c9.51,-0.73 18.96,-1.58 28.4,-2.53l2.11 -0.2c9.35,-0.95 18.67,-2.04 27.95,-3.22l2.36 -0.3c9.21,-1.18 18.37,-2.46 27.51,-3.86l2.83 -0.44c9.15,-1.41 18.26,-2.92 27.34,-4.54l0.64 -0.1 0.3 -0.06c8.75,-1.57 17.46,-3.24 26.16,-5.01l5.15 -1.05c8.04,-1.67 16.05,-3.42 24.02,-5.24l5.81 -1.35c7.6,-1.78 15.16,-3.63 22.7,-5.55l6.72 -1.74c6.87,-1.79 13.7,-3.64 20.52,-5.56l7.78 -2.21c7,-2.02 13.96,-4.1 20.91,-6.23l7.74 -2.41c6.26,-1.98 12.51,-4.01 18.73,-6.09l11.19 -3.79c5.52,-1.91 11,-3.86 16.49,-5.83l10.87 -3.98c5.62,-2.09 11.23,-4.23 16.81,-6.4l10.62 -4.2 15.23 -6.22 12.18 -5.15 13.56 -5.95c4.95,-2.21 9.9,-4.43 14.81,-6.7l1.3 -0.6 9.72 -4.54 1.17 -0.56 14.27 -6.92 9.92 -4.94c5.74,-2.89 11.46,-5.82 17.13,-8.79l8.57 -4.53c5.19,-2.78 10.37,-5.56 15.51,-8.41l0.07 -0.04 9.32 -5.21 0.16 -0.09c5.55,-3.13 11.06,-6.3 16.55,-9.52l8.79 -5.21c6.23,-3.73 12.44,-7.53 18.6,-11.36l2.97 -1.85c5.61,-3.52 11.17,-7.06 16.72,-10.66l8.89 -5.83c106.9,52.6 180.92,162.7 180.92,289.26l0 1138.47 -1472.57 -1410.03zm632.04 180.79l0 0zm634 -182c5.59,-3.52 11.17,-7.06 16.72,-10.66l-16.72 10.66z"/>
  <path id="Fill-1_1" class="fil0" d="M2335.81 2161.93l91.82 0c177.76,113.55 388.82,179.42 614.96,179.42l0 0c219.27,0 424.31,-61.96 598.59,-169.21 21.26,5.51 41.67,13.16 61.02,22.68 -189.27,125.36 -416.04,198.49 -659.62,198.49l0 0c-264.15,0 -508.56,-86.01 -706.78,-231.39z"/>
  <path id="Fill-3" class="fil1" d="M416.72 2255.26c-53.55,61.24 -86.04,141.3 -86.04,228.82l0 0 0 1138.5c0,191.96 156.28,348.17 348.39,348.17l0 0 2881.66 0c192.1,0 348.4,-156.21 348.4,-348.17l0 0 0 -1138.5c0,-135.14 -77.46,-252.54 -190.32,-310.21 -16.88,11.71 -34.07,23 -51.57,33.84 110.94,42.85 189.9,150.56 189.9,276.36l0 0 0 1138.5c0,163.31 -133,296.19 -296.4,296.19l0 0 -2881.66 0c-163.4,0 -296.39,-132.87 -296.39,-296.19l0 0 0 -1138.5c0,-78.14 30.47,-149.31 80.13,-202.28 -15.65,-8.38 -31.04,-17.23 -46.09,-26.54zm1900.33 -119.33l-852.67 0c-18.4,18.17 -37.58,35.53 -57.56,51.99l982.6 0c-24.79,-16.44 -48.94,-33.77 -72.36,-51.99z"/>
  <path id="Fill-8" class="fil2" d="M3042.58 0c-660.17,0 -1197.26,536.82 -1197.26,1196.68l0 0c0,659.86 537.09,1196.65 1197.26,1196.65l0 0c660.17,0 1197.28,-536.79 1197.28,-1196.65l0 0c0,-659.86 -537.1,-1196.68 -1197.28,-1196.68zm-1145.25 1196.68c0,-631.2 513.78,-1144.71 1145.25,-1144.71l0 0c631.5,0 1145.25,513.51 1145.25,1144.71l0 0c0,631.16 -513.75,1144.68 -1145.25,1144.68l0 0c-631.47,0 -1145.25,-513.52 -1145.25,-1144.68l0 0z"/>
  <path id="Fill-13" class="fil3" d="M-0 1529.62c0,476.24 387.65,863.7 864.12,863.7l0 0c476.52,0 864.17,-387.47 864.17,-863.7l0 0c0,-476.24 -387.65,-863.7 -864.17,-863.7l0 0c-476.47,0 -864.12,387.47 -864.12,863.7m52.01 0c0,-447.56 364.3,-811.72 812.1,-811.72l0 0c447.79,0 812.14,364.15 812.14,811.72l0 0c0,447.58 -364.35,811.73 -812.14,811.73l0 0c-447.8,0 -812.1,-364.15 -812.1,-811.73z"/>
  <path id="Fill-18" class="fil4" d="M2822.89 1196.65c0,121.08 98.56,219.6 219.7,219.6l0 0c121.13,0 219.7,-98.52 219.7,-219.6l0 0c0,-121.08 -98.56,-219.58 -219.7,-219.58l0 0c-121.13,0 -219.7,98.51 -219.7,219.58m22.98 0c0,-108.43 88.23,-196.61 196.71,-196.61l0 0c108.47,0 196.73,88.19 196.73,196.61l0 0c0,108.43 -88.26,196.64 -196.73,196.64l0 0c-108.48,0 -196.71,-88.22 -196.71,-196.64z"/>
  <path id="Fill-21" class="fil0" d="M1516.05 3944.75l0 10.97c0,145.21 117.73,262.89 262.99,262.89l624.74 0c145.34,0 263.07,-117.68 263.07,-262.89l0 -10.97 -1150.8 0z"/>
  <path id="Fill-23" class="fil5" d="M1544.51 3918.77c-14.37,0 -26.03,11.63 -26.03,25.99l0 0 0 10.97c0,159.3 129.7,288.86 289.02,288.86l0 0 624.72 0c159.39,0 289.09,-129.56 289.09,-288.86l0 0 0 -10.97c0,-14.36 -11.64,-25.99 -26,-25.99l0 0 -1150.8 0zm26.46 51.99l1097.86 0c-7.77,123.65 -110.93,221.87 -236.6,221.87l0 0 -624.72 0c-125.59,0 -228.76,-98.22 -236.53,-221.87l0 0z"/>
  <path id="Fill-26" class="fil6" d="M2093.89 4218.61l0 1788.34c0,14.34 11.63,25.96 26,25.96l0 0c14.37,0 26,-11.61 26,-25.96l0 0 0 -1788.34c0,-14.39 -11.63,-25.99 -26,-25.99l0 0c-14.37,0 -26,11.6 -26,25.99z"/>
  <path id="Fill-29" class="fil7" d="M2101.52 4200.23l-1810.2 1809.45c-10.19,10.15 -10.19,26.6 0,36.77l0 0c5.07,5.05 11.71,7.59 18.37,7.59l0 0c6.66,0 13.32,-2.53 18.39,-7.59l0 0 1810.2 -1809.46c10.15,-10.18 10.15,-26.58 0,-36.76l0 0c-5.07,-5.07 -11.73,-7.6 -18.39,-7.6l0 0c-6.66,0 -13.31,2.53 -18.37,7.6z"/>
  <path id="Fill-32" class="fil7" d="M2101.52 4200.23c-10.16,10.18 -10.16,26.58 0,36.76l0 0 1810.2 1809.46c5.08,5.05 11.74,7.59 18.4,7.59l0 0c6.63,0 13.29,-2.53 18.37,-7.59l0 0c10.16,-10.18 10.16,-26.63 0,-36.77l0 0 -1810.21 -1809.45c-5.07,-5.07 -11.73,-7.6 -18.39,-7.6l0 0c-6.66,0 -13.31,2.53 -18.37,7.6z"/>
  <path id="Fill-35" class="fil8" d="M687.51 3440.92c-14.4,0 -26,11.61 -26,25.99l0 0 0 193.24c0,14.34 11.6,25.99 26,25.99l0 0 959.04 0c14.37,0 26.03,-11.64 26.03,-25.99l0 0 0 -193.24c0,-14.37 -11.66,-25.99 -26.03,-25.99l0 0 -959.04 0zm26 193.21l907.04 0 0 -141.24 -907.04 0 0 141.24z"/>
  <path id="Fill-38" class="fil9" d="M1807.72 3440.92c-14.39,0 -26.01,11.61 -26.01,25.99l0 0 0 193.24c0,14.34 11.63,25.99 26.01,25.99l0 0 197.48 0c14.37,0 26,-11.64 26,-25.99l0 0 0 -193.24c0,-14.37 -11.63,-25.99 -26,-25.99l0 0 -197.48 0zm26 193.21l145.47 0 0 -141.24 -145.47 0 0 141.24z"/>
  <path id="Fill-41" class="fil10" d="M687.51 3150.88c-14.4,0 -26,11.6 -26,25.99l0 0c0,14.34 11.6,25.99 26,25.99l0 0 959.04 0c14.37,0 26.03,-11.64 26.03,-25.99l0 0c0,-14.39 -11.66,-25.99 -26.03,-25.99l0 0 -959.04 0z"/>
  <path id="Fill-44" class="fil11" d="M687.51 2887.72c-14.4,0 -26,11.64 -26,25.99l0 0c0,14.37 11.6,26.01 26,26.01l0 0 1317.7 0c14.37,0 26,-11.64 26,-26.01l0 0c0,-14.34 -11.63,-25.99 -26,-25.99l0 0 -1317.7 0z"/>
  <polygon id="Fill-47" class="fil0" points="3986.39,2745.17 3986.39,3361.51 4422.21,3613.02 4422.21,2493.63 "/>
  <path id="Fill-49" class="fil12" d="M4409.22 2471.11l-435.85 251.53c-8.01,4.68 -12.98,13.23 -12.98,22.51l0 0 0 616.37c0,9.28 4.97,17.83 12.98,22.48l0 0 435.85 251.55c3.97,2.29 8.51,3.47 12.99,3.47l0 0c4.44,0 8.98,-1.18 13.01,-3.47l0 0c8.01,-4.65 12.99,-13.23 12.99,-22.53l0 0 0 -1119.4c0,-9.28 -4.98,-17.85 -12.99,-22.51l0 0c-4.03,-2.29 -8.51,-3.46 -13.02,-3.46l0 0c-4.5,0 -8.98,1.17 -12.98,3.46l0 0zm-396.84 875.39l0 -586.34 383.84 -221.48 0 1029.32 -383.84 -221.5z"/>
  <polygon id="Fill-52" class="fil0" points="4422.21,2422.12 4422.21,3684.5 4604.26,3789.59 4604.26,2317.06 "/>
  <path id="Fill-54" class="fil6" d="M4591.23 2294.55l-182.01 105.07c-8.04,4.61 -13.01,13.22 -13.01,22.5l0 0 0 1262.38c0,9.28 4.97,17.89 13.01,22.51l0 0 182.01 105.1c4.03,2.32 8.57,3.47 13.02,3.47l0 0c4.47,0 9.01,-1.15 13.01,-3.47l0 0c8.01,-4.65 13.01,-13.21 13.01,-22.51l0 0 0 -1472.52c0,-9.29 -5,-17.87 -13.01,-22.53l0 0c-4,-2.31 -8.51,-3.47 -13.01,-3.47l0 0c-4.51,0 -8.99,1.17 -13.02,3.47l0 0zm-143.02 1374.95l0 -1232.35 130.01 -75.01 0 1382.42 -130.01 -75.05z"/>
  <path id="Fill-59" class="fil13" d="M3177.81 276.85c-4.34,3.73 -6.85,9.11 -6.85,14.8l0 0 0 573.72c0,7.68 4.55,14.63 11.6,17.76l0 0c77.69,34.31 139.36,95.96 173.69,173.62l0 0c3.07,7.04 10.09,11.57 17.76,11.57l0 0 574.02 0c5.69,0 11.09,-2.48 14.83,-6.8l0 0c3.67,-4.35 5.25,-10.1 4.38,-15.7l0 0c-63.8,-398.82 -374.71,-709.61 -773.73,-773.38l0 0c-0.98,-0.14 -1.98,-0.21 -2.96,-0.21l0 0c-4.64,0 -9.16,1.61 -12.74,4.63m32.06 576.07l0 -538.2c364.06,67.61 647.41,350.88 715.05,714.73l0 0 -538.41 0c-37.31,-77.25 -99.3,-139.28 -176.63,-176.53z"/>
  <path id="Fill-64" class="fil14" d="M2891.72 272.44c-399.03,63.77 -710.01,374.56 -773.81,773.38l0 0c-0.9,5.59 0.73,11.34 4.41,15.7l0 0c3.71,4.33 9.09,6.8 14.84,6.8l0 0 573.93 0c7.73,0 14.67,-4.53 17.8,-11.57l0 0c34.35,-77.69 96.07,-139.33 173.75,-173.62l0 0c7.04,-3.13 11.58,-10.08 11.58,-17.76l0 0 0 -573.72c0,-5.69 -2.49,-11.07 -6.83,-14.8l0 0c-3.57,-3.02 -8.1,-4.63 -12.74,-4.63l0 0c-0.97,0 -1.95,0.07 -2.95,0.21m-16.38 42.28l0 538.2c-77.3,37.2 -139.33,99.22 -176.66,176.53l0 0 -538.43 0c67.64,-363.91 351.01,-647.12 715.09,-714.73z"/>
  <path id="Fill-69" class="fil15" d="M2137.17 1324.94c-5.75,0 -11.13,2.5 -14.84,6.82l0 0c-3.69,4.34 -5.31,10.08 -4.41,15.7l0 0c63.8,398.78 374.73,709.6 773.81,773.41l0 0c1.02,0.16 2.04,0.24 3.07,0.24l0 0c4.58,0 9.09,-1.64 12.61,-4.63l0 0c4.34,-3.71 6.83,-9.11 6.83,-14.86l0 0 0 -573.68c0,-7.71 -4.54,-14.69 -11.58,-17.8l0 0c-77.67,-34.28 -139.39,-95.93 -173.75,-173.63l0 0c-3.13,-7.02 -10.08,-11.57 -17.8,-11.57l0 0 -573.93 0zm23.08 38.86l538.43 0c37.33,77.29 99.36,139.31 176.66,176.55l0 0 0 538.2c-364.08,-67.63 -647.45,-350.89 -715.09,-714.75l0 0z"/>
  <path id="Fill-74" class="fil16" d="M3374.01 1324.94c-7.67,0 -14.69,4.55 -17.76,11.57l0 0c-34.32,77.69 -96,139.31 -173.69,173.63l0 0c-7.04,3.12 -11.6,10.09 -11.6,17.8l0 0 0 573.68c0,5.75 2.5,11.14 6.85,14.86l0 0c3.54,2.99 8.01,4.63 12.61,4.63l0 0c1.02,0 2.04,-0.09 3.09,-0.24l0 0c399.02,-63.81 709.94,-374.63 773.73,-773.41l0 0c0.87,-5.62 -0.71,-11.36 -4.38,-15.7l0 0c-3.74,-4.31 -9.14,-6.82 -14.83,-6.82l0 0 -574.02 0zm-164.14 215.41c77.33,-37.27 139.32,-99.27 176.63,-176.55l0 0 538.41 0c-67.6,363.86 -350.99,647.12 -715.05,714.75l0 0 0 -538.2z"/>
  <path id="Fill-79" class="fil6" d="M967.26 883.88c-3.06,2.65 -4.82,6.43 -4.82,10.49l0 0 0 405.6c0,5.45 3.22,10.36 8.18,12.55l0 0c54.95,24.26 98.56,67.85 122.8,122.77l0 0c2.18,4.94 7.14,8.17 12.57,8.17l0 0 405.82 0c4.03,0 7.86,-1.75 10.49,-4.82l0 0c2.58,-3.06 3.74,-7.13 3.09,-11.09l0 0c-45.11,-281.96 -264.91,-501.67 -547.02,-546.78l0 0c-0.7,-0.1 -1.39,-0.14 -2.11,-0.14l0 0c-3.27,0 -6.46,1.14 -8.99,3.26m22.68 407.3l0 -380.49c257.37,47.77 457.72,248.03 505.52,505.28l0 0 -380.66 0c-26.36,-54.6 -70.22,-98.46 -124.86,-124.79z"/>
  <path id="Fill-84" class="fil17" d="M765.01 880.77c-282.07,45.11 -501.97,264.82 -547.08,546.78l0 0c-0.6,3.96 0.51,8.03 3.15,11.09l0 0c2.63,3.07 6.43,4.82 10.45,4.82l0 0 405.81 0c5.44,0 10.37,-3.23 12.57,-8.17l0 0c24.29,-54.95 67.92,-98.53 122.86,-122.77l0 0c4.97,-2.19 8.2,-7.1 8.2,-12.55l0 0 0 -405.6c0,-4.06 -1.78,-7.84 -4.85,-10.49l0 0c-2.53,-2.12 -5.74,-3.26 -8.99,-3.26l0 0c-0.7,0 -1.39,0.04 -2.09,0.14m-11.61 29.93l0 380.49c-54.6,26.3 -98.48,70.16 -124.86,124.79l0 0 -380.66 0c47.8,-257.25 248.16,-457.51 505.52,-505.28z"/>
  <path id="Fill-89" class="fil17" d="M231.52 1624.86c-4.01,0 -7.81,1.79 -10.45,4.85l0 0c-2.63,3.06 -3.74,7.12 -3.15,11.09l0 0c45.11,281.94 264.95,501.7 547.08,546.81l0 0c0.73,0.1 1.44,0.17 2.16,0.17l0 0c3.26,0 6.45,-1.18 8.92,-3.29l0 0c3.07,-2.62 4.85,-6.43 4.85,-10.5l0 0 0 -405.58c0,-5.46 -3.23,-10.36 -8.2,-12.58l0 0c-54.93,-24.25 -98.56,-67.82 -122.86,-122.77l0 0c-2.19,-4.94 -7.13,-8.2 -12.57,-8.2l0 0 -405.81 0zm16.35 27.49l380.66 0c26.38,54.68 70.26,98.53 124.86,124.81l0 0 0 380.55c-257.37,-47.83 -457.72,-248.09 -505.52,-505.35l0 0z"/>
  <path id="Fill-94" class="fil6" d="M1105.98 1624.86c-5.42,0 -10.39,3.26 -12.57,8.2l0 0c-24.24,54.93 -67.85,98.49 -122.8,122.77l0 0c-4.97,2.22 -8.18,7.12 -8.18,12.58l0 0 0 405.58c0,4.07 1.76,7.88 4.82,10.5l0 0c2.52,2.11 5.68,3.29 8.91,3.29l0 0c0.74,0 1.47,-0.07 2.19,-0.17l0 0c282.11,-45.11 501.91,-264.87 547.02,-546.81l0 0c0.65,-3.97 -0.51,-8.03 -3.09,-11.09l0 0c-2.63,-3.06 -6.46,-4.85 -10.49,-4.85l0 0 -405.82 0zm-116.04 152.3c54.65,-26.33 98.51,-70.16 124.86,-124.81l0 0 380.66 0c-47.8,257.27 -248.16,457.52 -505.52,505.35l0 0 0 -380.55z"/>
  <path id="Fill-13_2" class="fil3" d="M-0 1529.62c0,476.24 387.65,863.7 864.12,863.7l0 0c476.52,0 864.17,-387.47 864.17,-863.7l0 0c0,-476.24 -387.65,-863.7 -864.17,-863.7l0 0c-476.47,0 -864.12,387.47 -864.12,863.7m52.01 0c0,-447.56 364.3,-811.72 812.1,-811.72l0 0c447.79,0 812.14,364.15 812.14,811.72l0 0c0,447.58 -364.35,811.73 -812.14,811.73l0 0c-447.8,0 -812.1,-364.15 -812.1,-811.73z"/>
  <path id="Fill-8_3" class="fil2" d="M3042.58 0c-660.17,0 -1197.26,536.82 -1197.26,1196.68l0 0c0,659.86 537.09,1196.65 1197.26,1196.65l0 0c660.17,0 1197.28,-536.79 1197.28,-1196.65l0 0c0,-659.86 -537.1,-1196.68 -1197.28,-1196.68zm-1145.25 1196.68c0,-631.2 513.78,-1144.71 1145.25,-1144.71l0 0c631.5,0 1145.25,513.51 1145.25,1144.71l0 0c0,631.16 -513.75,1144.68 -1145.25,1144.68l0 0c-631.47,0 -1145.25,-513.52 -1145.25,-1144.68l0 0z"/>
 </g>
</svg>
