<?xml version="1.0" encoding="UTF-8"?>
<!DOCTYPE svg PUBLIC "-//W3C//DTD SVG 1.1//EN" "http://www.w3.org/Graphics/SVG/1.1/DTD/svg11.dtd">
<!-- Creator: CorelDRAW 2019 (64-Bit) -->
<svg xmlns="http://www.w3.org/2000/svg" xml:space="preserve" width="37.4769mm" height="23.0504mm" version="1.1" style="shape-rendering:geometricPrecision; text-rendering:geometricPrecision; image-rendering:optimizeQuality; fill-rule:evenodd; clip-rule:evenodd"
viewBox="0 0 3738.32 2299.28"
 xmlns:xlink="http://www.w3.org/1999/xlink">
 <defs>
  <style type="text/css">
   <![CDATA[
    .fil1 {fill:none}
    .fil4 {fill:url(#id0)}
    .fil2 {fill:url(#id1)}
    .fil6 {fill:url(#id2)}
    .fil7 {fill:url(#id3)}
    .fil0 {fill:url(#id4)}
    .fil5 {fill:url(#id5)}
    .fil8 {fill:url(#id6)}
    .fil3 {fill:url(#id7)}
   ]]>
  </style>
  <linearGradient id="id0" gradientUnits="userSpaceOnUse" x1="937.23" y1="1149.69" x2="1363.1" y2="1149.69">
   <stop offset="0" style="stop-opacity:1; stop-color:#7C72FF"/>
   <stop offset="1" style="stop-opacity:1; stop-color:#6D64F4"/>
  </linearGradient>
  <linearGradient id="id1" gradientUnits="userSpaceOnUse" xlink:href="#id0" x1="-0" y1="1149.87" x2="2300.35" y2="1149.87">
  </linearGradient>
  <linearGradient id="id2" gradientUnits="userSpaceOnUse" xlink:href="#id0" x1="381.16" y1="712.95" x2="1042.92" y2="712.95">
  </linearGradient>
  <linearGradient id="id3" gradientUnits="userSpaceOnUse" xlink:href="#id0" x1="381.16" y1="1587.62" x2="1042.92" y2="1587.62">
  </linearGradient>
  <linearGradient id="id4" gradientUnits="userSpaceOnUse" xlink:href="#id0" x1="2267.99" y1="1716.38" x2="3738.18" y2="1716.38">
  </linearGradient>
  <linearGradient id="id5" gradientUnits="userSpaceOnUse" xlink:href="#id0" x1="1256.19" y1="712.95" x2="1917.85" y2="712.95">
  </linearGradient>
  <linearGradient id="id6" gradientUnits="userSpaceOnUse" xlink:href="#id0" x1="1256.19" y1="1587.62" x2="1917.85" y2="1587.62">
  </linearGradient>
  <linearGradient id="id7" gradientUnits="userSpaceOnUse" xlink:href="#id0" x1="254.24" y1="1149.81" x2="2045.91" y2="1149.81">
  </linearGradient>
 </defs>
 <g id="Capa_x0020_1">
  <metadata id="CorelCorpID_0Corel-Layer"/>
  <path id="Fill-1" class="fil0" d="M2284.15 1133.48l-16.16 16.15 0 0 16.16 16.16 0 0 59.07 0c198.12,0 359.27,172.72 359.27,385.03l0 0 0 331.12c0,230.12 187.33,417.34 417.54,417.34l0 0 602.11 0c8.94,0 16.18,-7.22 16.18,-16.15l0 0c0,-8.94 -7.24,-16.16 -16.18,-16.16l0 0 -602.11 0c-212.41,0 -385.2,-172.73 -385.2,-385.04l0 0 0 -331.12c0,-230.12 -175.68,-417.33 -391.61,-417.33l0 0 -59.07 0z"/>
  <path id="Fill-4" class="fil1" d="M1150.19 2029.06c-485.92,0 -879.78,-393.73 -879.78,-879.41 0,-485.68 393.85,-879.42 879.78,-879.42 485.89,0 879.72,393.73 879.72,879.42 0,485.67 -393.82,879.41 -879.72,879.41m0 -2012.9c-626.36,0 -1134.02,507.46 -1134.02,1133.49 0,626.01 507.66,1133.47 1134.02,1133.47 626.3,0 1133.99,-507.46 1133.99,-1133.47 0,-626.03 -507.69,-1133.49 -1133.99,-1133.49z"/>
  <path id="Fill-6" class="fil2" d="M1150.2 0c-634.23,0 -1150.2,515.74 -1150.2,1149.63l0 0c0,633.91 515.97,1149.65 1150.2,1149.65l0 0c634.18,0 1150.15,-515.74 1150.15,-1149.65l0 0c0,-633.89 -515.97,-1149.63 -1150.15,-1149.63zm-1117.88 1149.63c0,-616.09 501.48,-1117.3 1117.88,-1117.3l0 0c616.38,0 1117.81,501.21 1117.81,1117.3l0 0c0,616.12 -501.43,1117.34 -1117.81,1117.34l0 0c-616.4,0 -1117.88,-501.22 -1117.88,-1117.34l0 0zm221.92 0c0,493.81 401.91,895.59 895.96,895.59l0 0c493.99,0 895.9,-401.77 895.9,-895.59l0 0c0,-493.79 -401.9,-895.55 -895.9,-895.55l0 0c-494.04,0 -895.96,401.75 -895.96,895.55l0 0zm32.33 0c0,-475.99 387.41,-863.24 863.63,-863.24l0 0c476.17,0 863.54,387.25 863.54,863.24l0 0c0,476.03 -387.37,863.28 -863.54,863.28l0 0c-476.22,0 -863.63,-387.25 -863.63,-863.28l0 0z"/>
  <path id="Fill-9" class="fil1" d="M1272.35 1902.11l0 -476.64c67.97,-30.01 122.55,-84.56 152.53,-152.5l476.87 0c-51.54,322.37 -306.92,577.59 -629.39,629.13l0 0zm-318.96 -752.47c0,-108.67 88.15,-196.67 196.81,-196.67 108.62,0 196.75,88 196.75,196.67 0,108.65 -88.13,196.68 -196.75,196.68 -108.66,0 -196.81,-88.03 -196.81,-196.68l0 0zm73.37 752.47c-322.51,-51.54 -577.87,-306.76 -629.41,-629.13l476.83 0c30.04,67.94 84.59,122.48 152.59,152.5l0 476.64zm0 -1503.71l0 476.61c-68,30 -122.54,84.56 -152.59,152.5l-476.83 0c51.54,-322.35 306.9,-577.59 629.41,-629.1l0 0zm245.59 0c322.47,51.51 577.85,306.75 629.39,629.1l-476.87 0c-29.97,-67.94 -84.56,-122.49 -152.53,-152.5l0 -476.61zm-122.15 -128.16c-485.93,0 -879.79,393.73 -879.79,879.4 0,485.67 393.85,879.42 879.79,879.42 485.87,0 879.72,-393.74 879.72,-879.42 0,-485.66 -393.84,-879.4 -879.72,-879.4l0 0z"/>
  <path id="Fill-11" class="fil3" d="M254.24 1149.63c0,493.81 401.91,895.59 895.96,895.59l0 0c493.99,0 895.9,-401.77 895.9,-895.59l0 0c0,-493.79 -401.9,-895.55 -895.9,-895.55l0 0c-494.04,0 -895.96,401.75 -895.96,895.55l0 0zm32.33 0c0,-475.99 387.41,-863.24 863.63,-863.24l0 0c476.17,0 863.54,387.25 863.54,863.24l0 0c0,476.03 -387.37,863.28 -863.54,863.28l0 0c-476.22,0 -863.63,-387.25 -863.63,-863.28l0 0zm975.31 -763.55c-3.6,3.1 -5.69,7.58 -5.69,12.32l0 0 0 476.61c0,6.41 3.79,12.18 9.65,14.77l0 0c64.53,28.5 115.78,79.73 144.28,144.25l0 0c2.55,5.84 8.37,9.63 14.77,9.63l0 0 476.86 0c4.74,0 9.24,-2.08 12.32,-5.69l0 0c3.04,-3.59 4.39,-8.36 3.66,-13.02l0 0c-53.01,-331.34 -311.33,-589.54 -642.82,-642.53l0 0c-0.81,-0.12 -1.63,-0.18 -2.43,-0.18l0 0c-3.85,0 -7.61,1.34 -10.59,3.84l0 0zm26.63 478.62l0 -447.13c302.46,56.18 537.84,291.49 594.04,593.77l0 0 -447.31 0c-30.97,-64.18 -82.49,-115.7 -146.73,-146.64l0 0zm-264.3 -482.28c-331.49,52.99 -589.84,311.19 -642.85,642.53l0 0c-0.72,4.66 0.6,9.43 3.66,13.02l0 0c3.08,3.6 7.57,5.69 12.32,5.69l0 0 476.83 0c6.4,0 12.17,-3.79 14.76,-9.63l0 0c28.56,-64.55 79.84,-115.76 144.35,-144.25l0 0c5.85,-2.59 9.64,-8.36 9.64,-14.77l0 0 0 -476.61c0,-4.74 -2.07,-9.22 -5.68,-12.32l0 0c-2.98,-2.5 -6.74,-3.84 -10.6,-3.84l0 0c-0.81,0 -1.62,0.06 -2.42,0.18l0 0zm-13.62 35.15l0 447.13c-64.22,30.89 -115.76,82.43 -146.75,146.64l0 0 -447.31 0c56.18,-302.31 291.61,-537.59 594.06,-593.77l0 0zm-73.37 732.06c0,117.38 95.53,212.86 212.97,212.86l0 0c117.41,0 212.91,-95.48 212.91,-212.86l0 0c0,-117.34 -95.5,-212.82 -212.91,-212.82l0 0c-117.44,0 -212.97,95.48 -212.97,212.82l0 0zm32.34 0c0,-99.52 81.01,-180.49 180.63,-180.49l0 0c99.6,0 180.59,80.97 180.59,180.49l0 0c0,99.56 -80.99,180.53 -180.59,180.53l0 0c-99.62,0 -180.63,-80.97 -180.63,-180.53l0 0zm455.32 107.2c-6.4,0 -12.22,3.8 -14.77,9.62l0 0c-28.5,64.54 -79.75,115.75 -144.28,144.25l0 0c-5.86,2.61 -9.65,8.38 -9.65,14.78l0 0 0 476.64c0,4.75 2.08,9.25 5.69,12.33l0 0c2.92,2.47 6.67,3.84 10.47,3.84l0 0c0.86,0 1.72,-0.06 2.55,-0.18l0 0c331.49,-53.02 589.81,-311.26 642.82,-642.57l0 0c0.73,-4.67 -0.62,-9.42 -3.66,-13.01l0 0c-3.08,-3.6 -7.58,-5.7 -12.32,-5.7l0 0 -476.86 0zm-136.38 178.97c64.24,-30.96 115.76,-82.47 146.73,-146.66l0 0 447.31 0c-56.15,302.29 -291.58,537.6 -594.04,593.81l0 0 0 -447.15zm-891.17 -178.97c-4.75,0 -9.24,2.09 -12.32,5.7l0 0c-3.06,3.59 -4.38,8.34 -3.66,13.01l0 0c53.01,331.31 311.33,589.55 642.85,642.57l0 0c0.84,0.12 1.7,0.18 2.54,0.18l0 0c3.81,0 7.56,-1.37 10.48,-3.84l0 0c3.6,-3.08 5.68,-7.58 5.68,-12.33l0 0 0 -476.64c0,-6.4 -3.79,-12.17 -9.64,-14.78l0 0c-64.51,-28.47 -115.79,-79.68 -144.35,-144.25l0 0c-2.59,-5.82 -8.36,-9.62 -14.76,-9.62l0 0 -476.83 0zm19.19 32.31l447.31 0c30.99,64.22 82.53,115.73 146.75,146.66l0 0 0 447.15c-302.45,-56.21 -537.88,-291.52 -594.06,-593.81l0 0z"/>
  <path id="Fill-14" class="fil1" d="M1150.19 952.97c-108.66,0 -196.79,88 -196.79,196.67 0,108.65 88.13,196.68 196.79,196.68 108.63,0 196.76,-88.03 196.76,-196.68 0,-108.67 -88.13,-196.67 -196.76,-196.67z"/>
  <path id="Fill-16" class="fil4" d="M937.23 1149.63c0,117.38 95.53,212.86 212.97,212.86l0 0c117.41,0 212.91,-95.48 212.91,-212.86l0 0c0,-117.34 -95.5,-212.82 -212.91,-212.82l0 0c-117.44,0 -212.97,95.48 -212.97,212.82m32.34 0c0,-99.52 81.01,-180.49 180.63,-180.49l0 0c99.6,0 180.59,80.97 180.59,180.49l0 0c0,99.56 -80.99,180.53 -180.59,180.53l0 0c-99.62,0 -180.63,-80.97 -180.63,-180.53z"/>
  <path id="Fill-19" class="fil1" d="M1272.35 398.39l0 476.63c67.97,29.99 122.55,84.54 152.53,152.48l476.87 0c-51.54,-322.33 -306.92,-577.59 -629.39,-629.1z"/>
  <path id="Fill-21" class="fil5" d="M1261.88 386.08c-3.6,3.1 -5.69,7.58 -5.69,12.32l0 0 0 476.61c0,6.41 3.79,12.18 9.65,14.77l0 0c64.53,28.5 115.78,79.73 144.28,144.25l0 0c2.55,5.84 8.37,9.63 14.77,9.63l0 0 476.86 0c4.74,0 9.24,-2.08 12.32,-5.69l0 0c3.04,-3.59 4.39,-8.36 3.66,-13.02l0 0c-53.01,-331.34 -311.33,-589.54 -642.82,-642.53l0 0c-0.81,-0.12 -1.63,-0.18 -2.43,-0.18l0 0c-3.85,0 -7.61,1.34 -10.59,3.84m26.63 478.62l0 -447.13c302.46,56.18 537.84,291.49 594.04,593.77l0 0 -447.31 0c-30.97,-64.18 -82.49,-115.7 -146.73,-146.64z"/>
  <path id="Fill-24" class="fil1" d="M1026.77 398.39c-322.53,51.51 -577.88,306.77 -629.42,629.1l476.83 0c30.04,-67.94 84.6,-122.48 152.6,-152.48l0 -476.63z"/>
  <path id="Fill-26" class="fil6" d="M1024.21 382.42c-331.49,52.99 -589.84,311.19 -642.85,642.53l0 0c-0.72,4.66 0.6,9.43 3.66,13.02l0 0c3.08,3.6 7.57,5.69 12.32,5.69l0 0 476.83 0c6.4,0 12.17,-3.79 14.76,-9.63l0 0c28.56,-64.55 79.84,-115.76 144.35,-144.25l0 0c5.85,-2.59 9.64,-8.36 9.64,-14.77l0 0 0 -476.61c0,-4.74 -2.07,-9.22 -5.68,-12.32l0 0c-2.98,-2.5 -6.74,-3.84 -10.6,-3.84l0 0c-0.81,0 -1.62,0.06 -2.42,0.18m-13.62 35.15l0 447.13c-64.22,30.89 -115.76,82.43 -146.75,146.64l0 0 -447.31 0c56.18,-302.31 291.61,-537.59 594.06,-593.77z"/>
  <path id="Fill-29" class="fil1" d="M874.17 1272.98l-476.83 0c51.54,322.38 306.9,577.58 629.41,629.13l0 -476.63c-68,-30.01 -122.54,-84.57 -152.59,-152.51z"/>
  <path id="Fill-31" class="fil7" d="M397.34 1256.83c-4.75,0 -9.24,2.09 -12.32,5.7l0 0c-3.06,3.59 -4.38,8.34 -3.66,13.01l0 0c53.01,331.31 311.33,589.55 642.85,642.57l0 0c0.84,0.12 1.7,0.18 2.54,0.18l0 0c3.81,0 7.56,-1.37 10.48,-3.84l0 0c3.6,-3.08 5.68,-7.58 5.68,-12.33l0 0 0 -476.64c0,-6.4 -3.79,-12.17 -9.64,-14.78l0 0c-64.51,-28.47 -115.79,-79.68 -144.35,-144.25l0 0c-2.59,-5.82 -8.36,-9.62 -14.76,-9.62l0 0 -476.83 0zm19.19 32.31l447.31 0c30.99,64.22 82.53,115.73 146.75,146.66l0 0 0 447.15c-302.45,-56.21 -537.88,-291.52 -594.06,-593.81l0 0z"/>
  <path id="Fill-34" class="fil1" d="M1272.35 1902.11c322.47,-51.54 577.85,-306.76 629.39,-629.13l-476.87 0c-29.97,67.94 -84.56,122.48 -152.53,152.5l0 476.64z"/>
  <path id="Fill-36" class="fil8" d="M1424.89 1256.83c-6.4,0 -12.22,3.8 -14.77,9.62l0 0c-28.5,64.54 -79.75,115.75 -144.28,144.25l0 0c-5.86,2.61 -9.65,8.38 -9.65,14.78l0 0 0 476.64c0,4.75 2.08,9.25 5.69,12.33l0 0c2.92,2.47 6.67,3.84 10.47,3.84l0 0c0.86,0 1.72,-0.06 2.55,-0.18l0 0c331.49,-53.02 589.81,-311.26 642.82,-642.57l0 0c0.73,-4.67 -0.62,-9.42 -3.66,-13.01l0 0c-3.08,-3.6 -7.58,-5.7 -12.32,-5.7l0 0 -476.86 0zm-136.38 178.97c64.24,-30.96 115.76,-82.47 146.73,-146.66l0 0 447.31 0c-56.15,302.29 -291.58,537.6 -594.04,593.81l0 0 0 -447.15z"/>
 </g>
</svg>
