<?xml version="1.0" encoding="UTF-8"?>
<svg width="40px" height="40px" viewBox="0 0 40 40" version="1.1" xmlns="http://www.w3.org/2000/svg" xmlns:xlink="http://www.w3.org/1999/xlink">
    <!-- Generator: Sketch 63.1 (92452) - https://sketch.com -->
    <title>Button-close-hover-modo-noc</title>
    <desc>Created with Sketch.</desc>
    <defs>
        <path d="M5.29289322,5.29289322 C5.68341751,4.90236893 6.31658249,4.90236893 6.70710678,5.29289322 L6.70710678,5.29289322 L12,10.585 L17.2928932,5.29289322 C17.6533772,4.93240926 18.2206082,4.90467972 18.6128994,5.20970461 L18.7071068,5.29289322 C19.0976311,5.68341751 19.0976311,6.31658249 18.7071068,6.70710678 L18.7071068,6.70710678 L13.415,12 L18.7071068,17.2928932 C19.0675907,17.6533772 19.0953203,18.2206082 18.7902954,18.6128994 L18.7071068,18.7071068 C18.3165825,19.0976311 17.6834175,19.0976311 17.2928932,18.7071068 L17.2928932,18.7071068 L12,13.415 L6.70710678,18.7071068 C6.34662282,19.0675907 5.77939176,19.0953203 5.38710056,18.7902954 L5.29289322,18.7071068 C4.90236893,18.3165825 4.90236893,17.6834175 5.29289322,17.2928932 L5.29289322,17.2928932 L10.585,12 L5.29289322,6.70710678 C4.93240926,6.34662282 4.90467972,5.77939176 5.20970461,5.38710056 Z" id="path-1"></path>
    </defs>
    <g id="GIFOS" stroke="none" stroke-width="1" fill="none" fill-rule="evenodd">
        <g id="16-UI-Kit-Modo-Nocturno" transform="translate(-367.000000, -2847.000000)">
            <g id="Button-close-hover-modo-noc" transform="translate(367.000000, 2847.000000)">
                <rect id="Rectangle-Copy-8" fill="#FFFFFF" fill-rule="nonzero" x="0" y="0" width="40" height="40"></rect>
                <g id="x" transform="translate(8.000000, 8.000000)">
                    <mask id="mask-2" fill="white">
                        <use xlink:href="#path-1"></use>
                    </mask>
                    <use id="Combined-Shape" fill="#000000" fill-rule="nonzero" xlink:href="#path-1"></use>
                    <g id="COLOR/-black" mask="url(#mask-2)" fill="#222326" fill-rule="evenodd">
                        <rect id="Rectangle" x="0" y="0" width="24" height="24"></rect>
                    </g>
                </g>
            </g>
        </g>
    </g>
</svg>