<?xml version="1.0" encoding="UTF-8"?>
<svg width="123px" height="162px" viewBox="0 0 123 162" version="1.1" xmlns="http://www.w3.org/2000/svg" xmlns:xlink="http://www.w3.org/1999/xlink">
    <!-- Generator: Sketch 63.1 (92452) - https://sketch.com -->
    <title>camara</title>
    <desc>Created with Sketch.</desc>
    <defs>
        <path d="M9.70675,0.312474308 C4.6048125,0.312474308 0.454203125,4.46044269 0.454203125,9.55864032 L0.454203125,9.55864032 L0.454203125,39.7956522 C0.454203125,44.8938498 4.6048125,49.0424585 9.70675,49.0424585 L9.70675,49.0424585 L86.2396562,49.0424585 C91.3415937,49.0424585 95.4928438,44.8938498 95.4928438,39.7956522 L95.4928438,39.7956522 L95.4928438,9.55864032 C95.4928438,4.46044269 91.3415937,0.312474308 86.2396562,0.312474308 L86.2396562,0.312474308 L9.70675,0.312474308 Z M1.83539063,39.7956522 L1.83539063,9.55864032 C1.83539063,5.22177866 5.36715625,1.69299605 9.70675,1.69299605 L9.70675,1.69299605 L86.2396563,1.69299605 C90.57925,1.69299605 94.1116563,5.22177866 94.1116563,9.55864032 L94.1116563,9.55864032 L94.1116563,39.7956522 C94.1116563,44.1331542 90.57925,47.6619368 86.2396563,47.6619368 L86.2396563,47.6619368 L9.70675,47.6619368 C5.36715625,47.6619368 1.83539063,44.1331542 1.83539063,39.7956522 L1.83539063,39.7956522 Z" id="path-1"></path>
        <linearGradient x1="-0.000337101373%" y1="49.9997359%" x2="100.000062%" y2="49.9997359%" id="linearGradient-3">
            <stop stop-color="#7C72FF" offset="0%"></stop>
            <stop stop-color="#6D64F4" offset="100%"></stop>
        </linearGradient>
        <path d="M32.1190156,0.573083004 C14.58575,0.573083004 0.32159375,14.8303636 0.32159375,32.3551779 L0.32159375,32.3551779 C0.32159375,49.8799921 14.58575,64.1366324 32.1190156,64.1366324 L32.1190156,64.1366324 C49.6522813,64.1366324 63.9170781,49.8799921 63.9170781,32.3551779 L63.9170781,32.3551779 C63.9170781,14.8303636 49.6522813,0.573083004 32.1190156,0.573083004 Z M1.70278125,32.3551779 C1.70278125,15.5916996 15.3480937,1.95360474 32.1190156,1.95360474 L32.1190156,1.95360474 C48.8905781,1.95360474 62.53525,15.5916996 62.53525,32.3551779 L62.53525,32.3551779 C62.53525,49.1180158 48.8905781,62.7561107 32.1190156,62.7561107 L32.1190156,62.7561107 C15.3480937,62.7561107 1.70278125,49.1180158 1.70278125,32.3551779 L1.70278125,32.3551779 Z" id="path-4"></path>
        <linearGradient x1="-0.000508305547%" y1="49.9997954%" x2="99.9994878%" y2="49.9997954%" id="linearGradient-6">
            <stop stop-color="#7C72FF" offset="0%"></stop>
            <stop stop-color="#6D64F4" offset="100%"></stop>
        </linearGradient>
        <path d="M0,23.2690909 C0,35.9172569 10.2954844,46.2077787 22.94975,46.2077787 L22.94975,46.2077787 C35.6052969,46.2077787 45.9007813,35.9172569 45.9007813,23.2690909 L45.9007813,23.2690909 C45.9007813,10.6209249 35.6052969,0.330403162 22.94975,0.330403162 L22.94975,0.330403162 C10.2954844,0.330403162 0,10.6209249 0,23.2690909 M1.3811875,23.2690909 C1.3811875,11.3822609 11.0565469,1.7109249 22.94975,1.7109249 L22.94975,1.7109249 C34.8423125,1.7109249 44.5189531,11.3822609 44.5189531,23.2690909 L44.5189531,23.2690909 C44.5189531,35.1559209 34.8423125,44.8272569 22.94975,44.8272569 L22.94975,44.8272569 C11.0565469,44.8272569 1.3811875,35.1559209 1.3811875,23.2690909" id="path-7"></path>
        <linearGradient x1="0%" y1="49.9997819%" x2="99.9992994%" y2="49.9997819%" id="linearGradient-9">
            <stop stop-color="#7C72FF" offset="0%"></stop>
            <stop stop-color="#6D64F4" offset="100%"></stop>
        </linearGradient>
        <path d="M0.018578125,6.10157312 C0.018578125,9.31724111 2.63617188,11.9335731 5.85339063,11.9335731 L5.85339063,11.9335731 C9.07060937,11.9335731 11.6882031,9.31724111 11.6882031,6.10157312 L11.6882031,6.10157312 C11.6882031,2.88590514 9.07060937,0.269573123 5.85339063,0.269573123 L5.85339063,0.269573123 C2.63617188,0.269573123 0.018578125,2.88590514 0.018578125,6.10157312 M0.62909375,6.10157312 C0.62909375,3.22207115 2.9725,0.879794466 5.85339063,0.879794466 L5.85339063,0.879794466 C8.73428125,0.879794466 11.0783281,3.22207115 11.0783281,6.10157312 L11.0783281,6.10157312 C11.0783281,8.9810751 8.73428125,11.3239921 5.85339063,11.3239921 L5.85339063,11.3239921 C2.9725,11.3239921 0.62909375,8.9810751 0.62909375,6.10157312" id="path-10"></path>
        <linearGradient x1="3.84277558e-05%" y1="49.9988653%" x2="99.9999105%" y2="49.9988653%" id="linearGradient-12">
            <stop stop-color="#7C72FF" offset="0%"></stop>
            <stop stop-color="#6D64F4" offset="100%"></stop>
        </linearGradient>
        <path d="M1.30110938,0.278537549 C0.919296875,0.278537549 0.609875,0.58716996 0.609875,0.968798419 L0.609875,0.968798419 L0.609875,1.26014229 C0.609875,5.49071146 4.05451563,8.93177075 8.28584375,8.93177075 L8.28584375,8.93177075 L24.8773906,8.93177075 C29.1106406,8.93177075 32.5552813,5.49071146 32.5552813,1.26014229 L32.5552813,1.26014229 L32.5552813,0.968798419 C32.5552813,0.58716996 32.2458594,0.278537549 31.8646875,0.278537549 L31.8646875,0.278537549 L1.30110938,0.278537549 Z M2.003875,1.65905929 L31.1612813,1.65905929 C30.955,4.94324111 28.2150469,7.55188933 24.8773906,7.55188933 L24.8773906,7.55188933 L8.28584375,7.55188933 C4.95010938,7.55188933 2.21015625,4.94324111 2.003875,1.65905929 L2.003875,1.65905929 Z" id="path-13"></path>
        <linearGradient x1="0.00139935026%" y1="50.0010826%" x2="99.9997951%" y2="50.0010826%" id="linearGradient-15">
            <stop stop-color="#7C72FF" offset="0%"></stop>
            <stop stop-color="#6D64F4" offset="100%"></stop>
        </linearGradient>
        <path d="M0.516984375,1.19867194 L0.516984375,48.6941265 C0.516984375,49.0751146 0.825765625,49.383747 1.20757813,49.383747 L1.20757813,49.383747 C1.58939063,49.383747 1.89817188,49.0751146 1.89817188,48.6941265 L1.89817188,48.6941265 L1.89817188,1.19867194 C1.89817188,0.816403162 1.58939063,0.508411067 1.20757813,0.508411067 L1.20757813,0.508411067 C0.825765625,0.508411067 0.516984375,0.816403162 0.516984375,1.19867194" id="path-16"></path>
        <linearGradient x1="-0.0141929499%" y1="49.9999995%" x2="99.9950788%" y2="49.9999995%" id="linearGradient-18">
            <stop stop-color="#7C72FF" offset="0%"></stop>
            <stop stop-color="#6D64F4" offset="100%"></stop>
        </linearGradient>
        <path d="M48.7662969,0.710110672 L0.689953125,48.7664822 C0.419609375,49.0360553 0.419609375,49.472751 0.689953125,49.7429644 L0.689953125,49.7429644 C0.824484375,49.8774308 1.00129688,49.944664 1.17810938,49.944664 L1.17810938,49.944664 C1.35492188,49.944664 1.53173438,49.8774308 1.66626563,49.7429644 L1.66626563,49.7429644 L49.7426094,1.68659289 C50.0123125,1.41637945 50.0123125,0.980324111 49.7426094,0.710110672 L49.7426094,0.710110672 C49.6080781,0.575644269 49.4312656,0.508411067 49.2544531,0.508411067 L49.2544531,0.508411067 C49.0776406,0.508411067 48.9008281,0.575644269 48.7662969,0.710110672" id="path-19"></path>
        <linearGradient x1="0.000193906266%" y1="49.9995792%" x2="100.000873%" y2="49.9995792%" id="linearGradient-21">
            <stop stop-color="#7C72FF" offset="0%"></stop>
            <stop stop-color="#6D64F4" offset="100%"></stop>
        </linearGradient>
        <path d="M0.719421875,0.710110672 C0.44971875,0.980324111 0.44971875,1.41637945 0.719421875,1.68659289 L0.719421875,1.68659289 L48.7957656,49.7429644 C48.9309375,49.8774308 49.10775,49.944664 49.2845625,49.944664 L49.2845625,49.944664 C49.4607344,49.944664 49.6375469,49.8774308 49.7727188,49.7429644 L49.7727188,49.7429644 C50.0424219,49.472751 50.0424219,49.0360553 49.7727188,48.7664822 L49.7727188,48.7664822 L1.69573438,0.710110672 C1.56120312,0.575644269 1.38439063,0.508411067 1.20757813,0.508411067 L1.20757813,0.508411067 C1.03076563,0.508411067 0.853953125,0.575644269 0.719421875,0.710110672" id="path-22"></path>
        <linearGradient x1="-0.000423690943%" y1="49.9995792%" x2="100.000257%" y2="49.9995792%" id="linearGradient-24">
            <stop stop-color="#7C72FF" offset="0%"></stop>
            <stop stop-color="#6D64F4" offset="100%"></stop>
        </linearGradient>
        <path d="M0.96221875,0.393794466 C0.579765625,0.393794466 0.271625,0.702426877 0.271625,1.08405534 L0.271625,1.08405534 L0.271625,6.21618972 C0.271625,6.59717787 0.579765625,6.90645059 0.96221875,6.90645059 L0.96221875,6.90645059 L26.4328281,6.90645059 C26.8146406,6.90645059 27.1240625,6.59717787 27.1240625,6.21618972 L27.1240625,6.21618972 L27.1240625,1.08405534 C27.1240625,0.702426877 26.8146406,0.393794466 26.4328281,0.393794466 L26.4328281,0.393794466 L0.96221875,0.393794466 Z M1.6528125,5.52528854 L25.7422344,5.52528854 L25.7422344,1.77431621 L1.6528125,1.77431621 L1.6528125,5.52528854 Z" id="path-25"></path>
        <linearGradient x1="-0.000237140949%" y1="49.9965539%" x2="99.9985624%" y2="49.9965539%" id="linearGradient-27">
            <stop stop-color="#7C72FF" offset="0%"></stop>
            <stop stop-color="#6D64F4" offset="100%"></stop>
        </linearGradient>
        <path d="M1.24473437,0.393794466 C0.862921875,0.393794466 0.554140625,0.702426877 0.554140625,1.08405534 L0.554140625,1.08405534 L0.554140625,6.21618972 C0.554140625,6.59717787 0.862921875,6.90645059 1.24473437,6.90645059 L1.24473437,6.90645059 L6.48953125,6.90645059 C6.87134375,6.90645059 7.180125,6.59717787 7.180125,6.21618972 L7.180125,6.21618972 L7.180125,1.08405534 C7.180125,0.702426877 6.87134375,0.393794466 6.48953125,0.393794466 L6.48953125,0.393794466 L1.24473437,0.393794466 Z M1.93532813,5.52528854 L5.7989375,5.52528854 L5.7989375,1.77431621 L1.93532813,1.77431621 L1.93532813,5.52528854 Z" id="path-28"></path>
        <linearGradient x1="-0.00193850914%" y1="49.9965539%" x2="100.004825%" y2="49.9965539%" id="linearGradient-30">
            <stop stop-color="#7C72FF" offset="0%"></stop>
            <stop stop-color="#6D64F4" offset="100%"></stop>
        </linearGradient>
        <path d="M0.96221875,0.37458498 C0.579765625,0.37458498 0.271625,0.682577075 0.271625,1.06484585 L0.271625,1.06484585 C0.271625,1.44583399 0.579765625,1.75510672 0.96221875,1.75510672 L0.96221875,1.75510672 L26.4328281,1.75510672 C26.8146406,1.75510672 27.1240625,1.44583399 27.1240625,1.06484585 L27.1240625,1.06484585 C27.1240625,0.682577075 26.8146406,0.37458498 26.4328281,0.37458498 L26.4328281,0.37458498 L0.96221875,0.37458498 Z" id="path-31"></path>
        <linearGradient x1="-0.000237140949%" y1="49.9813404%" x2="99.9985624%" y2="49.9813404%" id="linearGradient-33">
            <stop stop-color="#7C72FF" offset="0%"></stop>
            <stop stop-color="#6D64F4" offset="100%"></stop>
        </linearGradient>
        <path d="M0.96221875,0.429011858 C0.579765625,0.429011858 0.271625,0.738284585 0.271625,1.11927273 L0.271625,1.11927273 C0.271625,1.50090119 0.579765625,1.81017391 0.96221875,1.81017391 L0.96221875,1.81017391 L35.9582812,1.81017391 C36.3400938,1.81017391 36.648875,1.50090119 36.648875,1.11927273 L36.648875,1.11927273 C36.648875,0.738284585 36.3400938,0.429011858 35.9582812,0.429011858 L35.9582812,0.429011858 L0.96221875,0.429011858 Z" id="path-34"></path>
        <linearGradient x1="-0.00017504931%" y1="49.978994%" x2="100.000874%" y2="49.978994%" id="linearGradient-36">
            <stop stop-color="#7C72FF" offset="0%"></stop>
            <stop stop-color="#6D64F4" offset="100%"></stop>
        </linearGradient>
        <path d="M12.0399063,0.24972332 L0.464453125,6.93014229 C0.251765625,7.05436364 0.119796875,7.28167589 0.119796875,7.52819763 L0.119796875,7.52819763 L0.119796875,23.8978814 C0.119796875,24.1444032 0.251765625,24.3717154 0.464453125,24.4952964 L0.464453125,24.4952964 L12.0399063,31.1757154 C12.1456094,31.2365455 12.2660469,31.2679209 12.3852031,31.2679209 L12.3852031,31.2679209 C12.5030781,31.2679209 12.6235156,31.2365455 12.7305,31.1757154 L12.7305,31.1757154 C12.9431875,31.0521344 13.0757969,30.8241818 13.0757969,30.5776601 L13.0757969,30.5776601 L13.0757969,0.847778656 C13.0757969,0.601256917 12.9431875,0.373944664 12.7305,0.24972332 L12.7305,0.24972332 C12.6235156,0.188893281 12.5043594,0.158158103 12.3845625,0.158158103 L12.3845625,0.158158103 C12.2654063,0.158158103 12.14625,0.188893281 12.0399063,0.24972332 L12.0399063,0.24972332 Z M1.50034375,23.4989644 L1.50034375,7.92647431 L11.6946094,2.04452964 L11.6946094,29.3815494 L1.50034375,23.4989644 Z" id="path-37"></path>
        <linearGradient x1="-0.00197933149%" y1="49.999916%" x2="99.9985156%" y2="49.999916%" id="linearGradient-39">
            <stop stop-color="#7C72FF" offset="0%"></stop>
            <stop stop-color="#6D64F4" offset="100%"></stop>
        </linearGradient>
        <path d="M5.3428125,0.683217391 L0.50865625,3.47371542 C0.295328125,3.59601581 0.163359375,3.8246087 0.163359375,4.07113043 L0.163359375,4.07113043 L0.163359375,37.598087 C0.163359375,37.8446087 0.295328125,38.0732016 0.50865625,38.1961423 L0.50865625,38.1961423 L5.3428125,40.9872806 C5.44979688,41.048751 5.57023437,41.0794862 5.68875,41.0794862 L5.68875,41.0794862 C5.80726562,41.0794862 5.92770313,41.048751 6.03404688,40.9872806 L6.03404688,40.9872806 C6.24673438,40.8636996 6.37934375,40.6363874 6.37934375,40.3892253 L6.37934375,40.3892253 L6.37934375,1.28127273 C6.37934375,1.03475099 6.24673438,0.806798419 6.03404688,0.683217391 L6.03404688,0.683217391 C5.92770313,0.621747036 5.80790625,0.591011858 5.68875,0.591011858 L5.68875,0.591011858 C5.56895313,0.591011858 5.44979688,0.621747036 5.3428125,0.683217391 L5.3428125,0.683217391 Z M1.54454688,37.1998103 L1.54454688,4.47004743 L4.99751563,2.47802372 L4.99751563,39.1931146 L1.54454688,37.1998103 Z" id="path-40"></path>
        <linearGradient x1="-0.00624033804%" y1="50.0005091%" x2="100.000975%" y2="50.0005091%" id="linearGradient-42">
            <stop stop-color="#7C72FF" offset="0%"></stop>
            <stop stop-color="#6D64F4" offset="100%"></stop>
        </linearGradient>
        <path d="M0.475984375,0.242039526 C0.360671875,0.341288538 0.294046875,0.484079051 0.294046875,0.635193676 L0.294046875,0.635193676 L0.294046875,15.8721581 C0.294046875,16.076419 0.415125,16.26083 0.6021875,16.3440711 L0.6021875,16.3440711 C2.66564063,17.2552411 4.30371875,18.8925296 5.21532812,20.9549881 L5.21532812,20.9549881 C5.2966875,21.1419605 5.48310937,21.2623399 5.68682813,21.2623399 L5.68682813,21.2623399 L20.9317813,21.2623399 C21.0829687,21.2623399 21.2264688,21.1963874 21.3257656,21.0817708 L21.3257656,21.0817708 C21.4231406,20.9658735 21.4654219,20.8134783 21.4423594,20.6649249 L21.4423594,20.6649249 C19.7479062,10.0728142 11.49025,1.81849802 0.89303125,0.12486166 L0.89303125,0.12486166 C0.866765625,0.121019763 0.8405,0.119098814 0.814234375,0.119098814 L0.814234375,0.119098814 C0.691234375,0.119098814 0.570796875,0.162 0.475984375,0.242039526 M1.327375,15.5417549 L1.327375,1.24797628 C10.9963281,3.04342292 18.52175,10.566498 20.3180625,20.2301502 L20.3180625,20.2301502 L6.01867188,20.2301502 C5.027625,18.1785771 3.38121875,16.5310435 1.327375,15.5417549" id="path-43"></path>
        <linearGradient x1="0.000460910166%" y1="50.0005058%" x2="100.000896%" y2="50.0005058%" id="linearGradient-45">
            <stop stop-color="#7C72FF" offset="0%"></stop>
            <stop stop-color="#6D64F4" offset="100%"></stop>
        </linearGradient>
        <path d="M21.0656719,0.12486166 C10.4678125,1.81849802 2.208875,10.0728142 0.514421875,20.6649249 L0.514421875,20.6649249 C0.49071875,20.8134783 0.533640625,20.9658735 0.63165625,21.0817708 L0.63165625,21.0817708 C0.7303125,21.1963874 0.873171875,21.2623399 1.02564062,21.2623399 L1.02564062,21.2623399 L16.2686719,21.2623399 C16.4736719,21.2623399 16.6581719,21.1419605 16.7414531,20.9549881 L16.7414531,20.9549881 C17.6537031,18.8918893 19.2930625,17.2546008 21.355875,16.3440711 L21.355875,16.3440711 C21.5429375,16.26083 21.663375,16.076419 21.663375,15.8721581 L21.663375,15.8721581 L21.663375,0.635193676 C21.663375,0.484079051 21.5973906,0.341288538 21.4820781,0.242039526 L21.4820781,0.242039526 C21.3872656,0.162 21.2668281,0.119098814 21.1438281,0.119098814 L21.1438281,0.119098814 C21.1182031,0.119098814 21.0919375,0.121019763 21.0656719,0.12486166 M20.6306875,1.24797628 L20.6306875,15.5417549 C18.5774844,16.5297628 16.9297969,18.1766561 15.93875,20.2301502 L15.93875,20.2301502 L1.63871875,20.2301502 C3.43503125,10.5652174 10.9610937,3.04342292 20.6306875,1.24797628" id="path-46"></path>
        <linearGradient x1="0.000180264318%" y1="50.0005058%" x2="100.001542%" y2="50.0005058%" id="linearGradient-48">
            <stop stop-color="#7C72FF" offset="0%"></stop>
            <stop stop-color="#6D64F4" offset="100%"></stop>
        </linearGradient>
        <path d="M1.02564062,0.544268775 C0.873171875,0.544268775 0.7303125,0.61086166 0.63165625,0.725478261 L0.63165625,0.725478261 C0.533640625,0.840735178 0.49071875,0.993130435 0.514421875,1.14232411 L0.514421875,1.14232411 C2.208875,11.7331542 10.4665313,19.9881107 21.0656719,21.6830277 L21.0656719,21.6830277 C21.0925781,21.6868696 21.1194844,21.6894308 21.1470313,21.6894308 L21.1470313,21.6894308 C21.26875,21.6894308 21.3885469,21.6458893 21.4820781,21.5664901 L21.4820781,21.5664901 C21.5973906,21.4678814 21.663375,21.3244506 21.663375,21.1720553 L21.663375,21.1720553 L21.663375,5.93573123 C21.663375,5.73083004 21.5429375,5.54577866 21.355875,5.46317787 L21.355875,5.46317787 C19.2930625,4.55264822 17.6537031,2.91535968 16.7414531,0.851620553 L16.7414531,0.851620553 C16.6581719,0.665288538 16.4736719,0.544268775 16.2686719,0.544268775 L16.2686719,0.544268775 L1.02564062,0.544268775 Z M1.63871875,1.5764585 L15.93875,1.5764585 C16.9297969,3.62931225 18.5774844,5.27620553 20.6306875,6.26549407 L20.6306875,6.26549407 L20.6306875,20.5592727 C10.9610937,18.7631858 3.43503125,11.2401107 1.63871875,1.5764585 L1.63871875,1.5764585 Z" id="path-49"></path>
        <linearGradient x1="0.000180264318%" y1="49.9986479%" x2="100.001542%" y2="49.9986479%" id="linearGradient-51">
            <stop stop-color="#7C72FF" offset="0%"></stop>
            <stop stop-color="#6D64F4" offset="100%"></stop>
        </linearGradient>
        <path d="M5.68682813,0.544268775 C5.48310937,0.544268775 5.2966875,0.665288538 5.21532812,0.851620553 L5.21532812,0.851620553 C4.30371875,2.91471937 2.66564063,4.55136759 0.6021875,5.46317787 L0.6021875,5.46317787 C0.415125,5.54577866 0.294046875,5.73083004 0.294046875,5.93573123 L0.294046875,5.93573123 L0.294046875,21.1720553 C0.294046875,21.3244506 0.360671875,21.4678814 0.475984375,21.5664901 L0.475984375,21.5664901 C0.57015625,21.6458893 0.688671875,21.6894308 0.81103125,21.6894308 L0.81103125,21.6894308 C0.8379375,21.6894308 0.86484375,21.6868696 0.89303125,21.6830277 L0.89303125,21.6830277 C11.49025,19.9881107 19.7479062,11.7331542 21.4423594,1.14232411 L21.4423594,1.14232411 C21.4654219,0.993130435 21.4231406,0.840735178 21.3257656,0.725478261 L21.3257656,0.725478261 C21.2264688,0.61086166 21.0829687,0.544268775 20.9317813,0.544268775 L20.9317813,0.544268775 L5.68682813,0.544268775 Z M1.327375,6.26549407 C3.38121875,5.27556522 5.027625,3.62867194 6.01867188,1.5764585 L6.01867188,1.5764585 L20.3180625,1.5764585 C18.5230313,11.2401107 10.9963281,18.7631858 1.327375,20.5592727 L1.327375,20.5592727 L1.327375,6.26549407 Z" id="path-52"></path>
        <linearGradient x1="0.000460910166%" y1="49.9986479%" x2="100.000896%" y2="49.9986479%" id="linearGradient-54">
            <stop stop-color="#7C72FF" offset="0%"></stop>
            <stop stop-color="#6D64F4" offset="100%"></stop>
        </linearGradient>
        <path d="M0.7046875,0.35601581 C0.623328125,0.426450593 0.5765625,0.526980237 0.5765625,0.63455336 L0.5765625,0.63455336 L0.5765625,11.4065929 C0.5765625,11.5513043 0.661765625,11.6819289 0.793734375,11.7401976 L0.793734375,11.7401976 C2.25307813,12.3843557 3.41132813,13.5420474 4.05515625,15.0006877 L4.05515625,15.0006877 C4.1128125,15.1319526 4.24478125,15.2177549 4.38892187,15.2177549 L4.38892187,15.2177549 L15.1667969,15.2177549 C15.2737812,15.2177549 15.3756406,15.1710119 15.4454687,15.0896917 L15.4454687,15.0896917 C15.5140156,15.0083715 15.5447656,14.9001581 15.5274687,14.7951462 L15.5274687,14.7951462 C14.3295,7.30664822 8.492125,1.47144664 0.999375,0.27341502 L0.999375,0.27341502 C0.980796875,0.270853755 0.96221875,0.269573123 0.943640625,0.269573123 L0.943640625,0.269573123 C0.856515625,0.269573123 0.771953125,0.299667984 0.7046875,0.35601581 M1.306875,11.1735178 L1.306875,1.06804743 C8.14234375,2.33715415 13.463375,7.65562055 14.7330938,14.4877945 L14.7330938,14.4877945 L4.62339063,14.4877945 C3.9231875,13.0374783 2.75853125,11.8727431 1.306875,11.1735178" id="path-55"></path>
        <linearGradient x1="-0.00134973137%" y1="50.0002866%" x2="100.001079%" y2="50.0002866%" id="linearGradient-57">
            <stop stop-color="#7C72FF" offset="0%"></stop>
            <stop stop-color="#6D64F4" offset="100%"></stop>
        </linearGradient>
        <path d="M14.5517969,0.27341502 C7.06032813,1.47144664 1.22039063,7.30664822 0.022421875,14.7951462 L0.022421875,14.7951462 C0.00640625,14.9001581 0.035875,15.0083715 0.105703125,15.0896917 L0.105703125,15.0896917 C0.17553125,15.1710119 0.27675,15.2177549 0.38309375,15.2177549 L0.38309375,15.2177549 L11.1609688,15.2177549 C11.3051094,15.2177549 11.4364375,15.1319526 11.4947344,15.0006877 L11.4947344,15.0006877 C12.1398438,13.5414071 13.2987344,12.3837154 14.7574375,11.7401976 L14.7574375,11.7401976 C14.8894063,11.6819289 14.97525,11.5513043 14.97525,11.4065929 L14.97525,11.4065929 L14.97525,0.63455336 C14.97525,0.526980237 14.9278438,0.426450593 14.8464844,0.35601581 L14.8464844,0.35601581 C14.7792188,0.299667984 14.6940156,0.269573123 14.6075313,0.269573123 L14.6075313,0.269573123 C14.5889531,0.269573123 14.570375,0.270853755 14.5517969,0.27341502 M14.2436562,1.06804743 L14.2436562,11.1735178 C12.7932812,11.8721028 11.6279844,13.0368379 10.9271406,14.4877945 L10.9271406,14.4877945 L0.8174375,14.4877945 C2.08715625,7.65562055 7.4081875,2.33715415 14.2436562,1.06804743" id="path-58"></path>
        <linearGradient x1="-1.18577831e-05%" y1="50.0002866%" x2="99.9977754%" y2="50.0002866%" id="linearGradient-60">
            <stop stop-color="#7C72FF" offset="0%"></stop>
            <stop stop-color="#6D64F4" offset="100%"></stop>
        </linearGradient>
        <path d="M0.38309375,0.1856917 C0.27675,0.1856917 0.17553125,0.233075099 0.105703125,0.314395257 L0.105703125,0.314395257 C0.035875,0.395715415 0.00640625,0.503288538 0.022421875,0.608940711 L0.022421875,0.608940711 C1.22039063,8.09679842 7.05904688,13.9332806 14.5517969,15.1313123 L14.5517969,15.1313123 C14.5710156,15.1338735 14.5902344,15.1357945 14.6094531,15.1357945 L14.6094531,15.1357945 C14.6959375,15.1357945 14.7805,15.104419 14.8464844,15.0487115 L14.8464844,15.0487115 C14.9278438,14.978917 14.97525,14.877747 14.97525,14.7695336 L14.97525,14.7695336 L14.97525,3.99813439 C14.97525,3.85278261 14.8894063,3.72279842 14.7574375,3.66388933 L14.7574375,3.66388933 C13.2987344,3.01973123 12.1398438,1.86267984 11.4947344,0.403399209 L11.4947344,0.403399209 C11.4364375,0.272134387 11.3051094,0.1856917 11.1609688,0.1856917 L11.1609688,0.1856917 L0.38309375,0.1856917 Z M0.8174375,0.915652174 L10.9271406,0.915652174 C11.6279844,2.36788933 12.7932812,3.53262451 14.2436562,4.23056917 L14.2436562,4.23056917 L14.2436562,14.3373202 C7.4081875,13.0669328 2.08715625,7.7484664 0.8174375,0.915652174 L0.8174375,0.915652174 Z" id="path-61"></path>
        <linearGradient x1="-1.18577831e-05%" y1="50.000281%" x2="99.9977754%" y2="50.000281%" id="linearGradient-63">
            <stop stop-color="#7C72FF" offset="0%"></stop>
            <stop stop-color="#6D64F4" offset="100%"></stop>
        </linearGradient>
        <path d="M4.38892187,0.1856917 C4.24478125,0.1856917 4.1128125,0.272134387 4.05515625,0.403399209 L4.05515625,0.403399209 C3.41132813,1.86203953 2.25307813,3.01909091 0.793734375,3.66388933 L0.793734375,3.66388933 C0.661765625,3.72279842 0.5765625,3.85278261 0.5765625,3.99813439 L0.5765625,3.99813439 L0.5765625,14.7695336 C0.5765625,14.877747 0.623328125,14.978917 0.7046875,15.0487115 L0.7046875,15.0487115 C0.7713125,15.104419 0.855234375,15.1357945 0.941078125,15.1357945 L0.941078125,15.1357945 C0.9609375,15.1357945 0.98015625,15.1338735 0.999375,15.1313123 L0.999375,15.1313123 C8.492125,13.9332806 14.3295,8.09679842 15.5274687,0.608940711 L15.5274687,0.608940711 C15.5447656,0.503288538 15.5140156,0.395715415 15.4454687,0.314395257 L15.4454687,0.314395257 C15.3756406,0.233075099 15.2737812,0.1856917 15.1667969,0.1856917 L15.1667969,0.1856917 L4.38892187,0.1856917 Z M1.306875,4.23056917 C2.75853125,3.53134387 3.9231875,2.36724901 4.62339063,0.915652174 L4.62339063,0.915652174 L14.7330938,0.915652174 C13.463375,7.7484664 8.14234375,13.0669328 1.306875,14.3373202 L1.306875,14.3373202 L1.306875,4.23056917 Z" id="path-64"></path>
        <linearGradient x1="-0.00134973137%" y1="50.000281%" x2="100.001079%" y2="50.000281%" id="linearGradient-66">
            <stop stop-color="#7C72FF" offset="0%"></stop>
            <stop stop-color="#6D64F4" offset="100%"></stop>
        </linearGradient>
    </defs>
    <g id="GIFOS" stroke="none" stroke-width="1" fill="none" fill-rule="evenodd">
        <g id="00-UI-Kit" transform="translate(-639.000000, -2141.000000)">
            <g id="camara" transform="translate(639.000000, 2141.000000)">
                <g id="Group-97">
                    <path d="M103.129991,96.8506435 C103.129991,101.556968 99.2772719,105.407189 94.5680375,105.407189 L18.0344906,105.407189 C13.3252563,105.407189 9.4725375,101.556968 9.4725375,96.8506435 L9.4725375,66.6142719 C9.4725375,61.9085881 13.3252563,58.0583668 18.0344906,58.0583668 L94.5680375,58.0583668 C99.2772719,58.0583668 103.129991,61.9085881 103.129991,66.6142719 L103.129991,96.8506435 Z" id="Fill-1" fill="#FFFFFF"></path>
                    <g id="Group-5" transform="translate(8.328125, 57.055375)">
                        <mask id="mask-2" fill="white">
                            <use xlink:href="#path-1"></use>
                        </mask>
                        <g id="Clip-4"></g>
                        <path d="M9.70675,0.312474308 C4.6048125,0.312474308 0.454203125,4.46044269 0.454203125,9.55864032 L0.454203125,9.55864032 L0.454203125,39.7956522 C0.454203125,44.8938498 4.6048125,49.0424585 9.70675,49.0424585 L9.70675,49.0424585 L86.2396562,49.0424585 C91.3415937,49.0424585 95.4928438,44.8938498 95.4928438,39.7956522 L95.4928438,39.7956522 L95.4928438,9.55864032 C95.4928438,4.46044269 91.3415937,0.312474308 86.2396562,0.312474308 L86.2396562,0.312474308 L9.70675,0.312474308 Z M1.83539063,39.7956522 L1.83539063,9.55864032 C1.83539063,5.22177866 5.36715625,1.69299605 9.70675,1.69299605 L9.70675,1.69299605 L86.2396563,1.69299605 C90.57925,1.69299605 94.1116563,5.22177866 94.1116563,9.55864032 L94.1116563,9.55864032 L94.1116563,39.7956522 C94.1116563,44.1331542 90.57925,47.6619368 86.2396563,47.6619368 L86.2396563,47.6619368 L9.70675,47.6619368 C5.36715625,47.6619368 1.83539063,44.1331542 1.83539063,39.7956522 L1.83539063,39.7956522 Z" id="Fill-3" fill="url(#linearGradient-3)" mask="url(#mask-2)"></path>
                    </g>
                    <path d="M111.9136,32.4219628 C111.9136,49.5926822 97.9864125,63.5137968 80.8061313,63.5137968 C63.6264906,63.5137968 49.6993031,49.5926822 49.6993031,32.4219628 C49.6993031,15.2506032 63.6264906,1.33012885 80.8061313,1.33012885 C97.9864125,1.33012885 111.9136,15.2506032 111.9136,32.4219628" id="Fill-6" fill="#FFFFFF"></path>
                    <g id="Group-10" transform="translate(48.687500, 0.067233)">
                        <mask id="mask-5" fill="white">
                            <use xlink:href="#path-4"></use>
                        </mask>
                        <g id="Clip-9"></g>
                        <path d="M32.1190156,0.573083004 C14.58575,0.573083004 0.32159375,14.8303636 0.32159375,32.3551779 L0.32159375,32.3551779 C0.32159375,49.8799921 14.58575,64.1366324 32.1190156,64.1366324 L32.1190156,64.1366324 C49.6522813,64.1366324 63.9170781,49.8799921 63.9170781,32.3551779 L63.9170781,32.3551779 C63.9170781,14.8303636 49.6522813,0.573083004 32.1190156,0.573083004 Z M1.70278125,32.3551779 C1.70278125,15.5916996 15.3480937,1.95360474 32.1190156,1.95360474 L32.1190156,1.95360474 C48.8905781,1.95360474 62.53525,15.5916996 62.53525,32.3551779 L62.53525,32.3551779 C62.53525,49.1180158 48.8905781,62.7561107 32.1190156,62.7561107 L32.1190156,62.7561107 C15.3480937,62.7561107 1.70278125,49.1180158 1.70278125,32.3551779 L1.70278125,32.3551779 Z" id="Fill-8" fill="url(#linearGradient-6)" mask="url(#mask-5)"></path>
                    </g>
                    <path d="M45.2097391,41.26537 C45.2097391,53.5530379 35.2428953,63.5137968 22.9493016,63.5137968 C10.6557078,63.5137968 0.690785938,53.5530379 0.690785938,41.26537 C0.690785938,28.9770617 10.6557078,19.0163028 22.9493016,19.0163028 C35.2428953,19.0163028 45.2097391,28.9770617 45.2097391,41.26537" id="Fill-11" fill="#FFFFFF"></path>
                    <g id="Group-15" transform="translate(0.000000, 17.996087)">
                        <mask id="mask-8" fill="white">
                            <use xlink:href="#path-7"></use>
                        </mask>
                        <g id="Clip-14"></g>
                        <path d="M0,23.2690909 C0,35.9172569 10.2954844,46.2077787 22.94975,46.2077787 L22.94975,46.2077787 C35.6052969,46.2077787 45.9007813,35.9172569 45.9007813,23.2690909 L45.9007813,23.2690909 C45.9007813,10.6209249 35.6052969,0.330403162 22.94975,0.330403162 L22.94975,0.330403162 C10.2954844,0.330403162 0,10.6209249 0,23.2690909 M1.3811875,23.2690909 C1.3811875,11.3822609 11.0565469,1.7109249 22.94975,1.7109249 L22.94975,1.7109249 C34.8423125,1.7109249 44.5189531,11.3822609 44.5189531,23.2690909 L44.5189531,23.2690909 C44.5189531,35.1559209 34.8423125,44.8272569 22.94975,44.8272569 L22.94975,44.8272569 C11.0565469,44.8272569 1.3811875,35.1559209 1.3811875,23.2690909" id="Fill-13" fill="url(#linearGradient-9)" mask="url(#mask-8)"></path>
                    </g>
                    <path d="M86.3361344,32.4216427 C86.3361344,35.4746704 83.8607594,37.9488522 80.8062594,37.9488522 C77.7524,37.9488522 75.2763844,35.4746704 75.2763844,32.4216427 C75.2763844,29.3692553 77.7524,26.8950735 80.8062594,26.8950735 C83.8607594,26.8950735 86.3361344,29.3692553 86.3361344,32.4216427" id="Fill-16" fill="#FFFFFF"></path>
                    <g id="Group-20" transform="translate(74.953125, 26.320198)">
                        <mask id="mask-11" fill="white">
                            <use xlink:href="#path-10"></use>
                        </mask>
                        <g id="Clip-19"></g>
                        <path d="M0.018578125,6.10157312 C0.018578125,9.31724111 2.63617188,11.9335731 5.85339063,11.9335731 L5.85339063,11.9335731 C9.07060937,11.9335731 11.6882031,9.31724111 11.6882031,6.10157312 L11.6882031,6.10157312 C11.6882031,2.88590514 9.07060937,0.269573123 5.85339063,0.269573123 L5.85339063,0.269573123 C2.63617188,0.269573123 0.018578125,2.88590514 0.018578125,6.10157312 M0.62909375,6.10157312 C0.62909375,3.22207115 2.9725,0.879794466 5.85339063,0.879794466 L5.85339063,0.879794466 C8.73428125,0.879794466 11.0783281,3.22207115 11.0783281,6.10157312 L11.0783281,6.10157312 C11.0783281,8.9810751 8.73428125,11.3239921 5.85339063,11.3239921 L5.85339063,11.3239921 C2.9725,11.3239921 0.62909375,8.9810751 0.62909375,6.10157312" id="Fill-18" fill="url(#linearGradient-12)" mask="url(#mask-11)"></path>
                    </g>
                    <path d="M41.0197312,105.407381 L41.0197312,105.698725 C41.0197312,109.555349 44.1466219,112.680733 48.0044656,112.680733 L64.5966531,112.680733 C68.4564187,112.680733 71.5833094,109.555349 71.5833094,105.698725 L71.5833094,105.407381 L41.0197312,105.407381 Z" id="Fill-21" fill="#FFFFFF"></path>
                    <g id="Group-25" transform="translate(39.718750, 104.438775)">
                        <mask id="mask-14" fill="white">
                            <use xlink:href="#path-13"></use>
                        </mask>
                        <g id="Clip-24"></g>
                        <path d="M1.30110938,0.278537549 C0.919296875,0.278537549 0.609875,0.58716996 0.609875,0.968798419 L0.609875,0.968798419 L0.609875,1.26014229 C0.609875,5.49071146 4.05451563,8.93177075 8.28584375,8.93177075 L8.28584375,8.93177075 L24.8773906,8.93177075 C29.1106406,8.93177075 32.5552813,5.49071146 32.5552813,1.26014229 L32.5552813,1.26014229 L32.5552813,0.968798419 C32.5552813,0.58716996 32.2458594,0.278537549 31.8646875,0.278537549 L31.8646875,0.278537549 L1.30110938,0.278537549 Z M2.003875,1.65905929 L31.1612813,1.65905929 C30.955,4.94324111 28.2150469,7.55188933 24.8773906,7.55188933 L24.8773906,7.55188933 L8.28584375,7.55188933 C4.95010938,7.55188933 2.21015625,4.94324111 2.003875,1.65905929 L2.003875,1.65905929 Z" id="Fill-23" fill="url(#linearGradient-15)" mask="url(#mask-14)"></path>
                    </g>
                    <g id="Group-28" transform="translate(55.093750, 111.482253)">
                        <mask id="mask-17" fill="white">
                            <use xlink:href="#path-16"></use>
                        </mask>
                        <g id="Clip-27"></g>
                        <path d="M0.516984375,1.19867194 L0.516984375,48.6941265 C0.516984375,49.0751146 0.825765625,49.383747 1.20757813,49.383747 L1.20757813,49.383747 C1.58939063,49.383747 1.89817188,49.0751146 1.89817188,48.6941265 L1.89817188,48.6941265 L1.89817188,1.19867194 C1.89817188,0.816403162 1.58939063,0.508411067 1.20757813,0.508411067 L1.20757813,0.508411067 C0.825765625,0.508411067 0.516984375,0.816403162 0.516984375,1.19867194" id="Fill-26" fill="url(#linearGradient-18)" mask="url(#mask-17)"></path>
                    </g>
                    <g id="Group-31" transform="translate(7.046875, 111.482253)">
                        <mask id="mask-20" fill="white">
                            <use xlink:href="#path-19"></use>
                        </mask>
                        <g id="Clip-30"></g>
                        <path d="M48.7662969,0.710110672 L0.689953125,48.7664822 C0.419609375,49.0360553 0.419609375,49.472751 0.689953125,49.7429644 L0.689953125,49.7429644 C0.824484375,49.8774308 1.00129688,49.944664 1.17810938,49.944664 L1.17810938,49.944664 C1.35492188,49.944664 1.53173438,49.8774308 1.66626563,49.7429644 L1.66626563,49.7429644 L49.7426094,1.68659289 C50.0123125,1.41637945 50.0123125,0.980324111 49.7426094,0.710110672 L49.7426094,0.710110672 C49.6080781,0.575644269 49.4312656,0.508411067 49.2544531,0.508411067 L49.2544531,0.508411067 C49.0776406,0.508411067 48.9008281,0.575644269 48.7662969,0.710110672" id="Fill-29" fill="url(#linearGradient-21)" mask="url(#mask-20)"></path>
                    </g>
                    <g id="Group-34" transform="translate(55.093750, 111.482253)">
                        <mask id="mask-23" fill="white">
                            <use xlink:href="#path-22"></use>
                        </mask>
                        <g id="Clip-33"></g>
                        <path d="M0.719421875,0.710110672 C0.44971875,0.980324111 0.44971875,1.41637945 0.719421875,1.68659289 L0.719421875,1.68659289 L48.7957656,49.7429644 C48.9309375,49.8774308 49.10775,49.944664 49.2845625,49.944664 L49.2845625,49.944664 C49.4607344,49.944664 49.6375469,49.8774308 49.7727188,49.7429644 L49.7727188,49.7429644 C50.0424219,49.472751 50.0424219,49.0360553 49.7727188,48.7664822 L49.7727188,48.7664822 L1.69573438,0.710110672 C1.56120312,0.575644269 1.38439063,0.508411067 1.20757813,0.508411067 L1.20757813,0.508411067 C1.03076563,0.508411067 0.853953125,0.575644269 0.719421875,0.710110672" id="Fill-32" fill="url(#linearGradient-24)" mask="url(#mask-23)"></path>
                    </g>
                    <g id="Group-37" transform="translate(17.296875, 91.632451)">
                        <mask id="mask-26" fill="white">
                            <use xlink:href="#path-25"></use>
                        </mask>
                        <g id="Clip-36"></g>
                        <path d="M0.96221875,0.393794466 C0.579765625,0.393794466 0.271625,0.702426877 0.271625,1.08405534 L0.271625,1.08405534 L0.271625,6.21618972 C0.271625,6.59717787 0.579765625,6.90645059 0.96221875,6.90645059 L0.96221875,6.90645059 L26.4328281,6.90645059 C26.8146406,6.90645059 27.1240625,6.59717787 27.1240625,6.21618972 L27.1240625,6.21618972 L27.1240625,1.08405534 C27.1240625,0.702426877 26.8146406,0.393794466 26.4328281,0.393794466 L26.4328281,0.393794466 L0.96221875,0.393794466 Z M1.6528125,5.52528854 L25.7422344,5.52528854 L25.7422344,1.77431621 L1.6528125,1.77431621 L1.6528125,5.52528854 Z" id="Fill-35" fill="url(#linearGradient-27)" mask="url(#mask-26)"></path>
                    </g>
                    <g id="Group-40" transform="translate(46.765625, 91.632451)">
                        <mask id="mask-29" fill="white">
                            <use xlink:href="#path-28"></use>
                        </mask>
                        <g id="Clip-39"></g>
                        <path d="M1.24473437,0.393794466 C0.862921875,0.393794466 0.554140625,0.702426877 0.554140625,1.08405534 L0.554140625,1.08405534 L0.554140625,6.21618972 C0.554140625,6.59717787 0.862921875,6.90645059 1.24473437,6.90645059 L1.24473437,6.90645059 L6.48953125,6.90645059 C6.87134375,6.90645059 7.180125,6.59717787 7.180125,6.21618972 L7.180125,6.21618972 L7.180125,1.08405534 C7.180125,0.702426877 6.87134375,0.393794466 6.48953125,0.393794466 L6.48953125,0.393794466 L1.24473437,0.393794466 Z M1.93532813,5.52528854 L5.7989375,5.52528854 L5.7989375,1.77431621 L1.93532813,1.77431621 L1.93532813,5.52528854 Z" id="Fill-38" fill="url(#linearGradient-30)" mask="url(#mask-29)"></path>
                    </g>
                    <g id="Group-43" transform="translate(17.296875, 83.948656)">
                        <mask id="mask-32" fill="white">
                            <use xlink:href="#path-31"></use>
                        </mask>
                        <g id="Clip-42"></g>
                        <path d="M0.96221875,0.37458498 C0.579765625,0.37458498 0.271625,0.682577075 0.271625,1.06484585 L0.271625,1.06484585 C0.271625,1.44583399 0.579765625,1.75510672 0.96221875,1.75510672 L0.96221875,1.75510672 L26.4328281,1.75510672 C26.8146406,1.75510672 27.1240625,1.44583399 27.1240625,1.06484585 L27.1240625,1.06484585 C27.1240625,0.682577075 26.8146406,0.37458498 26.4328281,0.37458498 L26.4328281,0.37458498 L0.96221875,0.37458498 Z" id="Fill-41" fill="url(#linearGradient-33)" mask="url(#mask-32)"></path>
                    </g>
                    <g id="Group-46" transform="translate(17.296875, 76.905178)">
                        <mask id="mask-35" fill="white">
                            <use xlink:href="#path-34"></use>
                        </mask>
                        <g id="Clip-45"></g>
                        <path d="M0.96221875,0.429011858 C0.579765625,0.429011858 0.271625,0.738284585 0.271625,1.11927273 L0.271625,1.11927273 C0.271625,1.50090119 0.579765625,1.81017391 0.96221875,1.81017391 L0.96221875,1.81017391 L35.9582812,1.81017391 C36.3400938,1.81017391 36.648875,1.50090119 36.648875,1.11927273 L36.648875,1.11927273 C36.648875,0.738284585 36.3400938,0.429011858 35.9582812,0.429011858 L35.9582812,0.429011858 L0.96221875,0.429011858 Z" id="Fill-44" fill="url(#linearGradient-36)" mask="url(#mask-35)"></path>
                    </g>
                    <polygon id="Fill-47" fill="#FFFFFF" points="105.872698 73.5481921 105.872698 89.9172356 117.447511 96.5970142 117.447511 66.8677731"></polygon>
                    <g id="Group-51" transform="translate(105.062500, 66.019802)">
                        <mask id="mask-38" fill="white">
                            <use xlink:href="#path-37"></use>
                        </mask>
                        <g id="Clip-50"></g>
                        <path d="M12.0399063,0.24972332 L0.464453125,6.93014229 C0.251765625,7.05436364 0.119796875,7.28167589 0.119796875,7.52819763 L0.119796875,7.52819763 L0.119796875,23.8978814 C0.119796875,24.1444032 0.251765625,24.3717154 0.464453125,24.4952964 L0.464453125,24.4952964 L12.0399063,31.1757154 C12.1456094,31.2365455 12.2660469,31.2679209 12.3852031,31.2679209 L12.3852031,31.2679209 C12.5030781,31.2679209 12.6235156,31.2365455 12.7305,31.1757154 L12.7305,31.1757154 C12.9431875,31.0521344 13.0757969,30.8241818 13.0757969,30.5776601 L13.0757969,30.5776601 L13.0757969,0.847778656 C13.0757969,0.601256917 12.9431875,0.373944664 12.7305,0.24972332 L12.7305,0.24972332 C12.6235156,0.188893281 12.5043594,0.158158103 12.3845625,0.158158103 L12.3845625,0.158158103 C12.2654063,0.158158103 12.14625,0.188893281 12.0399063,0.24972332 L12.0399063,0.24972332 Z M1.50034375,23.4989644 L1.50034375,7.92647431 L11.6946094,2.04452964 L11.6946094,29.3815494 L1.50034375,23.4989644 Z" id="Fill-49" fill="url(#linearGradient-39)" mask="url(#mask-38)"></path>
                    </g>
                    <polygon id="Fill-52" fill="#FFFFFF" points="117.447447 64.9683391 117.447447 98.4952957 122.282244 101.286434 122.282244 62.1784814"></polygon>
                    <g id="Group-56" transform="translate(116.593750, 60.897273)">
                        <mask id="mask-41" fill="white">
                            <use xlink:href="#path-40"></use>
                        </mask>
                        <g id="Clip-55"></g>
                        <path d="M5.3428125,0.683217391 L0.50865625,3.47371542 C0.295328125,3.59601581 0.163359375,3.8246087 0.163359375,4.07113043 L0.163359375,4.07113043 L0.163359375,37.598087 C0.163359375,37.8446087 0.295328125,38.0732016 0.50865625,38.1961423 L0.50865625,38.1961423 L5.3428125,40.9872806 C5.44979688,41.048751 5.57023437,41.0794862 5.68875,41.0794862 L5.68875,41.0794862 C5.80726562,41.0794862 5.92770313,41.048751 6.03404688,40.9872806 L6.03404688,40.9872806 C6.24673438,40.8636996 6.37934375,40.6363874 6.37934375,40.3892253 L6.37934375,40.3892253 L6.37934375,1.28127273 C6.37934375,1.03475099 6.24673438,0.806798419 6.03404688,0.683217391 L6.03404688,0.683217391 C5.92770313,0.621747036 5.80790625,0.591011858 5.68875,0.591011858 L5.68875,0.591011858 C5.56895313,0.591011858 5.44979688,0.621747036 5.3428125,0.683217391 L5.3428125,0.683217391 Z M1.54454688,37.1998103 L1.54454688,4.47004743 L4.99751563,2.47802372 L4.99751563,39.1931146 L1.54454688,37.1998103 Z" id="Fill-54" fill="url(#linearGradient-42)" mask="url(#mask-41)"></path>
                    </g>
                    <path d="M84.7327141,8.38602925 L84.7327141,23.6223534 C86.9057141,24.581547 88.6501359,26.3257684 89.6091516,28.4970806 L104.853464,28.4970806 C103.205777,18.1924719 95.0416516,10.0329225 84.7327141,8.38602925" id="Fill-57" fill="#FFFFFF"></path>
                    <g id="Group-61" transform="translate(83.921875, 7.751028)">
                        <mask id="mask-44" fill="white">
                            <use xlink:href="#path-43"></use>
                        </mask>
                        <g id="Clip-60"></g>
                        <path d="M0.475984375,0.242039526 C0.360671875,0.341288538 0.294046875,0.484079051 0.294046875,0.635193676 L0.294046875,0.635193676 L0.294046875,15.8721581 C0.294046875,16.076419 0.415125,16.26083 0.6021875,16.3440711 L0.6021875,16.3440711 C2.66564063,17.2552411 4.30371875,18.8925296 5.21532812,20.9549881 L5.21532812,20.9549881 C5.2966875,21.1419605 5.48310937,21.2623399 5.68682813,21.2623399 L5.68682813,21.2623399 L20.9317813,21.2623399 C21.0829687,21.2623399 21.2264688,21.1963874 21.3257656,21.0817708 L21.3257656,21.0817708 C21.4231406,20.9658735 21.4654219,20.8134783 21.4423594,20.6649249 L21.4423594,20.6649249 C19.7479062,10.0728142 11.49025,1.81849802 0.89303125,0.12486166 L0.89303125,0.12486166 C0.866765625,0.121019763 0.8405,0.119098814 0.814234375,0.119098814 L0.814234375,0.119098814 C0.691234375,0.119098814 0.570796875,0.162 0.475984375,0.242039526 M1.327375,15.5417549 L1.327375,1.24797628 C10.9963281,3.04342292 18.52175,10.566498 20.3180625,20.2301502 L20.3180625,20.2301502 L6.01867188,20.2301502 C5.027625,18.1785771 3.38121875,16.5310435 1.327375,15.5417549" id="Fill-59" fill="url(#linearGradient-45)" mask="url(#mask-44)"></path>
                    </g>
                    <path d="M76.8812781,8.38602925 C66.5710594,10.0329225 58.407575,18.1924719 56.7592469,28.4970806 L72.0029188,28.4970806 C72.9638563,26.3257684 74.7076375,24.581547 76.8812781,23.6223534 L76.8812781,8.38602925 Z" id="Fill-62" fill="#FFFFFF"></path>
                    <g id="Group-66" transform="translate(55.734375, 7.751028)">
                        <mask id="mask-47" fill="white">
                            <use xlink:href="#path-46"></use>
                        </mask>
                        <g id="Clip-65"></g>
                        <path d="M21.0656719,0.12486166 C10.4678125,1.81849802 2.208875,10.0728142 0.514421875,20.6649249 L0.514421875,20.6649249 C0.49071875,20.8134783 0.533640625,20.9658735 0.63165625,21.0817708 L0.63165625,21.0817708 C0.7303125,21.1963874 0.873171875,21.2623399 1.02564062,21.2623399 L1.02564062,21.2623399 L16.2686719,21.2623399 C16.4736719,21.2623399 16.6581719,21.1419605 16.7414531,20.9549881 L16.7414531,20.9549881 C17.6537031,18.8918893 19.2930625,17.2546008 21.355875,16.3440711 L21.355875,16.3440711 C21.5429375,16.26083 21.663375,16.076419 21.663375,15.8721581 L21.663375,15.8721581 L21.663375,0.635193676 C21.663375,0.484079051 21.5973906,0.341288538 21.4820781,0.242039526 L21.4820781,0.242039526 C21.3872656,0.162 21.2668281,0.119098814 21.1438281,0.119098814 L21.1438281,0.119098814 C21.1182031,0.119098814 21.0919375,0.121019763 21.0656719,0.12486166 M20.6306875,1.24797628 L20.6306875,15.5417549 C18.5774844,16.5297628 16.9297969,18.1766561 15.93875,20.2301502 L15.93875,20.2301502 L1.63871875,20.2301502 C3.43503125,10.5652174 10.9610937,3.04342292 20.6306875,1.24797628" id="Fill-64" fill="url(#linearGradient-48)" mask="url(#mask-47)"></path>
                    </g>
                    <path d="M72.0031109,36.3448601 L56.7594391,36.3448601 C58.4071266,46.6507494 66.5712516,54.8090182 76.8814703,56.4571921 L76.8814703,41.2202277 C74.7078297,40.2603937 72.9640484,38.5168126 72.0031109,36.3448601" id="Fill-67" fill="#FFFFFF"></path>
                    <g id="Group-71" transform="translate(55.734375, 35.284625)">
                        <mask id="mask-50" fill="white">
                            <use xlink:href="#path-49"></use>
                        </mask>
                        <g id="Clip-70"></g>
                        <path d="M1.02564062,0.544268775 C0.873171875,0.544268775 0.7303125,0.61086166 0.63165625,0.725478261 L0.63165625,0.725478261 C0.533640625,0.840735178 0.49071875,0.993130435 0.514421875,1.14232411 L0.514421875,1.14232411 C2.208875,11.7331542 10.4665313,19.9881107 21.0656719,21.6830277 L21.0656719,21.6830277 C21.0925781,21.6868696 21.1194844,21.6894308 21.1470313,21.6894308 L21.1470313,21.6894308 C21.26875,21.6894308 21.3885469,21.6458893 21.4820781,21.5664901 L21.4820781,21.5664901 C21.5973906,21.4678814 21.663375,21.3244506 21.663375,21.1720553 L21.663375,21.1720553 L21.663375,5.93573123 C21.663375,5.73083004 21.5429375,5.54577866 21.355875,5.46317787 L21.355875,5.46317787 C19.2930625,4.55264822 17.6537031,2.91535968 16.7414531,0.851620553 L16.7414531,0.851620553 C16.6581719,0.665288538 16.4736719,0.544268775 16.2686719,0.544268775 L16.2686719,0.544268775 L1.02564062,0.544268775 Z M1.63871875,1.5764585 L15.93875,1.5764585 C16.9297969,3.62931225 18.5774844,5.27620553 20.6306875,6.26549407 L20.6306875,6.26549407 L20.6306875,20.5592727 C10.9610937,18.7631858 3.43503125,11.2401107 1.63871875,1.5764585 L1.63871875,1.5764585 Z" id="Fill-69" fill="url(#linearGradient-51)" mask="url(#mask-50)"></path>
                    </g>
                    <path d="M84.7327141,56.456936 C95.0416516,54.8087621 103.205777,46.6504933 104.853464,36.344604 L89.6091516,36.344604 C88.6501359,38.5165565 86.9057141,40.2607779 84.7327141,41.2199715 L84.7327141,56.456936 Z" id="Fill-72" fill="#FFFFFF"></path>
                    <g id="Group-76" transform="translate(83.921875, 35.284625)">
                        <mask id="mask-53" fill="white">
                            <use xlink:href="#path-52"></use>
                        </mask>
                        <g id="Clip-75"></g>
                        <path d="M5.68682813,0.544268775 C5.48310937,0.544268775 5.2966875,0.665288538 5.21532812,0.851620553 L5.21532812,0.851620553 C4.30371875,2.91471937 2.66564063,4.55136759 0.6021875,5.46317787 L0.6021875,5.46317787 C0.415125,5.54577866 0.294046875,5.73083004 0.294046875,5.93573123 L0.294046875,5.93573123 L0.294046875,21.1720553 C0.294046875,21.3244506 0.360671875,21.4678814 0.475984375,21.5664901 L0.475984375,21.5664901 C0.57015625,21.6458893 0.688671875,21.6894308 0.81103125,21.6894308 L0.81103125,21.6894308 C0.8379375,21.6894308 0.86484375,21.6868696 0.89303125,21.6830277 L0.89303125,21.6830277 C11.49025,19.9881107 19.7479062,11.7331542 21.4423594,1.14232411 L21.4423594,1.14232411 C21.4654219,0.993130435 21.4231406,0.840735178 21.3257656,0.725478261 L21.3257656,0.725478261 C21.2264688,0.61086166 21.0829687,0.544268775 20.9317813,0.544268775 L20.9317813,0.544268775 L5.68682813,0.544268775 Z M1.327375,6.26549407 C3.38121875,5.27556522 5.027625,3.62867194 6.01867188,1.5764585 L6.01867188,1.5764585 L20.3180625,1.5764585 C18.5230313,11.2401107 10.9963281,18.7631858 1.327375,20.5592727 L1.327375,20.5592727 L1.327375,6.26549407 Z" id="Fill-74" fill="url(#linearGradient-54)" mask="url(#mask-53)"></path>
                    </g>
                    <path d="M25.9259656,24.3932941 L25.9259656,35.1653336 C27.4621844,35.8434285 28.6960281,37.0760372 29.3738094,38.6115154 L40.1516844,38.6115154 C38.9863875,31.3266379 33.2143563,25.5573889 25.9259656,24.3932941" id="Fill-77" fill="#FFFFFF"></path>
                    <g id="Group-81" transform="translate(24.984375, 23.758933)">
                        <mask id="mask-56" fill="white">
                            <use xlink:href="#path-55"></use>
                        </mask>
                        <g id="Clip-80"></g>
                        <path d="M0.7046875,0.35601581 C0.623328125,0.426450593 0.5765625,0.526980237 0.5765625,0.63455336 L0.5765625,0.63455336 L0.5765625,11.4065929 C0.5765625,11.5513043 0.661765625,11.6819289 0.793734375,11.7401976 L0.793734375,11.7401976 C2.25307813,12.3843557 3.41132813,13.5420474 4.05515625,15.0006877 L4.05515625,15.0006877 C4.1128125,15.1319526 4.24478125,15.2177549 4.38892187,15.2177549 L4.38892187,15.2177549 L15.1667969,15.2177549 C15.2737812,15.2177549 15.3756406,15.1710119 15.4454687,15.0896917 L15.4454687,15.0896917 C15.5140156,15.0083715 15.5447656,14.9001581 15.5274687,14.7951462 L15.5274687,14.7951462 C14.3295,7.30664822 8.492125,1.47144664 0.999375,0.27341502 L0.999375,0.27341502 C0.980796875,0.270853755 0.96221875,0.269573123 0.943640625,0.269573123 L0.943640625,0.269573123 C0.856515625,0.269573123 0.771953125,0.299667984 0.7046875,0.35601581 M1.306875,11.1735178 L1.306875,1.06804743 C8.14234375,2.33715415 13.463375,7.65562055 14.7330938,14.4877945 L14.7330938,14.4877945 L4.62339063,14.4877945 C3.9231875,13.0374783 2.75853125,11.8727431 1.306875,11.1735178" id="Fill-79" fill="url(#linearGradient-57)" mask="url(#mask-56)"></path>
                    </g>
                    <path d="M20.3752063,24.3932941 C13.086175,25.5573889 7.31414375,31.3266379 6.14884688,38.6115154 L16.9267219,38.6115154 C17.6057844,37.0760372 18.8383469,35.8434285 20.3752063,35.1653336 L20.3752063,24.3932941 Z" id="Fill-82" fill="#FFFFFF"></path>
                    <g id="Group-86" transform="translate(5.765625, 23.758933)">
                        <mask id="mask-59" fill="white">
                            <use xlink:href="#path-58"></use>
                        </mask>
                        <g id="Clip-85"></g>
                        <path d="M14.5517969,0.27341502 C7.06032813,1.47144664 1.22039063,7.30664822 0.022421875,14.7951462 L0.022421875,14.7951462 C0.00640625,14.9001581 0.035875,15.0083715 0.105703125,15.0896917 L0.105703125,15.0896917 C0.17553125,15.1710119 0.27675,15.2177549 0.38309375,15.2177549 L0.38309375,15.2177549 L11.1609688,15.2177549 C11.3051094,15.2177549 11.4364375,15.1319526 11.4947344,15.0006877 L11.4947344,15.0006877 C12.1398438,13.5414071 13.2987344,12.3837154 14.7574375,11.7401976 L14.7574375,11.7401976 C14.8894063,11.6819289 14.97525,11.5513043 14.97525,11.4065929 L14.97525,11.4065929 L14.97525,0.63455336 C14.97525,0.526980237 14.9278438,0.426450593 14.8464844,0.35601581 L14.8464844,0.35601581 C14.7792188,0.299667984 14.6940156,0.269573123 14.6075313,0.269573123 L14.6075313,0.269573123 C14.5889531,0.269573123 14.570375,0.270853755 14.5517969,0.27341502 M14.2436562,1.06804743 L14.2436562,11.1735178 C12.7932812,11.8721028 11.6279844,13.0368379 10.9271406,14.4877945 L10.9271406,14.4877945 L0.8174375,14.4877945 C2.08715625,7.65562055 7.4081875,2.33715415 14.2436562,1.06804743" id="Fill-84" fill="url(#linearGradient-60)" mask="url(#mask-59)"></path>
                    </g>
                    <path d="M16.9265297,44.1599194 L6.14929531,44.1599194 C7.31459219,51.4454372 13.0859828,57.2140458 20.3750141,58.378781 L20.3750141,47.6067415 C18.8381547,46.9280063 17.6055922,45.6953976 16.9265297,44.1599194" id="Fill-87" fill="#FFFFFF"></path>
                    <g id="Group-91" transform="translate(5.765625, 43.608735)">
                        <mask id="mask-62" fill="white">
                            <use xlink:href="#path-61"></use>
                        </mask>
                        <g id="Clip-90"></g>
                        <path d="M0.38309375,0.1856917 C0.27675,0.1856917 0.17553125,0.233075099 0.105703125,0.314395257 L0.105703125,0.314395257 C0.035875,0.395715415 0.00640625,0.503288538 0.022421875,0.608940711 L0.022421875,0.608940711 C1.22039063,8.09679842 7.05904688,13.9332806 14.5517969,15.1313123 L14.5517969,15.1313123 C14.5710156,15.1338735 14.5902344,15.1357945 14.6094531,15.1357945 L14.6094531,15.1357945 C14.6959375,15.1357945 14.7805,15.104419 14.8464844,15.0487115 L14.8464844,15.0487115 C14.9278438,14.978917 14.97525,14.877747 14.97525,14.7695336 L14.97525,14.7695336 L14.97525,3.99813439 C14.97525,3.85278261 14.8894063,3.72279842 14.7574375,3.66388933 L14.7574375,3.66388933 C13.2987344,3.01973123 12.1398438,1.86267984 11.4947344,0.403399209 L11.4947344,0.403399209 C11.4364375,0.272134387 11.3051094,0.1856917 11.1609688,0.1856917 L11.1609688,0.1856917 L0.38309375,0.1856917 Z M0.8174375,0.915652174 L10.9271406,0.915652174 C11.6279844,2.36788933 12.7932812,3.53262451 14.2436562,4.23056917 L14.2436562,4.23056917 L14.2436562,14.3373202 C7.4081875,13.0669328 2.08715625,7.7484664 0.8174375,0.915652174 L0.8174375,0.915652174 Z" id="Fill-89" fill="url(#linearGradient-63)" mask="url(#mask-62)"></path>
                    </g>
                    <path d="M25.9259656,58.3788451 C33.2143563,57.2141099 38.9863875,51.4455012 40.1516844,44.1599834 L29.3738094,44.1599834 C28.6960281,45.6954617 27.4621844,46.9280704 25.9259656,47.6068055 L25.9259656,58.3788451 Z" id="Fill-92" fill="#FFFFFF"></path>
                    <g id="Group-96" transform="translate(24.984375, 43.608735)">
                        <mask id="mask-65" fill="white">
                            <use xlink:href="#path-64"></use>
                        </mask>
                        <g id="Clip-95"></g>
                        <path d="M4.38892187,0.1856917 C4.24478125,0.1856917 4.1128125,0.272134387 4.05515625,0.403399209 L4.05515625,0.403399209 C3.41132813,1.86203953 2.25307813,3.01909091 0.793734375,3.66388933 L0.793734375,3.66388933 C0.661765625,3.72279842 0.5765625,3.85278261 0.5765625,3.99813439 L0.5765625,3.99813439 L0.5765625,14.7695336 C0.5765625,14.877747 0.623328125,14.978917 0.7046875,15.0487115 L0.7046875,15.0487115 C0.7713125,15.104419 0.855234375,15.1357945 0.941078125,15.1357945 L0.941078125,15.1357945 C0.9609375,15.1357945 0.98015625,15.1338735 0.999375,15.1313123 L0.999375,15.1313123 C8.492125,13.9332806 14.3295,8.09679842 15.5274687,0.608940711 L15.5274687,0.608940711 C15.5447656,0.503288538 15.5140156,0.395715415 15.4454687,0.314395257 L15.4454687,0.314395257 C15.3756406,0.233075099 15.2737812,0.1856917 15.1667969,0.1856917 L15.1667969,0.1856917 L4.38892187,0.1856917 Z M1.306875,4.23056917 C2.75853125,3.53134387 3.9231875,2.36724901 4.62339063,0.915652174 L4.62339063,0.915652174 L14.7330938,0.915652174 C13.463375,7.7484664 8.14234375,13.0669328 1.306875,14.3373202 L1.306875,14.3373202 L1.306875,4.23056917 Z" id="Fill-94" fill="url(#linearGradient-66)" mask="url(#mask-65)"></path>
                    </g>
                </g>
            </g>
        </g>
    </g>
</svg>