<?xml version="1.0" encoding="UTF-8"?>
<svg width="54px" height="54px" viewBox="0 0 54 54" version="1.1" xmlns="http://www.w3.org/2000/svg" xmlns:xlink="http://www.w3.org/1999/xlink">
    <!-- Generator: Sketch 63.1 (92452) - https://sketch.com -->
    <title>CTA-crar-gifo-modo-noc</title>
    <desc>Created with Sketch.</desc>
    <defs>
        <path d="M27,19 C27.5522847,19 28,19.4477153 28,20 L28,20 L28,26 L34,26 C34.5128358,26 34.9355072,26.3860402 34.9932723,26.8833789 L35,27 C35,27.5522847 34.5522847,28 34,28 L34,28 L28,28 L28,34 C28,34.5128358 27.6139598,34.9355072 27.1166211,34.9932723 L27,35 C26.4477153,35 26,34.5522847 26,34 L26,34 L26,28 L20,28 C19.4871642,28 19.0644928,27.6139598 19.0067277,27.1166211 L19,27 C19,26.4477153 19.4477153,26 20,26 L20,26 L26,26 L26,20 C26,19.4871642 26.3860402,19.0644928 26.8833789,19.0067277 Z" id="path-1"></path>
    </defs>
    <g id="GIFOS" stroke="none" stroke-width="1" fill="none" fill-rule="evenodd">
        <g id="16-UI-Kit-Modo-Nocturno" transform="translate(-1230.000000, -502.000000)">
            <g id="CTA-crar-gifo-modo-noc" transform="translate(1230.000000, 502.000000)">
                <circle id="Oval-3-Copy" fill="#FFFFFF" fill-rule="nonzero" cx="27" cy="27" r="27"></circle>
                <mask id="mask-2" fill="white">
                    <use xlink:href="#path-1"></use>
                </mask>
                <use id="Combined-Shape" fill="#000000" fill-rule="nonzero" xlink:href="#path-1"></use>
            </g>
        </g>
    </g>
</svg>