<?xml version="1.0" encoding="UTF-8"?>
<svg width="181px" height="163px" viewBox="0 0 181 163" version="1.1" xmlns="http://www.w3.org/2000/svg" xmlns:xlink="http://www.w3.org/1999/xlink">
    <!-- Generator: Sketch 63.1 (92452) - https://sketch.com -->
    <title>element-camara</title>
    <desc>Created with Sketch.</desc>
    <defs>
        <path d="M16.3915,0 C8.4275,0 1.9485,6.478 1.9485,14.44 L1.9485,14.44 L1.9485,61.662 C1.9485,69.624 8.4275,76.103 16.3915,76.103 L16.3915,76.103 L135.8575,76.103 C143.8215,76.103 150.3015,69.624 150.3015,61.662 L150.3015,61.662 L150.3015,14.44 C150.3015,6.478 143.8215,0 135.8575,0 L135.8575,0 L16.3915,0 Z M4.1045,61.662 L4.1045,14.44 C4.1045,7.667 9.6175,2.156 16.3915,2.156 L16.3915,2.156 L135.8575,2.156 C142.6315,2.156 148.1455,7.667 148.1455,14.44 L148.1455,14.44 L148.1455,61.662 C148.1455,68.436 142.6315,73.947 135.8575,73.947 L135.8575,73.947 L16.3915,73.947 C9.6175,73.947 4.1045,68.436 4.1045,61.662 L4.1045,61.662 Z" id="path-1"></path>
        <linearGradient x1="-0.000337101373%" y1="49.9997359%" x2="100.000062%" y2="49.9997359%" id="linearGradient-3">
            <stop stop-color="#7C72FF" offset="0%"></stop>
            <stop stop-color="#6D64F4" offset="100%"></stop>
        </linearGradient>
        <path d="M52.2705,73.947 C51.6745,73.947 51.1915,74.429 51.1915,75.025 L51.1915,75.025 L51.1915,75.48 C51.1915,82.087 56.5685,87.461 63.1735,87.461 L63.1735,87.461 L89.0725,87.461 C95.6805,87.461 101.0575,82.087 101.0575,75.48 L101.0575,75.48 L101.0575,75.025 C101.0575,74.429 100.5745,73.947 99.9795,73.947 L99.9795,73.947 L52.2705,73.947 Z M53.3675,76.103 L98.8815,76.103 C98.5595,81.232 94.2825,85.306 89.0725,85.306 L89.0725,85.306 L63.1735,85.306 C57.9665,85.306 53.6895,81.232 53.3675,76.103 L53.3675,76.103 Z" id="path-4"></path>
        <linearGradient x1="0.00139935026%" y1="50.0010826%" x2="99.9997951%" y2="50.0010826%" id="linearGradient-6">
            <stop stop-color="#7C72FF" offset="0%"></stop>
            <stop stop-color="#6D64F4" offset="100%"></stop>
        </linearGradient>
        <path d="M75.0465,86.384 L75.0465,160.559 C75.0465,161.154 75.5285,161.636 76.1245,161.636 L76.1245,161.636 C76.7205,161.636 77.2025,161.154 77.2025,160.559 L77.2025,160.559 L77.2025,86.384 C77.2025,85.787 76.7205,85.306 76.1245,85.306 L76.1245,85.306 C75.5285,85.306 75.0465,85.787 75.0465,86.384" id="path-7"></path>
        <linearGradient x1="-0.0141929499%" y1="49.9999995%" x2="99.9950788%" y2="49.9999995%" id="linearGradient-9">
            <stop stop-color="#7C72FF" offset="0%"></stop>
            <stop stop-color="#6D64F4" offset="100%"></stop>
        </linearGradient>
        <path d="M75.3625,85.621 L0.3165,160.672 C-0.1055,161.093 -0.1055,161.775 0.3165,162.197 L0.3165,162.197 C0.5265,162.407 0.8025,162.512 1.0785,162.512 L1.0785,162.512 C1.3545,162.512 1.6305,162.407 1.8405,162.197 L1.8405,162.197 L76.8865,87.146 C77.3075,86.724 77.3075,86.043 76.8865,85.621 L76.8865,85.621 C76.6765,85.411 76.4005,85.306 76.1245,85.306 L76.1245,85.306 C75.8485,85.306 75.5725,85.411 75.3625,85.621" id="path-10"></path>
        <linearGradient x1="0.000193906266%" y1="49.9995792%" x2="100.000873%" y2="49.9995792%" id="linearGradient-12">
            <stop stop-color="#7C72FF" offset="0%"></stop>
            <stop stop-color="#6D64F4" offset="100%"></stop>
        </linearGradient>
        <path d="M75.3625,85.621 C74.9415,86.043 74.9415,86.724 75.3625,87.146 L75.3625,87.146 L150.4085,162.197 C150.6195,162.407 150.8955,162.512 151.1715,162.512 L151.1715,162.512 C151.4465,162.512 151.7225,162.407 151.9335,162.197 L151.9335,162.197 C152.3545,161.775 152.3545,161.093 151.9335,160.672 L151.9335,160.672 L76.8865,85.621 C76.6765,85.411 76.4005,85.306 76.1245,85.306 L76.1245,85.306 C75.8485,85.306 75.5725,85.411 75.3625,85.621" id="path-13"></path>
        <linearGradient x1="-0.000423690943%" y1="49.9995792%" x2="100.000257%" y2="49.9995792%" id="linearGradient-15">
            <stop stop-color="#7C72FF" offset="0%"></stop>
            <stop stop-color="#6D64F4" offset="100%"></stop>
        </linearGradient>
        <path d="M16.7415,54.127 C16.1445,54.127 15.6635,54.609 15.6635,55.205 L15.6635,55.205 L15.6635,63.22 C15.6635,63.815 16.1445,64.298 16.7415,64.298 L16.7415,64.298 L56.5005,64.298 C57.0965,64.298 57.5795,63.815 57.5795,63.22 L57.5795,63.22 L57.5795,55.205 C57.5795,54.609 57.0965,54.127 56.5005,54.127 L56.5005,54.127 L16.7415,54.127 Z M17.8195,62.141 L55.4225,62.141 L55.4225,56.283 L17.8195,56.283 L17.8195,62.141 Z" id="path-16"></path>
        <linearGradient x1="-0.000237140949%" y1="49.9965539%" x2="99.9985624%" y2="49.9965539%" id="linearGradient-18">
            <stop stop-color="#7C72FF" offset="0%"></stop>
            <stop stop-color="#6D64F4" offset="100%"></stop>
        </linearGradient>
        <path d="M63.1825,54.127 C62.5865,54.127 62.1045,54.609 62.1045,55.205 L62.1045,55.205 L62.1045,63.22 C62.1045,63.815 62.5865,64.298 63.1825,64.298 L63.1825,64.298 L71.3695,64.298 C71.9655,64.298 72.4475,63.815 72.4475,63.22 L72.4475,63.22 L72.4475,55.205 C72.4475,54.609 71.9655,54.127 71.3695,54.127 L71.3695,54.127 L63.1825,54.127 Z M64.2605,62.141 L70.2915,62.141 L70.2915,56.283 L64.2605,56.283 L64.2605,62.141 Z" id="path-19"></path>
        <linearGradient x1="-0.00193850914%" y1="49.9965539%" x2="100.004825%" y2="49.9965539%" id="linearGradient-21">
            <stop stop-color="#7C72FF" offset="0%"></stop>
            <stop stop-color="#6D64F4" offset="100%"></stop>
        </linearGradient>
        <path d="M16.7415,42.097 C16.1445,42.097 15.6635,42.578 15.6635,43.175 L15.6635,43.175 C15.6635,43.77 16.1445,44.253 16.7415,44.253 L16.7415,44.253 L56.5005,44.253 C57.0965,44.253 57.5795,43.77 57.5795,43.175 L57.5795,43.175 C57.5795,42.578 57.0965,42.097 56.5005,42.097 L56.5005,42.097 L16.7415,42.097 Z" id="path-22"></path>
        <linearGradient x1="-0.000237140949%" y1="49.9813404%" x2="99.9985624%" y2="49.9813404%" id="linearGradient-24">
            <stop stop-color="#7C72FF" offset="0%"></stop>
            <stop stop-color="#6D64F4" offset="100%"></stop>
        </linearGradient>
        <path d="M16.7415,31.182 C16.1445,31.182 15.6635,31.665 15.6635,32.26 L15.6635,32.26 C15.6635,32.856 16.1445,33.339 16.7415,33.339 L16.7415,33.339 L71.3695,33.339 C71.9655,33.339 72.4475,32.856 72.4475,32.26 L72.4475,32.26 C72.4475,31.665 71.9655,31.182 71.3695,31.182 L71.3695,31.182 L16.7415,31.182 Z" id="path-25"></path>
        <linearGradient x1="-0.00017504931%" y1="49.978994%" x2="100.000874%" y2="49.978994%" id="linearGradient-27">
            <stop stop-color="#7C72FF" offset="0%"></stop>
            <stop stop-color="#6D64F4" offset="100%"></stop>
        </linearGradient>
        <path d="M171.0335,13.902 L152.9645,24.335 C152.6325,24.529 152.4265,24.884 152.4265,25.269 L152.4265,25.269 L152.4265,50.834 C152.4265,51.219 152.6325,51.574 152.9645,51.767 L152.9645,51.767 L171.0335,62.2 C171.1985,62.295 171.3865,62.344 171.5725,62.344 L171.5725,62.344 C171.7565,62.344 171.9445,62.295 172.1115,62.2 L172.1115,62.2 C172.4435,62.007 172.6505,61.651 172.6505,61.266 L172.6505,61.266 L172.6505,14.836 C172.6505,14.451 172.4435,14.096 172.1115,13.902 L172.1115,13.902 C171.9445,13.807 171.7585,13.759 171.5715,13.759 L171.5715,13.759 C171.3855,13.759 171.1995,13.807 171.0335,13.902 L171.0335,13.902 Z M154.5815,50.211 L154.5815,25.891 L170.4945,16.705 L170.4945,59.398 L154.5815,50.211 Z" id="path-28"></path>
        <linearGradient x1="-0.00197933149%" y1="49.999916%" x2="99.9985156%" y2="49.999916%" id="linearGradient-30">
            <stop stop-color="#7C72FF" offset="0%"></stop>
            <stop stop-color="#6D64F4" offset="100%"></stop>
        </linearGradient>
        <path d="M178.5795,6.579 L171.0335,10.937 C170.7005,11.128 170.4945,11.485 170.4945,11.87 L170.4945,11.87 L170.4945,64.23 C170.4945,64.615 170.7005,64.972 171.0335,65.164 L171.0335,65.164 L178.5795,69.523 C178.7465,69.619 178.9345,69.667 179.1195,69.667 L179.1195,69.667 C179.3045,69.667 179.4925,69.619 179.6585,69.523 L179.6585,69.523 C179.9905,69.33 180.1975,68.975 180.1975,68.589 L180.1975,68.589 L180.1975,7.513 C180.1975,7.128 179.9905,6.772 179.6585,6.579 L179.6585,6.579 C179.4925,6.483 179.3055,6.435 179.1195,6.435 L179.1195,6.435 C178.9325,6.435 178.7465,6.483 178.5795,6.579 L178.5795,6.579 Z M172.6505,63.608 L172.6505,12.493 L178.0405,9.382 L178.0405,66.721 L172.6505,63.608 Z" id="path-31"></path>
        <linearGradient x1="-0.00624033804%" y1="50.0005091%" x2="100.000975%" y2="50.0005091%" id="linearGradient-33">
            <stop stop-color="#7C72FF" offset="0%"></stop>
            <stop stop-color="#6D64F4" offset="100%"></stop>
        </linearGradient>
    </defs>
    <g id="GIFOS" stroke="none" stroke-width="1" fill="none" fill-rule="evenodd">
        <g id="00-UI-Kit" transform="translate(-1032.000000, -2270.000000)">
            <g id="element-camara" transform="translate(1032.000000, 2270.000000)">
                <g>
                    <mask id="mask-2" fill="white">
                        <use xlink:href="#path-1"></use>
                    </mask>
                    <g id="Clip-4"></g>
                    <path d="M16.3915,0 C8.4275,0 1.9485,6.478 1.9485,14.44 L1.9485,14.44 L1.9485,61.662 C1.9485,69.624 8.4275,76.103 16.3915,76.103 L16.3915,76.103 L135.8575,76.103 C143.8215,76.103 150.3015,69.624 150.3015,61.662 L150.3015,61.662 L150.3015,14.44 C150.3015,6.478 143.8215,0 135.8575,0 L135.8575,0 L16.3915,0 Z M4.1045,61.662 L4.1045,14.44 C4.1045,7.667 9.6175,2.156 16.3915,2.156 L16.3915,2.156 L135.8575,2.156 C142.6315,2.156 148.1455,7.667 148.1455,14.44 L148.1455,14.44 L148.1455,61.662 C148.1455,68.436 142.6315,73.947 135.8575,73.947 L135.8575,73.947 L16.3915,73.947 C9.6175,73.947 4.1045,68.436 4.1045,61.662 L4.1045,61.662 Z" id="Fill-3" fill="url(#linearGradient-3)"></path>
                    <path d="M52.2703,75.0247 L52.2703,75.4797 C52.2703,81.5027 57.1513,86.3837 63.1733,86.3837 L89.0733,86.3837 C95.0983,86.3837 99.9793,81.5027 99.9793,75.4797 L99.9793,75.0247 L52.2703,75.0247 Z" id="Fill-21" fill="#FFFFFF"></path>
                    <mask id="mask-5" fill="white">
                        <use xlink:href="#path-4"></use>
                    </mask>
                    <g id="Clip-24"></g>
                    <path d="M52.2705,73.947 C51.6745,73.947 51.1915,74.429 51.1915,75.025 L51.1915,75.025 L51.1915,75.48 C51.1915,82.087 56.5685,87.461 63.1735,87.461 L63.1735,87.461 L89.0725,87.461 C95.6805,87.461 101.0575,82.087 101.0575,75.48 L101.0575,75.48 L101.0575,75.025 C101.0575,74.429 100.5745,73.947 99.9795,73.947 L99.9795,73.947 L52.2705,73.947 Z M53.3675,76.103 L98.8815,76.103 C98.5595,81.232 94.2825,85.306 89.0725,85.306 L89.0725,85.306 L63.1735,85.306 C57.9665,85.306 53.6895,81.232 53.3675,76.103 L53.3675,76.103 Z" id="Fill-23" fill="url(#linearGradient-6)"></path>
                    <mask id="mask-8" fill="white">
                        <use xlink:href="#path-7"></use>
                    </mask>
                    <g id="Clip-27"></g>
                    <path d="M75.0465,86.384 L75.0465,160.559 C75.0465,161.154 75.5285,161.636 76.1245,161.636 L76.1245,161.636 C76.7205,161.636 77.2025,161.154 77.2025,160.559 L77.2025,160.559 L77.2025,86.384 C77.2025,85.787 76.7205,85.306 76.1245,85.306 L76.1245,85.306 C75.5285,85.306 75.0465,85.787 75.0465,86.384" id="Fill-26" fill="url(#linearGradient-9)"></path>
                    <mask id="mask-11" fill="white">
                        <use xlink:href="#path-10"></use>
                    </mask>
                    <g id="Clip-30"></g>
                    <path d="M75.3625,85.621 L0.3165,160.672 C-0.1055,161.093 -0.1055,161.775 0.3165,162.197 L0.3165,162.197 C0.5265,162.407 0.8025,162.512 1.0785,162.512 L1.0785,162.512 C1.3545,162.512 1.6305,162.407 1.8405,162.197 L1.8405,162.197 L76.8865,87.146 C77.3075,86.724 77.3075,86.043 76.8865,85.621 L76.8865,85.621 C76.6765,85.411 76.4005,85.306 76.1245,85.306 L76.1245,85.306 C75.8485,85.306 75.5725,85.411 75.3625,85.621" id="Fill-29" fill="url(#linearGradient-12)"></path>
                    <mask id="mask-14" fill="white">
                        <use xlink:href="#path-13"></use>
                    </mask>
                    <g id="Clip-33"></g>
                    <path d="M75.3625,85.621 C74.9415,86.043 74.9415,86.724 75.3625,87.146 L75.3625,87.146 L150.4085,162.197 C150.6195,162.407 150.8955,162.512 151.1715,162.512 L151.1715,162.512 C151.4465,162.512 151.7225,162.407 151.9335,162.197 L151.9335,162.197 C152.3545,161.775 152.3545,161.093 151.9335,160.672 L151.9335,160.672 L76.8865,85.621 C76.6765,85.411 76.4005,85.306 76.1245,85.306 L76.1245,85.306 C75.8485,85.306 75.5725,85.411 75.3625,85.621" id="Fill-32" fill="url(#linearGradient-15)"></path>
                    <mask id="mask-17" fill="white">
                        <use xlink:href="#path-16"></use>
                    </mask>
                    <g id="Clip-36"></g>
                    <path d="M16.7415,54.127 C16.1445,54.127 15.6635,54.609 15.6635,55.205 L15.6635,55.205 L15.6635,63.22 C15.6635,63.815 16.1445,64.298 16.7415,64.298 L16.7415,64.298 L56.5005,64.298 C57.0965,64.298 57.5795,63.815 57.5795,63.22 L57.5795,63.22 L57.5795,55.205 C57.5795,54.609 57.0965,54.127 56.5005,54.127 L56.5005,54.127 L16.7415,54.127 Z M17.8195,62.141 L55.4225,62.141 L55.4225,56.283 L17.8195,56.283 L17.8195,62.141 Z" id="Fill-35" fill="url(#linearGradient-18)"></path>
                    <mask id="mask-20" fill="white">
                        <use xlink:href="#path-19"></use>
                    </mask>
                    <g id="Clip-39"></g>
                    <path d="M63.1825,54.127 C62.5865,54.127 62.1045,54.609 62.1045,55.205 L62.1045,55.205 L62.1045,63.22 C62.1045,63.815 62.5865,64.298 63.1825,64.298 L63.1825,64.298 L71.3695,64.298 C71.9655,64.298 72.4475,63.815 72.4475,63.22 L72.4475,63.22 L72.4475,55.205 C72.4475,54.609 71.9655,54.127 71.3695,54.127 L71.3695,54.127 L63.1825,54.127 Z M64.2605,62.141 L70.2915,62.141 L70.2915,56.283 L64.2605,56.283 L64.2605,62.141 Z" id="Fill-38" fill="url(#linearGradient-21)"></path>
                    <mask id="mask-23" fill="white">
                        <use xlink:href="#path-22"></use>
                    </mask>
                    <g id="Clip-42"></g>
                    <path d="M16.7415,42.097 C16.1445,42.097 15.6635,42.578 15.6635,43.175 L15.6635,43.175 C15.6635,43.77 16.1445,44.253 16.7415,44.253 L16.7415,44.253 L56.5005,44.253 C57.0965,44.253 57.5795,43.77 57.5795,43.175 L57.5795,43.175 C57.5795,42.578 57.0965,42.097 56.5005,42.097 L56.5005,42.097 L16.7415,42.097 Z" id="Fill-41" fill="url(#linearGradient-24)"></path>
                    <mask id="mask-26" fill="white">
                        <use xlink:href="#path-25"></use>
                    </mask>
                    <g id="Clip-45"></g>
                    <path d="M16.7415,31.182 C16.1445,31.182 15.6635,31.665 15.6635,32.26 L15.6635,32.26 C15.6635,32.856 16.1445,33.339 16.7415,33.339 L16.7415,33.339 L71.3695,33.339 C71.9655,33.339 72.4475,32.856 72.4475,32.26 L72.4475,32.26 C72.4475,31.665 71.9655,31.182 71.3695,31.182 L71.3695,31.182 L16.7415,31.182 Z" id="Fill-44" fill="url(#linearGradient-27)"></path>
                    <polygon id="Fill-47" fill="#FFFFFF" points="153.5042 25.2693 153.5042 50.8333 171.5722 61.2653 171.5722 14.8363"></polygon>
                    <mask id="mask-29" fill="white">
                        <use xlink:href="#path-28"></use>
                    </mask>
                    <g id="Clip-50"></g>
                    <path d="M171.0335,13.902 L152.9645,24.335 C152.6325,24.529 152.4265,24.884 152.4265,25.269 L152.4265,25.269 L152.4265,50.834 C152.4265,51.219 152.6325,51.574 152.9645,51.767 L152.9645,51.767 L171.0335,62.2 C171.1985,62.295 171.3865,62.344 171.5725,62.344 L171.5725,62.344 C171.7565,62.344 171.9445,62.295 172.1115,62.2 L172.1115,62.2 C172.4435,62.007 172.6505,61.651 172.6505,61.266 L172.6505,61.266 L172.6505,14.836 C172.6505,14.451 172.4435,14.096 172.1115,13.902 L172.1115,13.902 C171.9445,13.807 171.7585,13.759 171.5715,13.759 L171.5715,13.759 C171.3855,13.759 171.1995,13.807 171.0335,13.902 L171.0335,13.902 Z M154.5815,50.211 L154.5815,25.891 L170.4945,16.705 L170.4945,59.398 L154.5815,50.211 Z" id="Fill-49" fill="url(#linearGradient-30)"></path>
                    <polygon id="Fill-52" fill="#FFFFFF" points="171.5721 11.8699 171.5721 64.2299 179.1191 68.5889 179.1191 7.5129"></polygon>
                    <mask id="mask-32" fill="white">
                        <use xlink:href="#path-31"></use>
                    </mask>
                    <g id="Clip-55"></g>
                    <path d="M178.5795,6.579 L171.0335,10.937 C170.7005,11.128 170.4945,11.485 170.4945,11.87 L170.4945,11.87 L170.4945,64.23 C170.4945,64.615 170.7005,64.972 171.0335,65.164 L171.0335,65.164 L178.5795,69.523 C178.7465,69.619 178.9345,69.667 179.1195,69.667 L179.1195,69.667 C179.3045,69.667 179.4925,69.619 179.6585,69.523 L179.6585,69.523 C179.9905,69.33 180.1975,68.975 180.1975,68.589 L180.1975,68.589 L180.1975,7.513 C180.1975,7.128 179.9905,6.772 179.6585,6.579 L179.6585,6.579 C179.4925,6.483 179.3055,6.435 179.1195,6.435 L179.1195,6.435 C178.9325,6.435 178.7465,6.483 178.5795,6.579 L178.5795,6.579 Z M172.6505,63.608 L172.6505,12.493 L178.0405,9.382 L178.0405,66.721 L172.6505,63.608 Z" id="Fill-54" fill="url(#linearGradient-33)"></path>
                </g>
            </g>
        </g>
    </g>
</svg>