<?xml version="1.0" encoding="UTF-8"?>
<svg width="100px" height="100px" viewBox="0 0 100 100" version="1.1" xmlns="http://www.w3.org/2000/svg" xmlns:xlink="http://www.w3.org/1999/xlink">
    <!-- Generator: Sketch 63.1 (92452) - https://sketch.com -->
    <title>element_cinta2</title>
    <desc>Created with Sketch.</desc>
    <defs>
        <path d="M49.635,0 C22.266,0 0,22.266 0,49.635 L0,49.635 C0,77.004 22.266,99.269 49.635,99.269 L49.635,99.269 C77.004,99.269 99.271,77.004 99.271,49.635 L99.271,49.635 C99.271,22.266 77.004,0 49.635,0 Z M2.156,49.635 C2.156,23.455 23.456,2.156 49.635,2.156 L49.635,2.156 C75.815,2.156 97.114,23.455 97.114,49.635 L97.114,49.635 C97.114,75.814 75.815,97.113 49.635,97.113 L49.635,97.113 C23.456,97.113 2.156,75.814 2.156,49.635 L2.156,49.635 Z" id="path-1"></path>
        <linearGradient x1="-0.000508305547%" y1="49.9997954%" x2="99.9994878%" y2="49.9997954%" id="linearGradient-3">
            <stop stop-color="#7C72FF" offset="0%"></stop>
            <stop stop-color="#6D64F4" offset="100%"></stop>
        </linearGradient>
        <path d="M40.527,49.634 C40.527,54.656 44.613,58.742 49.635,58.742 L49.635,58.742 C54.657,58.742 58.743,54.656 58.743,49.634 L58.743,49.634 C58.743,44.612 54.657,40.526 49.635,40.526 L49.635,40.526 C44.613,40.526 40.527,44.612 40.527,49.634 M41.48,49.634 C41.48,45.137 45.138,41.479 49.635,41.479 L49.635,41.479 C54.132,41.479 57.791,45.137 57.791,49.634 L57.791,49.634 C57.791,54.131 54.132,57.79 49.635,57.79 L49.635,57.79 C45.138,57.79 41.48,54.131 41.48,49.634" id="path-4"></path>
        <linearGradient x1="3.84277558e-05%" y1="49.9988653%" x2="99.9999105%" y2="49.9988653%" id="linearGradient-6">
            <stop stop-color="#7C72FF" offset="0%"></stop>
            <stop stop-color="#6D64F4" offset="100%"></stop>
        </linearGradient>
        <path d="M55.241,11.483 C55.061,11.638 54.957,11.861 54.957,12.097 L54.957,12.097 L54.957,35.893 C54.957,36.212 55.146,36.5 55.438,36.63 L55.438,36.63 C58.659,38.053 61.216,40.61 62.639,43.831 L62.639,43.831 C62.766,44.123 63.057,44.311 63.375,44.311 L63.375,44.311 L87.172,44.311 C87.408,44.311 87.632,44.208 87.787,44.029 L87.787,44.029 C87.939,43.848 88.005,43.61 87.969,43.378 L87.969,43.378 C85.324,26.836 72.434,13.945 55.892,11.3 L55.892,11.3 C55.851,11.294 55.81,11.291 55.769,11.291 L55.769,11.291 C55.577,11.291 55.389,11.358 55.241,11.483 M56.57,35.377 L56.57,13.054 C71.663,15.858 83.41,27.607 86.214,42.699 L86.214,42.699 L63.893,42.699 C62.346,39.495 59.776,36.922 56.57,35.377" id="path-7"></path>
        <linearGradient x1="0.000460910166%" y1="50.0005058%" x2="100.000896%" y2="50.0005058%" id="linearGradient-9">
            <stop stop-color="#7C72FF" offset="0%"></stop>
            <stop stop-color="#6D64F4" offset="100%"></stop>
        </linearGradient>
        <path d="M43.381,11.3 C26.838,13.945 13.946,26.836 11.301,43.378 L11.301,43.378 C11.264,43.61 11.331,43.848 11.484,44.029 L11.484,44.029 C11.638,44.208 11.861,44.311 12.099,44.311 L12.099,44.311 L35.893,44.311 C36.213,44.311 36.501,44.123 36.631,43.831 L36.631,43.831 C38.055,40.609 40.614,38.052 43.834,36.63 L43.834,36.63 C44.126,36.5 44.314,36.212 44.314,35.893 L44.314,35.893 L44.314,12.097 C44.314,11.861 44.211,11.638 44.031,11.483 L44.031,11.483 C43.883,11.358 43.695,11.291 43.503,11.291 L43.503,11.291 C43.463,11.291 43.422,11.294 43.381,11.3 M42.702,13.054 L42.702,35.377 C39.497,36.92 36.925,39.492 35.378,42.699 L35.378,42.699 L13.056,42.699 C15.86,27.605 27.608,15.858 42.702,13.054" id="path-10"></path>
        <linearGradient x1="0.000180264318%" y1="50.0005058%" x2="100.001542%" y2="50.0005058%" id="linearGradient-12">
            <stop stop-color="#7C72FF" offset="0%"></stop>
            <stop stop-color="#6D64F4" offset="100%"></stop>
        </linearGradient>
        <path d="M12.099,54.955 C11.861,54.955 11.638,55.059 11.484,55.238 L11.484,55.238 C11.331,55.418 11.264,55.656 11.301,55.889 L11.301,55.889 C13.946,72.429 26.836,85.321 43.381,87.968 L43.381,87.968 C43.423,87.974 43.465,87.978 43.508,87.978 L43.508,87.978 C43.698,87.978 43.885,87.91 44.031,87.786 L44.031,87.786 C44.211,87.632 44.314,87.408 44.314,87.17 L44.314,87.17 L44.314,63.375 C44.314,63.055 44.126,62.766 43.834,62.637 L43.834,62.637 C40.614,61.215 38.055,58.658 36.631,55.435 L36.631,55.435 C36.501,55.144 36.213,54.955 35.893,54.955 L35.893,54.955 L12.099,54.955 Z M13.056,56.567 L35.378,56.567 C36.925,59.773 39.497,62.345 42.702,63.89 L42.702,63.89 L42.702,86.213 C27.608,83.408 15.86,71.659 13.056,56.567 L13.056,56.567 Z" id="path-13"></path>
        <linearGradient x1="0.000180264318%" y1="49.9986479%" x2="100.001542%" y2="49.9986479%" id="linearGradient-15">
            <stop stop-color="#7C72FF" offset="0%"></stop>
            <stop stop-color="#6D64F4" offset="100%"></stop>
        </linearGradient>
        <path d="M63.375,54.955 C63.057,54.955 62.766,55.144 62.639,55.435 L62.639,55.435 C61.216,58.657 58.659,61.213 55.438,62.637 L55.438,62.637 C55.146,62.766 54.957,63.055 54.957,63.375 L54.957,63.375 L54.957,87.17 C54.957,87.408 55.061,87.632 55.241,87.786 L55.241,87.786 C55.388,87.91 55.573,87.978 55.764,87.978 L55.764,87.978 C55.806,87.978 55.848,87.974 55.892,87.968 L55.892,87.968 C72.434,85.321 85.324,72.429 87.969,55.889 L87.969,55.889 C88.005,55.656 87.939,55.418 87.787,55.238 L87.787,55.238 C87.632,55.059 87.408,54.955 87.172,54.955 L87.172,54.955 L63.375,54.955 Z M56.57,63.89 C59.776,62.344 62.346,59.772 63.893,56.567 L63.893,56.567 L86.214,56.567 C83.412,71.659 71.663,83.408 56.57,86.213 L56.57,86.213 L56.57,63.89 Z" id="path-16"></path>
        <linearGradient x1="0.000460910166%" y1="49.9986479%" x2="100.000896%" y2="49.9986479%" id="linearGradient-18">
            <stop stop-color="#7C72FF" offset="0%"></stop>
            <stop stop-color="#6D64F4" offset="100%"></stop>
        </linearGradient>
    </defs>
    <g id="GIFOS" stroke="none" stroke-width="1" fill="none" fill-rule="evenodd">
        <g id="00-UI-Kit" transform="translate(-1107.000000, -2135.000000)">
            <g id="element_cinta2" transform="translate(1107.502000, 2135.000000)">
                <path d="M98.1924,49.6343 C98.1924,76.4503 76.4524,98.1913 49.6344,98.1913 C22.8174,98.1913 1.0774,76.4503 1.0774,49.6343 C1.0774,22.8173 22.8174,1.0773 49.6344,1.0773 C76.4524,1.0773 98.1924,22.8173 98.1924,49.6343" id="Fill-6" fill="#FFFFFF"></path>
                <mask id="mask-2" fill="white">
                    <use xlink:href="#path-1"></use>
                </mask>
                <g id="Clip-9"></g>
                <path d="M49.635,1.13686838e-13 C22.266,1.13686838e-13 -1.3500312e-13,22.266 -1.3500312e-13,49.635 L-1.3500312e-13,49.635 C-1.3500312e-13,77.004 22.266,99.269 49.635,99.269 L49.635,99.269 C77.004,99.269 99.271,77.004 99.271,49.635 L99.271,49.635 C99.271,22.266 77.004,1.13686838e-13 49.635,1.13686838e-13 Z M2.156,49.635 C2.156,23.455 23.456,2.156 49.635,2.156 L49.635,2.156 C75.815,2.156 97.114,23.455 97.114,49.635 L97.114,49.635 C97.114,75.814 75.815,97.113 49.635,97.113 L49.635,97.113 C23.456,97.113 2.156,75.814 2.156,49.635 L2.156,49.635 Z" id="Fill-8" fill="url(#linearGradient-3)" mask="url(#mask-2)"></path>
                <path d="M58.2666,49.6338 C58.2666,54.4018 54.4026,58.2658 49.6346,58.2658 C44.8676,58.2658 41.0026,54.4018 41.0026,49.6338 C41.0026,44.8668 44.8676,41.0028 49.6346,41.0028 C54.4026,41.0028 58.2666,44.8668 58.2666,49.6338" id="Fill-16" fill="#FFFFFF" mask="url(#mask-2)"></path>
                <mask id="mask-5" fill="white">
                    <use xlink:href="#path-4"></use>
                </mask>
                <g id="Clip-19"></g>
                <path d="M40.527,49.634 C40.527,54.656 44.613,58.742 49.635,58.742 L49.635,58.742 C54.657,58.742 58.743,54.656 58.743,49.634 L58.743,49.634 C58.743,44.612 54.657,40.526 49.635,40.526 L49.635,40.526 C44.613,40.526 40.527,44.612 40.527,49.634 M41.48,49.634 C41.48,45.137 45.138,41.479 49.635,41.479 L49.635,41.479 C54.132,41.479 57.791,45.137 57.791,49.634 L57.791,49.634 C57.791,54.131 54.132,57.79 49.635,57.79 L49.635,57.79 C45.138,57.79 41.48,54.131 41.48,49.634" id="Fill-18" fill="url(#linearGradient-6)" mask="url(#mask-5)"></path>
                <path d="M55.7637,12.0967 L55.7637,35.8917 C59.1557,37.3897 61.8787,40.1137 63.3757,43.5047 L87.1717,43.5047 C84.5997,27.4117 71.8557,14.6687 55.7637,12.0967" id="Fill-57" fill="#FFFFFF" mask="url(#mask-5)"></path>
                <mask id="mask-8" fill="white">
                    <use xlink:href="#path-7"></use>
                </mask>
                <g id="Clip-60"></g>
                <path d="M55.241,11.483 C55.061,11.638 54.957,11.861 54.957,12.097 L54.957,12.097 L54.957,35.893 C54.957,36.212 55.146,36.5 55.438,36.63 L55.438,36.63 C58.659,38.053 61.216,40.61 62.639,43.831 L62.639,43.831 C62.766,44.123 63.057,44.311 63.375,44.311 L63.375,44.311 L87.172,44.311 C87.408,44.311 87.632,44.208 87.787,44.029 L87.787,44.029 C87.939,43.848 88.005,43.61 87.969,43.378 L87.969,43.378 C85.324,26.836 72.434,13.945 55.892,11.3 L55.892,11.3 C55.851,11.294 55.81,11.291 55.769,11.291 L55.769,11.291 C55.577,11.291 55.389,11.358 55.241,11.483 M56.57,35.377 L56.57,13.054 C71.663,15.858 83.41,27.607 86.214,42.699 L86.214,42.699 L63.893,42.699 C62.346,39.495 59.776,36.922 56.57,35.377" id="Fill-59" fill="url(#linearGradient-9)" mask="url(#mask-8)"></path>
                <path d="M43.5078,12.0967 C27.4138,14.6687 14.6708,27.4117 12.0978,43.5047 L35.8928,43.5047 C37.3928,40.1137 40.1148,37.3897 43.5078,35.8917 L43.5078,12.0967 Z" id="Fill-62" fill="#FFFFFF" mask="url(#mask-8)"></path>
                <mask id="mask-11" fill="white">
                    <use xlink:href="#path-10"></use>
                </mask>
                <g id="Clip-65"></g>
                <path d="M43.381,11.3 C26.838,13.945 13.946,26.836 11.301,43.378 L11.301,43.378 C11.264,43.61 11.331,43.848 11.484,44.029 L11.484,44.029 C11.638,44.208 11.861,44.311 12.099,44.311 L12.099,44.311 L35.893,44.311 C36.213,44.311 36.501,44.123 36.631,43.831 L36.631,43.831 C38.055,40.609 40.614,38.052 43.834,36.63 L43.834,36.63 C44.126,36.5 44.314,36.212 44.314,35.893 L44.314,35.893 L44.314,12.097 C44.314,11.861 44.211,11.638 44.031,11.483 L44.031,11.483 C43.883,11.358 43.695,11.291 43.503,11.291 L43.503,11.291 C43.463,11.291 43.422,11.294 43.381,11.3 M42.702,13.054 L42.702,35.377 C39.497,36.92 36.925,39.492 35.378,42.699 L35.378,42.699 L13.056,42.699 C15.86,27.605 27.608,15.858 42.702,13.054" id="Fill-64" fill="url(#linearGradient-12)" mask="url(#mask-11)"></path>
                <path d="M35.8931,55.7608 L12.0981,55.7608 C14.6701,71.8558 27.4141,84.5968 43.5081,87.1708 L43.5081,63.3748 C40.1151,61.8758 37.3931,59.1528 35.8931,55.7608" id="Fill-67" fill="#FFFFFF" mask="url(#mask-11)"></path>
                <mask id="mask-14" fill="white">
                    <use xlink:href="#path-13"></use>
                </mask>
                <g id="Clip-70"></g>
                <path d="M12.099,54.955 C11.861,54.955 11.638,55.059 11.484,55.238 L11.484,55.238 C11.331,55.418 11.264,55.656 11.301,55.889 L11.301,55.889 C13.946,72.429 26.836,85.321 43.381,87.968 L43.381,87.968 C43.423,87.974 43.465,87.978 43.508,87.978 L43.508,87.978 C43.698,87.978 43.885,87.91 44.031,87.786 L44.031,87.786 C44.211,87.632 44.314,87.408 44.314,87.17 L44.314,87.17 L44.314,63.375 C44.314,63.055 44.126,62.766 43.834,62.637 L43.834,62.637 C40.614,61.215 38.055,58.658 36.631,55.435 L36.631,55.435 C36.501,55.144 36.213,54.955 35.893,54.955 L35.893,54.955 L12.099,54.955 Z M13.056,56.567 L35.378,56.567 C36.925,59.773 39.497,62.345 42.702,63.89 L42.702,63.89 L42.702,86.213 C27.608,83.408 15.86,71.659 13.056,56.567 L13.056,56.567 Z" id="Fill-69" fill="url(#linearGradient-15)" mask="url(#mask-14)"></path>
                <path d="M55.7637,87.1704 C71.8557,84.5964 84.5997,71.8554 87.1717,55.7604 L63.3757,55.7604 C61.8787,59.1524 59.1557,61.8764 55.7637,63.3744 L55.7637,87.1704 Z" id="Fill-72" fill="#FFFFFF" mask="url(#mask-14)"></path>
                <mask id="mask-17" fill="white">
                    <use xlink:href="#path-16"></use>
                </mask>
                <g id="Clip-75"></g>
                <path d="M63.375,54.955 C63.057,54.955 62.766,55.144 62.639,55.435 L62.639,55.435 C61.216,58.657 58.659,61.213 55.438,62.637 L55.438,62.637 C55.146,62.766 54.957,63.055 54.957,63.375 L54.957,63.375 L54.957,87.17 C54.957,87.408 55.061,87.632 55.241,87.786 L55.241,87.786 C55.388,87.91 55.573,87.978 55.764,87.978 L55.764,87.978 C55.806,87.978 55.848,87.974 55.892,87.968 L55.892,87.968 C72.434,85.321 85.324,72.429 87.969,55.889 L87.969,55.889 C88.005,55.656 87.939,55.418 87.787,55.238 L87.787,55.238 C87.632,55.059 87.408,54.955 87.172,54.955 L87.172,54.955 L63.375,54.955 Z M56.57,63.89 C59.776,62.344 62.346,59.772 63.893,56.567 L63.893,56.567 L86.214,56.567 C83.412,71.659 71.663,83.408 56.57,86.213 L56.57,86.213 L56.57,63.89 Z" id="Fill-74" fill="url(#linearGradient-18)" mask="url(#mask-17)"></path>
            </g>
        </g>
    </g>
</svg>