<?xml version="1.0" encoding="UTF-8"?>
<svg width="72px" height="73px" viewBox="0 0 72 73" version="1.1" xmlns="http://www.w3.org/2000/svg" xmlns:xlink="http://www.w3.org/1999/xlink">
    <!-- Generator: Sketch 63.1 (92452) - https://sketch.com -->
    <title>element_cinta1</title>
    <desc>Created with Sketch.</desc>
    <defs>
        <path d="M0,35.824 C0,55.577 16.071,71.648 35.824,71.648 L35.824,71.648 C55.579,71.648 71.65,55.577 71.65,35.824 L71.65,35.824 C71.65,16.071 55.579,0 35.824,0 L35.824,0 C16.071,0 0,16.071 0,35.824 M2.156,35.824 C2.156,17.26 17.259,2.156 35.824,2.156 L35.824,2.156 C54.388,2.156 69.493,17.26 69.493,35.824 L69.493,35.824 C69.493,54.388 54.388,69.492 35.824,69.492 L35.824,69.492 C17.259,69.492 2.156,54.388 2.156,35.824" id="path-1"></path>
        <linearGradient x1="0%" y1="49.9997819%" x2="99.9992994%" y2="49.9997819%" id="linearGradient-3">
            <stop stop-color="#7C72FF" offset="0%"></stop>
            <stop stop-color="#6D64F4" offset="100%"></stop>
        </linearGradient>
        <path d="M40.1,9.04 C39.973,9.15 39.9,9.307 39.9,9.475 L39.9,9.475 L39.9,26.298 C39.9,26.524 40.033,26.728 40.239,26.819 L40.239,26.819 C42.517,27.825 44.325,29.633 45.33,31.911 L45.33,31.911 C45.42,32.116 45.626,32.25 45.851,32.25 L45.851,32.25 L62.675,32.25 C62.842,32.25 63.001,32.177 63.11,32.05 L63.11,32.05 C63.217,31.923 63.265,31.754 63.238,31.59 L63.238,31.59 C61.368,19.895 52.256,10.782 40.56,8.911 L40.56,8.911 C40.531,8.907 40.502,8.905 40.473,8.905 L40.473,8.905 C40.337,8.905 40.205,8.952 40.1,9.04 M41.04,25.934 L41.04,10.152 C51.71,12.134 60.016,20.44 61.998,31.11 L61.998,31.11 L46.217,31.11 C45.124,28.845 43.306,27.026 41.04,25.934" id="path-4"></path>
        <linearGradient x1="-0.00134973137%" y1="50.0002866%" x2="100.001079%" y2="50.0002866%" id="linearGradient-6">
            <stop stop-color="#7C72FF" offset="0%"></stop>
            <stop stop-color="#6D64F4" offset="100%"></stop>
        </linearGradient>
        <path d="M31.715,8.911 C20.021,10.782 10.905,19.895 9.035,31.59 L9.035,31.59 C9.01,31.754 9.056,31.923 9.165,32.05 L9.165,32.05 C9.274,32.177 9.432,32.25 9.598,32.25 L9.598,32.25 L26.422,32.25 C26.647,32.25 26.852,32.116 26.943,31.911 L26.943,31.911 C27.95,29.632 29.759,27.824 32.036,26.819 L32.036,26.819 C32.242,26.728 32.376,26.524 32.376,26.298 L32.376,26.298 L32.376,9.475 C32.376,9.307 32.302,9.15 32.175,9.04 L32.175,9.04 C32.07,8.952 31.937,8.905 31.802,8.905 L31.802,8.905 C31.773,8.905 31.744,8.907 31.715,8.911 M31.234,10.152 L31.234,25.934 C28.97,27.025 27.151,28.844 26.057,31.11 L26.057,31.11 L10.276,31.11 C12.258,20.44 20.564,12.134 31.234,10.152" id="path-7"></path>
        <linearGradient x1="-1.18577831e-05%" y1="50.0002866%" x2="99.9977754%" y2="50.0002866%" id="linearGradient-9">
            <stop stop-color="#7C72FF" offset="0%"></stop>
            <stop stop-color="#6D64F4" offset="100%"></stop>
        </linearGradient>
        <path d="M9.598,39.774 C9.432,39.774 9.274,39.848 9.165,39.975 L9.165,39.975 C9.056,40.102 9.01,40.27 9.035,40.435 L9.035,40.435 C10.905,52.129 20.019,61.244 31.715,63.115 L31.715,63.115 C31.745,63.119 31.775,63.122 31.805,63.122 L31.805,63.122 C31.94,63.122 32.072,63.073 32.175,62.986 L32.175,62.986 C32.302,62.877 32.376,62.719 32.376,62.55 L32.376,62.55 L32.376,45.728 C32.376,45.501 32.242,45.298 32.036,45.206 L32.036,45.206 C29.759,44.2 27.95,42.393 26.943,40.114 L26.943,40.114 C26.852,39.909 26.647,39.774 26.422,39.774 L26.422,39.774 L9.598,39.774 Z M10.276,40.914 L26.057,40.914 C27.151,43.182 28.97,45.001 31.234,46.091 L31.234,46.091 L31.234,61.875 C20.564,59.891 12.258,51.585 10.276,40.914 L10.276,40.914 Z" id="path-10"></path>
        <linearGradient x1="-1.18577831e-05%" y1="50.000281%" x2="99.9977754%" y2="50.000281%" id="linearGradient-12">
            <stop stop-color="#7C72FF" offset="0%"></stop>
            <stop stop-color="#6D64F4" offset="100%"></stop>
        </linearGradient>
        <path d="M45.851,39.774 C45.626,39.774 45.42,39.909 45.33,40.114 L45.33,40.114 C44.325,42.392 42.517,44.199 40.239,45.206 L40.239,45.206 C40.033,45.298 39.9,45.501 39.9,45.728 L39.9,45.728 L39.9,62.55 C39.9,62.719 39.973,62.877 40.1,62.986 L40.1,62.986 C40.204,63.073 40.335,63.122 40.469,63.122 L40.469,63.122 C40.5,63.122 40.53,63.119 40.56,63.115 L40.56,63.115 C52.256,61.244 61.368,52.129 63.238,40.435 L63.238,40.435 C63.265,40.27 63.217,40.102 63.11,39.975 L63.11,39.975 C63.001,39.848 62.842,39.774 62.675,39.774 L62.675,39.774 L45.851,39.774 Z M41.04,46.091 C43.306,44.999 45.124,43.181 46.217,40.914 L46.217,40.914 L61.998,40.914 C60.016,51.585 51.71,59.891 41.04,61.875 L41.04,61.875 L41.04,46.091 Z" id="path-13"></path>
        <linearGradient x1="-0.00134973137%" y1="50.000281%" x2="100.001079%" y2="50.000281%" id="linearGradient-15">
            <stop stop-color="#7C72FF" offset="0%"></stop>
            <stop stop-color="#6D64F4" offset="100%"></stop>
        </linearGradient>
    </defs>
    <g id="GIFOS" stroke="none" stroke-width="1" fill="none" fill-rule="evenodd">
        <g id="00-UI-Kit" transform="translate(-1031.000000, -2162.000000)">
            <g id="element_cinta1" transform="translate(1031.000000, 2162.621000)">
                <path d="M35.8233,70.5703 C16.6333,70.5703 1.0783,55.0143 1.0783,35.8243 C1.0783,16.6333 16.6333,1.0773 35.8233,1.0773 C55.0133,1.0773 70.5713,16.6333 70.5713,35.8243 C70.5713,55.0143 55.0133,70.5703 35.8233,70.5703 Z" id="Fill-11" fill="#FFFFFF"></path>
                <mask id="mask-2" fill="white">
                    <use xlink:href="#path-1"></use>
                </mask>
                <g id="Clip-14"></g>
                <path d="M-1.84741111e-13,35.824 C-1.84741111e-13,55.577 16.071,71.648 35.824,71.648 L35.824,71.648 C55.579,71.648 71.65,55.577 71.65,35.824 L71.65,35.824 C71.65,16.071 55.579,7.10542736e-14 35.824,7.10542736e-14 L35.824,7.10542736e-14 C16.071,7.10542736e-14 -1.84741111e-13,16.071 -1.84741111e-13,35.824 M2.156,35.824 C2.156,17.26 17.259,2.156 35.824,2.156 L35.824,2.156 C54.388,2.156 69.493,17.26 69.493,35.824 L69.493,35.824 C69.493,54.388 54.388,69.492 35.824,69.492 L35.824,69.492 C17.259,69.492 2.156,54.388 2.156,35.824" id="Fill-13" fill="url(#linearGradient-3)" mask="url(#mask-2)"></path>
                <path d="M40.4698,9.4747 L40.4698,26.2977 C42.8678,27.3567 44.7938,29.2817 45.8518,31.6797 L62.6758,31.6797 C60.8568,20.3027 51.8468,11.2927 40.4698,9.4747" id="Fill-77" fill="#FFFFFF" mask="url(#mask-2)"></path>
                <mask id="mask-5" fill="white">
                    <use xlink:href="#path-4"></use>
                </mask>
                <g id="Clip-80"></g>
                <path d="M40.1,9.04 C39.973,9.15 39.9,9.307 39.9,9.475 L39.9,9.475 L39.9,26.298 C39.9,26.524 40.033,26.728 40.239,26.819 L40.239,26.819 C42.517,27.825 44.325,29.633 45.33,31.911 L45.33,31.911 C45.42,32.116 45.626,32.25 45.851,32.25 L45.851,32.25 L62.675,32.25 C62.842,32.25 63.001,32.177 63.11,32.05 L63.11,32.05 C63.217,31.923 63.265,31.754 63.238,31.59 L63.238,31.59 C61.368,19.895 52.256,10.782 40.56,8.911 L40.56,8.911 C40.531,8.907 40.502,8.905 40.473,8.905 L40.473,8.905 C40.337,8.905 40.205,8.952 40.1,9.04 M41.04,25.934 L41.04,10.152 C51.71,12.134 60.016,20.44 61.998,31.11 L61.998,31.11 L46.217,31.11 C45.124,28.845 43.306,27.026 41.04,25.934" id="Fill-79" fill="url(#linearGradient-6)" mask="url(#mask-5)"></path>
                <path d="M31.8052,9.4747 C20.4272,11.2927 11.4172,20.3027 9.5982,31.6797 L26.4222,31.6797 C27.4822,29.2817 29.4062,27.3567 31.8052,26.2977 L31.8052,9.4747 Z" id="Fill-82" fill="#FFFFFF" mask="url(#mask-5)"></path>
                <mask id="mask-8" fill="white">
                    <use xlink:href="#path-7"></use>
                </mask>
                <g id="Clip-85"></g>
                <path d="M31.715,8.911 C20.021,10.782 10.905,19.895 9.035,31.59 L9.035,31.59 C9.01,31.754 9.056,31.923 9.165,32.05 L9.165,32.05 C9.274,32.177 9.432,32.25 9.598,32.25 L9.598,32.25 L26.422,32.25 C26.647,32.25 26.852,32.116 26.943,31.911 L26.943,31.911 C27.95,29.632 29.759,27.824 32.036,26.819 L32.036,26.819 C32.242,26.728 32.376,26.524 32.376,26.298 L32.376,26.298 L32.376,9.475 C32.376,9.307 32.302,9.15 32.175,9.04 L32.175,9.04 C32.07,8.952 31.937,8.905 31.802,8.905 L31.802,8.905 C31.773,8.905 31.744,8.907 31.715,8.911 M31.234,10.152 L31.234,25.934 C28.97,27.025 27.151,28.844 26.057,31.11 L26.057,31.11 L10.276,31.11 C12.258,20.44 20.564,12.134 31.234,10.152" id="Fill-84" fill="url(#linearGradient-9)" mask="url(#mask-8)"></path>
                <path d="M26.4219,40.3448 L9.5989,40.3448 C11.4179,51.7228 20.4269,60.7318 31.8049,62.5508 L31.8049,45.7278 C29.4059,44.6678 27.4819,42.7428 26.4219,40.3448" id="Fill-87" fill="#FFFFFF" mask="url(#mask-8)"></path>
                <mask id="mask-11" fill="white">
                    <use xlink:href="#path-10"></use>
                </mask>
                <g id="Clip-90"></g>
                <path d="M9.598,39.774 C9.432,39.774 9.274,39.848 9.165,39.975 L9.165,39.975 C9.056,40.102 9.01,40.27 9.035,40.435 L9.035,40.435 C10.905,52.129 20.019,61.244 31.715,63.115 L31.715,63.115 C31.745,63.119 31.775,63.122 31.805,63.122 L31.805,63.122 C31.94,63.122 32.072,63.073 32.175,62.986 L32.175,62.986 C32.302,62.877 32.376,62.719 32.376,62.55 L32.376,62.55 L32.376,45.728 C32.376,45.501 32.242,45.298 32.036,45.206 L32.036,45.206 C29.759,44.2 27.95,42.393 26.943,40.114 L26.943,40.114 C26.852,39.909 26.647,39.774 26.422,39.774 L26.422,39.774 L9.598,39.774 Z M10.276,40.914 L26.057,40.914 C27.151,43.182 28.97,45.001 31.234,46.091 L31.234,46.091 L31.234,61.875 C20.564,59.891 12.258,51.585 10.276,40.914 L10.276,40.914 Z" id="Fill-89" fill="url(#linearGradient-12)" mask="url(#mask-11)"></path>
                <path d="M40.4698,62.5509 C51.8468,60.7319 60.8568,51.7229 62.6758,40.3449 L45.8518,40.3449 C44.7938,42.7429 42.8678,44.6679 40.4698,45.7279 L40.4698,62.5509 Z" id="Fill-92" fill="#FFFFFF" mask="url(#mask-11)"></path>
                <mask id="mask-14" fill="white">
                    <use xlink:href="#path-13"></use>
                </mask>
                <g id="Clip-95"></g>
                <path d="M45.851,39.774 C45.626,39.774 45.42,39.909 45.33,40.114 L45.33,40.114 C44.325,42.392 42.517,44.199 40.239,45.206 L40.239,45.206 C40.033,45.298 39.9,45.501 39.9,45.728 L39.9,45.728 L39.9,62.55 C39.9,62.719 39.973,62.877 40.1,62.986 L40.1,62.986 C40.204,63.073 40.335,63.122 40.469,63.122 L40.469,63.122 C40.5,63.122 40.53,63.119 40.56,63.115 L40.56,63.115 C52.256,61.244 61.368,52.129 63.238,40.435 L63.238,40.435 C63.265,40.27 63.217,40.102 63.11,39.975 L63.11,39.975 C63.001,39.848 62.842,39.774 62.675,39.774 L62.675,39.774 L45.851,39.774 Z M41.04,46.091 C43.306,44.999 45.124,43.181 46.217,40.914 L46.217,40.914 L61.998,40.914 C60.016,51.585 51.71,59.891 41.04,61.875 L41.04,61.875 L41.04,46.091 Z" id="Fill-94" fill="url(#linearGradient-15)" mask="url(#mask-14)"></path>
            </g>
        </g>
    </g>
</svg>