<?xml version="1.0" encoding="UTF-8"?>
<svg width="32px" height="32px" viewBox="0 0 32 32" version="1.1" xmlns="http://www.w3.org/2000/svg" xmlns:xlink="http://www.w3.org/1999/xlink">
    <!-- Generator: Sketch 63.1 (92452) - https://sketch.com -->
    <title>icon-max-normal</title>
    <desc>Created with Sketch.</desc>
    <defs>
        <path d="M13.7440777,17.077411 C14.0695146,16.7519741 14.5971521,16.7519741 14.922589,17.077411 C15.2480259,17.4028479 15.2480259,17.9304854 14.922589,18.2559223 L14.922589,18.2559223 L10.5106667,22.6666667 L13.5,22.6666667 C13.9248344,22.6666667 14.2754183,22.984571 14.3268405,23.3954684 L14.3333333,23.5 C14.3333333,23.9602373 13.9602373,24.3333333 13.5,24.3333333 L13.5,24.3333333 L8.5,24.3333333 C8.42735036,24.3333333 8.35687206,24.3240367 8.28968984,24.3065683 C8.28143536,24.3043626 8.2723213,24.3018398 8.26324389,24.2991593 C8.23860114,24.2918998 8.21538669,24.2838495 8.19266315,24.2748285 C8.18074334,24.2701084 8.1682729,24.2648257 8.15591113,24.2592256 C8.13573211,24.2500223 8.11657783,24.2403904 8.09786317,24.2300599 C8.08416136,24.2225839 8.07029411,24.2144138 8.05662247,24.2058082 C8.04099666,24.1958723 8.02608297,24.185781 8.01152389,24.1752303 C7.97635184,24.1498137 7.94258057,24.1210919 7.91074435,24.0892557 L7.97640331,24.1483347 C7.95749643,24.1330463 7.93927177,24.1169477 7.92178213,24.1000917 L7.91074435,24.0892557 C7.90627757,24.0847889 7.9018721,24.080284 7.89752793,24.0757421 C7.88346181,24.061045 7.86952937,24.0453544 7.85619668,24.0291517 C7.84499976,24.0156013 7.83461723,24.0021619 7.82470133,23.9884893 C7.81176479,23.9705393 7.79935397,23.9518947 7.78769381,23.9327428 C7.78245144,23.9242728 7.77733711,23.9155142 7.77239596,23.9066847 C7.70499425,23.786072 7.66666667,23.647512 7.66666667,23.5 L7.66666667,23.5 L7.66666667,18.5 C7.66666667,18.0397627 8.03976271,17.6666667 8.5,17.6666667 C8.96023729,17.6666667 9.33333333,18.0397627 9.33333333,18.5 L9.33333333,18.5 L9.33266667,21.4886667 Z M23.5,7.66666667 C23.5463775,7.66666667 23.5927549,7.67051406 23.6386125,7.67820885 C23.6984379,7.68817901 23.7558467,7.70448539 23.8104015,7.72639526 C23.8163994,7.72880854 23.8221462,7.73118865 23.8278713,7.73363583 C23.8546194,7.74509371 23.8808527,7.7580177 23.9062649,7.77223413 C23.9155142,7.77733711 23.9242728,7.78245144 23.9329556,7.78773896 C23.9518947,7.79935397 23.9705393,7.81176479 23.9886357,7.82488542 C24.0237558,7.85027784 24.0574701,7.87895884 24.0892557,7.91074435 L24.0291517,7.85619668 C24.0453544,7.86952937 24.061045,7.88346181 24.0761896,7.89796004 L24.0892557,7.91074435 C24.0927653,7.91425396 24.096237,7.91778709 24.0996709,7.92134323 C24.1169477,7.93927177 24.1330463,7.95749643 24.1483347,7.97640331 C24.1577247,7.98793671 24.1667514,7.99971893 24.1754211,8.01167956 C24.185781,8.02608297 24.1958723,8.04099666 24.205483,8.05624369 C24.2144138,8.07029411 24.2225839,8.08416136 24.2303184,8.09820441 C24.2403904,8.11657783 24.2500223,8.13573211 24.2589203,8.15529084 C24.2648257,8.1682729 24.2701084,8.18074334 24.2750737,8.19331011 C24.3125814,8.28776116 24.3333333,8.39145714 24.3333333,8.5 L24.3333333,8.5 L24.3333333,13.5 C24.3333333,13.9602373 23.9602373,14.3333333 23.5,14.3333333 C23.0397627,14.3333333 22.6666667,13.9602373 22.6666667,13.5 L22.6666667,13.5 L22.6666667,10.5106667 L18.2559223,14.922589 C17.9576052,15.2209062 17.4893833,15.2457659 17.1627487,14.9971683 L17.077411,14.922589 C16.7519741,14.5971521 16.7519741,14.0695146 17.077411,13.7440777 L17.077411,13.7440777 L21.4886667,9.33266667 L18.5,9.33333333 C18.0751656,9.33333333 17.7245817,9.01542901 17.6731595,8.60453156 L17.6666667,8.5 C17.6666667,8.03976271 18.0397627,7.66666667 18.5,7.66666667 L18.5,7.66666667 Z" id="path-1"></path>
    </defs>
    <g id="GIFOS" stroke="none" stroke-width="1" fill="none" fill-rule="evenodd">
        <g id="00-UI-Kit" transform="translate(-816.000000, -2861.000000)">
            <g id="icon-max-normal" transform="translate(816.000000, 2861.000000)">
                <rect id="Rectangle-Copy-2" fill="#FFFFFF" fill-rule="nonzero" opacity="0.7" x="0" y="0" width="32" height="32" rx="6"></rect>
                <mask id="mask-2" fill="white">
                    <use xlink:href="#path-1"></use>
                </mask>
                <use id="Combined-Shape" fill-opacity="0.7" fill="#572EE5" fill-rule="nonzero" xlink:href="#path-1"></use>
            </g>
        </g>
    </g>
</svg>