<?xml version="1.0" encoding="UTF-8"?>
<svg width="32px" height="32px" viewBox="0 0 32 32" version="1.1" xmlns="http://www.w3.org/2000/svg" xmlns:xlink="http://www.w3.org/1999/xlink">
    <!-- Generator: Sketch 63.1 (92452) - https://sketch.com -->
    <title>icon-link-normal</title>
    <desc>Created with Sketch.</desc>
    <defs>
        <path d="M18.5,12.6666667 L21,12.6666667 C21.884055,12.6666667 22.7319013,13.0178561 23.3570226,13.6429774 C23.9821439,14.2680987 24.3333333,15.115945 24.3333333,16 C24.3333333,17.8409492 22.8409492,19.3333333 21,19.3333333 L18.5,19.3333333 C18.0397627,19.3333333 17.6666667,19.7064294 17.6666667,20.1666667 C17.6666667,20.626904 18.0397627,21 18.5,21 L21,21 C23.7614237,21 26,18.7614237 26,16 C26,14.6739176 25.4732158,13.402148 24.5355339,12.4644661 C23.597852,11.5267842 22.3260824,11 21,11 L18.5,11 C18.0397627,11 17.6666667,11.373096 17.6666667,11.8333333 C17.6666667,12.2935706 18.0397627,12.6666667 18.5,12.6666667 Z M13.5,11 C13.9602373,11 14.3333333,11.373096 14.3333333,11.8333333 C14.3333333,12.2935706 13.9602373,12.6666667 13.5,12.6666667 L13.5,12.6666667 L11,12.6666667 C9.15905083,12.6666667 7.66666667,14.1590508 7.66666667,16 C7.66666667,16.884055 8.01785613,17.7319013 8.6429774,18.3570226 C9.26809866,18.9821439 10.115945,19.3333333 11,19.3333333 L11,19.3333333 L13.5,19.3333333 C13.9602373,19.3333333 14.3333333,19.7064294 14.3333333,20.1666667 C14.3333333,20.626904 13.9602373,21 13.5,21 L13.5,21 L11,21 C9.67391755,21 8.40214799,20.4732158 7.46446609,19.5355339 C6.5267842,18.597852 6,17.3260824 6,16 C6,13.2385763 8.23857625,11 11,11 L11,11 Z M19.3333333,15.1666667 C19.7935706,15.1666667 20.1666667,15.5397627 20.1666667,16 C20.1666667,16.4602373 19.7935706,16.8333333 19.3333333,16.8333333 L19.3333333,16.8333333 L12.6666667,16.8333333 C12.2064294,16.8333333 11.8333333,16.4602373 11.8333333,16 C11.8333333,15.5397627 12.2064294,15.1666667 12.6666667,15.1666667 L12.6666667,15.1666667 Z" id="path-1"></path>
    </defs>
    <g id="GIFOS" stroke="none" stroke-width="1" fill="none" fill-rule="evenodd">
        <g id="00-UI-Kit" transform="translate(-816.000000, -2945.000000)">
            <g id="icon-link-normal" transform="translate(816.000000, 2945.000000)">
                <rect id="Rectangle-Copy-12" fill="#FFFFFF" fill-rule="nonzero" opacity="0.7" x="0" y="0" width="32" height="32" rx="6"></rect>
                <mask id="mask-2" fill="white">
                    <use xlink:href="#path-1"></use>
                </mask>
                <use id="Combined-Shape" fill-opacity="0.7" fill="#572EE5" fill-rule="nonzero" xlink:href="#path-1"></use>
            </g>
        </g>
    </g>
</svg>