<?xml version="1.0" encoding="UTF-8"?>
<svg width="32px" height="32px" viewBox="0 0 32 32" version="1.1" xmlns="http://www.w3.org/2000/svg" xmlns:xlink="http://www.w3.org/1999/xlink">
    <!-- Generator: Sketch 63.1 (92452) - https://sketch.com -->
    <title>icon-download</title>
    <desc>Created with Sketch.</desc>
    <defs>
        <path d="M23.5,19.3333333 C23.9602373,19.3333333 24.3333333,19.7064294 24.3333333,20.1666667 L24.3333333,20.1666667 L24.3333333,22.6666667 C24.3333333,24.0473785 23.2140452,25.1666667 21.8333333,25.1666667 L21.8333333,25.1666667 L10.1666667,25.1666667 C8.78595479,25.1666667 7.66666667,24.0473785 7.66666667,22.6666667 L7.66666667,22.6666667 L7.66666667,20.1666667 C7.66666667,19.7064294 8.03976271,19.3333333 8.5,19.3333333 C8.96023729,19.3333333 9.33333333,19.7064294 9.33333333,20.1666667 L9.33333333,20.1666667 L9.33333333,22.6666667 C9.33333333,23.126904 9.70642938,23.5 10.1666667,23.5 L10.1666667,23.5 L21.8333333,23.5 C22.2935706,23.5 22.6666667,23.126904 22.6666667,22.6666667 L22.6666667,22.6666667 L22.6666667,20.1666667 C22.6666667,19.7064294 23.0397627,19.3333333 23.5,19.3333333 Z M16,6.83333333 C16.4602373,6.83333333 16.8333333,7.20642938 16.8333333,7.66666667 L16.8333333,7.66666667 L16.8326667,17.3213333 L18.7440777,15.4107443 C19.0423948,15.1124272 19.5106167,15.0875674 19.8372513,15.3361651 L19.922589,15.4107443 C20.2480259,15.7361813 20.2480259,16.2638187 19.922589,16.5892557 L19.922589,16.5892557 L16.5892557,19.922589 C16.5844698,19.9273748 16.5796402,19.9320903 16.5747682,19.9367354 C16.5575683,19.9531417 16.5392293,19.9691754 16.5202088,19.984393 C16.5115288,19.9913858 16.5034395,19.9976103 16.4952644,20.003666 C16.472374,20.0205663 16.4479317,20.036781 16.4226325,20.0516974 C16.4174579,20.0548288 16.4120846,20.0579155 16.4066847,20.0609374 C16.3824377,20.074429 16.3578886,20.0866225 16.332691,20.0976064 C16.3252234,20.1008705 16.317454,20.1041127 16.309647,20.1072321 C16.2911687,20.1146333 16.2726396,20.1212953 16.2538198,20.1273066 C16.0839816,20.1814152 15.9001245,20.1797632 15.7310626,20.1222745 C15.7179263,20.1178256 15.7057373,20.1133328 15.693686,20.1085671 C15.6796843,20.1030442 15.6652017,20.0968635 15.6508682,20.090254 C15.6317619,20.0813811 15.6135799,20.072131 15.5957973,20.062249 C15.5866928,20.0572743 15.5772205,20.0517762 15.5678364,20.0460761 C15.5452714,20.0322541 15.5239542,20.0178793 15.5033674,20.0025772 C15.4713593,19.9788748 15.4402223,19.952067 15.4107443,19.922589 L15.4852935,19.9887574 C15.4628265,19.9710895 15.4412902,19.9522912 15.4207704,19.9324483 L15.4107443,19.922589 L12.077411,16.5892557 C11.7519741,16.2638187 11.7519741,15.7361813 12.077411,15.4107443 C12.4028479,15.0853074 12.9304854,15.0853074 13.2559223,15.4107443 L13.2559223,15.4107443 L15.1666667,17.3213333 L15.1666667,7.66666667 C15.1666667,7.24183224 15.484571,6.89124835 15.8954684,6.83982618 Z" id="path-1"></path>
    </defs>
    <g id="GIFOS" stroke="none" stroke-width="1" fill="none" fill-rule="evenodd">
        <g id="00-UI-Kit" transform="translate(-816.000000, -2819.000000)">
            <g id="icon-download" transform="translate(816.000000, 2819.000000)">
                <rect id="Rectangle-Copy" fill="#FFFFFF" fill-rule="nonzero" opacity="0.7" x="0" y="0" width="32" height="32" rx="6"></rect>
                <mask id="mask-2" fill="white">
                    <use xlink:href="#path-1"></use>
                </mask>
                <use id="Combined-Shape" fill-opacity="0.7" fill="#572EE5" fill-rule="nonzero" xlink:href="#path-1"></use>
            </g>
        </g>
    </g>
</svg>