<?xml version="1.0" encoding="UTF-8"?>
<svg width="32px" height="32px" viewBox="0 0 32 32" version="1.1" xmlns="http://www.w3.org/2000/svg" xmlns:xlink="http://www.w3.org/1999/xlink">
    <!-- Generator: Sketch 63.1 (92452) - https://sketch.com -->
    <title>icon-trash-hover</title>
    <desc>Created with Sketch.</desc>
    <defs>
        <path d="M18,7 C19.3807119,7 20.5,8.11928813 20.5,9.5 L20.5,9.5 L20.499,10.333 L23.8333333,10.3333333 C24.2581678,10.3333333 24.6087516,10.6512377 24.6601738,11.0621351 L24.6666667,11.1666667 C24.6666667,11.626904 24.2935706,12 23.8333333,12 L23.8333333,12 L22.999,12 L23,22.8333333 C23,24.1588167 21.9684641,25.243372 20.6643757,25.3280157 L20.5,25.3333333 L12.1666667,25.3333333 C10.7859548,25.3333333 9.66666667,24.2140452 9.66666667,22.8333333 L9.66666667,22.8333333 L9.666,12 L8.83333333,12 C8.40849891,12 8.05791502,11.6820957 8.00649285,11.2711982 L8,11.1666667 C8,10.7064294 8.37309604,10.3333333 8.83333333,10.3333333 L8.83333333,10.3333333 L12.166,10.333 L12.1666667,9.5 C12.1666667,8.1745166 13.1982026,7.08996133 14.502291,7.00531768 L14.6666667,7 Z M21.333,12 L11.333,12 L11.3333333,22.8333333 C11.3333333,23.2581678 11.6512377,23.6087516 12.0621351,23.6601738 L12.1666667,23.6666667 L20.5,23.6666667 C20.9602373,23.6666667 21.3333333,23.2935706 21.3333333,22.8333333 L21.3333333,22.8333333 L21.333,12 Z M14.6666667,14.5 C15.126904,14.5 15.5,14.873096 15.5,15.3333333 L15.5,15.3333333 L15.5,20.3333333 C15.5,20.7935706 15.126904,21.1666667 14.6666667,21.1666667 C14.2064294,21.1666667 13.8333333,20.7935706 13.8333333,20.3333333 L13.8333333,20.3333333 L13.8333333,15.3333333 C13.8333333,14.873096 14.2064294,14.5 14.6666667,14.5 Z M18,14.5 C18.4602373,14.5 18.8333333,14.873096 18.8333333,15.3333333 L18.8333333,15.3333333 L18.8333333,20.3333333 C18.8333333,20.7935706 18.4602373,21.1666667 18,21.1666667 C17.5397627,21.1666667 17.1666667,20.7935706 17.1666667,20.3333333 L17.1666667,20.3333333 L17.1666667,15.3333333 C17.1666667,14.873096 17.5397627,14.5 18,14.5 Z M18,8.66666667 L14.6666667,8.66666667 C14.2064294,8.66666667 13.8333333,9.03976271 13.8333333,9.5 L13.8333333,9.5 L13.833,10.333 L18.833,10.333 L18.8333333,9.5 C18.8333333,9.07516558 18.515429,8.72458169 18.1045316,8.67315952 L18,8.66666667 Z" id="path-1"></path>
    </defs>
    <g id="GIFOS" stroke="none" stroke-width="1" fill="none" fill-rule="evenodd">
        <g id="00-UI-Kit" transform="translate(-858.000000, -2903.000000)">
            <g id="icon-trash-hover" transform="translate(858.000000, 2903.000000)">
                <rect id="Rectangle-Copy-6" fill="#FFFFFF" fill-rule="nonzero" x="0" y="0" width="32" height="32" rx="6"></rect>
                <mask id="mask-2" fill="white">
                    <use xlink:href="#path-1"></use>
                </mask>
                <use id="Combined-Shape" fill="#572EE5" fill-rule="nonzero" xlink:href="#path-1"></use>
            </g>
        </g>
    </g>
</svg>