<?xml version="1.0" encoding="UTF-8"?>
<svg width="18px" height="18px" viewBox="0 0 18 18" version="1.1" xmlns="http://www.w3.org/2000/svg" xmlns:xlink="http://www.w3.org/1999/xlink">
    <!-- Generator: Sketch 63.1 (92452) - https://sketch.com -->
    <title>icon_instagram_noc</title>
    <desc>Created with Sketch.</desc>
    <g id="GIFOS" stroke="none" stroke-width="1" fill="none" fill-rule="evenodd">
        <g id="16-UI-Kit-Modo-Nocturno" transform="translate(-1100.000000, -2776.000000)">
            <g id="Footer" transform="translate(328.000000, 1448.000000)">
                <g id="icon_instagram_noc" transform="translate(771.000000, 1327.000000)">
                    <path d="M10,2.62163636 C12.403,2.62163636 12.6877273,2.63063636 13.6368182,2.674 C14.5143182,2.71409091 14.9909091,2.86095455 15.3079545,2.98409091 C15.7280909,3.14731818 16.0279545,3.34245455 16.3429545,3.65704545 C16.6575455,3.97204545 16.8526818,4.27190909 17.0159091,4.69204545 C17.1390455,5.00909091 17.2859091,5.48568182 17.326,6.36318182 C17.3693636,7.31227273 17.3783636,7.597 17.3783636,10 C17.3783636,12.403 17.3693636,12.6877273 17.326,13.6368182 C17.2859091,14.5143182 17.1390455,14.9909091 17.0159091,15.3079545 C16.8526818,15.7280909 16.6575455,16.0279545 16.3429545,16.3429545 C16.0279545,16.6575455 15.7280909,16.8526818 15.3079545,17.0159091 C14.9909091,17.1394545 14.5143182,17.2859091 13.6368182,17.326 C12.6877273,17.3693636 12.4034091,17.3783636 10,17.3783636 C7.59659091,17.3783636 7.31227273,17.3693636 6.36318182,17.326 C5.48568182,17.2859091 5.00909091,17.1394545 4.69204545,17.0159091 C4.27190909,16.8526818 3.97204545,16.6575455 3.65704545,16.3429545 C3.34245455,16.0279545 3.14731818,15.7280909 2.98409091,15.3079545 C2.86054545,14.9909091 2.71409091,14.5143182 2.674,13.6368182 C2.63063636,12.6877273 2.62163636,12.403 2.62163636,10 C2.62163636,7.597 2.63063636,7.31227273 2.674,6.36318182 C2.71409091,5.48568182 2.86054545,5.00909091 2.98409091,4.69204545 C3.14731818,4.27190909 3.34245455,3.97204545 3.65704545,3.65704545 C3.97204545,3.34245455 4.27190909,3.14731818 4.69204545,2.98409091 C5.00909091,2.86095455 5.48568182,2.71409091 6.36318182,2.674 C7.31227273,2.63063636 7.597,2.62163636 10,2.62163636 L10,2.62163636 Z M10,1 C7.55568182,1 7.24927273,1.01022727 6.28913636,1.054 C5.33145455,1.09777273 4.67731818,1.24995455 4.10459091,1.4725 C3.51263636,1.70240909 3.01068182,2.01004545 2.51036364,2.51036364 C2.01004545,3.01109091 1.70240909,3.51263636 1.4725,4.10459091 C1.24995455,4.67731818 1.09777273,5.33145455 1.054,6.28913636 C1.01022727,7.24927273 1,7.55568182 1,10 C1,12.4443182 1.01022727,12.7507273 1.054,13.7108636 C1.09777273,14.6685455 1.24995455,15.3226818 1.4725,15.8954091 C1.70240909,16.4873636 2.01004545,16.9889091 2.51036364,17.4892273 C3.01068182,17.9899545 3.51263636,18.2975909 4.10459091,18.5275 C4.67731818,18.7500455 5.33145455,18.9022273 6.28913636,18.946 C7.24927273,18.9897727 7.55568182,19 10,19 C12.4443182,19 12.7507273,18.9897727 13.7104545,18.946 C14.6685455,18.9022273 15.3226818,18.7500455 15.8954091,18.5275 C16.4873636,18.2975909 16.9889091,17.9899545 17.4892273,17.4892273 C17.9899545,16.9889091 18.2975909,16.4873636 18.5275,15.8954091 C18.7500455,15.3226818 18.9022273,14.6685455 18.946,13.7108636 C18.9897727,12.7507273 19,12.4443182 19,10 C19,7.55568182 18.9897727,7.24927273 18.946,6.28913636 C18.9022273,5.33145455 18.7500455,4.67731818 18.5275,4.10459091 C18.2975909,3.51263636 17.9899545,3.01109091 17.4892273,2.51036364 C16.9889091,2.01004545 16.4873636,1.70240909 15.8954091,1.4725 C15.3226818,1.24995455 14.6685455,1.09777273 13.7104545,1.054 C12.7507273,1.01022727 12.4443182,1 10,1 L10,1 Z M10.018,5.39281818 C7.46363636,5.39281818 5.39281818,7.46363636 5.39281818,10.018 C5.39281818,12.5719545 7.46363636,14.6427727 10.018,14.6427727 C12.5719545,14.6427727 14.6427727,12.5719545 14.6427727,10.018 C14.6427727,7.46363636 12.5719545,5.39281818 10.018,5.39281818 L10.018,5.39281818 Z M10.018,13.0199091 C8.35995455,13.0199091 7.01568182,11.6760455 7.01568182,10.018 C7.01568182,8.35995455 8.35995455,7.01568182 10.018,7.01568182 C11.6760455,7.01568182 13.0199091,8.35995455 13.0199091,10.018 C13.0199091,11.6760455 11.6760455,13.0199091 10.018,13.0199091 L10.018,13.0199091 Z M15.8569545,5.17845455 C15.8569545,5.77040909 15.3775,6.24986364 14.7855455,6.24986364 C14.194,6.24986364 13.7141364,5.77040909 13.7141364,5.17845455 C13.7141364,4.58690909 14.194,4.10704545 14.7855455,4.10704545 C15.3775,4.10704545 15.8569545,4.58690909 15.8569545,5.17845455 L15.8569545,5.17845455 Z" id="Clip-19" fill="#FFFFFF"></path>
                    <rect id="Rectangle" x="0" y="0" width="20" height="20"></rect>
                </g>
            </g>
        </g>
    </g>
</svg>