<?xml version="1.0" encoding="UTF-8"?>
<svg width="150px" height="150px" viewBox="0 0 150 150" version="1.1" xmlns="http://www.w3.org/2000/svg" xmlns:xlink="http://www.w3.org/1999/xlink">
    <!-- Generator: Sketch 63.1 (92452) - https://sketch.com -->
    <title>icon-busqueda-sin-resultado</title>
    <desc>Created with Sketch.</desc>
    <g id="GIFOS" stroke="none" stroke-width="1" fill="none" fill-rule="evenodd">
        <g id="04-Busqueda-sin-resultados" transform="translate(-645.000000, -962.000000)">
            <g id="icon-busqueda-sin-resultado" transform="translate(645.000000, 962.000000)">
                <circle id="Oval-3" fill="#F3F5F8" fill-rule="nonzero" cx="75" cy="75" r="75"></circle>
                <g id="ouch" transform="translate(38.000000, 37.000000)" fill="#50E3C2">
                    <polygon id="Fill-2" points="70.4545455 14.3939394 70.4545455 19.0342193 70.4545455 23.6744992 70.4545455 28.3140943 70.4545455 32.9543742 70.4545455 37.5946542 70.4545455 42.2349341 70.4545455 46.875214 70.4545455 51.5151515 75 51.5151515 75 14.3939394"></polygon>
                    <polygon id="Fill-3" points="65.9090909 56.0606061 70.4545455 56.0606061 70.4545455 51.5151515 65.9090909 51.5151515"></polygon>
                    <polygon id="Fill-4" points="65.9090909 13.6363636 70.4545455 13.6363636 70.4545455 9.09090909 65.9090909 9.09090909"></polygon>
                    <polygon id="Fill-5" points="60.6060606 60.6060606 65.1515152 60.6060606 65.1515152 56.0606061 60.6060606 56.0606061"></polygon>
                    <polygon id="Fill-6" points="60.6060606 9.09090909 65.1515152 9.09090909 65.1515152 4.54545455 60.6060606 4.54545455"></polygon>
                    <polygon id="Fill-7" points="55.9089523 60.6060606 55.9089523 65.4042765 51.2121905 65.4042765 51.2121905 60.6060606 46.5154288 60.6060606 41.8183205 60.6060606 37.1212121 60.6060606 32.4241038 60.6060606 27.7273421 60.6060606 23.0302337 60.6060606 18.3331254 60.6060606 13.6363636 60.6060606 13.6363636 65.4042765 18.3331254 65.4042765 23.0302337 65.4042765 27.7273421 65.4042765 32.4241038 65.4042765 37.1212121 65.4042765 41.8183205 65.4042765 46.5154288 65.4042765 46.5154288 70.2024923 51.2121905 70.2024923 55.9089523 70.2024923 55.9089523 75 60.6060606 75 60.6060606 70.2024923 60.6060606 65.4042765 60.6060606 60.6060606"></polygon>
                    <polygon id="Fill-8" points="13.6363636 0 13.6363636 4.54545455 18.3330907 4.54545455 23.030511 4.54545455 27.7272381 4.54545455 32.4239651 4.54545455 37.1213854 4.54545455 41.8181125 4.54545455 46.5151862 4.54545455 51.2119132 4.54545455 55.9086403 4.54545455 60.6060606 4.54545455 60.6060606 0"></polygon>
                    <polygon id="Fill-9" points="9.09090909 60.6060606 13.6363636 60.6060606 13.6363636 56.0606061 9.09090909 56.0606061"></polygon>
                    <polygon id="Fill-10" points="9.09090909 9.09090909 13.6363636 9.09090909 13.6363636 4.54545455 9.09090909 4.54545455"></polygon>
                    <polygon id="Fill-11" points="4.54545455 56.0606061 9.09090909 56.0606061 9.09090909 51.5151515 4.54545455 51.5151515"></polygon>
                    <polygon id="Fill-12" points="4.54545455 13.6363636 9.09090909 13.6363636 9.09090909 9.09090909 4.54545455 9.09090909"></polygon>
                    <polygon id="Fill-13" points="0 14.3939394 0 19.0342193 0 23.6744992 0 28.3140943 0 32.9543742 0 37.5946542 0 42.2349341 0 46.875214 0 51.5151515 4.54545455 51.5151515 4.54545455 46.875214 4.54545455 42.2349341 4.54545455 37.5946542 4.54545455 32.9543742 4.54545455 28.3140943 4.54545455 23.6744992 4.54545455 19.0342193 4.54545455 14.3939394"></polygon>
                    <path d="M22.2449707,32.2066462 C22.2449707,29.928145 20.800488,28.21457 18.5791087,28.21457 C16.3580742,28.21457 14.9311776,29.928145 14.9311776,32.2066462 C14.9311776,34.4666994 16.3580742,36.1987224 18.5791087,36.1987224 C20.800488,36.1987224 22.2449707,34.4666994 22.2449707,32.2066462 M12.2949707,32.2066462 C12.2949707,28.5428051 14.9494535,25.9179689 18.5791087,25.9179689 C22.2266949,25.9179689 24.8815225,28.5428051 24.8815225,32.2066462 C24.8815225,35.8701392 22.2266949,38.4949754 18.5791087,38.4949754 C14.9494535,38.4949754 12.2949707,35.8701392 12.2949707,32.2066462" id="Fill-14"></path>
                    <path d="M26.3246259,33.427973 L26.3246259,26.1183907 L28.9249707,26.1183907 L28.9249707,33.3367772 C28.9249707,35.0319042 29.9001432,36.1986527 31.7601432,36.1986527 C33.6201432,36.1986527 34.5773845,35.0319042 34.5773845,33.3367772 L34.5773845,26.1183907 L37.1953156,26.1183907 L37.1953156,33.409525 C37.1953156,36.4356921 35.4260052,38.4952539 31.7601432,38.4952539 C28.0946259,38.4952539 26.3246259,36.4172441 26.3246259,33.427973" id="Fill-16"></path>
                    <path d="M38.6209018,32.2066462 C38.6209018,28.4700573 41.4198673,25.9179689 45.0315914,25.9179689 C47.6860742,25.9179689 49.2209018,27.3760565 50.0698673,28.88914 L47.866419,29.9827928 C47.3612466,28.9984357 46.2774535,28.21457 45.0315914,28.21457 C42.8467638,28.21457 41.2574535,29.909697 41.2574535,32.2066462 C41.2574535,34.5035954 42.8467638,36.1987224 45.0315914,36.1987224 C46.2774535,36.1987224 47.3612466,35.4333047 47.866419,34.4304996 L50.0698673,35.5060524 C49.2029707,37.0187879 47.6860742,38.4949754 45.0315914,38.4949754 C41.4198673,38.4949754 38.6209018,35.9432351 38.6209018,32.2066462" id="Fill-18"></path>
                    <polygon id="Fill-20" points="59.4951087 38.2765581 59.4951087 33.1727293 53.8068328 33.1727293 53.8068328 38.2765581 51.2423501 38.2765581 51.2423501 26.1182862 53.8068328 26.1182862 53.8068328 30.8942281 59.4951087 30.8942281 59.4951087 26.1182862 62.0771776 26.1182862 62.0771776 38.2765581"></polygon>
                </g>
                <polygon id="Fill-1" fill="#F3F5F8" points="81.0002582 89 75.0005164 89 68.9997418 89 63 89 63 89.0034425 63 95 68.9997418 95 75.0005164 95 81.0002582 95 87 95 87 89.0034425 87 89"></polygon>
                <polygon id="Fill-2-Copy" fill="#50E3C2" points="73 42 77 42 77 38 73 38"></polygon>
            </g>
        </g>
    </g>
</svg>