<?xml version="1.0" encoding="UTF-8"?>
<svg width="389px" height="188px" viewBox="0 0 389 188" version="1.1" xmlns="http://www.w3.org/2000/svg" xmlns:xlink="http://www.w3.org/1999/xlink">
    <!-- Generator: Sketch 63.1 (92452) - https://sketch.com -->
    <title>ilustra_header</title>
    <desc>Created with Sketch.</desc>
    <defs>
        <rect id="path-1" x="0" y="0" width="399" height="190"></rect>
        <polygon id="path-3" points="0.736885715 0.550393189 116.255846 0.550393189 116.255846 133.701936 0.736885715 133.701936"></polygon>
        <polygon id="path-5" points="0.736885715 0.550393189 116.255846 0.550393189 116.255846 133.701936 0.736885715 133.701936"></polygon>
        <polygon id="path-7" points="0.780599165 0.321359109 138.373819 0.321359109 138.373819 57.7040294 0.780599165 57.7040294"></polygon>
        <polygon id="path-9" points="0.315491707 0.715293478 176.318248 0.715293478 176.318248 78.7020326 0.315491707 78.7020326"></polygon>
        <polygon id="path-11" points="0.315491707 0.715293478 176.318248 0.715293478 176.318248 78.7020326 0.315491707 78.7020326"></polygon>
    </defs>
    <g id="GIFOS" stroke="none" stroke-width="1" fill="none" fill-rule="evenodd">
        <g id="00-UI-Kit" transform="translate(-154.000000, -2137.000000)">
            <g id="ilustra_header" transform="translate(154.000000, 2135.000000)">
                <mask id="mask-2" fill="white">
                    <use xlink:href="#path-1"></use>
                </mask>
                <g id="Rectangle"></g>
                <g id="pixel-2" mask="url(#mask-2)">
                    <g transform="translate(0.000000, 64.000000)" id="Group-165">
                        <g>
                            <polygon id="Fill-1" fill="#572EE5" points="305.49569 126 315 126 315 116.516129 305.49569 116.516129"></polygon>
                            <polygon id="Fill-2" fill="#572EE5" points="296.670259 126 306.174569 126 306.174569 116.516129 296.670259 116.516129"></polygon>
                            <polygon id="Fill-3" fill="#572EE5" points="287.165948 126 296.670259 126 296.670259 116.516129 287.165948 116.516129"></polygon>
                            <polygon id="Fill-4" fill="#572EE5" points="278.340517 126 287.844828 126 287.844828 116.516129 278.340517 116.516129"></polygon>
                            <polygon id="Fill-5" fill="#572EE5" points="269.515086 126 279.019397 126 279.019397 116.516129 269.515086 116.516129"></polygon>
                            <polygon id="Fill-6" fill="#572EE5" points="260.689655 126 270.193966 126 270.193966 116.516129 260.689655 116.516129"></polygon>
                            <polygon id="Fill-7" fill="#572EE5" points="251.185345 126 260.689655 126 260.689655 116.516129 251.185345 116.516129"></polygon>
                            <polygon id="Fill-8" fill="#572EE5" points="242.359914 126 251.864224 126 251.864224 116.516129 242.359914 116.516129"></polygon>
                            <polygon id="Fill-9" fill="#572EE5" points="233.534483 126 243.038793 126 243.038793 116.516129 233.534483 116.516129"></polygon>
                            <polygon id="Fill-10" fill="#572EE5" points="224.709052 126 234.213362 126 234.213362 116.516129 224.709052 116.516129"></polygon>
                            <polygon id="Fill-11" fill="#572EE5" points="215.883621 126 225.387931 126 225.387931 116.516129 215.883621 116.516129"></polygon>
                            <polygon id="Fill-12" fill="#572EE5" points="206.37931 126 215.883621 126 215.883621 116.516129 206.37931 116.516129"></polygon>
                            <polygon id="Fill-13" fill="#572EE5" points="197.553879 126 207.05819 126 207.05819 116.516129 197.553879 116.516129"></polygon>
                            <polygon id="Fill-14" fill="#572EE5" points="188.728448 126 198.232759 126 198.232759 116.516129 188.728448 116.516129"></polygon>
                            <polygon id="Fill-15" fill="#572EE5" points="179.903017 126 189.407328 126 189.407328 116.516129 179.903017 116.516129"></polygon>
                            <polygon id="Fill-16" fill="#572EE5" points="170.398707 126 179.903017 126 179.903017 116.516129 170.398707 116.516129"></polygon>
                            <polygon id="Fill-17" fill="#572EE5" points="161.573276 126 171.077586 126 171.077586 116.516129 161.573276 116.516129"></polygon>
                            <polygon id="Fill-18" fill="#572EE5" points="143.922414 126 153.426724 126 153.426724 116.516129 143.922414 116.516129"></polygon>
                            <polygon id="Fill-19" fill="#572EE5" points="125.592672 126 135.096983 126 135.096983 116.516129 125.592672 116.516129"></polygon>
                            <polygon id="Fill-20" fill="#572EE5" points="107.94181 126 117.446121 126 117.446121 116.516129 107.94181 116.516129"></polygon>
                            <polygon id="Fill-21" fill="#572EE5" points="99.1163793 126 108.62069 126 108.62069 116.516129 99.1163793 116.516129"></polygon>
                            <polygon id="Fill-22" fill="#572EE5" points="80.7866379 126 90.2909483 126 90.2909483 116.516129 80.7866379 116.516129"></polygon>
                            <polygon id="Fill-23" fill="#572EE5" points="63.1357759 126 72.6400862 126 72.6400862 116.516129 63.1357759 116.516129"></polygon>
                            <polygon id="Fill-24" fill="#572EE5" points="44.8060345 126 54.3103448 126 54.3103448 116.516129 44.8060345 116.516129"></polygon>
                            <polygon id="Fill-25" fill="#572EE5" points="27.1551724 126 36.6594828 126 36.6594828 116.516129 27.1551724 116.516129"></polygon>
                            <polygon id="Fill-26" fill="#572EE5" points="8.82543103 126 36.6594828 126 36.6594828 116.516129 8.82543103 116.516129"></polygon>
                            <polygon id="Fill-27" fill="#572EE5" points="8.82543103 126 18.3297414 126 18.3297414 116.516129 8.82543103 116.516129"></polygon>
                            <polygon id="Fill-28" fill="#572EE5" points="305.49569 117.193548 315 117.193548 315 107.709677 305.49569 107.709677"></polygon>
                            <polygon id="Fill-29" fill="#572EE5" points="296.670259 117.193548 306.174569 117.193548 306.174569 107.709677 296.670259 107.709677"></polygon>
                            <polygon id="Fill-30" fill="#572EE5" points="287.165948 117.193548 296.670259 117.193548 296.670259 107.709677 287.165948 107.709677"></polygon>
                            <polygon id="Fill-31" fill="#572EE5" points="278.340517 117.193548 287.844828 117.193548 287.844828 107.709677 278.340517 107.709677"></polygon>
                            <polygon id="Fill-32" fill="#572EE5" points="269.515086 117.193548 279.019397 117.193548 279.019397 107.709677 269.515086 107.709677"></polygon>
                            <polygon id="Fill-33" fill="#572EE5" points="260.689655 117.193548 270.193966 117.193548 270.193966 107.709677 260.689655 107.709677"></polygon>
                            <polygon id="Fill-34" fill="#572EE5" points="251.185345 117.193548 260.689655 117.193548 260.689655 107.709677 251.185345 107.709677"></polygon>
                            <polygon id="Fill-35" fill="#572EE5" points="242.359914 117.193548 251.864224 117.193548 251.864224 107.709677 242.359914 107.709677"></polygon>
                            <polygon id="Fill-36" fill="#572EE5" points="224.709052 117.193548 234.213362 117.193548 234.213362 107.709677 224.709052 107.709677"></polygon>
                            <polygon id="Fill-37" fill="#572EE5" points="215.883621 117.193548 225.387931 117.193548 225.387931 107.709677 215.883621 107.709677"></polygon>
                            <polygon id="Fill-38" fill="#572EE5" points="206.37931 117.193548 215.883621 117.193548 215.883621 107.709677 206.37931 107.709677"></polygon>
                            <polygon id="Fill-39" fill="#572EE5" points="197.553879 117.193548 207.05819 117.193548 207.05819 107.709677 197.553879 107.709677"></polygon>
                            <polygon id="Fill-40" fill="#572EE5" points="179.903017 117.193548 189.407328 117.193548 189.407328 107.709677 179.903017 107.709677"></polygon>
                            <polygon id="Fill-41" fill="#572EE5" points="161.573276 117.193548 171.077586 117.193548 171.077586 107.709677 161.573276 107.709677"></polygon>
                            <polygon id="Fill-42" fill="#572EE5" points="152.747845 117.193548 162.252155 117.193548 162.252155 107.709677 152.747845 107.709677"></polygon>
                            <polygon id="Fill-43" fill="#572EE5" points="134.418103 117.193548 143.922414 117.193548 143.922414 107.709677 134.418103 107.709677"></polygon>
                            <polygon id="Fill-44" fill="#572EE5" points="116.767241 117.193548 126.271552 117.193548 126.271552 107.709677 116.767241 107.709677"></polygon>
                            <polygon id="Fill-45" fill="#572EE5" points="99.1163793 117.193548 108.62069 117.193548 108.62069 107.709677 99.1163793 107.709677"></polygon>
                            <polygon id="Fill-46" fill="#572EE5" points="80.7866379 117.193548 90.2909483 117.193548 90.2909483 107.709677 80.7866379 107.709677"></polygon>
                            <polygon id="Fill-47" fill="#572EE5" points="63.1357759 117.193548 72.6400862 117.193548 72.6400862 107.709677 63.1357759 107.709677"></polygon>
                            <polygon id="Fill-48" fill="#572EE5" points="44.8060345 117.193548 54.3103448 117.193548 54.3103448 107.709677 44.8060345 107.709677"></polygon>
                            <polygon id="Fill-49" fill="#572EE5" points="27.1551724 117.193548 36.6594828 117.193548 36.6594828 107.709677 27.1551724 107.709677"></polygon>
                            <polygon id="Fill-50" fill="#572EE5" points="8.82543103 117.193548 18.3297414 117.193548 18.3297414 107.709677 8.82543103 107.709677"></polygon>
                            <polygon id="Fill-51" fill="#572EE5" points="0 117.193548 9.50431034 117.193548 9.50431034 107.709677 0 107.709677"></polygon>
                            <polygon id="Fill-52" fill="#572EE5" points="305.49569 108.387097 315 108.387097 315 98.9032258 305.49569 98.9032258"></polygon>
                            <polygon id="Fill-53" fill="#572EE5" points="287.165948 108.387097 296.670259 108.387097 296.670259 98.9032258 287.165948 98.9032258"></polygon>
                            <polygon id="Fill-54" fill="#572EE5" points="269.515086 108.387097 279.019397 108.387097 279.019397 98.9032258 269.515086 98.9032258"></polygon>
                            <polygon id="Fill-55" fill="#572EE5" points="260.689655 108.387097 270.193966 108.387097 270.193966 98.9032258 260.689655 98.9032258"></polygon>
                            <polygon id="Fill-56" fill="#572EE5" points="251.185345 108.387097 260.689655 108.387097 260.689655 98.9032258 251.185345 98.9032258"></polygon>
                            <polygon id="Fill-57" fill="#572EE5" points="242.359914 108.387097 251.864224 108.387097 251.864224 98.9032258 242.359914 98.9032258"></polygon>
                            <polygon id="Fill-58" fill="#572EE5" points="233.534483 108.387097 243.038793 108.387097 243.038793 98.9032258 233.534483 98.9032258"></polygon>
                            <polygon id="Fill-59" fill="#572EE5" points="224.709052 108.387097 234.213362 108.387097 234.213362 98.9032258 224.709052 98.9032258"></polygon>
                            <polygon id="Fill-60" fill="#572EE5" points="215.883621 108.387097 225.387931 108.387097 225.387931 98.9032258 215.883621 98.9032258"></polygon>
                            <polygon id="Fill-61" fill="#572EE5" points="206.37931 108.387097 215.883621 108.387097 215.883621 98.9032258 206.37931 98.9032258"></polygon>
                            <polygon id="Fill-62" fill="#572EE5" points="197.553879 108.387097 207.05819 108.387097 207.05819 98.9032258 197.553879 98.9032258"></polygon>
                            <polygon id="Fill-63" fill="#572EE5" points="188.728448 108.387097 198.232759 108.387097 198.232759 98.9032258 188.728448 98.9032258"></polygon>
                            <polygon id="Fill-64" fill="#572EE5" points="170.398707 108.387097 179.903017 108.387097 179.903017 98.9032258 170.398707 98.9032258"></polygon>
                            <polygon id="Fill-65" fill="#572EE5" points="152.747845 108.387097 162.252155 108.387097 162.252155 98.9032258 152.747845 98.9032258"></polygon>
                            <polygon id="Fill-66" fill="#572EE5" points="125.592672 108.387097 135.096983 108.387097 135.096983 98.9032258 125.592672 98.9032258"></polygon>
                            <polygon id="Fill-67" fill="#572EE5" points="107.94181 108.387097 117.446121 108.387097 117.446121 98.9032258 107.94181 98.9032258"></polygon>
                            <polygon id="Fill-68" fill="#572EE5" points="89.612069 108.387097 99.1163793 108.387097 99.1163793 98.9032258 89.612069 98.9032258"></polygon>
                            <polygon id="Fill-69" fill="#572EE5" points="71.9612069 108.387097 81.4655172 108.387097 81.4655172 98.9032258 71.9612069 98.9032258"></polygon>
                            <polygon id="Fill-70" fill="#572EE5" points="53.6314655 108.387097 63.1357759 108.387097 63.1357759 98.9032258 53.6314655 98.9032258"></polygon>
                            <polygon id="Fill-71" fill="#572EE5" points="35.9806034 108.387097 45.4849138 108.387097 45.4849138 98.9032258 35.9806034 98.9032258"></polygon>
                            <polygon id="Fill-72" fill="#572EE5" points="17.6508621 108.387097 27.1551724 108.387097 27.1551724 98.9032258 17.6508621 98.9032258"></polygon>
                            <polygon id="Fill-73" fill="#572EE5" points="305.49569 98.9032258 315 98.9032258 315 89.4193548 305.49569 89.4193548"></polygon>
                            <polygon id="Fill-74" fill="#572EE5" points="296.670259 98.9032258 306.174569 98.9032258 306.174569 89.4193548 296.670259 89.4193548"></polygon>
                            <polygon id="Fill-75" fill="#572EE5" points="287.165948 98.9032258 296.670259 98.9032258 296.670259 89.4193548 287.165948 89.4193548"></polygon>
                            <polygon id="Fill-76" fill="#572EE5" points="278.340517 98.9032258 287.844828 98.9032258 287.844828 89.4193548 278.340517 89.4193548"></polygon>
                            <polygon id="Fill-77" fill="#572EE5" points="269.515086 98.9032258 279.019397 98.9032258 279.019397 89.4193548 269.515086 89.4193548"></polygon>
                            <polygon id="Fill-78" fill="#572EE5" points="251.185345 98.9032258 260.689655 98.9032258 260.689655 89.4193548 251.185345 89.4193548"></polygon>
                            <polygon id="Fill-79" fill="#572EE5" points="233.534483 98.9032258 243.038793 98.9032258 243.038793 89.4193548 233.534483 89.4193548"></polygon>
                            <polygon id="Fill-80" fill="#572EE5" points="215.883621 98.9032258 225.387931 98.9032258 225.387931 89.4193548 215.883621 89.4193548"></polygon>
                            <polygon id="Fill-81" fill="#572EE5" points="206.37931 98.9032258 215.883621 98.9032258 215.883621 89.4193548 206.37931 89.4193548"></polygon>
                            <polygon id="Fill-82" fill="#572EE5" points="197.553879 98.9032258 207.05819 98.9032258 207.05819 89.4193548 197.553879 89.4193548"></polygon>
                            <polygon id="Fill-83" fill="#572EE5" points="188.728448 98.9032258 198.232759 98.9032258 198.232759 89.4193548 188.728448 89.4193548"></polygon>
                            <polygon id="Fill-84" fill="#572EE5" points="170.398707 98.9032258 179.903017 98.9032258 179.903017 89.4193548 170.398707 89.4193548"></polygon>
                            <polygon id="Fill-85" fill="#572EE5" points="143.922414 98.9032258 153.426724 98.9032258 153.426724 89.4193548 143.922414 89.4193548"></polygon>
                            <polygon id="Fill-86" fill="#572EE5" points="116.767241 98.9032258 126.271552 98.9032258 126.271552 89.4193548 116.767241 89.4193548"></polygon>
                            <polygon id="Fill-87" fill="#572EE5" points="80.7866379 98.9032258 90.2909483 98.9032258 90.2909483 89.4193548 80.7866379 89.4193548"></polygon>
                            <polygon id="Fill-88" fill="#572EE5" points="63.1357759 98.9032258 72.6400862 98.9032258 72.6400862 89.4193548 63.1357759 89.4193548"></polygon>
                            <polygon id="Fill-89" fill="#572EE5" points="44.8060345 98.9032258 54.3103448 98.9032258 54.3103448 89.4193548 44.8060345 89.4193548"></polygon>
                            <polygon id="Fill-90" fill="#572EE5" points="27.1551724 98.9032258 36.6594828 98.9032258 36.6594828 89.4193548 27.1551724 89.4193548"></polygon>
                            <polygon id="Fill-91" fill="#572EE5" points="296.670259 90.0967742 306.174569 90.0967742 306.174569 80.6129032 296.670259 80.6129032"></polygon>
                            <polygon id="Fill-92" fill="#572EE5" points="278.340517 90.0967742 287.844828 90.0967742 287.844828 80.6129032 278.340517 80.6129032"></polygon>
                            <polygon id="Fill-93" fill="#572EE5" points="269.515086 90.0967742 279.019397 90.0967742 279.019397 80.6129032 269.515086 80.6129032"></polygon>
                            <polygon id="Fill-94" fill="#572EE5" points="260.689655 90.0967742 270.193966 90.0967742 270.193966 80.6129032 260.689655 80.6129032"></polygon>
                            <polygon id="Fill-95" fill="#572EE5" points="242.359914 90.0967742 251.864224 90.0967742 251.864224 80.6129032 242.359914 80.6129032"></polygon>
                            <polygon id="Fill-96" fill="#572EE5" points="224.709052 90.0967742 234.213362 90.0967742 234.213362 80.6129032 224.709052 80.6129032"></polygon>
                            <polygon id="Fill-97" fill="#572EE5" points="206.37931 90.0967742 215.883621 90.0967742 215.883621 80.6129032 206.37931 80.6129032"></polygon>
                            <polygon id="Fill-98" fill="#572EE5" points="188.728448 90.0967742 198.232759 90.0967742 198.232759 80.6129032 188.728448 80.6129032"></polygon>
                            <polygon id="Fill-99" fill="#572EE5" points="170.398707 90.0967742 179.903017 90.0967742 179.903017 80.6129032 170.398707 80.6129032"></polygon>
                            <polygon id="Fill-100" fill="#572EE5" points="152.747845 90.0967742 162.252155 90.0967742 162.252155 80.6129032 152.747845 80.6129032"></polygon>
                            <polygon id="Fill-101" fill="#572EE5" points="134.418103 90.0967742 143.922414 90.0967742 143.922414 80.6129032 134.418103 80.6129032"></polygon>
                            <polygon id="Fill-102" fill="#572EE5" points="99.1163793 90.0967742 108.62069 90.0967742 108.62069 80.6129032 99.1163793 80.6129032"></polygon>
                            <polygon id="Fill-103" fill="#572EE5" points="80.7866379 90.0967742 90.2909483 90.0967742 90.2909483 80.6129032 80.7866379 80.6129032"></polygon>
                            <polygon id="Fill-104" fill="#572EE5" points="63.1357759 90.0967742 72.6400862 90.0967742 72.6400862 80.6129032 63.1357759 80.6129032"></polygon>
                            <polygon id="Fill-105" fill="#572EE5" points="44.8060345 90.0967742 54.3103448 90.0967742 54.3103448 80.6129032 44.8060345 80.6129032"></polygon>
                            <polygon id="Fill-106" fill="#572EE5" points="296.670259 81.2903226 306.174569 81.2903226 306.174569 71.8064516 296.670259 71.8064516"></polygon>
                            <polygon id="Fill-107" fill="#572EE5" points="278.340517 81.2903226 287.844828 81.2903226 287.844828 71.8064516 278.340517 71.8064516"></polygon>
                            <polygon id="Fill-108" fill="#572EE5" points="260.689655 81.2903226 270.193966 81.2903226 270.193966 71.8064516 260.689655 71.8064516"></polygon>
                            <polygon id="Fill-109" fill="#572EE5" points="251.185345 81.2903226 260.689655 81.2903226 260.689655 71.8064516 251.185345 71.8064516"></polygon>
                            <polygon id="Fill-110" fill="#572EE5" points="233.534483 81.2903226 243.038793 81.2903226 243.038793 71.8064516 233.534483 71.8064516"></polygon>
                            <polygon id="Fill-111" fill="#572EE5" points="215.883621 81.2903226 225.387931 81.2903226 225.387931 71.8064516 215.883621 71.8064516"></polygon>
                            <polygon id="Fill-112" fill="#572EE5" points="197.553879 81.2903226 207.05819 81.2903226 207.05819 71.8064516 197.553879 71.8064516"></polygon>
                            <polygon id="Fill-113" fill="#572EE5" points="170.398707 81.2903226 179.903017 81.2903226 179.903017 71.8064516 170.398707 71.8064516"></polygon>
                            <polygon id="Fill-114" fill="#572EE5" points="116.767241 81.2903226 126.271552 81.2903226 126.271552 71.8064516 116.767241 71.8064516"></polygon>
                            <polygon id="Fill-115" fill="#572EE5" points="71.9612069 81.2903226 81.4655172 81.2903226 81.4655172 71.8064516 71.9612069 71.8064516"></polygon>
                            <polygon id="Fill-116" fill="#572EE5" points="53.6314655 81.2903226 63.1357759 81.2903226 63.1357759 71.8064516 53.6314655 71.8064516"></polygon>
                            <polygon id="Fill-117" fill="#572EE5" points="35.9806034 81.2903226 45.4849138 81.2903226 45.4849138 71.8064516 35.9806034 71.8064516"></polygon>
                            <polygon id="Fill-118" fill="#572EE5" points="17.6508621 81.2903226 27.1551724 81.2903226 27.1551724 71.8064516 17.6508621 71.8064516"></polygon>
                            <polygon id="Fill-119" fill="#572EE5" points="296.670259 72.483871 306.174569 72.483871 306.174569 63 296.670259 63"></polygon>
                            <polygon id="Fill-120" fill="#572EE5" points="278.340517 72.483871 287.844828 72.483871 287.844828 63 278.340517 63"></polygon>
                            <polygon id="Fill-121" fill="#572EE5" points="269.515086 72.483871 279.019397 72.483871 279.019397 63 269.515086 63"></polygon>
                            <polygon id="Fill-122" fill="#572EE5" points="251.185345 72.483871 260.689655 72.483871 260.689655 63 251.185345 63"></polygon>
                            <polygon id="Fill-123" fill="#572EE5" points="233.534483 72.483871 243.038793 72.483871 243.038793 63 233.534483 63"></polygon>
                            <polygon id="Fill-124" fill="#572EE5" points="215.883621 72.483871 225.387931 72.483871 225.387931 63 215.883621 63"></polygon>
                            <polygon id="Fill-125" fill="#572EE5" points="152.747845 72.483871 162.252155 72.483871 162.252155 63 152.747845 63"></polygon>
                            <polygon id="Fill-126" fill="#572EE5" points="134.418103 72.483871 143.922414 72.483871 143.922414 63 134.418103 63"></polygon>
                            <polygon id="Fill-127" fill="#572EE5" points="89.612069 72.483871 99.1163793 72.483871 99.1163793 63 89.612069 63"></polygon>
                            <polygon id="Fill-128" fill="#572EE5" points="63.1357759 72.483871 72.6400862 72.483871 72.6400862 63 63.1357759 63"></polygon>
                            <polygon id="Fill-129" fill="#572EE5" points="44.8060345 72.483871 54.3103448 72.483871 54.3103448 63 44.8060345 63"></polygon>
                            <polygon id="Fill-130" fill="#572EE5" points="8.82543103 72.483871 18.3297414 72.483871 18.3297414 63 8.82543103 63"></polygon>
                            <polygon id="Fill-131" fill="#572EE5" points="296.670259 63 306.174569 63 306.174569 53.516129 296.670259 53.516129"></polygon>
                            <polygon id="Fill-132" fill="#572EE5" points="278.340517 63 287.844828 63 287.844828 53.516129 278.340517 53.516129"></polygon>
                            <polygon id="Fill-133" fill="#572EE5" points="260.689655 63 270.193966 63 270.193966 53.516129 260.689655 53.516129"></polygon>
                            <polygon id="Fill-134" fill="#572EE5" points="242.359914 63 251.864224 63 251.864224 53.516129 242.359914 53.516129"></polygon>
                            <polygon id="Fill-135" fill="#572EE5" points="224.709052 63 234.213362 63 234.213362 53.516129 224.709052 53.516129"></polygon>
                            <polygon id="Fill-136" fill="#572EE5" points="206.37931 63 215.883621 63 215.883621 53.516129 206.37931 53.516129"></polygon>
                            <polygon id="Fill-137" fill="#572EE5" points="125.592672 63 135.096983 63 135.096983 53.516129 125.592672 53.516129"></polygon>
                            <polygon id="Fill-138" fill="#572EE5" points="107.94181 63 117.446121 63 117.446121 53.516129 107.94181 53.516129"></polygon>
                            <polygon id="Fill-139" fill="#572EE5" points="80.7866379 63 90.2909483 63 90.2909483 53.516129 80.7866379 53.516129"></polygon>
                            <polygon id="Fill-140" fill="#572EE5" points="53.6314655 63 63.1357759 63 63.1357759 53.516129 53.6314655 53.516129"></polygon>
                            <polygon id="Fill-141" fill="#572EE5" points="35.9806034 63 45.4849138 63 45.4849138 53.516129 35.9806034 53.516129"></polygon>
                            <polygon id="Fill-142" fill="#572EE5" points="287.165948 54.1935484 296.670259 54.1935484 296.670259 44.7096774 287.165948 44.7096774"></polygon>
                            <polygon id="Fill-143" fill="#572EE5" points="269.515086 54.1935484 279.019397 54.1935484 279.019397 44.7096774 269.515086 44.7096774"></polygon>
                            <polygon id="Fill-144" fill="#572EE5" points="251.185345 54.1935484 260.689655 54.1935484 260.689655 44.7096774 251.185345 44.7096774"></polygon>
                            <polygon id="Fill-145" fill="#572EE5" points="233.534483 54.1935484 243.038793 54.1935484 243.038793 44.7096774 233.534483 44.7096774"></polygon>
                            <polygon id="Fill-146" fill="#572EE5" points="215.883621 54.1935484 225.387931 54.1935484 225.387931 44.7096774 215.883621 44.7096774"></polygon>
                            <polygon id="Fill-147" fill="#572EE5" points="143.922414 54.1935484 153.426724 54.1935484 153.426724 44.7096774 143.922414 44.7096774"></polygon>
                            <polygon id="Fill-148" fill="#572EE5" points="99.1163793 54.1935484 108.62069 54.1935484 108.62069 44.7096774 99.1163793 44.7096774"></polygon>
                            <polygon id="Fill-149" fill="#572EE5" points="71.9612069 54.1935484 81.4655172 54.1935484 81.4655172 44.7096774 71.9612069 44.7096774"></polygon>
                            <polygon id="Fill-151" fill="#572EE5" points="8.82543103 54.1935484 18.3297414 54.1935484 18.3297414 44.7096774 8.82543103 44.7096774"></polygon>
                            <polygon id="Fill-152" fill="#572EE5" points="260.689655 45.3870968 270.193966 45.3870968 270.193966 35.9032258 260.689655 35.9032258"></polygon>
                            <polygon id="Fill-153" fill="#572EE5" points="242.359914 45.3870968 251.864224 45.3870968 251.864224 35.9032258 242.359914 35.9032258"></polygon>
                            <polygon id="Fill-154" fill="#572EE5" points="188.728448 45.3870968 198.232759 45.3870968 198.232759 35.9032258 188.728448 35.9032258"></polygon>
                            <polygon id="Fill-155" fill="#572EE5" points="161.573276 45.3870968 171.077586 45.3870968 171.077586 35.9032258 161.573276 35.9032258"></polygon>
                            <polygon id="Fill-156" fill="#572EE5" points="63.1357759 45.3870968 72.6400862 45.3870968 72.6400862 35.9032258 63.1357759 35.9032258"></polygon>
                            <polygon id="Fill-157" fill="#572EE5" points="44.8060345 45.3870968 54.3103448 45.3870968 54.3103448 35.9032258 44.8060345 35.9032258"></polygon>
                            <polygon id="Fill-158" fill="#572EE5" points="233.534483 36.5806452 243.038793 36.5806452 243.038793 27.0967742 233.534483 27.0967742"></polygon>
                            <polygon id="Fill-159" fill="#572EE5" points="215.883621 36.5806452 225.387931 36.5806452 225.387931 27.0967742 215.883621 27.0967742"></polygon>
                            <polygon id="Fill-160" fill="#572EE5" points="152.747845 36.5806452 162.252155 36.5806452 162.252155 27.0967742 152.747845 27.0967742"></polygon>
                            <polygon id="Fill-161" fill="#572EE5" points="134.418103 36.5806452 143.922414 36.5806452 143.922414 27.0967742 134.418103 27.0967742"></polygon>
                            <polygon id="Fill-162" fill="#572EE5" points="35.9806034 36.5806452 45.4849138 36.5806452 45.4849138 27.0967742 35.9806034 27.0967742"></polygon>
                            <polygon id="Fill-163" fill="#572EE5" points="27.1551724 27.1089799 17.6508621 27.0967742 17.6508621 36.5684394 27.1551724 36.5806452"></polygon>
                            <polygon id="Fill-164" fill="#572EE5" points="233.534483 9.48387097 243.038793 9.48387097 243.038793 0 233.534483 0"></polygon>
                        </g>
                    </g>
                </g>
                <g id="Ilustra-header" mask="url(#mask-2)">
                    <g transform="translate(24.000000, 3.000000)" id="Group-105">
                        <g>
                            <path d="M227.973787,102.318228 C229.218622,104.112933 230.513596,105.906777 231.374606,107.996147 C232.480262,110.68002 233.153683,113.447466 232.536452,116.381202 C231.877727,119.515688 229.981947,121.80495 228.345508,124.581013 C225.90252,128.722705 224.378462,132.945388 227.989347,136.912177 C229.563545,138.641401 231.917493,139.392713 233.70262,140.842779 C238.466707,144.713931 237.517521,150.891576 240.840538,155.631216 C244.030427,160.181306 249.992667,160.786146 255.006586,159.224934 C260.36024,157.556884 264.153528,153.822726 268.658274,150.701163 C273.16302,147.580461 277.697158,144.863849 283.332629,144.720824 C287.542592,144.614847 291.039367,146.475033 294.735835,148.204257 C298.432303,149.933481 301.917841,151.817791 306.06729,152.176215 C310.21674,152.535501 314.419786,150.443545 316.180709,146.973898 C317.941631,143.503388 316.646657,137.544589 314.863259,135.350103 C307.390792,126.154287 310.438908,108.992153 314.730995,103.090219 C324.622245,89.4925075 319.827902,82.2542379 306.672418,74.3654631 C298.841197,69.6697639 274.362903,61.394994 263.852693,63.2724121 C253.924271,65.0455771 242.269505,69.0993872 232.0852,72.3786223 C226.352044,74.2250229 220.986287,77.7334426 220.095884,84.4461386 C219.669701,87.6590308 220.715708,90.92965 222.213832,93.9030184 C223.711956,96.8763869 226.041699,99.5361343 227.973787,102.318228" id="Fill-1" fill="#4A1EE3"></path>
                            <path d="M254.753011,90.9968307 C254.449977,91.0242954 254.15208,90.871384 254.041653,90.6108408 C253.912393,90.3035335 254.09387,89.9635655 254.449121,89.8514799 C257.60786,88.8486485 260.911267,88.2258686 264.264323,88.0016976 C264.640975,87.977202 264.969689,88.2206726 264.997938,88.5465371 C265.027043,88.873144 264.744554,89.169317 264.369615,89.1834205 C261.13897,89.3979418 257.960543,89.9977107 254.918224,90.9641701 C254.864294,90.9812427 254.807797,90.992377 254.753011,90.9968307" id="Fill-3" fill="#431E41"></path>
                            <path d="M283.399718,88.9955617 C283.346029,89.0024454 283.290661,89.001462 283.234454,88.9916282 C280.092759,88.4556846 276.904924,88.4271665 273.755679,88.909024 C273.400822,88.9758941 273.053516,88.6631783 273.005699,88.2334401 C272.957881,87.8027184 273.216263,87.4093653 273.582864,87.3533124 C276.852073,86.8557207 280.164066,86.8832555 283.426563,87.4388667 C283.793164,87.4998365 284.046513,87.8990899 283.992824,88.3278448 C283.947523,88.6907131 283.697529,88.9591766 283.399718,88.9955617" id="Fill-5" fill="#431E41"></path>
                            <g id="Group-9" transform="translate(223.000000, 55.000000)">
                                <mask id="mask-4" fill="white">
                                    <use xlink:href="#path-3"></use>
                                </mask>
                                <g id="Clip-8"></g>
                                <path d="M37.5311912,72.5609141 C37.5294706,72.5918372 37.5294706,72.6236192 37.52775,72.6545423 C37.2378309,78.0652218 34.3773529,83.1769782 29.7833824,86.1971321 C21.7138235,91.5021577 0.493808824,140.034209 0.738992647,140.805568 L116.255846,128.846927 C116.244662,127.589388 115.787846,125.975376 115.453191,123.579696 C114.471596,116.555004 76.2977647,82.7406192 72.3593382,80.4995551 C68.8949338,78.528209 66.2426471,75.3886577 64.8136985,71.7328628 C64.701,71.4425295 64.5943235,71.1487603 64.49625,70.8515551 C64.4773235,70.7948628 64.4592574,70.7390295 64.4411912,70.6823372 C64.3465588,70.385991 64.2605294,70.0836321 64.1813824,69.7786962 C64.1615956,69.7039654 64.1409485,69.6300936 64.1220221,69.5545038 C64.0514779,69.2676064 63.9912574,68.9764141 63.9353382,68.6835038 C63.9189926,68.5941705 63.8974853,68.5056962 63.8828603,68.4163628 C63.8191985,68.0504397 63.765,67.6802218 63.7262868,67.305709 C63.7254265,67.2996962 63.7237059,67.2936833 63.7237059,67.2868115 L63.61875,66.2792346 C75.8719191,55.0575936 73.4286838,31.4504013 72.7817426,25.2194013 C71.2125662,10.1109013 57.6741176,-0.866791026 42.5424044,0.699119231 C27.4106912,2.26588846 16.4161324,15.782709 17.9853088,30.891209 C18.6623603,37.4159782 21.3223897,62.9979526 37.4881765,70.2992346 C37.4993603,70.4306577 37.5028015,70.5603628 37.5114044,70.6909269 C37.5501176,71.3162603 37.5604412,71.9398756 37.5311912,72.5609141" id="Fill-7" fill="#FFFFFF" mask="url(#mask-4)"></path>
                            </g>
                            <g id="Group-12" transform="translate(223.000000, 55.000000)">
                                <mask id="mask-6" fill="white">
                                    <use xlink:href="#path-5"></use>
                                </mask>
                                <g id="Clip-11"></g>
                                <path d="M37.5311912,72.5609141 C37.5294706,72.5918372 37.5294706,72.6236192 37.52775,72.6545423 C37.2378309,78.0652218 34.3773529,83.1769782 29.7833824,86.1971321 C21.7138235,91.5021577 0.493808824,140.034209 0.738992647,140.805568 L116.255846,128.846927 C116.244662,127.589388 115.787846,125.975376 115.453191,123.579696 C114.471596,116.555004 76.2977647,82.7406192 72.3593382,80.4995551 C68.8949338,78.528209 66.2426471,75.3886577 64.8136985,71.7328628 C64.701,71.4425295 64.5943235,71.1487603 64.49625,70.8515551 C64.4773235,70.7948628 64.4592574,70.7390295 64.4411912,70.6823372 C64.3465588,70.385991 64.2605294,70.0836321 64.1813824,69.7786962 C64.1615956,69.7039654 64.1409485,69.6300936 64.1220221,69.5545038 C64.0514779,69.2676064 63.9912574,68.9764141 63.9353382,68.6835038 C63.9189926,68.5941705 63.8974853,68.5056962 63.8828603,68.4163628 C63.8191985,68.0504397 63.765,67.6802218 63.7262868,67.305709 C63.7254265,67.2996962 63.7237059,67.2936833 63.7237059,67.2868115 L63.61875,66.2792346 C75.8719191,55.0575936 73.4286838,31.4504013 72.7817426,25.2194013 C71.2125662,10.1109013 57.6741176,-0.866791026 42.5424044,0.699119231 C27.4106912,2.26588846 16.4161324,15.782709 17.9853088,30.891209 C18.6623603,37.4159782 21.3223897,62.9979526 37.4881765,70.2992346 C37.4993603,70.4306577 37.5028015,70.5603628 37.5114044,70.6909269 C37.5501176,71.3162603 37.5604412,71.9398756 37.5311912,72.5609141 Z" id="Stroke-10" stroke="#4A1EE3" mask="url(#mask-6)"></path>
                            </g>
                            <g id="Group-15" transform="translate(221.000000, 135.000000)" fill="#50E3C2">
                                <path d="M119.631083,43.2131143 C118.623064,36.2034 117.749329,29.1465429 115.232373,22.4574 C110.669341,10.3262571 101.545043,2.94025714 88.2791199,2.65654286 C83.828286,2.56054286 79.4216248,2.46111429 75.3780626,0.225685714 C75.3436079,0.205971429 75.3109202,0.184542857 75.2764655,0.164828571 C71.3283162,6.00968571 64.3499246,10.2585429 56.0410536,11.0942571 C47.4565453,11.9574 39.4869201,8.97625714 34.4008838,3.7314 C33.5704385,4.53968571 32.6542982,5.27254286 31.6559968,5.91025714 C23.3692121,11.2039714 12.065437,9.71511429 5.44219336,17.8965429 C2.23084341,21.8625429 1.18571907,27.0679714 0.731624466,32.0916857 C-0.0299116148,40.5362571 6.1728086,107.989114 6.1728086,107.989114 L125.666831,96.9645429 C125.654463,95.7088286 119.97563,45.6036857 119.631083,43.2131143" id="Fill-13"></path>
                            </g>
                            <path d="M274.95906,150 C287.14886,150 297.472035,144.454945 301,136.796098 C299.3274,136.458391 297.691179,135.924732 296.112127,135.058369 C296.078345,135.040024 296.046297,135.018345 296.012515,135 C292.141541,140.685141 285.299558,144.8185 277.152236,145.632331 C268.735531,146.472011 260.922556,143.571071 255.935938,138.46962 C255.121725,139.2551 254.223493,139.96887 253.244706,140.589249 C252.836733,140.846906 252.420099,141.084552 252,141.311357 C256.871416,146.538718 265.33143,150 274.95906,150" id="Fill-16" fill="#50E3C2"></path>
                            <path d="M361.625272,91.6814322 C358.742877,61.0221515 340.173351,36.3964518 311.76558,25.3111801 C311.673763,25.0344578 311.573364,24.7585975 311.455802,24.4810131 C309.043652,18.8008782 303.263415,10.2086934 296.637939,4.7647638 C295.759233,4.0440789 294.528701,3.32770431 293.572766,3.94149336 C292.425471,4.67683334 292.691485,6.57164844 293.508407,7.66560674 C295.836463,10.7828276 300.007741,16.6491682 299.64047,16.9241664 C299.154779,17.2853709 287.021087,5.1052788 284.275131,3.56218552 C283.131269,2.91908631 281.588385,2.69494986 280.645321,3.61046106 C278.488029,5.70527484 280.875295,7.90698446 281.444222,8.45008433 C285.799995,12.61385 289.561954,16.6827887 293.362528,21.4870673 C288.038807,18.226744 281.493135,13.6388432 274.857361,9.65438674 C273.643134,8.9250812 271.966384,8.48887718 270.851698,9.36387141 C269.906918,10.1052458 269.839985,11.5845464 270.375446,12.6604014 C270.910908,13.7371184 271.898594,14.5017686 272.855388,15.2241776 C278.024649,19.1241519 283.284013,23.6155016 288.639484,27.2534086 C283.43075,24.7232529 274.122818,20.8508646 270.807934,20.9896568 C268.013924,21.1068974 267.938411,23.4930886 268.017357,24.1706703 C268.122904,25.0663541 269.04709,25.5913506 269.864012,25.964624 C275.257241,28.4223664 279.739155,30.59649 283.900136,32.517167 C283.980799,32.5542358 290.064807,35.41801 290.155767,35.4490443 C286.999634,36.344728 283.695048,37.2679978 281.871562,38.7800568 C280.683936,39.7645331 279.404492,41.2309027 279.99144,42.6602036 C280.467692,43.8170925 281.898163,44.1834694 283.135559,44.3239858 C286.218753,44.6731214 299.915923,42.7214101 300.883015,42.5507216 C302.430189,42.2774475 304.116378,41.5334869 305.642957,40.5455624 C328.263626,49.3075736 343.055746,68.8652033 345.346903,93.2262496 C347.189268,112.815776 340.321804,130.735485 328.257619,137.818197 L336.508358,152 C354.233502,141.591448 364.091483,117.916604 361.625272,91.6814322" id="Fill-18" fill="#FFFFFF"></path>
                            <path d="M361.625272,91.6814322 C358.742877,61.0221515 340.173351,36.3964518 311.76558,25.3111801 C311.673763,25.0344578 311.573364,24.7585975 311.455802,24.4810131 C309.043652,18.8008782 303.263415,10.2086934 296.637939,4.7647638 C295.759233,4.0440789 294.528701,3.32770431 293.572766,3.94149336 C292.425471,4.67683334 292.691485,6.57164844 293.508407,7.66560674 C295.836463,10.7828276 300.007741,16.6491682 299.64047,16.9241664 C299.154779,17.2853709 287.021087,5.1052788 284.275131,3.56218552 C283.131269,2.91908631 281.588385,2.69494986 280.645321,3.61046106 C278.488029,5.70527484 280.875295,7.90698446 281.444222,8.45008433 C285.799995,12.61385 289.561954,16.6827887 293.362528,21.4870673 C288.038807,18.226744 281.493135,13.6388432 274.857361,9.65438674 C273.643134,8.9250812 271.966384,8.48887718 270.851698,9.36387141 C269.906918,10.1052458 269.839985,11.5845464 270.375446,12.6604014 C270.910908,13.7371184 271.898594,14.5017686 272.855388,15.2241776 C278.024649,19.1241519 283.284013,23.6155016 288.639484,27.2534086 C283.43075,24.7232529 274.122818,20.8508646 270.807934,20.9896568 C268.013924,21.1068974 267.938411,23.4930886 268.017357,24.1706703 C268.122904,25.0663541 269.04709,25.5913506 269.864012,25.964624 C275.257241,28.4223664 279.739155,30.59649 283.900136,32.517167 C283.980799,32.5542358 290.064807,35.41801 290.155767,35.4490443 C286.999634,36.344728 283.695048,37.2679978 281.871562,38.7800568 C280.683936,39.7645331 279.404492,41.2309027 279.99144,42.6602036 C280.467692,43.8170925 281.898163,44.1834694 283.135559,44.3239858 C286.218753,44.6731214 299.915923,42.7214101 300.883015,42.5507216 C302.430189,42.2774475 304.116378,41.5334869 305.642957,40.5455624 C328.263626,49.3075736 343.055746,68.8652033 345.346903,93.2262496 C347.189268,112.815776 340.321804,130.735485 328.257619,137.818197 L336.508358,152 C354.233502,141.591448 364.091483,117.916604 361.625272,91.6814322 Z" id="Stroke-20" stroke="#4A1EE3"></path>
                            <path d="M317.654934,164 L317,139.138536 C334.458354,138.671613 339.223299,121.307614 340.508372,111 L365,114.10133 C361.244817,144.199733 343.104168,163.31943 317.654934,164" id="Fill-22" fill="#50E3C2"></path>
                            <path d="M263.974023,98.802191 C264.150331,100.45524 263.410581,101.883778 262.32008,101.993318 C261.229579,102.102857 260.202512,100.85266 260.026203,99.1987055 C259.848962,97.5456565 260.589644,96.1162128 261.680145,96.0066734 C262.770647,95.897134 263.797714,97.1491421 263.974023,98.802191" id="Fill-24" fill="#431E41"></path>
                            <path d="M280.974021,97.8012881 C281.150331,99.4552411 280.410577,100.883779 279.321002,100.993318 C278.230494,101.102857 277.202488,99.8526606 277.026178,98.1987076 C276.848936,96.5456598 277.590556,95.1162171 278.680131,95.0066778 C279.770638,94.8971385 280.798645,96.1482403 280.974021,97.8012881" id="Fill-26" fill="#431E41"></path>
                            <path d="M260,109.125799 C261.239672,113.499596 266.254669,116.479159 271.875865,115.936228 C277.496181,115.393296 281.74925,111.517322 282,107 L260,109.125799 Z" id="Fill-28" fill="#4A1EE3"></path>
                            <g id="Group-32" transform="translate(104.000000, 131.000000)">
                                <mask id="mask-8" fill="white">
                                    <use xlink:href="#path-7"></use>
                                </mask>
                                <g id="Clip-31"></g>
                                <path d="M136.991666,115.311335 C137.177287,113.863894 136.901877,111.937953 136.89238,109.132629 C136.863026,100.907718 142.193374,24.8151294 132.809579,19.7913059 C119.904163,12.8816294 98.7364484,6.54598235 94.518964,3.35768824 C89.8559888,-0.166664706 56.2577031,-0.164105882 47.7648894,1.06668824 C47.7648894,1.06668824 44.4029888,3.15468824 44.1733366,3.26301176 C33.9641752,8.10004118 7.76483354,8.69965882 7.76483354,8.69965882 C3.50590807,12.7784235 1.35960994,97.7595118 0.815696894,107.596482 C0.739721739,108.979953 0.788069565,110.1101 0.951243478,111.034688 L136.991666,115.311335 Z" id="Fill-30" fill="#4A1EE3" mask="url(#mask-8)"></path>
                            </g>
                            <path d="M174.516742,147.979457 C185.637309,148.336614 195.781841,144.013177 203,136.842961 C201.696024,136.257014 199.012794,134.314043 197.813517,133.38753 C193.140144,129.780154 160.889461,131.003571 152.37771,132.26279 C152.37771,132.26279 149.008313,134.400495 148.778149,134.511397 C148.19322,134.794328 147.599638,135.046696 147,135.278979 C153.745716,142.76269 163.512122,147.625793 174.516742,147.979457" id="Fill-33" fill="#4A1EE3"></path>
                            <path d="M175.55573,142 C175.220569,142 174.883684,141.994782 174.545939,141.983477 C166.308216,141.719983 158.481476,138.131064 153,132.120256 C157.913684,128.006087 158.73737,121.642214 158.898488,116.518417 C158.89935,116.51146 159.075116,110.951985 159.419754,100 L192.982376,101.077458 L192.461111,117.596745 C192.293099,122.926641 192.710112,128.924405 197,133.197714 C191.303125,138.878067 183.705569,142 175.556591,142 L175.55573,142 Z" id="Fill-35" fill="#FFFFFF"></path>
                            <path d="M158.594458,100 C158.594458,100 158.063131,116.586904 158.062274,116.603938 C157.871167,122.586296 156.68168,128.238193 152,131.848559 C157.361265,137.818993 165.200057,141.704459 174.040659,141.983818 C174.380023,141.99489 174.719387,142 175.057037,142 C183.661112,142 191.46734,138.534423 197,132.945552 C192.758808,129.043903 192.116073,123.467808 192.302038,117.687304 L192.833365,101.082514 L158.594458,100 Z M159.424014,100.878105 L191.948962,101.906962 L191.445058,117.660049 C191.278804,122.846917 191.683298,128.673413 195.779661,132.946404 C190.229861,138.241437 182.904399,141.148298 175.057037,141.148298 C174.728814,141.148298 174.398019,141.143187 174.068082,141.132967 C166.139307,140.881715 158.600457,137.540486 153.241763,131.931174 C157.953437,127.793604 158.759855,121.620465 158.919253,116.630341 C158.921824,116.557946 159.315178,104.259364 159.424014,100.878105 L159.424014,100.878105 Z" id="Fill-37" fill="#4A1EE3"></path>
                            <path d="M202.706299,74.0533038 C203.202919,58.607923 194.489576,47.4976669 179.198182,47.01532 C163.906787,46.5338299 154.689903,57.4504619 154.194148,72.8958427 C154.021975,78.235928 148.37487,97.2290857 155.904632,109.034161 C158.714773,113.440396 163.984655,116.984745 168.977675,119.130032 C174.776188,121.622301 180.604983,121.640292 186.1275,119.082055 C191.0738,116.790265 196.734748,113.340157 199.61324,108.604932 C201.922436,104.80613 201.55646,101.422848 202.490866,97.1057145 C203.531692,92.3002374 202.644005,76.0152476 202.706299,74.0533038" id="Fill-39" fill="#FFFFFF"></path>
                            <path d="M170.997518,89.0613776 C170.942098,90.7176695 170.003711,92.0327744 168.900942,91.9993778 C167.797233,91.9659811 166.947143,90.5949144 167.002563,88.9386224 C167.057044,87.2823305 167.99637,85.9672256 169.09914,86.0006222 C170.202848,86.0340189 171.051999,87.4050856 170.997518,89.0613776" id="Fill-41" fill="#431E41"></path>
                            <path d="M187.997521,90.0613776 C187.942113,91.7176695 187.002987,93.0327744 185.901392,92.9993778 C184.797918,92.9659811 183.948009,91.5949144 184.002479,89.9386224 C184.057887,88.2823305 184.997013,86.9672256 186.099547,87.0006222 C187.202082,87.0340189 188.051991,88.404183 187.997521,90.0613776" id="Fill-43" fill="#431E41"></path>
                            <path d="M162.695596,78.9997203 C162.374121,78.9899256 162.088457,78.7857428 162.016833,78.4888867 C161.931883,78.1377828 162.176738,77.7911995 162.564841,77.713595 C165.812912,77.0694022 170.17782,76.9503584 172.308222,77.0159078 C172.704653,77.0294698 173.014469,77.3316 172.999478,77.6902383 C172.984487,78.0481232 172.65385,78.3276502 172.258252,78.3163485 C172.218275,78.3163485 172.169971,78.3133348 172.124165,78.3118279 C170.018748,78.2515525 165.926178,78.3796377 162.872991,78.9846515 C162.813859,78.9967066 162.753895,79.0012272 162.695596,78.9997203" id="Fill-45" fill="#431E41"></path>
                            <path d="M190.25373,80.9996294 C190.19591,80.9978446 190.135576,80.9880283 190.076918,80.9701804 C186.990658,80.0269196 182.772295,79.5967855 180.704174,79.5396722 L180.700822,79.5396722 C180.302784,79.5271787 179.989382,79.1737906 180.000276,78.7499032 C180.010331,78.3242311 180.343007,77.9886909 180.741883,78.000292 C182.887935,78.0493737 187.260486,78.5062796 190.476631,79.4888058 C190.860424,79.6057094 191.081649,80.0331663 190.971874,80.4418829 C190.878859,80.7881319 190.577188,81.0103381 190.25373,80.9996294" id="Fill-47" fill="#431E41"></path>
                            <path d="M202.288028,60.0025314 C202.249129,59.5630804 200.004226,60.5449247 199.942853,60.606344 C198.303045,62.2508249 195.914648,57.4506015 196.013192,59.8520108 C196.195585,64.2742026 198.928886,91.5409249 195.75473,94.6793662 C192.055871,98.3351139 160.988562,97.4614023 157.846389,93.3056493 C154.745709,89.2035301 157.272413,71.7483295 157.76254,67.0856508 C158.013223,64.6946222 158.035698,60.9679395 156.503943,59.2239765 C154.285837,58.5544193 155.123462,59.599413 155.123462,59.599413 C152.939933,65.5778495 137.829845,126.582815 172.691964,131.602764 C210.239842,137.009395 204.57183,85.8816959 202.288028,60.0025314" id="Fill-49" fill="#4A1EE3"></path>
                            <path d="M166,98 C166.593152,102.899808 171.111094,106.810325 176.730972,106.993397 C182.351712,107.175588 187.102094,103.566964 188,98.7155639 L166,98 Z" id="Fill-51" fill="#FFFFFF"></path>
                            <path d="M183.834622,67.2100064 C181.218208,68.6947412 178.125452,69.9523787 175.256143,69.0371077 C172.55572,68.1760303 170.738693,65.5927981 168.118814,64.5140857 C164.509011,63.0276304 160.424598,64.7222583 156.986278,66.5648435 C153.625038,68.3661383 150.333951,70.345498 146.744934,71.6418453 C143.155916,72.9381926 139.171102,73.5162585 135.511933,72.428944 C131.852763,71.3407693 128.630096,68.3343102 128.072343,64.5811827 C127.514591,60.8289153 130.246193,56.6740664 134.049997,56.3316999 C135.917256,56.1639576 137.749006,56.8486904 139.615399,57.0301963 C144.707924,57.5248211 149.424572,54.240512 152.815258,50.4340509 C156.20681,46.6275899 158.843144,42.1295143 162.734422,38.828861 C166.626566,35.5282077 172.432737,33.6486331 176.882633,36.1578866 C181.251985,38.6215486 183.004056,44.4976922 187.634962,46.4323206 C192.383655,48.4159814 201.616021,44.4985524 202.963635,59.4766539 C203.319592,63.4388143 201.040947,67.1463503 197.069124,65.3433351 C191.713312,62.9132216 188.812825,64.3850532 183.834622,67.2100064" id="Fill-53" fill="#4A1EE3"></path>
                            <path d="M87.8895887,16.7172876 C84.5567356,16.9097694 75.6227896,21.6762721 70.6589106,24.7035641 C75.6590538,20.5634866 80.4787393,15.5855977 85.2664779,11.2023401 C86.1532241,10.3911667 87.0650098,9.53359152 87.4941362,8.41307241 C87.9232626,7.29255331 87.7082677,5.83175387 86.6894162,5.1907207 C85.48579,4.43368287 83.8513104,5.03261065 82.7081245,5.87729644 C76.4594566,10.4891262 70.3627529,15.6912908 65.3565657,19.4541383 C68.6833748,14.3104057 72.0455847,9.90050996 75.9940659,5.33765994 C76.5078089,4.74216934 78.679344,2.32153874 76.310946,0.457730509 C75.2765527,-0.35602071 73.7534561,0.0194906759 72.671574,0.771372742 C70.0769564,2.57503041 59.1398448,15.8631496 58.618331,15.5529445 C58.222015,15.317498 61.8156251,9.08332157 63.8360594,5.75957319 C64.5449382,4.59351152 64.6226473,2.68759789 63.4008889,2.07234354 C62.3820374,1.55848585 61.2215829,2.39114154 60.4142726,3.19458123 C54.9038402,8.67343843 50.3509556,16.6322175 48.1604249,22.4504958 C19.0739419,36.367618 1.82944877,63.7593261 2.00127203,95.8788687 C2.14546542,122.91397 14.8284395,146.120917 34.312679,155 L42.8235427,136.50456 C30.9211124,131.080698 22.5397638,114.330484 22.4413324,95.7705977 C22.3118173,71.577181 35.3842,50.9575672 57.4155682,40.5876098 C58.2712307,40.8557094 59.1217127,41.0344426 59.9238424,41.0945931 C60.9081565,41.1676331 74.8163427,41.740782 77.86858,41.0877188 C79.0937921,40.8256342 80.489964,40.3195101 80.8508792,39.1250918 C81.2964108,37.648825 79.8691553,36.3212161 78.5835029,35.4636409 C76.6062403,34.1446249 73.2060393,33.5577273 69.9569392,32.9828597 C70.044146,32.9441915 75.8515994,29.4984234 75.928445,29.4528809 C79.9028292,27.1345062 84.175098,24.5325646 89.3289323,21.5576895 C90.1103396,21.1065603 90.9832708,20.4938838 91,19.5950625 C91.0117641,18.9153611 90.6983378,16.5557404 87.8895887,16.7172876" id="Fill-55" fill="#FFFFFF"></path>
                            <path d="M87.8895887,16.7172876 C84.5567356,16.9097694 75.6227896,21.6762721 70.6589106,24.7035641 C75.6590538,20.5634866 80.4787393,15.5855977 85.2664779,11.2023401 C86.1532241,10.3911667 87.0650098,9.53359152 87.4941362,8.41307241 C87.9232626,7.29255331 87.7082677,5.83175387 86.6894162,5.1907207 C85.48579,4.43368287 83.8513104,5.03261065 82.7081245,5.87729644 C76.4594566,10.4891262 70.3627529,15.6912908 65.3565657,19.4541383 C68.6833748,14.3104057 72.0455847,9.90050996 75.9940659,5.33765994 C76.5078089,4.74216934 78.679344,2.32153874 76.310946,0.457730509 C75.2765527,-0.35602071 73.7534561,0.0194906759 72.671574,0.771372742 C70.0769564,2.57503041 59.1398448,15.8631496 58.618331,15.5529445 C58.222015,15.317498 61.8156251,9.08332157 63.8360594,5.75957319 C64.5449382,4.59351152 64.6226473,2.68759789 63.4008889,2.07234354 C62.3820374,1.55848585 61.2215829,2.39114154 60.4142726,3.19458123 C54.9038402,8.67343843 50.3509556,16.6322175 48.1604249,22.4504958 C19.0739419,36.367618 1.82944877,63.7593261 2.00127203,95.8788687 C2.14546542,122.91397 14.8284395,146.120917 34.312679,155 L42.8235427,136.50456 C30.9211124,131.080698 22.5397638,114.330484 22.4413324,95.7705977 C22.3118173,71.577181 35.3842,50.9575672 57.4155682,40.5876098 C58.2712307,40.8557094 59.1217127,41.0344426 59.9238424,41.0945931 C60.9081565,41.1676331 74.8163427,41.740782 77.86858,41.0877188 C79.0937921,40.8256342 80.489964,40.3195101 80.8508792,39.1250918 C81.2964108,37.648825 79.8691553,36.3212161 78.5835029,35.4636409 C76.6062403,34.1446249 73.2060393,33.5577273 69.9569392,32.9828597 C70.044146,32.9441915 75.8515994,29.4984234 75.928445,29.4528809 C79.9028292,27.1345062 84.175098,24.5325646 89.3289323,21.5576895 C90.1103396,21.1065603 90.9832708,20.4938838 91,19.5950625 C91.0117641,18.9153611 90.6983378,16.5557404 87.8895887,16.7172876 Z" id="Stroke-57" stroke="#4A1EE3"></path>
                            <g id="Group-61" transform="translate(0.000000, 110.000000)">
                                <mask id="mask-10" fill="white">
                                    <use xlink:href="#path-9"></use>
                                </mask>
                                <g id="Clip-60"></g>
                                <path d="M176.318248,88.310837 C170.970258,70.1751848 147.84456,42.3294022 129.833731,35.9012065 C127.855648,34.9729565 125.735965,34.18725 123.436692,33.5913152 C118.519545,32.319587 113.651614,31.0547283 109.766248,27.4525 C105.021784,23.0534022 62.1843307,21.5807391 59.6657502,22.49525 C54.9920868,24.1903152 50.0274527,24.244413 45.1172137,24.4135761 C37.1962478,21.0766848 31.8378966,7.22420652 29.7121698,0.715293478 L0.315491707,10.2133261 C5.35956,25.65525 11.8429405,36.0214239 18.6794576,42.925337 C18.5266332,43.3555435 18.3703551,43.7866087 18.2270283,44.2168152 C15.0919698,53.632413 8.99539902,97.8913043 7.48701366,107.695033 C7.27461366,109.074957 7.2124478,110.21187 7.2832478,111.154717 L142.269492,128.580228 C142.596726,127.148783 147.004458,90.7735761 147.270389,87.9622065 C147.409399,86.4972717 154.457453,95.3358261 154.593872,93.8700326 L176.318248,88.310837 Z" id="Fill-59" fill="#FFFFFF" mask="url(#mask-10)"></path>
                            </g>
                            <g id="Group-64" transform="translate(0.000000, 110.000000)">
                                <mask id="mask-12" fill="white">
                                    <use xlink:href="#path-11"></use>
                                </mask>
                                <g id="Clip-63"></g>
                                <path d="M176.318248,88.310837 C170.970258,70.1751848 147.84456,42.3294022 129.833731,35.9012065 C127.855648,34.9729565 125.735965,34.18725 123.436692,33.5913152 C118.519545,32.319587 113.651614,31.0547283 109.766248,27.4525 C105.021784,23.0534022 62.1843307,21.5807391 59.6657502,22.49525 C54.9920868,24.1903152 50.0274527,24.244413 45.1172137,24.4135761 C37.1962478,21.0766848 31.8378966,7.22420652 29.7121698,0.715293478 L0.315491707,10.2133261 C5.35956,25.65525 11.8429405,36.0214239 18.6794576,42.925337 C18.5266332,43.3555435 18.3703551,43.7866087 18.2270283,44.2168152 C15.0919698,53.632413 8.99539902,97.8913043 7.48701366,107.695033 C7.27461366,109.074957 7.2124478,110.21187 7.2832478,111.154717 L142.269492,128.580228 C142.596726,127.148783 147.004458,90.7735761 147.270389,87.9622065 C147.409399,86.4972717 154.457453,95.3358261 154.593872,93.8700326 L176.318248,88.310837 Z" id="Stroke-62" stroke="#50E3C2" mask="url(#mask-12)"></path>
                            </g>
                            <path d="M59,132.924611 L59.5706491,133.689813 C65.27714,141.356163 74.1312112,146.463129 83.8614219,147.704476 C93.789858,148.970262 103.823843,146.131935 111.39331,139.918459 L112,139.41956 C111.14703,138.873469 110.324952,138.255745 109.543205,137.541107 C108.157343,136.27195 106.98172,134.818234 106.024918,133.244007 C99.8292991,136.942766 90.2715704,138.836389 85.1202824,138.179056 C80.2221395,137.555433 70.4378673,133.987298 66.0365753,129 C64.2044914,130.573384 62.0857957,131.838327 59.749996,132.675162 C59.5011415,132.764492 59.2505707,132.843709 59,132.924611" id="Fill-65" fill="#50E3C2"></path>
                            <path d="M84.095692,143.734165 C93.0937932,144.89956 101.664646,142.164238 108,136.882949 C104.132327,132.544994 104.037383,126.873806 104.792619,121.077815 L106.959069,104.42919 L72.7447062,100 C72.7447062,100 70.5799831,116.631411 70.5773937,116.648625 C69.7971267,122.646021 68.048431,128.216506 63,131.389927 C67.7860404,137.917517 75.2615851,142.591148 84.095692,143.734165" id="Fill-67" fill="#FFFFFF"></path>
                            <path d="M84.095692,143.734165 C93.0937932,144.89956 101.664646,142.164238 108,136.882949 C104.132327,132.544994 104.037383,126.873806 104.792619,121.077815 L106.959069,104.42919 L72.7447062,100 C72.7447062,100 70.5799831,116.631411 70.5773937,116.648625 C69.7971267,122.646021 68.048431,128.216506 63,131.389927 C67.7860404,137.917517 75.2615851,142.591148 84.095692,143.734165 Z" id="Stroke-69" stroke="#4A1EE3"></path>
                            <path d="M119.756833,83.5490792 C121.767625,68.2034434 111.0867,54.1798642 95.9018435,52.2272356 C80.7161211,50.2737491 66.7748036,61.1315993 64.7648776,76.4763772 C64.0695004,81.7817616 60.266142,99.3022275 66.6076706,111.79356 C69.8992382,118.276012 76.9915664,123.540216 86.3847878,124.747311 C94.5491919,125.798265 102.210465,123.494746 106.870272,119.2549 C117.90105,109.217222 119.014693,89.2147905 119.756833,83.5490792" id="Fill-71" fill="#FFFFFF"></path>
                            <path d="M119.756833,83.5490792 C121.767625,68.2034434 111.0867,54.1798642 95.9018435,52.2272356 C80.7161211,50.2737491 66.7748036,61.1315993 64.7648776,76.4763772 C64.0695004,81.7817616 60.266142,99.3022275 66.6076706,111.79356 C69.8992382,118.276012 76.9915664,123.540216 86.3847878,124.747311 C94.5491919,125.798265 102.210465,123.494746 106.870272,119.2549 C117.90105,109.217222 119.014693,89.2147905 119.756833,83.5490792 Z" id="Stroke-73" stroke="#4A1EE3"></path>
                            <path d="M114.842322,107.948588 L63.3995761,101.377894 C60.0053305,100.944355 57.611666,97.8859184 58.0522652,94.5460621 L58.2145912,93.3130535 C58.6551903,89.9731972 61.7634329,87.6178886 65.1576784,88.0514277 L116.600424,94.6212765 C119.994669,95.0556607 122.388334,98.1140969 121.947735,101.453108 L121.785409,102.686117 C121.34481,106.025973 118.236567,108.382127 114.842322,107.948588" id="Fill-75" fill="#FFFFFF"></path>
                            <path d="M83.9598085,94.2480243 C83.7406071,95.8994039 82.6845397,97.1272831 81.6024654,96.9894414 C80.5203911,96.8525066 79.8209902,95.4024484 80.0401915,93.7519757 C80.2603217,92.1005961 81.3154603,90.8727169 82.3975346,91.0105586 C83.4796089,91.1474934 84.1790098,92.5975516 83.9598085,94.2480243" id="Fill-77" fill="#431E41"></path>
                            <path d="M100.959811,96.2488736 C100.740624,97.8993808 99.6846269,99.1272856 98.6026242,98.9894411 C97.5206216,98.8525034 96.8203383,97.4024149 97.0404539,95.7519077 C97.2605695,94.1004936 98.3156381,92.8734957 99.3976408,93.0104333 C100.479643,93.147371 101.178998,94.5974595 100.959811,96.2488736" id="Fill-79" fill="#431E41"></path>
                            <path d="M76.5828166,82.7848129 C76.2858128,82.7395788 76.0416656,82.4632575 76.0047498,82.099418 C75.9611222,81.6687106 76.2228882,81.2783207 76.5903675,81.2271865 C79.9111051,80.7630452 84.2822629,81.1003343 86.4200192,81.4376234 C86.7866595,81.495641 87.0433916,81.8909477 86.993891,82.3206717 C86.9443904,82.748429 86.6096318,83.0493341 86.2446695,82.9932831 C86.2119487,82.9893497 86.1565752,82.9795162 86.1112695,82.9716494 C84.003717,82.6510773 79.8800623,82.3491889 76.7489374,82.7857963 C76.6918858,82.7936631 76.6365122,82.7926797 76.5828166,82.7848129" id="Fill-81" fill="#431E41"></path>
                            <path d="M106.225378,86.993892 C106.170306,86.9865017 106.115235,86.9717212 106.061024,86.9486267 C103.033813,85.6627214 99.858598,84.8294696 96.6162644,84.4701182 C96.2436713,84.4396333 95.964872,84.0664252 96.0035941,83.6608847 C96.0431767,83.2562679 96.3796291,82.9615813 96.757385,83.0040753 C100.122769,83.3782072 103.421895,84.2419439 106.566133,85.5777334 C106.918934,85.7273862 107.091033,86.1560213 106.951633,86.5338483 C106.833746,86.8544008 106.529992,87.036386 106.225378,86.993892" id="Fill-83" fill="#431E41"></path>
                            <path d="M70.4469321,54.0338581 C66.9847646,58.4455831 61.6528034,81.0071484 63.3121702,88 C69.119954,86.6680283 72.2188129,81.7145427 73.7656657,73.4958285 C87.4666073,80.8026942 102.858695,84.5156517 117.919252,82.4020955 C118.755806,82.2847715 122.555516,75.1668319 122.555516,75.1668319 C124.285311,67.1042621 123.541516,39.8212711 70.4469321,54.0338581" id="Fill-85" fill="#50E3C2"></path>
                            <path d="M122,74.8350752 C120.619978,73.8848773 115.711801,73.7890736 114.294875,73 C113.134558,74.7349169 111.012173,78.1594616 111.110868,78.1368171 C110.517836,86.5588282 112.254021,92.197308 117.526084,95 C119.541191,90.2542359 121.403535,84.723753 122,74.8350752" id="Fill-87" fill="#50E3C2"></path>
                            <path d="M78,102 C78.1266811,106.874671 82.2828633,111.161635 87.9036876,111.892792 C93.5245119,112.623949 98.635141,109.54283 100,104.861163 L78,102 Z" id="Fill-89" fill="#4A1EE3"></path>
                            <path d="M62.9603139,146.433569 C63.0467642,146.953778 63.0528157,147.571092 62.3274981,147.893622 C61.7776745,148.136386 59.6648305,148.814391 58.1614607,147.457513 C56.3779921,145.845733 55.0751869,140.041936 54.6619548,136.684854 C54.1856139,140.447699 52.9191178,144.418626 52.121182,148.167598 C51.9742166,148.862077 51.8039096,149.583433 51.1365137,150.173003 C50.4691178,150.763441 49.1490226,151.174406 48.0312209,150.926439 C46.7111256,150.633388 46.2494813,149.666667 46.2745519,148.841269 C46.4094142,144.33626 47.1148483,139.69513 47.2782392,136.060604 C45.0071912,139.398611 43.3577205,142.496455 41.9226465,145.918562 C41.7359139,146.365075 41.0183769,148.217018 38.1153776,147.770505 C36.846288,147.57456 36.2670713,146.738758 36.2523748,145.974918 C36.2169302,144.142049 40.719259,134.434951 40.1616549,134.301431 C39.7389132,134.19999 36.7304447,138.041733 35.1881723,140.138174 C34.6469937,140.87427 33.1332499,141.575685 31.9168949,141.224544 C30.9045626,140.93236 30.9097496,140.103494 31.0964821,139.448898 C32.5047566,134.511248 37.0762456,129.049055 40.8057093,126.14022 C44.0009104,123.647553 51.7174594,125.78301 57.73699,127.412998 C63.0545447,128.85311 62.3923358,143.007126 62.9603139,146.433569" id="Fill-91" fill="#FFFFFF"></path>
                            <path d="M62.9603139,146.433569 C63.0467642,146.953778 63.0528157,147.571092 62.3274981,147.893622 C61.7776745,148.136386 59.6648305,148.814391 58.1614607,147.457513 C56.3779921,145.845733 55.0751869,140.041936 54.6619548,136.684854 C54.1856139,140.447699 52.9191178,144.418626 52.121182,148.167598 C51.9742166,148.862077 51.8039096,149.583433 51.1365137,150.173003 C50.4691178,150.763441 49.1490226,151.174406 48.0312209,150.926439 C46.7111256,150.633388 46.2494813,149.666667 46.2745519,148.841269 C46.4094142,144.33626 47.1148483,139.69513 47.2782392,136.060604 C45.0071912,139.398611 43.3577205,142.496455 41.9226465,145.918562 C41.7359139,146.365075 41.0183769,148.217018 38.1153776,147.770505 C36.846288,147.57456 36.2670713,146.738758 36.2523748,145.974918 C36.2169302,144.142049 40.719259,134.434951 40.1616549,134.301431 C39.7389132,134.19999 36.7304447,138.041733 35.1881723,140.138174 C34.6469937,140.87427 33.1332499,141.575685 31.9168949,141.224544 C30.9045626,140.93236 30.9097496,140.103494 31.0964821,139.448898 C32.5047566,134.511248 37.0762456,129.049055 40.8057093,126.14022 C44.0009104,123.647553 51.7174594,125.78301 57.73699,127.412998 C63.0545447,128.85311 62.3923358,143.007126 62.9603139,146.433569 Z" id="Stroke-93" stroke="#4A1EE3"></path>
                            <g id="Group-97" transform="translate(228.000000, 166.000000)" fill="#FFFFFF">
                                <path d="M143.575369,40.0497296 C156.09444,33.9802852 154.642169,74.6485444 153.308416,77.5184333 C136.976169,112.674359 93.9697224,102.438507 56.6821812,80.6302481 C34.0204047,67.3754333 -10.8247835,36.086063 2.53164,5.41258148 C5.48341647,-1.36901111 36.3804518,-3.05227037 36.40364,8.53461852 C36.4457224,29.2039519 75.4689459,73.0666556 143.575369,40.0497296" id="Fill-95"></path>
                            </g>
                            <g id="Group-100" transform="translate(226.000000, 151.000000)" fill="#4A1EE3">
                                <path d="M52,37 C36.0423333,46.5368 15.1710018,60.66944 14.5658088,63.0311067 C14.5658088,63.0311067 -15.0181404,38.3716667 11,3.55271368e-15 C11,3.55271368e-15 48.570893,23.56916 54,36 L52,37 Z" id="Fill-98"></path>
                            </g>
                            <path d="M247.527742,93.7150874 C247.422698,90.3891507 243.363866,85.0438953 247.704251,83.4304913 C251.844879,81.8922883 256.509867,86.2052386 260.624665,86.2881306 C265.950913,86.3949503 269.434586,81.2761525 272.896734,79.0038849 C278.123965,75.5711285 282.438519,77.2024783 286.468077,80.9616755 C289.933668,84.1944654 287.273988,89.6080854 292.502081,92.2871223 C297.974702,95.0917791 306.039844,92.4956342 310.608398,88.474088 C313.909535,85.569448 313.511746,82.4605688 311.125869,79.4055268 C309.844676,77.7647769 307.897918,76.9879844 306.418691,75.6694026 C304.176604,73.6714478 303.480042,72.04608 304.032814,69.0124019 C304.443519,66.7580799 305.762597,64.9259092 305.924468,62.4459842 C306.673552,50.9735535 296.623767,56.5871399 290.072292,52.8390519 C282.868167,48.7175225 284.613447,38.0458119 274.596381,41.7793724 C268.114648,44.1952057 267.443055,51.4991062 260.550618,53.1620746 C252.268499,55.1608839 232.14396,42.2818521 230.729309,58.746606 C230.371127,62.9151361 232.800054,65.6804833 231.21234,69.5165906 C230.150706,72.0794077 227.521162,72.5451414 225.919671,74.5849695 C222.119144,79.4268907 222.03132,84.5089425 225.642424,90.0165637 C229.486001,95.8779717 238.377719,101.318083 245.394143,97.9818916 C247.368454,97.0435878 247.573376,95.1601436 247.527742,93.7150874" id="Fill-101" fill="#4A1EE3"></path>
                            <path d="M267.324277,66.3050947 C281.028187,64.9101738 293.431681,73.5332434 297,86.1481429 C296.856572,83.7279466 296.649688,81.7678865 296.51756,80.5163846 C294.932896,65.5017773 281.252456,54.5908326 265.963883,56.1479536 C250.67444,57.7042209 239.564407,71.1386577 241.150809,86.1541187 C241.3377,87.932344 241.677582,91.1379302 242.406023,95 C241.580224,80.5215067 252.481635,67.8169704 267.324277,66.3050947" id="Fill-103" fill="#50E3C2"></path>
                        </g>
                    </g>
                </g>
            </g>
        </g>
    </g>
</svg>