<?xml version="1.0" encoding="UTF-8"?>
<svg width="142px" height="88px" viewBox="0 0 142 88" version="1.1" xmlns="http://www.w3.org/2000/svg" xmlns:xlink="http://www.w3.org/1999/xlink">
    <!-- Generator: Sketch 63.1 (92452) - https://sketch.com -->
    <title>pelicula-modo-noc</title>
    <desc>Created with Sketch.</desc>
    <defs>
        <path d="M0.719656,0.111845161 C0.381128,0.111845161 0.107352,0.385496774 0.107352,0.723870968 L0.107352,0.723870968 C0.107352,1.0628129 0.381128,1.33589677 0.719656,1.33589677 L0.719656,1.33589677 L14.944648,1.33589677 C22.451336,1.33589677 28.557336,7.88025806 28.557336,15.9245935 L28.557336,15.9245935 L28.557336,28.4705548 C28.557336,37.1899355 35.655064,44.283871 44.37784,44.283871 L44.37784,44.283871 L67.192128,44.283871 C67.530656,44.283871 67.805,44.0102194 67.805,43.6718452 L67.805,43.6718452 C67.805,43.333471 67.530656,43.0598194 67.192128,43.0598194 L67.192128,43.0598194 L44.37784,43.0598194 C36.329848,43.0598194 29.782512,36.5148903 29.782512,28.4705548 L29.782512,28.4705548 L29.782512,15.9245935 C29.782512,7.2052129 23.12612,0.111845161 14.944648,0.111845161 L14.944648,0.111845161 L0.719656,0.111845161 Z" id="path-1"></path>
        <linearGradient x1="-0.000503163123%" y1="50.0001266%" x2="99.9995776%" y2="50.0001266%" id="linearGradient-3">
            <stop stop-color="#7C72FF" offset="0%"></stop>
            <stop stop-color="#6D64F4" offset="100%"></stop>
        </linearGradient>
        <path d="M43.580936,0.312825806 C19.549992,0.312825806 0,19.8539355 0,43.8722581 L0,43.8722581 C0,67.8911484 19.549992,87.4322581 43.580936,87.4322581 L43.580936,87.4322581 C67.610176,87.4322581 87.160168,67.8911484 87.160168,43.8722581 L87.160168,43.8722581 C87.160168,19.8539355 67.610176,0.312825806 43.580936,0.312825806 Z M1.224608,43.8722581 C1.224608,20.5284129 20.225912,1.53744516 43.580936,1.53744516 L43.580936,1.53744516 C66.935392,1.53744516 85.934992,20.5284129 85.934992,43.8722581 L85.934992,43.8722581 C85.934992,67.216671 66.935392,86.2082065 43.580936,86.2082065 L43.580936,86.2082065 C20.225912,86.2082065 1.224608,67.216671 1.224608,43.8722581 L1.224608,43.8722581 Z M9.63328,43.8722581 C9.63328,62.5827613 24.861928,77.8056258 43.580936,77.8056258 L43.580936,77.8056258 C62.29824,77.8056258 77.52632,62.5827613 77.52632,43.8722581 L77.52632,43.8722581 C77.52632,25.1623226 62.29824,9.94002581 43.580936,9.94002581 L43.580936,9.94002581 C24.861928,9.94002581 9.63328,25.1623226 9.63328,43.8722581 L9.63328,43.8722581 Z M10.858456,43.8722581 C10.858456,25.8368 25.53728,11.1640774 43.580936,11.1640774 L43.580936,11.1640774 C61.622888,11.1640774 76.300576,25.8368 76.300576,43.8722581 L76.300576,43.8722581 C76.300576,61.9088516 61.622888,76.5815742 43.580936,76.5815742 L43.580936,76.5815742 C25.53728,76.5815742 10.858456,61.9088516 10.858456,43.8722581 L10.858456,43.8722581 Z" id="path-4"></path>
        <linearGradient x1="0%" y1="49.9999039%" x2="100.000062%" y2="49.9999039%" id="linearGradient-6">
            <stop stop-color="#7C72FF" offset="0%"></stop>
            <stop stop-color="#6D64F4" offset="100%"></stop>
        </linearGradient>
        <path d="M0.54528,34.2206452 C0.54528,52.9311484 15.773928,68.1540129 34.492936,68.1540129 L34.492936,68.1540129 C53.21024,68.1540129 68.43832,52.9311484 68.43832,34.2206452 L68.43832,34.2206452 C68.43832,15.5107097 53.21024,0.288412903 34.492936,0.288412903 L34.492936,0.288412903 C15.773928,0.288412903 0.54528,15.5107097 0.54528,34.2206452 L0.54528,34.2206452 Z M1.770456,34.2206452 C1.770456,16.1851871 16.44928,1.51246452 34.492936,1.51246452 L34.492936,1.51246452 C52.534888,1.51246452 67.212576,16.1851871 67.212576,34.2206452 L67.212576,34.2206452 C67.212576,52.2572387 52.534888,66.9299613 34.492936,66.9299613 L34.492936,66.9299613 C16.44928,66.9299613 1.770456,52.2572387 1.770456,34.2206452 L1.770456,34.2206452 Z M38.724536,5.28965161 C38.588216,5.40717419 38.509264,5.57692903 38.509264,5.75633548 L38.509264,5.75633548 L38.509264,23.815071 C38.509264,24.0580645 38.652968,24.2766452 38.874488,24.3748645 L38.874488,24.3748645 C41.319728,25.4547097 43.26172,27.3958194 44.341488,29.8405161 L44.341488,29.8405161 C44.438048,30.0613677 44.658432,30.2050065 44.900968,30.2050065 L44.900968,30.2050065 L62.969048,30.2050065 C63.148536,30.2050065 63.318936,30.1260903 63.435944,29.9898323 L63.435944,29.9898323 C63.551248,29.8535742 63.602368,29.6730323 63.574536,29.4964645 L63.574536,29.4964645 C61.566088,16.9419871 51.778312,7.15865806 39.218128,5.15112258 L39.218128,5.15112258 C39.187456,5.14658065 39.156784,5.14430968 39.126112,5.14430968 L39.126112,5.14430968 C38.980136,5.14430968 38.837568,5.19483871 38.724536,5.28965161 L38.724536,5.28965161 Z M39.733872,23.4244645 L39.733872,6.48304516 C51.19384,8.61150968 60.112576,17.527329 62.242008,28.9809548 L62.242008,28.9809548 L45.293456,28.9809548 C44.119968,26.5493161 42.167752,24.5968516 39.733872,23.4244645 L39.733872,23.4244645 Z M29.719464,5.15112258 C17.15928,7.15865806 7.370368,16.9419871 5.36192,29.4964645 L5.36192,29.4964645 C5.334656,29.6730323 5.38464,29.8535742 5.500512,29.9898323 L5.500512,29.9898323 C5.61752,30.1260903 5.787352,30.2050065 5.967408,30.2050065 L5.967408,30.2050065 L24.034352,30.2050065 C24.276888,30.2050065 24.495568,30.0613677 24.593832,29.8405161 L24.593832,29.8405161 C25.675872,27.3946839 27.619,25.4541419 30.063104,24.3748645 L30.063104,24.3748645 C30.284624,24.2766452 30.428328,24.0580645 30.428328,23.815071 L30.428328,23.815071 L30.428328,5.75633548 C30.428328,5.57692903 30.349376,5.40717419 30.213056,5.28965161 L30.213056,5.28965161 C30.100024,5.19483871 29.957456,5.14430968 29.81148,5.14430968 L29.81148,5.14430968 C29.780808,5.14430968 29.750136,5.14658065 29.719464,5.15112258 L29.719464,5.15112258 Z M29.20372,6.48304516 L29.20372,23.4244645 C26.770408,24.5951484 24.817624,26.5481806 23.643,28.9809548 L23.643,28.9809548 L6.694448,28.9809548 C8.823312,17.5261935 17.743752,8.61150968 29.20372,6.48304516 L29.20372,6.48304516 Z M26.423928,34.2206452 C26.423928,38.6677677 30.043224,42.2854194 34.492936,42.2854194 L34.492936,42.2854194 C38.941512,42.2854194 42.56024,38.6677677 42.56024,34.2206452 L42.56024,34.2206452 C42.56024,29.7746581 38.941512,26.1570065 34.492936,26.1570065 L34.492936,26.1570065 C30.043224,26.1570065 26.423928,29.7746581 26.423928,34.2206452 L26.423928,34.2206452 Z M27.649104,34.2206452 C27.649104,30.4497032 30.718576,27.3816258 34.492936,27.3816258 L34.492936,27.3816258 C38.266728,27.3816258 41.335632,30.4497032 41.335632,34.2206452 L41.335632,34.2206452 C41.335632,37.9927226 38.266728,41.0608 34.492936,41.0608 L34.492936,41.0608 C30.718576,41.0608 27.649104,37.9927226 27.649104,34.2206452 L27.649104,34.2206452 Z M44.900968,38.282271 C44.658432,38.282271 44.438048,38.4264774 44.341488,38.6467613 L44.341488,38.6467613 C43.26172,41.0920258 41.319728,43.0325677 38.874488,44.1124129 L38.874488,44.1124129 C38.652968,44.2112 38.509264,44.4297806 38.509264,44.6722065 L38.509264,44.6722065 L38.509264,62.7320774 C38.509264,62.9120516 38.588216,63.0823742 38.724536,63.199329 L38.724536,63.199329 C38.835296,63.2930065 38.977296,63.344671 39.121568,63.344671 L39.121568,63.344671 C39.153944,63.344671 39.18632,63.3424 39.218128,63.3378581 L39.218128,63.3378581 C51.778312,61.3291871 61.566088,51.5441548 63.574536,38.9908129 L63.574536,38.9908129 C63.602368,38.8142452 63.551248,38.634271 63.435944,38.4980129 L63.435944,38.4980129 C63.318936,38.3617548 63.148536,38.282271 62.969048,38.282271 L62.969048,38.282271 L44.900968,38.282271 Z M39.733872,45.0633806 C42.167752,43.8904258 44.119968,41.938529 45.293456,39.5063226 L45.293456,39.5063226 L62.242008,39.5063226 C60.11428,50.9605161 51.19384,59.8763355 39.733872,62.0059355 L39.733872,62.0059355 L39.733872,45.0633806 Z M5.967408,38.282271 C5.787352,38.282271 5.61752,38.3617548 5.500512,38.4980129 L5.500512,38.4980129 C5.38464,38.634271 5.334656,38.8142452 5.36192,38.9908129 L5.36192,38.9908129 C7.370368,51.5441548 17.158144,61.3291871 29.719464,63.3378581 L29.719464,63.3378581 C29.751272,63.3424 29.783648,63.344671 29.816024,63.344671 L29.816024,63.344671 C29.960296,63.344671 30.102296,63.2930065 30.213056,63.199329 L30.213056,63.199329 C30.349376,63.0823742 30.428328,62.9120516 30.428328,62.7320774 L30.428328,62.7320774 L30.428328,44.6722065 C30.428328,44.4297806 30.284624,44.2112 30.063104,44.1124129 L30.063104,44.1124129 C27.619,43.0337032 25.675872,41.0931613 24.593832,38.6467613 L24.593832,38.6467613 C24.495568,38.4264774 24.276888,38.282271 24.034352,38.282271 L24.034352,38.282271 L5.967408,38.282271 Z M6.694448,39.5063226 L23.643,39.5063226 C24.817624,41.9396645 26.770408,43.8915613 29.20372,45.0633806 L29.20372,45.0633806 L29.20372,62.0059355 C17.743752,59.8763355 8.823312,50.9605161 6.694448,39.5063226 L6.694448,39.5063226 Z" id="path-7"></path>
        <linearGradient x1="-0.000501798712%" y1="49.9998732%" x2="99.9993249%" y2="49.9998732%" id="linearGradient-9">
            <stop stop-color="#7C72FF" offset="0%"></stop>
            <stop stop-color="#6D64F4" offset="100%"></stop>
        </linearGradient>
        <path d="M0.295928,8.10451613 C0.295928,12.5516387 3.915224,16.1692903 8.364936,16.1692903 L8.364936,16.1692903 C12.813512,16.1692903 16.43224,12.5516387 16.43224,8.10451613 L16.43224,8.10451613 C16.43224,3.65852903 12.813512,0.0408774194 8.364936,0.0408774194 L8.364936,0.0408774194 C3.915224,0.0408774194 0.295928,3.65852903 0.295928,8.10451613 M1.521104,8.10451613 C1.521104,4.33357419 4.590576,1.26549677 8.364936,1.26549677 L8.364936,1.26549677 C12.138728,1.26549677 15.207632,4.33357419 15.207632,8.10451613 L15.207632,8.10451613 C15.207632,11.8765935 12.138728,14.944671 8.364936,14.944671 L8.364936,14.944671 C4.590576,14.944671 1.521104,11.8765935 1.521104,8.10451613" id="path-10"></path>
        <linearGradient x1="-1.37280439e-05%" y1="49.9994663%" x2="100.000337%" y2="49.9994663%" id="linearGradient-12">
            <stop stop-color="#7C72FF" offset="0%"></stop>
            <stop stop-color="#6D64F4" offset="100%"></stop>
        </linearGradient>
        <path d="M0.668536,0.179974194 C0.532216,0.297496774 0.453264,0.467251613 0.453264,0.646658065 L0.453264,0.646658065 L0.453264,18.7053935 C0.453264,18.9483871 0.596968,19.1669677 0.818488,19.2651871 L0.818488,19.2651871 C3.263728,20.3450323 5.20572,22.2861419 6.285488,24.7308387 L6.285488,24.7308387 C6.382048,24.9516903 6.602432,25.095329 6.844968,25.095329 L6.844968,25.095329 L24.913048,25.095329 C25.092536,25.095329 25.262936,25.0164129 25.379944,24.8801548 L25.379944,24.8801548 C25.495248,24.7438968 25.546368,24.5633548 25.518536,24.3867871 L25.518536,24.3867871 C23.510088,11.8323097 13.722312,2.04898065 1.162128,0.0414451613 L1.162128,0.0414451613 C1.131456,0.0369032258 1.100784,0.0346322581 1.070112,0.0346322581 L1.070112,0.0346322581 C0.924136,0.0346322581 0.781568,0.0851612903 0.668536,0.179974194 M1.677872,18.3147871 L1.677872,1.37336774 C13.13784,3.50183226 22.056576,12.4176516 24.186008,23.8712774 L24.186008,23.8712774 L7.237456,23.8712774 C6.063968,21.4396387 4.111752,19.4871742 1.677872,18.3147871" id="path-13"></path>
        <linearGradient x1="-0.000457159934%" y1="50.0004499%" x2="99.9993273%" y2="50.0004499%" id="linearGradient-15">
            <stop stop-color="#7C72FF" offset="0%"></stop>
            <stop stop-color="#6D64F4" offset="100%"></stop>
        </linearGradient>
        <path d="M24.607464,0.0414451613 C12.04728,2.04898065 2.258368,11.8323097 0.24992,24.3867871 L0.24992,24.3867871 C0.222656,24.5633548 0.27264,24.7438968 0.388512,24.8801548 L0.388512,24.8801548 C0.50552,25.0164129 0.675352,25.095329 0.855408,25.095329 L0.855408,25.095329 L18.922352,25.095329 C19.164888,25.095329 19.383568,24.9516903 19.481832,24.7308387 L19.481832,24.7308387 C20.563872,22.2850065 22.507,20.3444645 24.951104,19.2651871 L24.951104,19.2651871 C25.172624,19.1669677 25.316328,18.9483871 25.316328,18.7053935 L25.316328,18.7053935 L25.316328,0.646658065 C25.316328,0.467251613 25.237376,0.297496774 25.101056,0.179974194 L25.101056,0.179974194 C24.988024,0.0851612903 24.845456,0.0346322581 24.69948,0.0346322581 L24.69948,0.0346322581 C24.668808,0.0346322581 24.638136,0.0369032258 24.607464,0.0414451613 M24.09172,1.37336774 L24.09172,18.3147871 C21.658408,19.485471 19.705624,21.4385032 18.531,23.8712774 L18.531,23.8712774 L1.582448,23.8712774 C3.711312,12.4165161 12.631752,3.50183226 24.09172,1.37336774" id="path-16"></path>
        <linearGradient x1="-0.000463957632%" y1="50.0004499%" x2="100.000443%" y2="50.0004499%" id="linearGradient-18">
            <stop stop-color="#7C72FF" offset="0%"></stop>
            <stop stop-color="#6D64F4" offset="100%"></stop>
        </linearGradient>
        <path d="M0.855408,0.24356129 C0.675352,0.24356129 0.50552,0.323045161 0.388512,0.459303226 L0.388512,0.459303226 C0.27264,0.59556129 0.222656,0.775535484 0.24992,0.952103226 L0.24992,0.952103226 C2.258368,13.5054452 12.046144,23.2904774 24.607464,25.2991484 L24.607464,25.2991484 C24.639272,25.3036903 24.671648,25.3059613 24.704024,25.3059613 L24.704024,25.3059613 C24.848296,25.3059613 24.990296,25.2542968 25.101056,25.1606194 L25.101056,25.1606194 C25.237376,25.0436645 25.316328,24.8733419 25.316328,24.6933677 L25.316328,24.6933677 L25.316328,6.63349677 C25.316328,6.39107097 25.172624,6.17249032 24.951104,6.07370323 L24.951104,6.07370323 C22.507,4.99499355 20.563872,3.05445161 19.481832,0.608051613 L19.481832,0.608051613 C19.383568,0.387767742 19.164888,0.24356129 18.922352,0.24356129 L18.922352,0.24356129 L0.855408,0.24356129 Z M1.582448,1.4676129 L18.531,1.4676129 C19.705624,3.90095484 21.658408,5.85285161 24.09172,7.02467097 L24.09172,7.02467097 L24.09172,23.9672258 C12.631752,21.8376258 3.711312,12.9218065 1.582448,1.4676129 L1.582448,1.4676129 Z" id="path-19"></path>
        <linearGradient x1="-0.000463957632%" y1="49.9998865%" x2="100.000443%" y2="49.9998865%" id="linearGradient-21">
            <stop stop-color="#7C72FF" offset="0%"></stop>
            <stop stop-color="#6D64F4" offset="100%"></stop>
        </linearGradient>
        <path d="M6.844968,0.24356129 C6.602432,0.24356129 6.382048,0.387767742 6.285488,0.608051613 L6.285488,0.608051613 C5.20572,3.05331613 3.263728,4.99385806 0.818488,6.07370323 L0.818488,6.07370323 C0.596968,6.17249032 0.453264,6.39107097 0.453264,6.63349677 L0.453264,6.63349677 L0.453264,24.6933677 C0.453264,24.8733419 0.532216,25.0436645 0.668536,25.1606194 L0.668536,25.1606194 C0.779296,25.2542968 0.921296,25.3059613 1.065568,25.3059613 L1.065568,25.3059613 C1.097944,25.3059613 1.13032,25.3036903 1.162128,25.2991484 L1.162128,25.2991484 C13.722312,23.2904774 23.510088,13.5054452 25.518536,0.952103226 L25.518536,0.952103226 C25.546368,0.775535484 25.495248,0.59556129 25.379944,0.459303226 L25.379944,0.459303226 C25.262936,0.323045161 25.092536,0.24356129 24.913048,0.24356129 L24.913048,0.24356129 L6.844968,0.24356129 Z M1.677872,7.02467097 C4.111752,5.85171613 6.063968,3.89981935 7.237456,1.4676129 L7.237456,1.4676129 L24.186008,1.4676129 C22.05828,12.9218065 13.13784,21.8376258 1.677872,23.9672258 L1.677872,23.9672258 L1.677872,7.02467097 Z" id="path-22"></path>
        <linearGradient x1="-0.000457159934%" y1="49.9998865%" x2="99.9993273%" y2="49.9998865%" id="linearGradient-24">
            <stop stop-color="#7C72FF" offset="0%"></stop>
            <stop stop-color="#6D64F4" offset="100%"></stop>
        </linearGradient>
    </defs>
    <g id="GIFOS" stroke="none" stroke-width="1" fill="none" fill-rule="evenodd">
        <g id="16-UI-Kit-Modo-Nocturno" transform="translate(-422.000000, -2133.000000)">
            <g id="pelicula-modo-noc" transform="translate(422.000000, 2133.000000)">
                <g id="Group-39">
                    <g id="Group-3" transform="translate(73.840000, 43.403303)">
                        <mask id="mask-2" fill="white">
                            <use xlink:href="#path-1"></use>
                        </mask>
                        <g id="Clip-2"></g>
                        <path d="M0.719656,0.111845161 C0.381128,0.111845161 0.107352,0.385496774 0.107352,0.723870968 L0.107352,0.723870968 C0.107352,1.0628129 0.381128,1.33589677 0.719656,1.33589677 L0.719656,1.33589677 L14.944648,1.33589677 C22.451336,1.33589677 28.557336,7.88025806 28.557336,15.9245935 L28.557336,15.9245935 L28.557336,28.4705548 C28.557336,37.1899355 35.655064,44.283871 44.37784,44.283871 L44.37784,44.283871 L67.192128,44.283871 C67.530656,44.283871 67.805,44.0102194 67.805,43.6718452 L67.805,43.6718452 C67.805,43.333471 67.530656,43.0598194 67.192128,43.0598194 L67.192128,43.0598194 L44.37784,43.0598194 C36.329848,43.0598194 29.782512,36.5148903 29.782512,28.4705548 L29.782512,28.4705548 L29.782512,15.9245935 C29.782512,7.2052129 23.12612,0.111845161 14.944648,0.111845161 L14.944648,0.111845161 L0.719656,0.111845161 Z" id="Fill-1" fill="url(#linearGradient-3)" mask="url(#mask-2)"></path>
                    </g>
                    <path d="M43.580652,77.4484026 C25.168932,77.4484026 10.245868,62.5298477 10.245868,44.1276284 C10.245868,25.725409 25.168932,10.8068542 43.580652,10.8068542 C61.991236,10.8068542 76.913164,25.725409 76.913164,44.1276284 C76.913164,62.5298477 61.991236,77.4484026 43.580652,77.4484026 M43.580652,1.17965419 C19.847908,1.17965419 0.612588,20.4073703 0.612588,44.1276284 C0.612588,67.8473187 19.847908,87.0750348 43.580652,87.0750348 C67.311124,87.0750348 86.54758,67.8473187 86.54758,44.1276284 C86.54758,20.4073703 67.311124,1.17965419 43.580652,1.17965419" id="Fill-4" fill="#37383C"></path>
                    <g id="Group-8" transform="translate(0.000000, 0.254916)">
                        <mask id="mask-5" fill="white">
                            <use xlink:href="#path-4"></use>
                        </mask>
                        <g id="Clip-7"></g>
                        <path d="M43.580936,0.312825806 C19.549992,0.312825806 0,19.8539355 0,43.8722581 L0,43.8722581 C0,67.8911484 19.549992,87.4322581 43.580936,87.4322581 L43.580936,87.4322581 C67.610176,87.4322581 87.160168,67.8911484 87.160168,43.8722581 L87.160168,43.8722581 C87.160168,19.8539355 67.610176,0.312825806 43.580936,0.312825806 Z M1.224608,43.8722581 C1.224608,20.5284129 20.225912,1.53744516 43.580936,1.53744516 L43.580936,1.53744516 C66.935392,1.53744516 85.934992,20.5284129 85.934992,43.8722581 L85.934992,43.8722581 C85.934992,67.216671 66.935392,86.2082065 43.580936,86.2082065 L43.580936,86.2082065 C20.225912,86.2082065 1.224608,67.216671 1.224608,43.8722581 L1.224608,43.8722581 Z M9.63328,43.8722581 C9.63328,62.5827613 24.861928,77.8056258 43.580936,77.8056258 L43.580936,77.8056258 C62.29824,77.8056258 77.52632,62.5827613 77.52632,43.8722581 L77.52632,43.8722581 C77.52632,25.1623226 62.29824,9.94002581 43.580936,9.94002581 L43.580936,9.94002581 C24.861928,9.94002581 9.63328,25.1623226 9.63328,43.8722581 L9.63328,43.8722581 Z M10.858456,43.8722581 C10.858456,25.8368 25.53728,11.1640774 43.580936,11.1640774 L43.580936,11.1640774 C61.622888,11.1640774 76.300576,25.8368 76.300576,43.8722581 L76.300576,43.8722581 C76.300576,61.9088516 61.622888,76.5815742 43.580936,76.5815742 L43.580936,76.5815742 C25.53728,76.5815742 10.858456,61.9088516 10.858456,43.8722581 L10.858456,43.8722581 Z" id="Fill-6" fill="url(#linearGradient-6)" mask="url(#mask-5)"></path>
                    </g>
                    <path d="M48.2095112,72.6386632 L48.2095112,54.5787923 C50.7848232,53.4416052 52.8529112,51.3750245 53.9889112,48.8008826 L72.0569912,48.8008826 C70.1042072,61.0152826 60.4277592,70.685631 48.2095112,72.6386632 L48.2095112,72.6386632 Z M36.1241752,44.127231 C36.1241752,40.0099665 39.4640152,36.6756181 43.5808792,36.6756181 C47.6966072,36.6756181 51.0358792,40.0099665 51.0358792,44.127231 C51.0358792,48.2439277 47.6966072,51.5794116 43.5808792,51.5794116 C39.4640152,51.5794116 36.1241752,48.2439277 36.1241752,44.127231 L36.1241752,44.127231 Z M38.9039672,72.6386632 C26.6840152,70.685631 17.0081352,61.0152826 15.0553512,48.8008826 L33.1222952,48.8008826 C34.2605672,51.3750245 36.3275192,53.4416052 38.9039672,54.5787923 L38.9039672,72.6386632 Z M38.9039672,15.6629213 L38.9039672,33.7216568 C36.3275192,34.8582761 34.2605672,36.9254245 33.1222952,39.4995665 L15.0553512,39.4995665 C17.0081352,27.2857342 26.6840152,17.6148181 38.9039672,15.6629213 L38.9039672,15.6629213 Z M48.2095112,15.6629213 C60.4277592,17.6148181 70.1042072,27.2857342 72.0569912,39.4995665 L53.9889112,39.4995665 C52.8529112,36.9254245 50.7848232,34.8582761 48.2095112,33.7216568 L48.2095112,15.6629213 Z M43.5808792,10.8070245 C25.1691592,10.8070245 10.2460952,25.7255794 10.2460952,44.127231 C10.2460952,62.5294503 25.1691592,77.4485729 43.5808792,77.4485729 C61.9908952,77.4485729 76.9133912,62.5294503 76.9133912,44.127231 C76.9133912,25.7255794 61.9908952,10.8070245 43.5808792,10.8070245 L43.5808792,10.8070245 Z" id="Fill-9" fill="#37383C"></path>
                    <g id="Group-13" transform="translate(9.088000, 9.906529)">
                        <mask id="mask-8" fill="white">
                            <use xlink:href="#path-7"></use>
                        </mask>
                        <g id="Clip-12"></g>
                        <path d="M0.54528,34.2206452 C0.54528,52.9311484 15.773928,68.1540129 34.492936,68.1540129 L34.492936,68.1540129 C53.21024,68.1540129 68.43832,52.9311484 68.43832,34.2206452 L68.43832,34.2206452 C68.43832,15.5107097 53.21024,0.288412903 34.492936,0.288412903 L34.492936,0.288412903 C15.773928,0.288412903 0.54528,15.5107097 0.54528,34.2206452 L0.54528,34.2206452 Z M1.770456,34.2206452 C1.770456,16.1851871 16.44928,1.51246452 34.492936,1.51246452 L34.492936,1.51246452 C52.534888,1.51246452 67.212576,16.1851871 67.212576,34.2206452 L67.212576,34.2206452 C67.212576,52.2572387 52.534888,66.9299613 34.492936,66.9299613 L34.492936,66.9299613 C16.44928,66.9299613 1.770456,52.2572387 1.770456,34.2206452 L1.770456,34.2206452 Z M38.724536,5.28965161 C38.588216,5.40717419 38.509264,5.57692903 38.509264,5.75633548 L38.509264,5.75633548 L38.509264,23.815071 C38.509264,24.0580645 38.652968,24.2766452 38.874488,24.3748645 L38.874488,24.3748645 C41.319728,25.4547097 43.26172,27.3958194 44.341488,29.8405161 L44.341488,29.8405161 C44.438048,30.0613677 44.658432,30.2050065 44.900968,30.2050065 L44.900968,30.2050065 L62.969048,30.2050065 C63.148536,30.2050065 63.318936,30.1260903 63.435944,29.9898323 L63.435944,29.9898323 C63.551248,29.8535742 63.602368,29.6730323 63.574536,29.4964645 L63.574536,29.4964645 C61.566088,16.9419871 51.778312,7.15865806 39.218128,5.15112258 L39.218128,5.15112258 C39.187456,5.14658065 39.156784,5.14430968 39.126112,5.14430968 L39.126112,5.14430968 C38.980136,5.14430968 38.837568,5.19483871 38.724536,5.28965161 L38.724536,5.28965161 Z M39.733872,23.4244645 L39.733872,6.48304516 C51.19384,8.61150968 60.112576,17.527329 62.242008,28.9809548 L62.242008,28.9809548 L45.293456,28.9809548 C44.119968,26.5493161 42.167752,24.5968516 39.733872,23.4244645 L39.733872,23.4244645 Z M29.719464,5.15112258 C17.15928,7.15865806 7.370368,16.9419871 5.36192,29.4964645 L5.36192,29.4964645 C5.334656,29.6730323 5.38464,29.8535742 5.500512,29.9898323 L5.500512,29.9898323 C5.61752,30.1260903 5.787352,30.2050065 5.967408,30.2050065 L5.967408,30.2050065 L24.034352,30.2050065 C24.276888,30.2050065 24.495568,30.0613677 24.593832,29.8405161 L24.593832,29.8405161 C25.675872,27.3946839 27.619,25.4541419 30.063104,24.3748645 L30.063104,24.3748645 C30.284624,24.2766452 30.428328,24.0580645 30.428328,23.815071 L30.428328,23.815071 L30.428328,5.75633548 C30.428328,5.57692903 30.349376,5.40717419 30.213056,5.28965161 L30.213056,5.28965161 C30.100024,5.19483871 29.957456,5.14430968 29.81148,5.14430968 L29.81148,5.14430968 C29.780808,5.14430968 29.750136,5.14658065 29.719464,5.15112258 L29.719464,5.15112258 Z M29.20372,6.48304516 L29.20372,23.4244645 C26.770408,24.5951484 24.817624,26.5481806 23.643,28.9809548 L23.643,28.9809548 L6.694448,28.9809548 C8.823312,17.5261935 17.743752,8.61150968 29.20372,6.48304516 L29.20372,6.48304516 Z M26.423928,34.2206452 C26.423928,38.6677677 30.043224,42.2854194 34.492936,42.2854194 L34.492936,42.2854194 C38.941512,42.2854194 42.56024,38.6677677 42.56024,34.2206452 L42.56024,34.2206452 C42.56024,29.7746581 38.941512,26.1570065 34.492936,26.1570065 L34.492936,26.1570065 C30.043224,26.1570065 26.423928,29.7746581 26.423928,34.2206452 L26.423928,34.2206452 Z M27.649104,34.2206452 C27.649104,30.4497032 30.718576,27.3816258 34.492936,27.3816258 L34.492936,27.3816258 C38.266728,27.3816258 41.335632,30.4497032 41.335632,34.2206452 L41.335632,34.2206452 C41.335632,37.9927226 38.266728,41.0608 34.492936,41.0608 L34.492936,41.0608 C30.718576,41.0608 27.649104,37.9927226 27.649104,34.2206452 L27.649104,34.2206452 Z M44.900968,38.282271 C44.658432,38.282271 44.438048,38.4264774 44.341488,38.6467613 L44.341488,38.6467613 C43.26172,41.0920258 41.319728,43.0325677 38.874488,44.1124129 L38.874488,44.1124129 C38.652968,44.2112 38.509264,44.4297806 38.509264,44.6722065 L38.509264,44.6722065 L38.509264,62.7320774 C38.509264,62.9120516 38.588216,63.0823742 38.724536,63.199329 L38.724536,63.199329 C38.835296,63.2930065 38.977296,63.344671 39.121568,63.344671 L39.121568,63.344671 C39.153944,63.344671 39.18632,63.3424 39.218128,63.3378581 L39.218128,63.3378581 C51.778312,61.3291871 61.566088,51.5441548 63.574536,38.9908129 L63.574536,38.9908129 C63.602368,38.8142452 63.551248,38.634271 63.435944,38.4980129 L63.435944,38.4980129 C63.318936,38.3617548 63.148536,38.282271 62.969048,38.282271 L62.969048,38.282271 L44.900968,38.282271 Z M39.733872,45.0633806 C42.167752,43.8904258 44.119968,41.938529 45.293456,39.5063226 L45.293456,39.5063226 L62.242008,39.5063226 C60.11428,50.9605161 51.19384,59.8763355 39.733872,62.0059355 L39.733872,62.0059355 L39.733872,45.0633806 Z M5.967408,38.282271 C5.787352,38.282271 5.61752,38.3617548 5.500512,38.4980129 L5.500512,38.4980129 C5.38464,38.634271 5.334656,38.8142452 5.36192,38.9908129 L5.36192,38.9908129 C7.370368,51.5441548 17.158144,61.3291871 29.719464,63.3378581 L29.719464,63.3378581 C29.751272,63.3424 29.783648,63.344671 29.816024,63.344671 L29.816024,63.344671 C29.960296,63.344671 30.102296,63.2930065 30.213056,63.199329 L30.213056,63.199329 C30.349376,63.0823742 30.428328,62.9120516 30.428328,62.7320774 L30.428328,62.7320774 L30.428328,44.6722065 C30.428328,44.4297806 30.284624,44.2112 30.063104,44.1124129 L30.063104,44.1124129 C27.619,43.0337032 25.675872,41.0931613 24.593832,38.6467613 L24.593832,38.6467613 C24.495568,38.4264774 24.276888,38.282271 24.034352,38.282271 L24.034352,38.282271 L5.967408,38.282271 Z M6.694448,39.5063226 L23.643,39.5063226 C24.817624,41.9396645 26.770408,43.8915613 29.20372,45.0633806 L29.20372,45.0633806 L29.20372,62.0059355 C17.743752,59.8763355 8.823312,50.9605161 6.694448,39.5063226 L6.694448,39.5063226 Z" id="Fill-11" fill="url(#linearGradient-9)" mask="url(#mask-8)"></path>
                    </g>
                    <path d="M43.580652,36.6757316 C39.463788,36.6757316 36.124516,40.01008 36.124516,44.1273445 C36.124516,48.2440413 39.463788,51.5795252 43.580652,51.5795252 C47.69638,51.5795252 51.035652,48.2440413 51.035652,44.1273445 C51.035652,40.01008 47.69638,36.6757316 43.580652,36.6757316" id="Fill-14" fill="#37383C"></path>
                    <g id="Group-18" transform="translate(35.216000, 36.022658)">
                        <mask id="mask-11" fill="white">
                            <use xlink:href="#path-10"></use>
                        </mask>
                        <g id="Clip-17"></g>
                        <path d="M0.295928,8.10451613 C0.295928,12.5516387 3.915224,16.1692903 8.364936,16.1692903 L8.364936,16.1692903 C12.813512,16.1692903 16.43224,12.5516387 16.43224,8.10451613 L16.43224,8.10451613 C16.43224,3.65852903 12.813512,0.0408774194 8.364936,0.0408774194 L8.364936,0.0408774194 C3.915224,0.0408774194 0.295928,3.65852903 0.295928,8.10451613 M1.521104,8.10451613 C1.521104,4.33357419 4.590576,1.26549677 8.364936,1.26549677 L8.364936,1.26549677 C12.138728,1.26549677 15.207632,4.33357419 15.207632,8.10451613 L15.207632,8.10451613 C15.207632,11.8765935 12.138728,14.944671 8.364936,14.944671 L8.364936,14.944671 C4.590576,14.944671 1.521104,11.8765935 1.521104,8.10451613" id="Fill-16" fill="url(#linearGradient-12)" mask="url(#mask-11)"></path>
                    </g>
                    <path d="M48.2095112,15.6626374 L48.2095112,33.7219406 C50.7848232,34.85856 52.8529112,36.9251406 53.9889112,39.4992826 L72.0569912,39.4992826 C70.1042072,27.2860181 60.4277592,17.6145342 48.2095112,15.6626374" id="Fill-19" fill="#37383C"></path>
                    <g id="Group-23" transform="translate(47.144000, 15.016206)">
                        <mask id="mask-14" fill="white">
                            <use xlink:href="#path-13"></use>
                        </mask>
                        <g id="Clip-22"></g>
                        <path d="M0.668536,0.179974194 C0.532216,0.297496774 0.453264,0.467251613 0.453264,0.646658065 L0.453264,0.646658065 L0.453264,18.7053935 C0.453264,18.9483871 0.596968,19.1669677 0.818488,19.2651871 L0.818488,19.2651871 C3.263728,20.3450323 5.20572,22.2861419 6.285488,24.7308387 L6.285488,24.7308387 C6.382048,24.9516903 6.602432,25.095329 6.844968,25.095329 L6.844968,25.095329 L24.913048,25.095329 C25.092536,25.095329 25.262936,25.0164129 25.379944,24.8801548 L25.379944,24.8801548 C25.495248,24.7438968 25.546368,24.5633548 25.518536,24.3867871 L25.518536,24.3867871 C23.510088,11.8323097 13.722312,2.04898065 1.162128,0.0414451613 L1.162128,0.0414451613 C1.131456,0.0369032258 1.100784,0.0346322581 1.070112,0.0346322581 L1.070112,0.0346322581 C0.924136,0.0346322581 0.781568,0.0851612903 0.668536,0.179974194 M1.677872,18.3147871 L1.677872,1.37336774 C13.13784,3.50183226 22.056576,12.4176516 24.186008,23.8712774 L24.186008,23.8712774 L7.237456,23.8712774 C6.063968,21.4396387 4.111752,19.4871742 1.677872,18.3147871" id="Fill-21" fill="url(#linearGradient-15)" mask="url(#mask-14)"></path>
                    </g>
                    <path d="M38.9040808,15.6626374 C26.6835608,17.6145342 17.0082488,27.2860181 15.0554648,39.4992826 L33.1224088,39.4992826 C34.2606808,36.9251406 36.3276328,34.85856 38.9040808,33.7219406 L38.9040808,15.6626374 Z" id="Fill-24" fill="#37383C"></path>
                    <g id="Group-28" transform="translate(14.200000, 15.016206)">
                        <mask id="mask-17" fill="white">
                            <use xlink:href="#path-16"></use>
                        </mask>
                        <g id="Clip-27"></g>
                        <path d="M24.607464,0.0414451613 C12.04728,2.04898065 2.258368,11.8323097 0.24992,24.3867871 L0.24992,24.3867871 C0.222656,24.5633548 0.27264,24.7438968 0.388512,24.8801548 L0.388512,24.8801548 C0.50552,25.0164129 0.675352,25.095329 0.855408,25.095329 L0.855408,25.095329 L18.922352,25.095329 C19.164888,25.095329 19.383568,24.9516903 19.481832,24.7308387 L19.481832,24.7308387 C20.563872,22.2850065 22.507,20.3444645 24.951104,19.2651871 L24.951104,19.2651871 C25.172624,19.1669677 25.316328,18.9483871 25.316328,18.7053935 L25.316328,18.7053935 L25.316328,0.646658065 C25.316328,0.467251613 25.237376,0.297496774 25.101056,0.179974194 L25.101056,0.179974194 C24.988024,0.0851612903 24.845456,0.0346322581 24.69948,0.0346322581 L24.69948,0.0346322581 C24.668808,0.0346322581 24.638136,0.0369032258 24.607464,0.0414451613 M24.09172,1.37336774 L24.09172,18.3147871 C21.658408,19.485471 19.705624,21.4385032 18.531,23.8712774 L18.531,23.8712774 L1.582448,23.8712774 C3.711312,12.4165161 12.631752,3.50183226 24.09172,1.37336774" id="Fill-26" fill="url(#linearGradient-18)" mask="url(#mask-17)"></path>
                    </g>
                    <path d="M33.1222952,48.8007123 L15.0553512,48.8007123 C17.0081352,61.01568 26.6840152,70.6854606 38.9039672,72.6384929 L38.9039672,54.5791897 C36.3275192,53.4420026 34.2605672,51.3748542 33.1222952,48.8007123" id="Fill-29" fill="#37383C"></path>
                    <g id="Group-33" transform="translate(14.200000, 47.945239)">
                        <mask id="mask-20" fill="white">
                            <use xlink:href="#path-19"></use>
                        </mask>
                        <g id="Clip-32"></g>
                        <path d="M0.855408,0.24356129 C0.675352,0.24356129 0.50552,0.323045161 0.388512,0.459303226 L0.388512,0.459303226 C0.27264,0.59556129 0.222656,0.775535484 0.24992,0.952103226 L0.24992,0.952103226 C2.258368,13.5054452 12.046144,23.2904774 24.607464,25.2991484 L24.607464,25.2991484 C24.639272,25.3036903 24.671648,25.3059613 24.704024,25.3059613 L24.704024,25.3059613 C24.848296,25.3059613 24.990296,25.2542968 25.101056,25.1606194 L25.101056,25.1606194 C25.237376,25.0436645 25.316328,24.8733419 25.316328,24.6933677 L25.316328,24.6933677 L25.316328,6.63349677 C25.316328,6.39107097 25.172624,6.17249032 24.951104,6.07370323 L24.951104,6.07370323 C22.507,4.99499355 20.563872,3.05445161 19.481832,0.608051613 L19.481832,0.608051613 C19.383568,0.387767742 19.164888,0.24356129 18.922352,0.24356129 L18.922352,0.24356129 L0.855408,0.24356129 Z M1.582448,1.4676129 L18.531,1.4676129 C19.705624,3.90095484 21.658408,5.85285161 24.09172,7.02467097 L24.09172,7.02467097 L24.09172,23.9672258 C12.631752,21.8376258 3.711312,12.9218065 1.582448,1.4676129 L1.582448,1.4676129 Z" id="Fill-31" fill="url(#linearGradient-21)" mask="url(#mask-20)"></path>
                    </g>
                    <path d="M48.2095112,72.6386632 C60.4277592,70.685631 70.1042072,61.0152826 72.0569912,48.8008826 L53.9889112,48.8008826 C52.8529112,51.3750245 50.7848232,53.4416052 48.2095112,54.5787923 L48.2095112,72.6386632 Z" id="Fill-34" fill="#37383C"></path>
                    <g id="Group-38" transform="translate(47.144000, 47.945239)">
                        <mask id="mask-23" fill="white">
                            <use xlink:href="#path-22"></use>
                        </mask>
                        <g id="Clip-37"></g>
                        <path d="M6.844968,0.24356129 C6.602432,0.24356129 6.382048,0.387767742 6.285488,0.608051613 L6.285488,0.608051613 C5.20572,3.05331613 3.263728,4.99385806 0.818488,6.07370323 L0.818488,6.07370323 C0.596968,6.17249032 0.453264,6.39107097 0.453264,6.63349677 L0.453264,6.63349677 L0.453264,24.6933677 C0.453264,24.8733419 0.532216,25.0436645 0.668536,25.1606194 L0.668536,25.1606194 C0.779296,25.2542968 0.921296,25.3059613 1.065568,25.3059613 L1.065568,25.3059613 C1.097944,25.3059613 1.13032,25.3036903 1.162128,25.2991484 L1.162128,25.2991484 C13.722312,23.2904774 23.510088,13.5054452 25.518536,0.952103226 L25.518536,0.952103226 C25.546368,0.775535484 25.495248,0.59556129 25.379944,0.459303226 L25.379944,0.459303226 C25.262936,0.323045161 25.092536,0.24356129 24.913048,0.24356129 L24.913048,0.24356129 L6.844968,0.24356129 Z M1.677872,7.02467097 C4.111752,5.85171613 6.063968,3.89981935 7.237456,1.4676129 L7.237456,1.4676129 L24.186008,1.4676129 C22.05828,12.9218065 13.13784,21.8376258 1.677872,23.9672258 L1.677872,23.9672258 L1.677872,7.02467097 Z" id="Fill-36" fill="url(#linearGradient-24)" mask="url(#mask-23)"></path>
                    </g>
                </g>
            </g>
        </g>
    </g>
</svg>