<?xml version="1.0" encoding="UTF-8"?>
<svg width="28px" height="21px" viewBox="0 0 28 21" version="1.1" xmlns="http://www.w3.org/2000/svg" xmlns:xlink="http://www.w3.org/1999/xlink">
    <!-- Generator: Sketch 63.1 (92452) - https://sketch.com -->
    <title>icon-favoritos</title>
    <desc>Created with Sketch.</desc>
    <g id="GIFOS" stroke="none" stroke-width="1" fill="none" fill-rule="evenodd">
        <g id="16-UI-Kit-Modo-Nocturno" transform="translate(-684.000000, -2777.000000)" fill="#50E3C2">
            <path d="M700.343231,2777 L700.343231,2779.33333 L699.031241,2779.33333 L698.012038,2779.33333 L697.987962,2779.33333 L697.225566,2779.33333 L695.656501,2779.33333 L695.656501,2777 L688.662654,2777 L688.662654,2779.33333 L686.331327,2779.33333 L686.331327,2781.66667 L684,2781.66667 L684,2784 L684,2786.33333 L686.331327,2786.33333 L686.331327,2788.66667 L688.662654,2788.66667 L688.662654,2791 L690.993981,2791 L690.993981,2793.33333 L693.325308,2793.33333 L693.325308,2795.66667 L695.656501,2795.66667 L695.656501,2798 L700.343231,2798 L700.343231,2795.66667 L702.674558,2795.66667 L702.674558,2793.33333 L705.006019,2793.33333 L705.006019,2791 L707.337346,2791 L707.337346,2788.66667 L709.668539,2788.66667 L709.668539,2786.33333 L712,2786.33333 L712,2781.66667 L709.668539,2781.66667 L709.668539,2779.33333 L707.337346,2779.33333 L707.337346,2777 L700.343231,2777 Z M688.666667,2781.40323 L691,2781.40323 L691,2779.03226 L693.333333,2779.03226 L693.333333,2781.40323 L691,2781.40323 L691,2783.77419 L688.666667,2783.77419 L688.666667,2781.40323 Z" id="icon-favoritos"></path>
        </g>
    </g>
</svg>