<?xml version="1.0" encoding="UTF-8"?>
<svg width="23px" height="21px" viewBox="0 0 23 21" version="1.1" xmlns="http://www.w3.org/2000/svg" xmlns:xlink="http://www.w3.org/1999/xlink">
    <!-- Generator: Sketch 63.1 (92452) - https://sketch.com -->
    <title>icon-mis-gifos</title>
    <desc>Created with Sketch.</desc>
    <g id="GIFOS" stroke="none" stroke-width="1" fill="none" fill-rule="evenodd">
        <g id="16-UI-Kit-Modo-Nocturno" transform="translate(-686.000000, -2819.000000)" fill="#50E3C2">
            <path d="M692.901055,2819 L692.901055,2821.09928 L690.601715,2821.09928 L690.601715,2823.20096 L690.598945,2823.20096 L688.299472,2823.20096 L688.299472,2827.39831 L686,2827.39831 L686,2829.49759 L686,2829.50229 L686,2831.60169 L688.299472,2831.60169 L688.299472,2835.79904 L690.598945,2835.79904 L690.598945,2837.90072 L690.601715,2837.90072 L692.901055,2837.90072 L692.901055,2840 L702.098813,2840 L702.098813,2837.90072 L704.398549,2837.90072 L704.398549,2835.80132 L704.398549,2835.79904 L704.401055,2835.79904 L706.70066,2835.79904 L706.70066,2831.60169 L709,2831.60169 L709,2827.39831 L706.70066,2827.39831 L706.70066,2823.20096 L704.401055,2823.20096 L704.398549,2823.20096 L704.398549,2821.09928 L702.098813,2821.09928 L702.098813,2819 L692.901055,2819 Z M699.964286,2829.28226 L702.190092,2829.28226 L702.190092,2827.25 L699.964286,2827.25 L699.964286,2829.28226 Z M692.571429,2829.28226 L694.797235,2829.28226 L694.797235,2827.25 L692.571429,2827.25 L692.571429,2829.28226 Z M695.627227,2833.78167 L697.976959,2833.78167 L700.326286,2833.78167 L702.675614,2833.78167 L702.675614,2831.75 L705.025346,2831.75 L705.025346,2833.78284 L702.675614,2833.78284 L702.675614,2835.81452 L700.326286,2835.81452 L697.976959,2835.81452 L695.627227,2835.81452 L693.277899,2835.81452 L693.277899,2833.78284 L690.928571,2833.78284 L690.928571,2831.75 L693.277899,2831.75 L693.277899,2833.78167 L695.627227,2833.78167 Z" id="icon-mis-gifos"></path>
        </g>
    </g>
</svg>