<?xml version="1.0" encoding="UTF-8"?>
<svg width="151px" height="150px" viewBox="0 0 151 150" version="1.1" xmlns="http://www.w3.org/2000/svg" xmlns:xlink="http://www.w3.org/1999/xlink">
    <!-- Generator: Sketch 63.1 (92452) - https://sketch.com -->
    <title>icon-fav-sin-contenido</title>
    <desc>Created with Sketch.</desc>
    <g id="GIFOS" stroke="none" stroke-width="1" fill="none" fill-rule="evenodd">
        <g id="06-Favoritos-sin-contenido" transform="translate(-645.000000, -275.000000)">
            <g id="icon-fav-sin-contenido" transform="translate(645.240469, 274.340426)">
                <circle id="Oval-3" fill="#F3F5F8" fill-rule="nonzero" cx="75" cy="75.6595745" r="75"></circle>
                <path d="M81.11973,48.3191489 L81.11973,54.2899682 L77.5586141,54.2899682 L74.7922054,54.2899682 L74.7268571,54.2899682 L72.6574963,54.2899682 L68.3986064,54.2899682 L68.3986064,48.3191489 L49.4153065,48.3191489 L49.4153065,54.2899682 L43.0874189,54.2899682 L43.0874189,60.2607875 L36.7595312,60.2607875 L36.7595312,66.2316068 L36.7595312,72.2024262 L43.0874189,72.2024262 L43.0874189,78.1732455 L49.4153065,78.1732455 L49.4153065,84.1440648 L55.7431942,84.1440648 L55.7431942,90.1148841 L62.0710818,90.1148841 L62.0710818,96.0857034 L68.3986064,96.0857034 L68.3986064,102.056523 L81.11973,102.056523 L81.11973,96.0857034 L87.4476176,96.0857034 L87.4476176,90.1148841 L93.7758683,90.1148841 L93.7758683,84.1440648 L100.103756,84.1440648 L100.103756,78.1732455 L106.431281,78.1732455 L106.431281,72.2024262 L112.759531,72.2024262 L112.759531,60.2607875 L106.431281,60.2607875 L106.431281,54.2899682 L100.103756,54.2899682 L100.103756,48.3191489 L81.11973,48.3191489 Z M49.5275312,59.4667956 L55.9115312,59.4667956 L55.9115312,53.4642166 L62.2955312,53.4642166 L62.2955312,59.4667956 L55.9115312,59.4667956 L55.9115312,65.4693746 L49.5275312,65.4693746 L49.5275312,59.4667956 Z" id="Fill-1" fill="#50E3C2"></path>
                <polygon id="Fill-1" fill="#F3F5F8" points="80.0755622 82.6595745 74.0507205 82.6595745 68.0248417 82.6595745 62 82.6595745 62 82.6628291 62 88.3320634 68.0248417 88.3320634 74.0507205 88.3320634 80.0755622 88.3320634 86.1004039 88.3320634 86.1004039 82.6628291 86.1004039 82.6595745"></polygon>
                <polygon id="Fill-2" fill="#F3F5F8" points="80.1915625 74.6728144 86.2164042 74.6728144 86.2164042 69 80.1915625 69"></polygon>
                <polygon id="Fill-3" fill="#F3F5F8" points="62 74.6728144 68.0248417 74.6728144 68.0248417 69 62 69"></polygon>
            </g>
        </g>
    </g>
</svg>