<?xml version="1.0" encoding="UTF-8"?>
<svg width="150px" height="150px" viewBox="0 0 150 150" version="1.1" xmlns="http://www.w3.org/2000/svg" xmlns:xlink="http://www.w3.org/1999/xlink">
    <!-- Generator: Sketch 63.1 (92452) - https://sketch.com -->
    <title>icon-mis-gifos-sin-contenido</title>
    <desc>Created with Sketch.</desc>
    <g id="GIFOS" stroke="none" stroke-width="1" fill="none" fill-rule="evenodd">
        <g id="08-Mis-Gifos-sin-contenido" transform="translate(-645.000000, -276.000000)">
            <g id="icon-mis-gifos-sin-contenido" transform="translate(645.000000, 276.000000)">
                <circle id="Oval-3" fill="#F3F5F8" fill-rule="nonzero" cx="75" cy="75" r="75"></circle>
                <path d="M59.8034874,41 L59.8034874,47.8976256 L52.2052312,47.8976256 L52.2052312,54.8031659 L52.1969485,54.8031659 L44.5982563,54.8031659 L44.5982563,68.5944597 L37,68.5944597 L37,75.4920853 L37,75.5075189 L37,82.4055403 L44.5982563,82.4055403 L44.5982563,96.1968341 L52.1969485,96.1968341 L52.1969485,103.102374 L52.2052312,103.102374 L59.8034874,103.102374 L59.8034874,110 L90.1965126,110 L90.1965126,103.102374 L97.7952048,103.102374 L97.7952048,96.2043531 L97.7952048,96.1968341 L97.8034874,96.1968341 L105.40218,96.1968341 L105.40218,82.4055403 L113,82.4055403 L113,68.5944597 L105.40218,68.5944597 L105.40218,54.8031659 L97.8034874,54.8031659 L97.7952048,54.8031659 L97.7952048,47.8976256 L90.1965126,47.8976256 L90.1965126,41 L59.8034874,41 Z M82,76 L90,76 L90,69 L82,69 L82,76 Z M60,76 L68,76 L68,69 L60,69 L60,76 Z M60,89.0040161 L60,89 L67.5,89 L75,89 L82.5,89 L90,89 L90,89.0040161 L90,96 L82.5,96 L75,96 L67.5,96 L60,96 L60,89.0040161 Z" id="Fill-1" fill="#50E3C2"></path>
            </g>
        </g>
    </g>
</svg>